G04 #@! TF.GenerationSoftware,KiCad,Pcbnew,(5.0.0)*
G04 #@! TF.CreationDate,2018-09-16T16:08:27-07:00*
G04 #@! TF.ProjectId,HamShieldMini1.2,48616D536869656C644D696E69312E32,rev?*
G04 #@! TF.SameCoordinates,PX459e440PY8f0d180*
G04 #@! TF.FileFunction,Paste,Top*
G04 #@! TF.FilePolarity,Positive*
%FSLAX46Y46*%
G04 Gerber Fmt 4.6, Leading zero omitted, Abs format (unit mm)*
G04 Created by KiCad (PCBNEW (5.0.0)) date 09/16/18 16:08:27*
%MOMM*%
%LPD*%
G01*
G04 APERTURE LIST*
%ADD10O,0.750000X0.300000*%
%ADD11O,0.300000X0.750000*%
%ADD12R,0.540000X0.540000*%
%ADD13R,0.600000X0.400000*%
%ADD14C,0.998220*%
%ADD15R,0.400000X0.600000*%
%ADD16R,0.800000X0.900000*%
%ADD17R,2.800000X2.000000*%
%ADD18R,2.800000X2.200000*%
%ADD19R,2.800000X2.800000*%
%ADD20R,0.254000X0.762000*%
%ADD21R,0.762000X0.254000*%
%ADD22R,2.999740X2.999740*%
%ADD23R,1.198880X0.548640*%
%ADD24R,0.750000X0.800000*%
%ADD25R,0.600000X0.500000*%
%ADD26C,0.500000*%
%ADD27C,0.150000*%
%ADD28R,0.500000X0.600000*%
%ADD29R,0.800000X0.750000*%
%ADD30R,0.700000X0.420000*%
%ADD31R,0.749300X0.398780*%
%ADD32R,1.000000X1.250000*%
%ADD33R,1.250000X1.000000*%
%ADD34R,4.064000X2.000000*%
%ADD35R,4.064000X1.524000*%
%ADD36R,0.800000X0.600000*%
%ADD37C,1.099820*%
%ADD38R,1.800000X2.230000*%
%ADD39R,2.230000X1.800000*%
%ADD40R,0.700000X0.300000*%
%ADD41R,0.375000X0.570000*%
%ADD42R,1.000000X0.600000*%
%ADD43R,0.650000X0.400000*%
G04 APERTURE END LIST*
D10*
G04 #@! TO.C,U11*
X23025000Y15000000D03*
X23025000Y14500000D03*
X23025000Y14000000D03*
X23025000Y13500000D03*
D11*
X23750000Y12775000D03*
X24250000Y12775000D03*
X24750000Y12775000D03*
X25250000Y12775000D03*
D10*
X25975000Y13500000D03*
X25975000Y14000000D03*
X25975000Y14500000D03*
X25975000Y15000000D03*
D11*
X25250000Y15725000D03*
X24750000Y15725000D03*
X24250000Y15725000D03*
X23750000Y15725000D03*
D12*
X24950000Y13800000D03*
X24950000Y14700000D03*
X24050000Y13800000D03*
X24050000Y14700000D03*
G04 #@! TD*
D13*
G04 #@! TO.C,R36*
X29700000Y27200000D03*
X29700000Y26300000D03*
G04 #@! TD*
G04 #@! TO.C,R37*
X28600000Y27200000D03*
X28600000Y26300000D03*
G04 #@! TD*
D14*
G04 #@! TO.C,FD1*
X63700000Y28500000D03*
G04 #@! TD*
D15*
G04 #@! TO.C,R1*
X28825000Y20125000D03*
X29725000Y20125000D03*
G04 #@! TD*
G04 #@! TO.C,R14*
X32225000Y20125000D03*
X33125000Y20125000D03*
G04 #@! TD*
G04 #@! TO.C,R15*
X36025000Y20125000D03*
X36925000Y20125000D03*
G04 #@! TD*
D13*
G04 #@! TO.C,R16*
X27500000Y27200000D03*
X27500000Y26300000D03*
G04 #@! TD*
D16*
G04 #@! TO.C,Q5*
X27825000Y21625000D03*
X29725000Y21625000D03*
X28775000Y23625000D03*
G04 #@! TD*
G04 #@! TO.C,Q6*
X31225000Y21625000D03*
X33125000Y21625000D03*
X32175000Y23625000D03*
G04 #@! TD*
G04 #@! TO.C,Q7*
X35025000Y21625000D03*
X36925000Y21625000D03*
X35975000Y23625000D03*
G04 #@! TD*
D17*
G04 #@! TO.C,J2*
X63000000Y25300000D03*
X63000000Y22500000D03*
D18*
X55800000Y24400000D03*
X55800000Y27200000D03*
D19*
X55800000Y15000000D03*
X60150000Y10900000D03*
G04 #@! TD*
D20*
G04 #@! TO.C,U1*
X40899680Y9250640D03*
X40399300Y9250640D03*
X39898920Y9250640D03*
X41400060Y9250640D03*
D21*
X42149360Y9999940D03*
X42149360Y10500320D03*
X42149360Y11000700D03*
X42149360Y11501080D03*
X42149360Y11998920D03*
X42149360Y12499300D03*
X42149360Y12999680D03*
X42149360Y13500060D03*
D20*
X37899940Y14249360D03*
X41400060Y14249360D03*
X40899680Y14249360D03*
X40399300Y14249360D03*
X39898920Y14249360D03*
X39401080Y14249360D03*
X38900700Y14249360D03*
X38400320Y14249360D03*
D21*
X37150640Y13500060D03*
X37150640Y12999680D03*
X37150640Y12499300D03*
X37150640Y11998920D03*
X37150640Y11501080D03*
X37150640Y11000700D03*
X37150640Y10500320D03*
X37150640Y9999940D03*
D20*
X37899940Y9250640D03*
X38400320Y9250640D03*
X38900700Y9250640D03*
X39401080Y9250640D03*
D22*
X39650000Y11750000D03*
G04 #@! TD*
D23*
G04 #@! TO.C,U3*
X53672940Y9499960D03*
X53672940Y8550000D03*
X53672940Y7600040D03*
X51077060Y7600040D03*
X51077060Y8550000D03*
X51077060Y9499960D03*
G04 #@! TD*
D24*
G04 #@! TO.C,C20*
X22300000Y28350000D03*
X22300000Y26850000D03*
G04 #@! TD*
D25*
G04 #@! TO.C,C1*
X43500000Y8275000D03*
X42400000Y8275000D03*
G04 #@! TD*
G04 #@! TO.C,C2*
X43500000Y7250000D03*
X42400000Y7250000D03*
G04 #@! TD*
G04 #@! TO.C,C3*
X34550000Y11200000D03*
X35650000Y11200000D03*
G04 #@! TD*
G04 #@! TO.C,C4*
X34550000Y10250000D03*
X35650000Y10250000D03*
G04 #@! TD*
G04 #@! TO.C,C5*
X46625000Y10900000D03*
X45525000Y10900000D03*
G04 #@! TD*
G04 #@! TO.C,C6*
X46625000Y9950000D03*
X45525000Y9950000D03*
G04 #@! TD*
G04 #@! TO.C,C7*
X34550000Y9300000D03*
X35650000Y9300000D03*
G04 #@! TD*
G04 #@! TO.C,C8*
X34550000Y8350000D03*
X35650000Y8350000D03*
G04 #@! TD*
D26*
G04 #@! TO.C,C9*
X51513909Y13788909D03*
D27*
G36*
X51549264Y14177818D02*
X51902818Y13824264D01*
X51478554Y13400000D01*
X51125000Y13753554D01*
X51549264Y14177818D01*
X51549264Y14177818D01*
G37*
D26*
X50736091Y13011091D03*
D27*
G36*
X50771446Y13400000D02*
X51125000Y13046446D01*
X50700736Y12622182D01*
X50347182Y12975736D01*
X50771446Y13400000D01*
X50771446Y13400000D01*
G37*
G04 #@! TD*
D26*
G04 #@! TO.C,C10*
X45038909Y17413909D03*
D27*
G36*
X45074264Y17802818D02*
X45427818Y17449264D01*
X45003554Y17025000D01*
X44650000Y17378554D01*
X45074264Y17802818D01*
X45074264Y17802818D01*
G37*
D26*
X44261091Y16636091D03*
D27*
G36*
X44296446Y17025000D02*
X44650000Y16671446D01*
X44225736Y16247182D01*
X43872182Y16600736D01*
X44296446Y17025000D01*
X44296446Y17025000D01*
G37*
G04 #@! TD*
D28*
G04 #@! TO.C,C12*
X39775000Y18850000D03*
X39775000Y17750000D03*
G04 #@! TD*
G04 #@! TO.C,C13*
X38825000Y18850000D03*
X38825000Y17750000D03*
G04 #@! TD*
G04 #@! TO.C,C14*
X35870000Y15350000D03*
X35870000Y14250000D03*
G04 #@! TD*
G04 #@! TO.C,C15*
X34730000Y15350000D03*
X34730000Y14250000D03*
G04 #@! TD*
D25*
G04 #@! TO.C,C17*
X16480000Y2490000D03*
X15380000Y2490000D03*
G04 #@! TD*
D29*
G04 #@! TO.C,C19*
X5475000Y14825000D03*
X6975000Y14825000D03*
G04 #@! TD*
G04 #@! TO.C,C23*
X23075000Y9225000D03*
X21575000Y9225000D03*
G04 #@! TD*
G04 #@! TO.C,C24*
X22475000Y11775000D03*
X20975000Y11775000D03*
G04 #@! TD*
G04 #@! TO.C,C25*
X22300000Y17800000D03*
X23800000Y17800000D03*
G04 #@! TD*
D28*
G04 #@! TO.C,C31*
X13100000Y16950000D03*
X13100000Y15850000D03*
G04 #@! TD*
G04 #@! TO.C,C35*
X21600000Y14500000D03*
X21600000Y15600000D03*
G04 #@! TD*
D25*
G04 #@! TO.C,C39*
X52175000Y6375000D03*
X51075000Y6375000D03*
G04 #@! TD*
D29*
G04 #@! TO.C,C40*
X45075000Y22050000D03*
X43575000Y22050000D03*
G04 #@! TD*
D28*
G04 #@! TO.C,C41*
X46300000Y23150000D03*
X46300000Y22050000D03*
G04 #@! TD*
G04 #@! TO.C,C43*
X50350000Y18800000D03*
X50350000Y17700000D03*
G04 #@! TD*
G04 #@! TO.C,C56*
X18275000Y13275000D03*
X18275000Y12175000D03*
G04 #@! TD*
G04 #@! TO.C,C59*
X15025000Y10725000D03*
X15025000Y9625000D03*
G04 #@! TD*
G04 #@! TO.C,C60*
X16375000Y14375000D03*
X16375000Y13275000D03*
G04 #@! TD*
D29*
G04 #@! TO.C,C94*
X45075000Y20725000D03*
X43575000Y20725000D03*
G04 #@! TD*
D15*
G04 #@! TO.C,R12*
X53675000Y10775000D03*
X52775000Y10775000D03*
G04 #@! TD*
D13*
G04 #@! TO.C,R13*
X57275000Y7600000D03*
X57275000Y8500000D03*
G04 #@! TD*
D15*
G04 #@! TO.C,R23*
X56275000Y7600000D03*
X55375000Y7600000D03*
G04 #@! TD*
D13*
G04 #@! TO.C,R24*
X47450000Y22950000D03*
X47450000Y22050000D03*
G04 #@! TD*
D15*
G04 #@! TO.C,R27*
X52750000Y23700000D03*
X51850000Y23700000D03*
G04 #@! TD*
G04 #@! TO.C,R28*
X52750000Y24750000D03*
X51850000Y24750000D03*
G04 #@! TD*
D13*
G04 #@! TO.C,R31*
X50350000Y20750000D03*
X50350000Y19850000D03*
G04 #@! TD*
D15*
G04 #@! TO.C,R4*
X25850000Y6500000D03*
X26750000Y6500000D03*
G04 #@! TD*
G04 #@! TO.C,R5*
X25700000Y16750000D03*
X26600000Y16750000D03*
G04 #@! TD*
D13*
G04 #@! TO.C,R6*
X53000000Y12200000D03*
X53000000Y13100000D03*
G04 #@! TD*
G04 #@! TO.C,R7*
X55050000Y9500000D03*
X55050000Y10400000D03*
G04 #@! TD*
D30*
G04 #@! TO.C,D1*
X19680000Y5090000D03*
X19680000Y4440000D03*
X19680000Y3790000D03*
X21580000Y3790000D03*
X21580000Y4440000D03*
X21580000Y5090000D03*
G04 #@! TD*
D28*
G04 #@! TO.C,C58*
X19550000Y19300000D03*
X19550000Y20400000D03*
G04 #@! TD*
D31*
G04 #@! TO.C,U12*
X16429960Y3889760D03*
X16429960Y4540000D03*
X16429960Y5190240D03*
X14530040Y5190240D03*
X14530040Y4540000D03*
X14530040Y3889760D03*
G04 #@! TD*
D29*
G04 #@! TO.C,C61*
X16200000Y20850000D03*
X17700000Y20850000D03*
G04 #@! TD*
D24*
G04 #@! TO.C,C67*
X8475000Y13625000D03*
X8475000Y12125000D03*
G04 #@! TD*
G04 #@! TO.C,C73*
X27150000Y13000000D03*
X27150000Y14500000D03*
G04 #@! TD*
D29*
G04 #@! TO.C,L18*
X20275000Y9225000D03*
X18775000Y9225000D03*
G04 #@! TD*
D24*
G04 #@! TO.C,L19*
X19425000Y11775000D03*
X19425000Y13275000D03*
G04 #@! TD*
G04 #@! TO.C,L21*
X16375000Y9225000D03*
X16375000Y10725000D03*
G04 #@! TD*
D29*
G04 #@! TO.C,L24*
X13825000Y10725000D03*
X12325000Y10725000D03*
G04 #@! TD*
G04 #@! TO.C,L27*
X9975000Y10725000D03*
X8475000Y10725000D03*
G04 #@! TD*
D24*
G04 #@! TO.C,L28*
X12275000Y14375000D03*
X12275000Y12875000D03*
G04 #@! TD*
D28*
G04 #@! TO.C,C53*
X17675000Y9225000D03*
X17675000Y10325000D03*
G04 #@! TD*
G04 #@! TO.C,C62*
X11125000Y10725000D03*
X11125000Y9625000D03*
G04 #@! TD*
G04 #@! TO.C,C63*
X13425000Y14375000D03*
X13425000Y13275000D03*
G04 #@! TD*
G04 #@! TO.C,C66*
X12950000Y22700000D03*
X12950000Y23800000D03*
G04 #@! TD*
D24*
G04 #@! TO.C,C68*
X10825000Y14375000D03*
X10825000Y12875000D03*
G04 #@! TD*
G04 #@! TO.C,C70*
X10375000Y21450000D03*
X10375000Y19950000D03*
G04 #@! TD*
D29*
G04 #@! TO.C,C71*
X34400000Y13000000D03*
X32900000Y13000000D03*
G04 #@! TD*
D25*
G04 #@! TO.C,C75*
X28450000Y9900000D03*
X27350000Y9900000D03*
G04 #@! TD*
D28*
G04 #@! TO.C,C76*
X30600000Y9850000D03*
X30600000Y10950000D03*
G04 #@! TD*
G04 #@! TO.C,L22*
X17325000Y13275000D03*
X17325000Y14375000D03*
G04 #@! TD*
D32*
G04 #@! TO.C,L23*
X18200000Y19300000D03*
X16200000Y19300000D03*
G04 #@! TD*
D25*
G04 #@! TO.C,L25*
X15375000Y14375000D03*
X14275000Y14375000D03*
G04 #@! TD*
D32*
G04 #@! TO.C,L26*
X16200000Y22700000D03*
X14200000Y22700000D03*
G04 #@! TD*
D28*
G04 #@! TO.C,C74*
X29600000Y9850000D03*
X29600000Y10950000D03*
G04 #@! TD*
D14*
G04 #@! TO.C,FD2*
X9000000Y1950000D03*
G04 #@! TD*
D29*
G04 #@! TO.C,C77*
X30240000Y17910000D03*
X31740000Y17910000D03*
G04 #@! TD*
D24*
G04 #@! TO.C,L30*
X28900000Y16420000D03*
X28900000Y17920000D03*
G04 #@! TD*
G04 #@! TO.C,L31*
X32990000Y16420000D03*
X32990000Y17920000D03*
G04 #@! TD*
G04 #@! TO.C,L32*
X7325000Y17075000D03*
X7325000Y18575000D03*
G04 #@! TD*
D13*
G04 #@! TO.C,R9*
X5575000Y16125000D03*
X5575000Y17025000D03*
G04 #@! TD*
D32*
G04 #@! TO.C,C22*
X20700000Y24800000D03*
X18700000Y24800000D03*
G04 #@! TD*
D24*
G04 #@! TO.C,L3*
X28450000Y11500000D03*
X28450000Y13000000D03*
G04 #@! TD*
G04 #@! TO.C,L20*
X21000000Y17800000D03*
X21000000Y19300000D03*
G04 #@! TD*
D29*
G04 #@! TO.C,L29*
X11850000Y22700000D03*
X10350000Y22700000D03*
G04 #@! TD*
D32*
G04 #@! TO.C,C80*
X45625000Y8600000D03*
X47625000Y8600000D03*
G04 #@! TD*
D33*
G04 #@! TO.C,C81*
X25900000Y8300000D03*
X25900000Y10300000D03*
G04 #@! TD*
D34*
G04 #@! TO.C,J1*
X2325000Y12063000D03*
X2325000Y17587000D03*
D35*
X2325000Y14825000D03*
G04 #@! TD*
D36*
G04 #@! TO.C,D2*
X62380000Y1190000D03*
X62380000Y2890000D03*
G04 #@! TD*
G04 #@! TO.C,D3*
X59650000Y1190000D03*
X59650000Y2890000D03*
G04 #@! TD*
D13*
G04 #@! TO.C,R20*
X62380000Y5490000D03*
X62380000Y4590000D03*
G04 #@! TD*
G04 #@! TO.C,R22*
X59630000Y5490000D03*
X59630000Y4590000D03*
G04 #@! TD*
D16*
G04 #@! TO.C,U6*
X18850000Y26400000D03*
X20750000Y26400000D03*
X19800000Y28400000D03*
G04 #@! TD*
D37*
G04 #@! TO.C,Y1*
X49719340Y14479290D03*
D27*
G36*
X50779908Y14196412D02*
X50002218Y13418722D01*
X48658772Y14762168D01*
X49436462Y15539858D01*
X50779908Y14196412D01*
X50779908Y14196412D01*
G37*
D37*
X47104290Y17094340D03*
D27*
G36*
X48164858Y16811462D02*
X47387168Y16033772D01*
X46043722Y17377218D01*
X46821412Y18154908D01*
X48164858Y16811462D01*
X48164858Y16811462D01*
G37*
D37*
X45480660Y15470710D03*
D27*
G36*
X46541228Y15187832D02*
X45763538Y14410142D01*
X44420092Y15753588D01*
X45197782Y16531278D01*
X46541228Y15187832D01*
X46541228Y15187832D01*
G37*
D37*
X48095710Y12855660D03*
D27*
G36*
X49156278Y12572782D02*
X48378588Y11795092D01*
X47035142Y13138538D01*
X47812832Y13916228D01*
X49156278Y12572782D01*
X49156278Y12572782D01*
G37*
G04 #@! TD*
D29*
G04 #@! TO.C,C42*
X51950000Y21000000D03*
X53450000Y21000000D03*
G04 #@! TD*
D24*
G04 #@! TO.C,C47*
X53000000Y14350000D03*
X53000000Y15850000D03*
G04 #@! TD*
D38*
G04 #@! TO.C,C93*
X62560000Y7600000D03*
X59640000Y7600000D03*
G04 #@! TD*
D14*
G04 #@! TO.C,FD3*
X9000000Y28000000D03*
G04 #@! TD*
D39*
G04 #@! TO.C,C18*
X24950000Y24940000D03*
X24950000Y27860000D03*
G04 #@! TD*
D24*
G04 #@! TO.C,C21*
X31000000Y25700000D03*
X31000000Y27200000D03*
G04 #@! TD*
G04 #@! TO.C,C11*
X40850000Y17550000D03*
X40850000Y19050000D03*
G04 #@! TD*
D13*
G04 #@! TO.C,R2*
X44450000Y14025000D03*
X44450000Y13125000D03*
G04 #@! TD*
G04 #@! TO.C,R3*
X43400000Y14025000D03*
X43400000Y13125000D03*
G04 #@! TD*
D40*
G04 #@! TO.C,U4*
X31450000Y12500000D03*
X31450000Y13000000D03*
X31450000Y13500000D03*
X31450000Y14000000D03*
X29550000Y14000000D03*
X29550000Y13500000D03*
X29550000Y13000000D03*
X29550000Y12500000D03*
D41*
X30500000Y13725000D03*
X30500000Y12775000D03*
G04 #@! TD*
D42*
G04 #@! TO.C,Q1*
X30300000Y6450000D03*
X30300000Y7400000D03*
X30300000Y8350000D03*
X28100000Y8350000D03*
X28100000Y7400000D03*
X28100000Y6450000D03*
G04 #@! TD*
D12*
G04 #@! TO.C,U10*
X10575000Y16800000D03*
X10575000Y17700000D03*
X9675000Y16800000D03*
X9675000Y17700000D03*
D11*
X10875000Y15775000D03*
X10375000Y15775000D03*
X9875000Y15775000D03*
X9375000Y15775000D03*
D10*
X8650000Y16500000D03*
X8650000Y17000000D03*
X8650000Y17500000D03*
X8650000Y18000000D03*
D11*
X9375000Y18725000D03*
X9875000Y18725000D03*
X10375000Y18725000D03*
X10875000Y18725000D03*
D10*
X11600000Y18000000D03*
X11600000Y17500000D03*
X11600000Y17000000D03*
X11600000Y16500000D03*
G04 #@! TD*
D43*
G04 #@! TO.C,U2*
X12600000Y5200000D03*
X12600000Y3900000D03*
X10700000Y4550000D03*
X10700000Y3900000D03*
X10700000Y5200000D03*
G04 #@! TD*
M02*
