G04 #@! TF.GenerationSoftware,KiCad,Pcbnew,(5.0.0)*
G04 #@! TF.CreationDate,2018-09-16T16:08:27-07:00*
G04 #@! TF.ProjectId,HamShieldMini1.2,48616D536869656C644D696E69312E32,rev?*
G04 #@! TF.SameCoordinates,PX459e440PY8f0d180*
G04 #@! TF.FileFunction,Legend,Top*
G04 #@! TF.FilePolarity,Positive*
%FSLAX46Y46*%
G04 Gerber Fmt 4.6, Leading zero omitted, Abs format (unit mm)*
G04 Created by KiCad (PCBNEW (5.0.0)) date 09/16/18 16:08:27*
%MOMM*%
%LPD*%
G01*
G04 APERTURE LIST*
%ADD10C,0.187500*%
%ADD11C,0.150000*%
%ADD12C,0.635000*%
%ADD13C,0.120000*%
%ADD14C,0.381000*%
%ADD15C,0.152400*%
%ADD16C,0.203200*%
%ADD17C,0.101600*%
%ADD18C,0.250000*%
%ADD19C,0.125000*%
%ADD20O,1.000000X0.550000*%
%ADD21O,0.550000X1.000000*%
%ADD22R,1.150000X1.150000*%
%ADD23R,0.850000X0.650000*%
%ADD24C,1.248220*%
%ADD25R,0.650000X0.850000*%
%ADD26R,1.050000X1.150000*%
%ADD27R,3.050000X2.250000*%
%ADD28R,3.050000X2.450000*%
%ADD29R,3.050000X3.050000*%
%ADD30C,1.950000*%
%ADD31R,0.504000X1.012000*%
%ADD32R,1.012000X0.504000*%
%ADD33R,3.249740X3.249740*%
%ADD34R,1.448880X0.798640*%
%ADD35R,1.977200X2.282000*%
%ADD36O,1.977200X2.282000*%
%ADD37R,1.000000X1.050000*%
%ADD38R,0.850000X0.750000*%
%ADD39C,0.750000*%
%ADD40R,0.750000X0.850000*%
%ADD41R,1.050000X1.000000*%
%ADD42R,0.950000X0.670000*%
%ADD43R,0.999300X0.648780*%
%ADD44R,1.250000X1.500000*%
%ADD45R,1.500000X1.250000*%
%ADD46R,4.314000X2.250000*%
%ADD47R,4.314000X1.774000*%
%ADD48R,1.050000X0.850000*%
%ADD49C,1.349820*%
%ADD50R,2.050000X2.480000*%
%ADD51R,1.950000X1.950000*%
%ADD52O,1.950000X1.950000*%
%ADD53R,2.480000X2.050000*%
%ADD54C,3.450000*%
%ADD55R,0.950000X0.550000*%
%ADD56R,0.875000X1.200000*%
%ADD57R,1.250000X0.850000*%
%ADD58R,0.900000X0.650000*%
G04 APERTURE END LIST*
D10*
X34289285Y24432143D02*
X35039285Y24682143D01*
X34289285Y24932143D01*
X35039285Y25182143D02*
X34539285Y25182143D01*
X34289285Y25182143D02*
X34325000Y25146429D01*
X34360714Y25182143D01*
X34325000Y25217858D01*
X34289285Y25182143D01*
X34360714Y25182143D01*
X34539285Y25539286D02*
X35039285Y25539286D01*
X34610714Y25539286D02*
X34575000Y25575000D01*
X34539285Y25646429D01*
X34539285Y25753572D01*
X34575000Y25825000D01*
X34646428Y25860715D01*
X35039285Y25860715D01*
X39689285Y23982143D02*
X40189285Y23982143D01*
X39760714Y23982143D02*
X39725000Y24017858D01*
X39689285Y24089286D01*
X39689285Y24196429D01*
X39725000Y24267858D01*
X39796428Y24303572D01*
X40189285Y24303572D01*
X40117857Y25089286D02*
X40153571Y25053572D01*
X40189285Y24946429D01*
X40189285Y24875000D01*
X40153571Y24767858D01*
X40082142Y24696429D01*
X40010714Y24660715D01*
X39867857Y24625000D01*
X39760714Y24625000D01*
X39617857Y24660715D01*
X39546428Y24696429D01*
X39475000Y24767858D01*
X39439285Y24875000D01*
X39439285Y24946429D01*
X39475000Y25053572D01*
X39510714Y25089286D01*
X40153571Y25375000D02*
X40189285Y25482143D01*
X40189285Y25660715D01*
X40153571Y25732143D01*
X40117857Y25767858D01*
X40046428Y25803572D01*
X39975000Y25803572D01*
X39903571Y25767858D01*
X39867857Y25732143D01*
X39832142Y25660715D01*
X39796428Y25517858D01*
X39760714Y25446429D01*
X39725000Y25410715D01*
X39653571Y25375000D01*
X39582142Y25375000D01*
X39510714Y25410715D01*
X39475000Y25446429D01*
X39439285Y25517858D01*
X39439285Y25696429D01*
X39475000Y25803572D01*
X50253571Y23160715D02*
X50289285Y23267858D01*
X50289285Y23446429D01*
X50253571Y23517858D01*
X50217857Y23553572D01*
X50146428Y23589286D01*
X50075000Y23589286D01*
X50003571Y23553572D01*
X49967857Y23517858D01*
X49932142Y23446429D01*
X49896428Y23303572D01*
X49860714Y23232143D01*
X49825000Y23196429D01*
X49753571Y23160715D01*
X49682142Y23160715D01*
X49610714Y23196429D01*
X49575000Y23232143D01*
X49539285Y23303572D01*
X49539285Y23482143D01*
X49575000Y23589286D01*
X50289285Y23910715D02*
X49539285Y23910715D01*
X49539285Y24196429D01*
X49575000Y24267858D01*
X49610714Y24303572D01*
X49682142Y24339286D01*
X49789285Y24339286D01*
X49860714Y24303572D01*
X49896428Y24267858D01*
X49932142Y24196429D01*
X49932142Y23910715D01*
X50289285Y24660715D02*
X49539285Y24660715D01*
X50289285Y25089286D02*
X49860714Y24767858D01*
X49539285Y25089286D02*
X49967857Y24660715D01*
X50289285Y25839286D02*
X49932142Y25589286D01*
X50289285Y25410715D02*
X49539285Y25410715D01*
X49539285Y25696429D01*
X49575000Y25767858D01*
X49610714Y25803572D01*
X49682142Y25839286D01*
X49789285Y25839286D01*
X49860714Y25803572D01*
X49896428Y25767858D01*
X49932142Y25696429D01*
X49932142Y25410715D01*
X42739285Y24096429D02*
X41989285Y24096429D01*
X41989285Y24275000D01*
X42025000Y24382143D01*
X42096428Y24453572D01*
X42167857Y24489286D01*
X42310714Y24525000D01*
X42417857Y24525000D01*
X42560714Y24489286D01*
X42632142Y24453572D01*
X42703571Y24382143D01*
X42739285Y24275000D01*
X42739285Y24096429D01*
X42525000Y24810715D02*
X42525000Y25167858D01*
X42739285Y24739286D02*
X41989285Y24989286D01*
X42739285Y25239286D01*
X41989285Y25382143D02*
X41989285Y25810715D01*
X42739285Y25596429D02*
X41989285Y25596429D01*
X45217857Y24453572D02*
X45253571Y24417858D01*
X45289285Y24310715D01*
X45289285Y24239286D01*
X45253571Y24132143D01*
X45182142Y24060715D01*
X45110714Y24025000D01*
X44967857Y23989286D01*
X44860714Y23989286D01*
X44717857Y24025000D01*
X44646428Y24060715D01*
X44575000Y24132143D01*
X44539285Y24239286D01*
X44539285Y24310715D01*
X44575000Y24417858D01*
X44610714Y24453572D01*
X45289285Y25132143D02*
X45289285Y24775000D01*
X44539285Y24775000D01*
X45289285Y25382143D02*
X44539285Y25382143D01*
X45289285Y25810715D02*
X44860714Y25489286D01*
X44539285Y25810715D02*
X44967857Y25382143D01*
X36975000Y24228572D02*
X36939285Y24157143D01*
X36939285Y24050000D01*
X36975000Y23942858D01*
X37046428Y23871429D01*
X37117857Y23835715D01*
X37260714Y23800000D01*
X37367857Y23800000D01*
X37510714Y23835715D01*
X37582142Y23871429D01*
X37653571Y23942858D01*
X37689285Y24050000D01*
X37689285Y24121429D01*
X37653571Y24228572D01*
X37617857Y24264286D01*
X37367857Y24264286D01*
X37367857Y24121429D01*
X37689285Y24585715D02*
X36939285Y24585715D01*
X37689285Y25014286D01*
X36939285Y25014286D01*
X37689285Y25371429D02*
X36939285Y25371429D01*
X36939285Y25550000D01*
X36975000Y25657143D01*
X37046428Y25728572D01*
X37117857Y25764286D01*
X37260714Y25800000D01*
X37367857Y25800000D01*
X37510714Y25764286D01*
X37582142Y25728572D01*
X37653571Y25657143D01*
X37689285Y25550000D01*
X37689285Y25371429D01*
X47839285Y24196429D02*
X47089285Y24196429D01*
X47625000Y24446429D01*
X47089285Y24696429D01*
X47839285Y24696429D01*
X47839285Y25053572D02*
X47089285Y25053572D01*
X47767857Y25839286D02*
X47803571Y25803572D01*
X47839285Y25696429D01*
X47839285Y25625000D01*
X47803571Y25517858D01*
X47732142Y25446429D01*
X47660714Y25410715D01*
X47517857Y25375000D01*
X47410714Y25375000D01*
X47267857Y25410715D01*
X47196428Y25446429D01*
X47125000Y25517858D01*
X47089285Y25625000D01*
X47089285Y25696429D01*
X47125000Y25803572D01*
X47160714Y25839286D01*
X47468303Y4835715D02*
X47539732Y4835715D01*
X47611160Y4800000D01*
X47646875Y4764286D01*
X47682589Y4692858D01*
X47718303Y4550000D01*
X47718303Y4371429D01*
X47682589Y4228572D01*
X47646875Y4157143D01*
X47611160Y4121429D01*
X47539732Y4085715D01*
X47468303Y4085715D01*
X47396875Y4121429D01*
X47361160Y4157143D01*
X47325446Y4228572D01*
X47289732Y4371429D01*
X47289732Y4550000D01*
X47325446Y4692858D01*
X47361160Y4764286D01*
X47396875Y4800000D01*
X47468303Y4835715D01*
X60789285Y1528572D02*
X60789285Y1957143D01*
X61539285Y1742858D02*
X60789285Y1742858D01*
X60789285Y2135715D02*
X61539285Y2635715D01*
X60789285Y2635715D02*
X61539285Y2135715D01*
X58739285Y1500000D02*
X57989285Y1500000D01*
X57989285Y1785715D01*
X58025000Y1857143D01*
X58060714Y1892858D01*
X58132142Y1928572D01*
X58239285Y1928572D01*
X58310714Y1892858D01*
X58346428Y1857143D01*
X58382142Y1785715D01*
X58382142Y1500000D01*
X57989285Y2178572D02*
X58739285Y2357143D01*
X58203571Y2500000D01*
X58739285Y2642858D01*
X57989285Y2821429D01*
X58739285Y3535715D02*
X58382142Y3285715D01*
X58739285Y3107143D02*
X57989285Y3107143D01*
X57989285Y3392858D01*
X58025000Y3464286D01*
X58060714Y3500000D01*
X58132142Y3535715D01*
X58239285Y3535715D01*
X58310714Y3500000D01*
X58346428Y3464286D01*
X58382142Y3392858D01*
X58382142Y3107143D01*
X45218303Y4185715D02*
X44789732Y4185715D01*
X45004017Y4185715D02*
X45004017Y4935715D01*
X44932589Y4828572D01*
X44861160Y4757143D01*
X44789732Y4721429D01*
X42407858Y4873416D02*
X42443572Y4909130D01*
X42515001Y4944845D01*
X42693572Y4944845D01*
X42765001Y4909130D01*
X42800715Y4873416D01*
X42836429Y4801988D01*
X42836429Y4730559D01*
X42800715Y4623416D01*
X42372143Y4194845D01*
X42836429Y4194845D01*
X39912143Y4944845D02*
X40376429Y4944845D01*
X40126429Y4659130D01*
X40233572Y4659130D01*
X40305001Y4623416D01*
X40340715Y4587702D01*
X40376429Y4516273D01*
X40376429Y4337702D01*
X40340715Y4266273D01*
X40305001Y4230559D01*
X40233572Y4194845D01*
X40019286Y4194845D01*
X39947858Y4230559D01*
X39912143Y4266273D01*
X37985001Y4694845D02*
X37985001Y4194845D01*
X37806429Y4980559D02*
X37627858Y4444845D01*
X38092143Y4444845D01*
X35400715Y4944845D02*
X35043572Y4944845D01*
X35007858Y4587702D01*
X35043572Y4623416D01*
X35115001Y4659130D01*
X35293572Y4659130D01*
X35365001Y4623416D01*
X35400715Y4587702D01*
X35436429Y4516273D01*
X35436429Y4337702D01*
X35400715Y4266273D01*
X35365001Y4230559D01*
X35293572Y4194845D01*
X35115001Y4194845D01*
X35043572Y4230559D01*
X35007858Y4266273D01*
X32625001Y4944845D02*
X32482143Y4944845D01*
X32410715Y4909130D01*
X32375001Y4873416D01*
X32303572Y4766273D01*
X32267858Y4623416D01*
X32267858Y4337702D01*
X32303572Y4266273D01*
X32339286Y4230559D01*
X32410715Y4194845D01*
X32553572Y4194845D01*
X32625001Y4230559D01*
X32660715Y4266273D01*
X32696429Y4337702D01*
X32696429Y4516273D01*
X32660715Y4587702D01*
X32625001Y4623416D01*
X32553572Y4659130D01*
X32410715Y4659130D01*
X32339286Y4623416D01*
X32303572Y4587702D01*
X32267858Y4516273D01*
X29602143Y4944845D02*
X30102143Y4944845D01*
X29780715Y4194845D01*
X49193303Y4860715D02*
X49443303Y4110715D01*
X49693303Y4860715D01*
X50371875Y4182143D02*
X50336160Y4146429D01*
X50229017Y4110715D01*
X50157589Y4110715D01*
X50050446Y4146429D01*
X49979017Y4217858D01*
X49943303Y4289286D01*
X49907589Y4432143D01*
X49907589Y4539286D01*
X49943303Y4682143D01*
X49979017Y4753572D01*
X50050446Y4825000D01*
X50157589Y4860715D01*
X50229017Y4860715D01*
X50336160Y4825000D01*
X50371875Y4789286D01*
X51121875Y4182143D02*
X51086160Y4146429D01*
X50979017Y4110715D01*
X50907589Y4110715D01*
X50800446Y4146429D01*
X50729017Y4217858D01*
X50693303Y4289286D01*
X50657589Y4432143D01*
X50657589Y4539286D01*
X50693303Y4682143D01*
X50729017Y4753572D01*
X50800446Y4825000D01*
X50907589Y4860715D01*
X50979017Y4860715D01*
X51086160Y4825000D01*
X51121875Y4789286D01*
X26693303Y4875000D02*
X26621875Y4910715D01*
X26514732Y4910715D01*
X26407589Y4875000D01*
X26336160Y4803572D01*
X26300446Y4732143D01*
X26264732Y4589286D01*
X26264732Y4482143D01*
X26300446Y4339286D01*
X26336160Y4267858D01*
X26407589Y4196429D01*
X26514732Y4160715D01*
X26586160Y4160715D01*
X26693303Y4196429D01*
X26729017Y4232143D01*
X26729017Y4482143D01*
X26586160Y4482143D01*
X27050446Y4160715D02*
X27050446Y4910715D01*
X27479017Y4160715D01*
X27479017Y4910715D01*
X27836160Y4160715D02*
X27836160Y4910715D01*
X28014732Y4910715D01*
X28121875Y4875000D01*
X28193303Y4803572D01*
X28229017Y4732143D01*
X28264732Y4589286D01*
X28264732Y4482143D01*
X28229017Y4339286D01*
X28193303Y4267858D01*
X28121875Y4196429D01*
X28014732Y4160715D01*
X27836160Y4160715D01*
D11*
G04 #@! TO.C,U11*
X26125000Y15875000D02*
X26125000Y15375000D01*
X22875000Y12625000D02*
X22875000Y13125000D01*
X26125000Y12625000D02*
X26125000Y13125000D01*
X22875000Y15875000D02*
X23375000Y15875000D01*
X22875000Y12625000D02*
X23375000Y12625000D01*
X26125000Y12625000D02*
X25625000Y12625000D01*
X26125000Y15875000D02*
X25625000Y15875000D01*
G04 #@! TO.C,R36*
X30225000Y26500000D02*
X30225000Y27000000D01*
X29175000Y27000000D02*
X29175000Y26500000D01*
G04 #@! TO.C,R37*
X29125000Y26500000D02*
X29125000Y27000000D01*
X28075000Y27000000D02*
X28075000Y26500000D01*
D12*
G04 #@! TO.C,FD1*
X64335802Y28500000D02*
G75*
G03X64335802Y28500000I-635802J0D01*
G01*
D11*
G04 #@! TO.C,R1*
X29525000Y20650000D02*
X29025000Y20650000D01*
X29025000Y19600000D02*
X29525000Y19600000D01*
G04 #@! TO.C,R14*
X32925000Y20650000D02*
X32425000Y20650000D01*
X32425000Y19600000D02*
X32925000Y19600000D01*
G04 #@! TO.C,R15*
X36725000Y20650000D02*
X36225000Y20650000D01*
X36225000Y19600000D02*
X36725000Y19600000D01*
G04 #@! TO.C,R16*
X28025000Y26500000D02*
X28025000Y27000000D01*
X26975000Y27000000D02*
X26975000Y26500000D01*
D13*
G04 #@! TO.C,Q5*
X30355000Y23385000D02*
X29425000Y23385000D01*
X27195000Y23385000D02*
X28125000Y23385000D01*
X27195000Y23385000D02*
X27195000Y21225000D01*
X30355000Y23385000D02*
X30355000Y21925000D01*
G04 #@! TO.C,Q6*
X33755000Y23385000D02*
X32825000Y23385000D01*
X30595000Y23385000D02*
X31525000Y23385000D01*
X30595000Y23385000D02*
X30595000Y21225000D01*
X33755000Y23385000D02*
X33755000Y21925000D01*
G04 #@! TO.C,Q7*
X37555000Y23385000D02*
X36625000Y23385000D01*
X34395000Y23385000D02*
X35325000Y23385000D01*
X34395000Y23385000D02*
X34395000Y21225000D01*
X37555000Y23385000D02*
X37555000Y21925000D01*
D14*
G04 #@! TO.C,J2*
X55700000Y12350000D02*
X63100000Y12350000D01*
X63100000Y12350000D02*
X63100000Y29975000D01*
X63100000Y29975000D02*
X55700000Y30025000D01*
X55700000Y30025000D02*
X55700000Y12350000D01*
D15*
G04 #@! TO.C,U1*
X41745500Y8702000D02*
X37554500Y8702000D01*
X37554500Y8702000D02*
X36602000Y8702000D01*
X36602000Y8702000D02*
X36602000Y14798000D01*
X36602000Y14798000D02*
X42698000Y14798000D01*
X42698000Y14798000D02*
X42698000Y9654500D01*
X42698000Y9654500D02*
X41745500Y8702000D01*
D16*
G04 #@! TO.C,U3*
X51564740Y9972400D02*
X53185260Y9972400D01*
X53185260Y7127600D02*
X51564740Y7127600D01*
X53185260Y7224120D02*
X53185260Y7127600D01*
X53185260Y9972400D02*
X53185260Y9875880D01*
X51564740Y9875880D02*
X51564740Y9972400D01*
X51564740Y7127600D02*
X51564740Y7224120D01*
D15*
X52931145Y7539800D02*
G75*
G03X52931145Y7539800I-25145J0D01*
G01*
D11*
G04 #@! TO.C,P1*
X48730000Y980000D02*
X25870000Y980000D01*
X25870000Y980000D02*
X25870000Y3520000D01*
X25870000Y3520000D02*
X48730000Y3520000D01*
X51550000Y700000D02*
X50000000Y700000D01*
X48730000Y980000D02*
X48730000Y3520000D01*
X50000000Y3800000D02*
X51550000Y3800000D01*
X51550000Y3800000D02*
X51550000Y700000D01*
G04 #@! TO.C,C20*
X22900000Y27950000D02*
X22900000Y27250000D01*
X21700000Y27250000D02*
X21700000Y27950000D01*
G04 #@! TO.C,C1*
X42700000Y7800000D02*
X43200000Y7800000D01*
X43200000Y8750000D02*
X42700000Y8750000D01*
G04 #@! TO.C,C2*
X42700000Y6775000D02*
X43200000Y6775000D01*
X43200000Y7725000D02*
X42700000Y7725000D01*
G04 #@! TO.C,C3*
X35350000Y11675000D02*
X34850000Y11675000D01*
X34850000Y10725000D02*
X35350000Y10725000D01*
G04 #@! TO.C,C4*
X35350000Y10725000D02*
X34850000Y10725000D01*
X34850000Y9775000D02*
X35350000Y9775000D01*
G04 #@! TO.C,C5*
X45825000Y10425000D02*
X46325000Y10425000D01*
X46325000Y11375000D02*
X45825000Y11375000D01*
G04 #@! TO.C,C6*
X45825000Y9475000D02*
X46325000Y9475000D01*
X46325000Y10425000D02*
X45825000Y10425000D01*
G04 #@! TO.C,C7*
X35350000Y9775000D02*
X34850000Y9775000D01*
X34850000Y8825000D02*
X35350000Y8825000D01*
G04 #@! TO.C,C8*
X35350000Y8825000D02*
X34850000Y8825000D01*
X34850000Y7875000D02*
X35350000Y7875000D01*
G04 #@! TO.C,C9*
X51284099Y12887348D02*
X51637652Y13240901D01*
X50965901Y13912652D02*
X50612348Y13559099D01*
G04 #@! TO.C,C10*
X44809099Y16512348D02*
X45162652Y16865901D01*
X44490901Y17537652D02*
X44137348Y17184099D01*
G04 #@! TO.C,C12*
X40250000Y18050000D02*
X40250000Y18550000D01*
X39300000Y18550000D02*
X39300000Y18050000D01*
G04 #@! TO.C,C13*
X39300000Y18050000D02*
X39300000Y18550000D01*
X38350000Y18550000D02*
X38350000Y18050000D01*
G04 #@! TO.C,C14*
X36345000Y14550000D02*
X36345000Y15050000D01*
X35395000Y15050000D02*
X35395000Y14550000D01*
G04 #@! TO.C,C15*
X35205000Y14550000D02*
X35205000Y15050000D01*
X34255000Y15050000D02*
X34255000Y14550000D01*
G04 #@! TO.C,C17*
X15680000Y2015000D02*
X16180000Y2015000D01*
X16180000Y2965000D02*
X15680000Y2965000D01*
G04 #@! TO.C,C19*
X5875000Y15425000D02*
X6575000Y15425000D01*
X6575000Y14225000D02*
X5875000Y14225000D01*
G04 #@! TO.C,C23*
X22675000Y8625000D02*
X21975000Y8625000D01*
X21975000Y9825000D02*
X22675000Y9825000D01*
G04 #@! TO.C,C24*
X22075000Y11175000D02*
X21375000Y11175000D01*
X21375000Y12375000D02*
X22075000Y12375000D01*
G04 #@! TO.C,C25*
X22700000Y18400000D02*
X23400000Y18400000D01*
X23400000Y17200000D02*
X22700000Y17200000D01*
G04 #@! TO.C,C31*
X13575000Y16150000D02*
X13575000Y16650000D01*
X12625000Y16650000D02*
X12625000Y16150000D01*
G04 #@! TO.C,C35*
X21125000Y15300000D02*
X21125000Y14800000D01*
X22075000Y14800000D02*
X22075000Y15300000D01*
G04 #@! TO.C,C39*
X51375000Y5900000D02*
X51875000Y5900000D01*
X51875000Y6850000D02*
X51375000Y6850000D01*
G04 #@! TO.C,C40*
X44675000Y21450000D02*
X43975000Y21450000D01*
X43975000Y22650000D02*
X44675000Y22650000D01*
G04 #@! TO.C,C41*
X46775000Y22350000D02*
X46775000Y22850000D01*
X45825000Y22850000D02*
X45825000Y22350000D01*
G04 #@! TO.C,C43*
X50825000Y18000000D02*
X50825000Y18500000D01*
X49875000Y18500000D02*
X49875000Y18000000D01*
G04 #@! TO.C,C56*
X18750000Y12475000D02*
X18750000Y12975000D01*
X17800000Y12975000D02*
X17800000Y12475000D01*
G04 #@! TO.C,C59*
X15500000Y9925000D02*
X15500000Y10425000D01*
X14550000Y10425000D02*
X14550000Y9925000D01*
G04 #@! TO.C,C60*
X16850000Y13575000D02*
X16850000Y14075000D01*
X15900000Y14075000D02*
X15900000Y13575000D01*
G04 #@! TO.C,C94*
X44675000Y20125000D02*
X43975000Y20125000D01*
X43975000Y21325000D02*
X44675000Y21325000D01*
G04 #@! TO.C,R12*
X52975000Y10250000D02*
X53475000Y10250000D01*
X53475000Y11300000D02*
X52975000Y11300000D01*
G04 #@! TO.C,R13*
X56750000Y8300000D02*
X56750000Y7800000D01*
X57800000Y7800000D02*
X57800000Y8300000D01*
G04 #@! TO.C,R23*
X55575000Y7075000D02*
X56075000Y7075000D01*
X56075000Y8125000D02*
X55575000Y8125000D01*
G04 #@! TO.C,R24*
X47975000Y22250000D02*
X47975000Y22750000D01*
X46925000Y22750000D02*
X46925000Y22250000D01*
G04 #@! TO.C,R27*
X52050000Y23175000D02*
X52550000Y23175000D01*
X52550000Y24225000D02*
X52050000Y24225000D01*
G04 #@! TO.C,R28*
X52050000Y24225000D02*
X52550000Y24225000D01*
X52550000Y25275000D02*
X52050000Y25275000D01*
G04 #@! TO.C,R31*
X50875000Y20050000D02*
X50875000Y20550000D01*
X49825000Y20550000D02*
X49825000Y20050000D01*
G04 #@! TO.C,R4*
X26550000Y7025000D02*
X26050000Y7025000D01*
X26050000Y5975000D02*
X26550000Y5975000D01*
G04 #@! TO.C,R5*
X26400000Y17275000D02*
X25900000Y17275000D01*
X25900000Y16225000D02*
X26400000Y16225000D01*
G04 #@! TO.C,R6*
X52475000Y12900000D02*
X52475000Y12400000D01*
X53525000Y12400000D02*
X53525000Y12900000D01*
G04 #@! TO.C,R7*
X54525000Y10200000D02*
X54525000Y9700000D01*
X55575000Y9700000D02*
X55575000Y10200000D01*
D16*
G04 #@! TO.C,D1*
X19832440Y5638880D02*
X21427560Y5638880D01*
X19832440Y3241120D02*
X21427560Y3241120D01*
D17*
X19848487Y5967660D02*
G75*
G03X19848487Y5967660I-96987J0D01*
G01*
D11*
G04 #@! TO.C,C58*
X19075000Y20100000D02*
X19075000Y19600000D01*
X20025000Y19600000D02*
X20025000Y20100000D01*
G04 #@! TO.C,U12*
X16640780Y3209040D02*
X17250380Y3209040D01*
X17250380Y3209040D02*
X17260540Y3640840D01*
G04 #@! TO.C,C61*
X16600000Y21450000D02*
X17300000Y21450000D01*
X17300000Y20250000D02*
X16600000Y20250000D01*
G04 #@! TO.C,C67*
X9075000Y13225000D02*
X9075000Y12525000D01*
X7875000Y12525000D02*
X7875000Y13225000D01*
G04 #@! TO.C,C73*
X26550000Y13400000D02*
X26550000Y14100000D01*
X27750000Y14100000D02*
X27750000Y13400000D01*
G04 #@! TO.C,L18*
X19875000Y8625000D02*
X19175000Y8625000D01*
X19175000Y9825000D02*
X19875000Y9825000D01*
G04 #@! TO.C,L19*
X18825000Y12175000D02*
X18825000Y12875000D01*
X20025000Y12875000D02*
X20025000Y12175000D01*
G04 #@! TO.C,L21*
X15775000Y9625000D02*
X15775000Y10325000D01*
X16975000Y10325000D02*
X16975000Y9625000D01*
G04 #@! TO.C,L24*
X13425000Y10125000D02*
X12725000Y10125000D01*
X12725000Y11325000D02*
X13425000Y11325000D01*
G04 #@! TO.C,L27*
X9575000Y10125000D02*
X8875000Y10125000D01*
X8875000Y11325000D02*
X9575000Y11325000D01*
G04 #@! TO.C,L28*
X12875000Y13975000D02*
X12875000Y13275000D01*
X11675000Y13275000D02*
X11675000Y13975000D01*
G04 #@! TO.C,C53*
X17200000Y10025000D02*
X17200000Y9525000D01*
X18150000Y9525000D02*
X18150000Y10025000D01*
G04 #@! TO.C,C62*
X11600000Y9925000D02*
X11600000Y10425000D01*
X10650000Y10425000D02*
X10650000Y9925000D01*
G04 #@! TO.C,C63*
X13900000Y13575000D02*
X13900000Y14075000D01*
X12950000Y14075000D02*
X12950000Y13575000D01*
G04 #@! TO.C,C66*
X12475000Y23500000D02*
X12475000Y23000000D01*
X13425000Y23000000D02*
X13425000Y23500000D01*
G04 #@! TO.C,C68*
X11425000Y13975000D02*
X11425000Y13275000D01*
X10225000Y13275000D02*
X10225000Y13975000D01*
G04 #@! TO.C,C70*
X10975000Y21050000D02*
X10975000Y20350000D01*
X9775000Y20350000D02*
X9775000Y21050000D01*
G04 #@! TO.C,C71*
X34000000Y12400000D02*
X33300000Y12400000D01*
X33300000Y13600000D02*
X34000000Y13600000D01*
G04 #@! TO.C,C75*
X27650000Y9425000D02*
X28150000Y9425000D01*
X28150000Y10375000D02*
X27650000Y10375000D01*
G04 #@! TO.C,C76*
X30125000Y10650000D02*
X30125000Y10150000D01*
X31075000Y10150000D02*
X31075000Y10650000D01*
G04 #@! TO.C,L22*
X16850000Y14075000D02*
X16850000Y13575000D01*
X17800000Y13575000D02*
X17800000Y14075000D01*
G04 #@! TO.C,L23*
X16700000Y18450000D02*
X17700000Y18450000D01*
X17700000Y20150000D02*
X16700000Y20150000D01*
G04 #@! TO.C,L25*
X14575000Y13900000D02*
X15075000Y13900000D01*
X15075000Y14850000D02*
X14575000Y14850000D01*
G04 #@! TO.C,L26*
X14700000Y21850000D02*
X15700000Y21850000D01*
X15700000Y23550000D02*
X14700000Y23550000D01*
G04 #@! TO.C,C74*
X29125000Y10650000D02*
X29125000Y10150000D01*
X30075000Y10150000D02*
X30075000Y10650000D01*
D12*
G04 #@! TO.C,FD2*
X9635802Y2000000D02*
G75*
G03X9635802Y2000000I-635802J0D01*
G01*
D11*
G04 #@! TO.C,C77*
X30640000Y18510000D02*
X31340000Y18510000D01*
X31340000Y17310000D02*
X30640000Y17310000D01*
G04 #@! TO.C,L30*
X28300000Y16820000D02*
X28300000Y17520000D01*
X29500000Y17520000D02*
X29500000Y16820000D01*
G04 #@! TO.C,L31*
X32390000Y16820000D02*
X32390000Y17520000D01*
X33590000Y17520000D02*
X33590000Y16820000D01*
G04 #@! TO.C,L32*
X6725000Y17475000D02*
X6725000Y18175000D01*
X7925000Y18175000D02*
X7925000Y17475000D01*
G04 #@! TO.C,R9*
X5050000Y16825000D02*
X5050000Y16325000D01*
X6100000Y16325000D02*
X6100000Y16825000D01*
G04 #@! TO.C,C22*
X19200000Y23950000D02*
X20200000Y23950000D01*
X20200000Y25650000D02*
X19200000Y25650000D01*
G04 #@! TO.C,L3*
X27850000Y11900000D02*
X27850000Y12600000D01*
X29050000Y12600000D02*
X29050000Y11900000D01*
G04 #@! TO.C,L20*
X20400000Y18200000D02*
X20400000Y18900000D01*
X21600000Y18900000D02*
X21600000Y18200000D01*
G04 #@! TO.C,L29*
X11450000Y22100000D02*
X10750000Y22100000D01*
X10750000Y23300000D02*
X11450000Y23300000D01*
G04 #@! TO.C,C80*
X47125000Y9450000D02*
X46125000Y9450000D01*
X46125000Y7750000D02*
X47125000Y7750000D01*
G04 #@! TO.C,C81*
X25050000Y9800000D02*
X25050000Y8800000D01*
X26750000Y8800000D02*
X26750000Y9800000D01*
D13*
G04 #@! TO.C,D2*
X61810000Y740000D02*
X62950000Y740000D01*
X62950000Y740000D02*
X62950000Y2840000D01*
X61810000Y740000D02*
X61810000Y2840000D01*
G04 #@! TO.C,D3*
X59080000Y740000D02*
X60220000Y740000D01*
X60220000Y740000D02*
X60220000Y2840000D01*
X59080000Y740000D02*
X59080000Y2840000D01*
G04 #@! TO.C,R20*
X62910000Y4790000D02*
X62910000Y5290000D01*
X61850000Y5290000D02*
X61850000Y4790000D01*
G04 #@! TO.C,R22*
X60160000Y4790000D02*
X60160000Y5290000D01*
X59100000Y5290000D02*
X59100000Y4790000D01*
G04 #@! TO.C,U6*
X21380000Y28160000D02*
X20450000Y28160000D01*
X18220000Y28160000D02*
X19150000Y28160000D01*
X18220000Y28160000D02*
X18220000Y26000000D01*
X21380000Y28160000D02*
X21380000Y26700000D01*
D16*
G04 #@! TO.C,Y1*
X46894152Y13421416D02*
X46046416Y14269152D01*
X45620752Y16530380D02*
X46044620Y16954248D01*
X48305848Y16528584D02*
X49153584Y15680848D01*
X49155380Y12995752D02*
X49579248Y13419620D01*
D13*
G04 #@! TO.C,C42*
X52350000Y21600000D02*
X53050000Y21600000D01*
X53050000Y20400000D02*
X52350000Y20400000D01*
G04 #@! TO.C,C47*
X52400000Y14750000D02*
X52400000Y15450000D01*
X53600000Y15450000D02*
X53600000Y14750000D01*
D11*
G04 #@! TO.C,C93*
X58280000Y5410000D02*
X58280000Y6160000D01*
X57840000Y5790000D02*
X58740000Y5790000D01*
X62900000Y6100000D02*
X58800000Y6100000D01*
X62900000Y9100000D02*
X58800000Y9100000D01*
D12*
G04 #@! TO.C,FD3*
X9635802Y28000000D02*
G75*
G03X9635802Y28000000I-635802J0D01*
G01*
D13*
G04 #@! TO.C,P2*
X33430000Y28980000D02*
X33430000Y26320000D01*
X48730000Y28980000D02*
X33430000Y28980000D01*
X48730000Y26320000D02*
X33430000Y26320000D01*
X48730000Y28980000D02*
X48730000Y26320000D01*
X50000000Y28980000D02*
X51330000Y28980000D01*
X51330000Y28980000D02*
X51330000Y27650000D01*
D11*
G04 #@! TO.C,C18*
X22760000Y29220000D02*
X23510000Y29220000D01*
X23140000Y29660000D02*
X23140000Y28760000D01*
X23450000Y24600000D02*
X23450000Y28700000D01*
X26450000Y24600000D02*
X26450000Y28700000D01*
D13*
G04 #@! TO.C,C21*
X30400000Y26100000D02*
X30400000Y26800000D01*
X31600000Y26800000D02*
X31600000Y26100000D01*
G04 #@! TO.C,C11*
X40250000Y17950000D02*
X40250000Y18650000D01*
X41450000Y18650000D02*
X41450000Y17950000D01*
G04 #@! TO.C,R2*
X44980000Y13325000D02*
X44980000Y13825000D01*
X43920000Y13825000D02*
X43920000Y13325000D01*
G04 #@! TO.C,R3*
X43930000Y13325000D02*
X43930000Y13825000D01*
X42870000Y13825000D02*
X42870000Y13325000D01*
D11*
G04 #@! TO.C,U4*
X32276023Y11830000D02*
G75*
G03X32276023Y11830000I-86023J0D01*
G01*
X31150000Y14950000D02*
X29850000Y14950000D01*
X31725000Y11550000D02*
X29850000Y11550000D01*
D16*
G04 #@! TO.C,Q1*
X29997560Y5751120D02*
X28402440Y5751120D01*
X29967560Y9078880D02*
X28372440Y9078880D01*
D18*
X30725487Y5572340D02*
G75*
G03X30725487Y5572340I-96987J0D01*
G01*
D11*
G04 #@! TO.C,U10*
X8500000Y15625000D02*
X9000000Y15625000D01*
X8500000Y18875000D02*
X9000000Y18875000D01*
X11750000Y18875000D02*
X11250000Y18875000D01*
X11750000Y15625000D02*
X11250000Y15625000D01*
X8500000Y18875000D02*
X8500000Y18375000D01*
X11750000Y18875000D02*
X11750000Y18375000D01*
X8500000Y15625000D02*
X8500000Y16125000D01*
D13*
G04 #@! TO.C,U2*
X10950000Y3390000D02*
X12350000Y3390000D01*
X12350000Y5710000D02*
X10450000Y5710000D01*
G04 #@! TD*
D11*
G04 #@! TO.C,J2*
X60175000Y23300000D02*
G75*
G03X60175000Y23300000I-775000J0D01*
G01*
X60175000Y16300000D02*
G75*
G03X60175000Y16300000I-775000J0D01*
G01*
G04 #@! TD*
G04 #@! TO.C,P1*
X49211400Y3191000D02*
X49211400Y1309000D01*
X50788600Y1309000D01*
X50788600Y3191000D01*
X49211400Y3191000D01*
X46671400Y2402400D02*
X46671400Y2097600D01*
X48248600Y2402400D02*
X48248600Y2097600D01*
X46671400Y2097600D02*
G75*
G03X48248600Y2097600I788600J0D01*
G01*
X48248600Y2402400D02*
G75*
G03X46671400Y2402400I-788600J0D01*
G01*
X44131400Y2402400D02*
X44131400Y2097600D01*
X45708600Y2402400D02*
X45708600Y2097600D01*
X44131400Y2097600D02*
G75*
G03X45708600Y2097600I788600J0D01*
G01*
X45708600Y2402400D02*
G75*
G03X44131400Y2402400I-788600J0D01*
G01*
X41591400Y2402400D02*
X41591400Y2097600D01*
X43168600Y2402400D02*
X43168600Y2097600D01*
X41591400Y2097600D02*
G75*
G03X43168600Y2097600I788600J0D01*
G01*
X43168600Y2402400D02*
G75*
G03X41591400Y2402400I-788600J0D01*
G01*
X39051400Y2402400D02*
X39051400Y2097600D01*
X40628600Y2402400D02*
X40628600Y2097600D01*
X39051400Y2097600D02*
G75*
G03X40628600Y2097600I788600J0D01*
G01*
X40628600Y2402400D02*
G75*
G03X39051400Y2402400I-788600J0D01*
G01*
X36511400Y2402400D02*
X36511400Y2097600D01*
X38088600Y2402400D02*
X38088600Y2097600D01*
X36511400Y2097600D02*
G75*
G03X38088600Y2097600I788600J0D01*
G01*
X38088600Y2402400D02*
G75*
G03X36511400Y2402400I-788600J0D01*
G01*
X33971400Y2402400D02*
X33971400Y2097600D01*
X35548600Y2402400D02*
X35548600Y2097600D01*
X33971400Y2097600D02*
G75*
G03X35548600Y2097600I788600J0D01*
G01*
X35548600Y2402400D02*
G75*
G03X33971400Y2402400I-788600J0D01*
G01*
X31431400Y2402400D02*
X31431400Y2097600D01*
X33008600Y2402400D02*
X33008600Y2097600D01*
X31431400Y2097600D02*
G75*
G03X33008600Y2097600I788600J0D01*
G01*
X33008600Y2402400D02*
G75*
G03X31431400Y2402400I-788600J0D01*
G01*
X28891400Y2402400D02*
X28891400Y2097600D01*
X30468600Y2402400D02*
X30468600Y2097600D01*
X28891400Y2097600D02*
G75*
G03X30468600Y2097600I788600J0D01*
G01*
X30468600Y2402400D02*
G75*
G03X28891400Y2402400I-788600J0D01*
G01*
X26351400Y2402400D02*
X26351400Y2097600D01*
X27928600Y2402400D02*
X27928600Y2097600D01*
X26351400Y2097600D02*
G75*
G03X27928600Y2097600I788600J0D01*
G01*
X27928600Y2402400D02*
G75*
G03X26351400Y2402400I-788600J0D01*
G01*
G04 #@! TD*
G04 #@! TO.C,U11*
D19*
X21776190Y12630953D02*
X22180952Y12630953D01*
X22228571Y12654762D01*
X22252380Y12678572D01*
X22276190Y12726191D01*
X22276190Y12821429D01*
X22252380Y12869048D01*
X22228571Y12892858D01*
X22180952Y12916667D01*
X21776190Y12916667D01*
X22276190Y13416667D02*
X22276190Y13130953D01*
X22276190Y13273810D02*
X21776190Y13273810D01*
X21847619Y13226191D01*
X21895238Y13178572D01*
X21919047Y13130953D01*
X22276190Y13892858D02*
X22276190Y13607143D01*
X22276190Y13750000D02*
X21776190Y13750000D01*
X21847619Y13702381D01*
X21895238Y13654762D01*
X21919047Y13607143D01*
G04 #@! TO.C,R36*
X29926190Y24878572D02*
X29688095Y24711905D01*
X29926190Y24592858D02*
X29426190Y24592858D01*
X29426190Y24783334D01*
X29450000Y24830953D01*
X29473809Y24854762D01*
X29521428Y24878572D01*
X29592857Y24878572D01*
X29640476Y24854762D01*
X29664285Y24830953D01*
X29688095Y24783334D01*
X29688095Y24592858D01*
X29426190Y25045239D02*
X29426190Y25354762D01*
X29616666Y25188096D01*
X29616666Y25259524D01*
X29640476Y25307143D01*
X29664285Y25330953D01*
X29711904Y25354762D01*
X29830952Y25354762D01*
X29878571Y25330953D01*
X29902380Y25307143D01*
X29926190Y25259524D01*
X29926190Y25116667D01*
X29902380Y25069048D01*
X29878571Y25045239D01*
X29426190Y25783334D02*
X29426190Y25688096D01*
X29450000Y25640477D01*
X29473809Y25616667D01*
X29545238Y25569048D01*
X29640476Y25545239D01*
X29830952Y25545239D01*
X29878571Y25569048D01*
X29902380Y25592858D01*
X29926190Y25640477D01*
X29926190Y25735715D01*
X29902380Y25783334D01*
X29878571Y25807143D01*
X29830952Y25830953D01*
X29711904Y25830953D01*
X29664285Y25807143D01*
X29640476Y25783334D01*
X29616666Y25735715D01*
X29616666Y25640477D01*
X29640476Y25592858D01*
X29664285Y25569048D01*
X29711904Y25545239D01*
G04 #@! TO.C,R37*
X28926190Y24878572D02*
X28688095Y24711905D01*
X28926190Y24592858D02*
X28426190Y24592858D01*
X28426190Y24783334D01*
X28450000Y24830953D01*
X28473809Y24854762D01*
X28521428Y24878572D01*
X28592857Y24878572D01*
X28640476Y24854762D01*
X28664285Y24830953D01*
X28688095Y24783334D01*
X28688095Y24592858D01*
X28426190Y25045239D02*
X28426190Y25354762D01*
X28616666Y25188096D01*
X28616666Y25259524D01*
X28640476Y25307143D01*
X28664285Y25330953D01*
X28711904Y25354762D01*
X28830952Y25354762D01*
X28878571Y25330953D01*
X28902380Y25307143D01*
X28926190Y25259524D01*
X28926190Y25116667D01*
X28902380Y25069048D01*
X28878571Y25045239D01*
X28426190Y25521429D02*
X28426190Y25854762D01*
X28926190Y25640477D01*
G04 #@! TO.C,R1*
X30726190Y20016667D02*
X30488095Y19850000D01*
X30726190Y19730953D02*
X30226190Y19730953D01*
X30226190Y19921429D01*
X30250000Y19969048D01*
X30273809Y19992858D01*
X30321428Y20016667D01*
X30392857Y20016667D01*
X30440476Y19992858D01*
X30464285Y19969048D01*
X30488095Y19921429D01*
X30488095Y19730953D01*
X30726190Y20492858D02*
X30726190Y20207143D01*
X30726190Y20350000D02*
X30226190Y20350000D01*
X30297619Y20302381D01*
X30345238Y20254762D01*
X30369047Y20207143D01*
G04 #@! TO.C,R14*
X34226190Y19778572D02*
X33988095Y19611905D01*
X34226190Y19492858D02*
X33726190Y19492858D01*
X33726190Y19683334D01*
X33750000Y19730953D01*
X33773809Y19754762D01*
X33821428Y19778572D01*
X33892857Y19778572D01*
X33940476Y19754762D01*
X33964285Y19730953D01*
X33988095Y19683334D01*
X33988095Y19492858D01*
X34226190Y20254762D02*
X34226190Y19969048D01*
X34226190Y20111905D02*
X33726190Y20111905D01*
X33797619Y20064286D01*
X33845238Y20016667D01*
X33869047Y19969048D01*
X33892857Y20683334D02*
X34226190Y20683334D01*
X33702380Y20564286D02*
X34059523Y20445239D01*
X34059523Y20754762D01*
G04 #@! TO.C,R15*
X37926190Y19778572D02*
X37688095Y19611905D01*
X37926190Y19492858D02*
X37426190Y19492858D01*
X37426190Y19683334D01*
X37450000Y19730953D01*
X37473809Y19754762D01*
X37521428Y19778572D01*
X37592857Y19778572D01*
X37640476Y19754762D01*
X37664285Y19730953D01*
X37688095Y19683334D01*
X37688095Y19492858D01*
X37926190Y20254762D02*
X37926190Y19969048D01*
X37926190Y20111905D02*
X37426190Y20111905D01*
X37497619Y20064286D01*
X37545238Y20016667D01*
X37569047Y19969048D01*
X37426190Y20707143D02*
X37426190Y20469048D01*
X37664285Y20445239D01*
X37640476Y20469048D01*
X37616666Y20516667D01*
X37616666Y20635715D01*
X37640476Y20683334D01*
X37664285Y20707143D01*
X37711904Y20730953D01*
X37830952Y20730953D01*
X37878571Y20707143D01*
X37902380Y20683334D01*
X37926190Y20635715D01*
X37926190Y20516667D01*
X37902380Y20469048D01*
X37878571Y20445239D01*
G04 #@! TO.C,R16*
X27726190Y24878572D02*
X27488095Y24711905D01*
X27726190Y24592858D02*
X27226190Y24592858D01*
X27226190Y24783334D01*
X27250000Y24830953D01*
X27273809Y24854762D01*
X27321428Y24878572D01*
X27392857Y24878572D01*
X27440476Y24854762D01*
X27464285Y24830953D01*
X27488095Y24783334D01*
X27488095Y24592858D01*
X27726190Y25354762D02*
X27726190Y25069048D01*
X27726190Y25211905D02*
X27226190Y25211905D01*
X27297619Y25164286D01*
X27345238Y25116667D01*
X27369047Y25069048D01*
X27226190Y25783334D02*
X27226190Y25688096D01*
X27250000Y25640477D01*
X27273809Y25616667D01*
X27345238Y25569048D01*
X27440476Y25545239D01*
X27630952Y25545239D01*
X27678571Y25569048D01*
X27702380Y25592858D01*
X27726190Y25640477D01*
X27726190Y25735715D01*
X27702380Y25783334D01*
X27678571Y25807143D01*
X27630952Y25830953D01*
X27511904Y25830953D01*
X27464285Y25807143D01*
X27440476Y25783334D01*
X27416666Y25735715D01*
X27416666Y25640477D01*
X27440476Y25592858D01*
X27464285Y25569048D01*
X27511904Y25545239D01*
G04 #@! TO.C,Q5*
X27527380Y23701191D02*
X27479761Y23725000D01*
X27432142Y23772620D01*
X27360714Y23844048D01*
X27313095Y23867858D01*
X27265476Y23867858D01*
X27289285Y23748810D02*
X27241666Y23772620D01*
X27194047Y23820239D01*
X27170238Y23915477D01*
X27170238Y24082143D01*
X27194047Y24177381D01*
X27241666Y24225000D01*
X27289285Y24248810D01*
X27384523Y24248810D01*
X27432142Y24225000D01*
X27479761Y24177381D01*
X27503571Y24082143D01*
X27503571Y23915477D01*
X27479761Y23820239D01*
X27432142Y23772620D01*
X27384523Y23748810D01*
X27289285Y23748810D01*
X27955952Y24248810D02*
X27717857Y24248810D01*
X27694047Y24010715D01*
X27717857Y24034524D01*
X27765476Y24058334D01*
X27884523Y24058334D01*
X27932142Y24034524D01*
X27955952Y24010715D01*
X27979761Y23963096D01*
X27979761Y23844048D01*
X27955952Y23796429D01*
X27932142Y23772620D01*
X27884523Y23748810D01*
X27765476Y23748810D01*
X27717857Y23772620D01*
X27694047Y23796429D01*
G04 #@! TO.C,Q6*
X30927380Y23601191D02*
X30879761Y23625000D01*
X30832142Y23672620D01*
X30760714Y23744048D01*
X30713095Y23767858D01*
X30665476Y23767858D01*
X30689285Y23648810D02*
X30641666Y23672620D01*
X30594047Y23720239D01*
X30570238Y23815477D01*
X30570238Y23982143D01*
X30594047Y24077381D01*
X30641666Y24125000D01*
X30689285Y24148810D01*
X30784523Y24148810D01*
X30832142Y24125000D01*
X30879761Y24077381D01*
X30903571Y23982143D01*
X30903571Y23815477D01*
X30879761Y23720239D01*
X30832142Y23672620D01*
X30784523Y23648810D01*
X30689285Y23648810D01*
X31332142Y24148810D02*
X31236904Y24148810D01*
X31189285Y24125000D01*
X31165476Y24101191D01*
X31117857Y24029762D01*
X31094047Y23934524D01*
X31094047Y23744048D01*
X31117857Y23696429D01*
X31141666Y23672620D01*
X31189285Y23648810D01*
X31284523Y23648810D01*
X31332142Y23672620D01*
X31355952Y23696429D01*
X31379761Y23744048D01*
X31379761Y23863096D01*
X31355952Y23910715D01*
X31332142Y23934524D01*
X31284523Y23958334D01*
X31189285Y23958334D01*
X31141666Y23934524D01*
X31117857Y23910715D01*
X31094047Y23863096D01*
G04 #@! TO.C,Q7*
X38102380Y22326191D02*
X38054761Y22350000D01*
X38007142Y22397620D01*
X37935714Y22469048D01*
X37888095Y22492858D01*
X37840476Y22492858D01*
X37864285Y22373810D02*
X37816666Y22397620D01*
X37769047Y22445239D01*
X37745238Y22540477D01*
X37745238Y22707143D01*
X37769047Y22802381D01*
X37816666Y22850000D01*
X37864285Y22873810D01*
X37959523Y22873810D01*
X38007142Y22850000D01*
X38054761Y22802381D01*
X38078571Y22707143D01*
X38078571Y22540477D01*
X38054761Y22445239D01*
X38007142Y22397620D01*
X37959523Y22373810D01*
X37864285Y22373810D01*
X38245238Y22873810D02*
X38578571Y22873810D01*
X38364285Y22373810D01*
G04 #@! TO.C,J2*
X55633333Y12098810D02*
X55633333Y11741667D01*
X55609523Y11670239D01*
X55561904Y11622620D01*
X55490476Y11598810D01*
X55442857Y11598810D01*
X55847619Y12051191D02*
X55871428Y12075000D01*
X55919047Y12098810D01*
X56038095Y12098810D01*
X56085714Y12075000D01*
X56109523Y12051191D01*
X56133333Y12003572D01*
X56133333Y11955953D01*
X56109523Y11884524D01*
X55823809Y11598810D01*
X56133333Y11598810D01*
G04 #@! TO.C,U1*
X36794047Y8473810D02*
X36794047Y8069048D01*
X36817857Y8021429D01*
X36841666Y7997620D01*
X36889285Y7973810D01*
X36984523Y7973810D01*
X37032142Y7997620D01*
X37055952Y8021429D01*
X37079761Y8069048D01*
X37079761Y8473810D01*
X37579761Y7973810D02*
X37294047Y7973810D01*
X37436904Y7973810D02*
X37436904Y8473810D01*
X37389285Y8402381D01*
X37341666Y8354762D01*
X37294047Y8330953D01*
G04 #@! TO.C,U3*
X53454047Y6713810D02*
X53454047Y6309048D01*
X53477857Y6261429D01*
X53501666Y6237620D01*
X53549285Y6213810D01*
X53644523Y6213810D01*
X53692142Y6237620D01*
X53715952Y6261429D01*
X53739761Y6309048D01*
X53739761Y6713810D01*
X53930238Y6713810D02*
X54239761Y6713810D01*
X54073095Y6523334D01*
X54144523Y6523334D01*
X54192142Y6499524D01*
X54215952Y6475715D01*
X54239761Y6428096D01*
X54239761Y6309048D01*
X54215952Y6261429D01*
X54192142Y6237620D01*
X54144523Y6213810D01*
X54001666Y6213810D01*
X53954047Y6237620D01*
X53930238Y6261429D01*
G04 #@! TO.C,P1*
X52301190Y745953D02*
X51801190Y745953D01*
X51801190Y936429D01*
X51825000Y984048D01*
X51848809Y1007858D01*
X51896428Y1031667D01*
X51967857Y1031667D01*
X52015476Y1007858D01*
X52039285Y984048D01*
X52063095Y936429D01*
X52063095Y745953D01*
X52301190Y1507858D02*
X52301190Y1222143D01*
X52301190Y1365000D02*
X51801190Y1365000D01*
X51872619Y1317381D01*
X51920238Y1269762D01*
X51944047Y1222143D01*
G04 #@! TO.C,C20*
X22478571Y25078572D02*
X22502380Y25054762D01*
X22526190Y24983334D01*
X22526190Y24935715D01*
X22502380Y24864286D01*
X22454761Y24816667D01*
X22407142Y24792858D01*
X22311904Y24769048D01*
X22240476Y24769048D01*
X22145238Y24792858D01*
X22097619Y24816667D01*
X22050000Y24864286D01*
X22026190Y24935715D01*
X22026190Y24983334D01*
X22050000Y25054762D01*
X22073809Y25078572D01*
X22073809Y25269048D02*
X22050000Y25292858D01*
X22026190Y25340477D01*
X22026190Y25459524D01*
X22050000Y25507143D01*
X22073809Y25530953D01*
X22121428Y25554762D01*
X22169047Y25554762D01*
X22240476Y25530953D01*
X22526190Y25245239D01*
X22526190Y25554762D01*
X22026190Y25864286D02*
X22026190Y25911905D01*
X22050000Y25959524D01*
X22073809Y25983334D01*
X22121428Y26007143D01*
X22216666Y26030953D01*
X22335714Y26030953D01*
X22430952Y26007143D01*
X22478571Y25983334D01*
X22502380Y25959524D01*
X22526190Y25911905D01*
X22526190Y25864286D01*
X22502380Y25816667D01*
X22478571Y25792858D01*
X22430952Y25769048D01*
X22335714Y25745239D01*
X22216666Y25745239D01*
X22121428Y25769048D01*
X22073809Y25792858D01*
X22050000Y25816667D01*
X22026190Y25864286D01*
G04 #@! TO.C,C1*
X44416666Y8121429D02*
X44392857Y8097620D01*
X44321428Y8073810D01*
X44273809Y8073810D01*
X44202380Y8097620D01*
X44154761Y8145239D01*
X44130952Y8192858D01*
X44107142Y8288096D01*
X44107142Y8359524D01*
X44130952Y8454762D01*
X44154761Y8502381D01*
X44202380Y8550000D01*
X44273809Y8573810D01*
X44321428Y8573810D01*
X44392857Y8550000D01*
X44416666Y8526191D01*
X44892857Y8073810D02*
X44607142Y8073810D01*
X44750000Y8073810D02*
X44750000Y8573810D01*
X44702380Y8502381D01*
X44654761Y8454762D01*
X44607142Y8430953D01*
G04 #@! TO.C,C2*
X44416666Y7021429D02*
X44392857Y6997620D01*
X44321428Y6973810D01*
X44273809Y6973810D01*
X44202380Y6997620D01*
X44154761Y7045239D01*
X44130952Y7092858D01*
X44107142Y7188096D01*
X44107142Y7259524D01*
X44130952Y7354762D01*
X44154761Y7402381D01*
X44202380Y7450000D01*
X44273809Y7473810D01*
X44321428Y7473810D01*
X44392857Y7450000D01*
X44416666Y7426191D01*
X44607142Y7426191D02*
X44630952Y7450000D01*
X44678571Y7473810D01*
X44797619Y7473810D01*
X44845238Y7450000D01*
X44869047Y7426191D01*
X44892857Y7378572D01*
X44892857Y7330953D01*
X44869047Y7259524D01*
X44583333Y6973810D01*
X44892857Y6973810D01*
G04 #@! TO.C,C3*
X33516666Y9921429D02*
X33492857Y9897620D01*
X33421428Y9873810D01*
X33373809Y9873810D01*
X33302380Y9897620D01*
X33254761Y9945239D01*
X33230952Y9992858D01*
X33207142Y10088096D01*
X33207142Y10159524D01*
X33230952Y10254762D01*
X33254761Y10302381D01*
X33302380Y10350000D01*
X33373809Y10373810D01*
X33421428Y10373810D01*
X33492857Y10350000D01*
X33516666Y10326191D01*
X33683333Y10373810D02*
X33992857Y10373810D01*
X33826190Y10183334D01*
X33897619Y10183334D01*
X33945238Y10159524D01*
X33969047Y10135715D01*
X33992857Y10088096D01*
X33992857Y9969048D01*
X33969047Y9921429D01*
X33945238Y9897620D01*
X33897619Y9873810D01*
X33754761Y9873810D01*
X33707142Y9897620D01*
X33683333Y9921429D01*
G04 #@! TO.C,C4*
X33516666Y9221429D02*
X33492857Y9197620D01*
X33421428Y9173810D01*
X33373809Y9173810D01*
X33302380Y9197620D01*
X33254761Y9245239D01*
X33230952Y9292858D01*
X33207142Y9388096D01*
X33207142Y9459524D01*
X33230952Y9554762D01*
X33254761Y9602381D01*
X33302380Y9650000D01*
X33373809Y9673810D01*
X33421428Y9673810D01*
X33492857Y9650000D01*
X33516666Y9626191D01*
X33945238Y9507143D02*
X33945238Y9173810D01*
X33826190Y9697620D02*
X33707142Y9340477D01*
X34016666Y9340477D01*
G04 #@! TO.C,C5*
X44416666Y10771429D02*
X44392857Y10747620D01*
X44321428Y10723810D01*
X44273809Y10723810D01*
X44202380Y10747620D01*
X44154761Y10795239D01*
X44130952Y10842858D01*
X44107142Y10938096D01*
X44107142Y11009524D01*
X44130952Y11104762D01*
X44154761Y11152381D01*
X44202380Y11200000D01*
X44273809Y11223810D01*
X44321428Y11223810D01*
X44392857Y11200000D01*
X44416666Y11176191D01*
X44869047Y11223810D02*
X44630952Y11223810D01*
X44607142Y10985715D01*
X44630952Y11009524D01*
X44678571Y11033334D01*
X44797619Y11033334D01*
X44845238Y11009524D01*
X44869047Y10985715D01*
X44892857Y10938096D01*
X44892857Y10819048D01*
X44869047Y10771429D01*
X44845238Y10747620D01*
X44797619Y10723810D01*
X44678571Y10723810D01*
X44630952Y10747620D01*
X44607142Y10771429D01*
G04 #@! TO.C,C6*
X44416666Y9821429D02*
X44392857Y9797620D01*
X44321428Y9773810D01*
X44273809Y9773810D01*
X44202380Y9797620D01*
X44154761Y9845239D01*
X44130952Y9892858D01*
X44107142Y9988096D01*
X44107142Y10059524D01*
X44130952Y10154762D01*
X44154761Y10202381D01*
X44202380Y10250000D01*
X44273809Y10273810D01*
X44321428Y10273810D01*
X44392857Y10250000D01*
X44416666Y10226191D01*
X44845238Y10273810D02*
X44750000Y10273810D01*
X44702380Y10250000D01*
X44678571Y10226191D01*
X44630952Y10154762D01*
X44607142Y10059524D01*
X44607142Y9869048D01*
X44630952Y9821429D01*
X44654761Y9797620D01*
X44702380Y9773810D01*
X44797619Y9773810D01*
X44845238Y9797620D01*
X44869047Y9821429D01*
X44892857Y9869048D01*
X44892857Y9988096D01*
X44869047Y10035715D01*
X44845238Y10059524D01*
X44797619Y10083334D01*
X44702380Y10083334D01*
X44654761Y10059524D01*
X44630952Y10035715D01*
X44607142Y9988096D01*
G04 #@! TO.C,C7*
X33516666Y8521429D02*
X33492857Y8497620D01*
X33421428Y8473810D01*
X33373809Y8473810D01*
X33302380Y8497620D01*
X33254761Y8545239D01*
X33230952Y8592858D01*
X33207142Y8688096D01*
X33207142Y8759524D01*
X33230952Y8854762D01*
X33254761Y8902381D01*
X33302380Y8950000D01*
X33373809Y8973810D01*
X33421428Y8973810D01*
X33492857Y8950000D01*
X33516666Y8926191D01*
X33683333Y8973810D02*
X34016666Y8973810D01*
X33802380Y8473810D01*
G04 #@! TO.C,C8*
X33516666Y7821429D02*
X33492857Y7797620D01*
X33421428Y7773810D01*
X33373809Y7773810D01*
X33302380Y7797620D01*
X33254761Y7845239D01*
X33230952Y7892858D01*
X33207142Y7988096D01*
X33207142Y8059524D01*
X33230952Y8154762D01*
X33254761Y8202381D01*
X33302380Y8250000D01*
X33373809Y8273810D01*
X33421428Y8273810D01*
X33492857Y8250000D01*
X33516666Y8226191D01*
X33802380Y8059524D02*
X33754761Y8083334D01*
X33730952Y8107143D01*
X33707142Y8154762D01*
X33707142Y8178572D01*
X33730952Y8226191D01*
X33754761Y8250000D01*
X33802380Y8273810D01*
X33897619Y8273810D01*
X33945238Y8250000D01*
X33969047Y8226191D01*
X33992857Y8178572D01*
X33992857Y8154762D01*
X33969047Y8107143D01*
X33945238Y8083334D01*
X33897619Y8059524D01*
X33802380Y8059524D01*
X33754761Y8035715D01*
X33730952Y8011905D01*
X33707142Y7964286D01*
X33707142Y7869048D01*
X33730952Y7821429D01*
X33754761Y7797620D01*
X33802380Y7773810D01*
X33897619Y7773810D01*
X33945238Y7797620D01*
X33969047Y7821429D01*
X33992857Y7869048D01*
X33992857Y7964286D01*
X33969047Y8011905D01*
X33945238Y8035715D01*
X33897619Y8059524D01*
G04 #@! TO.C,C9*
X51367343Y12114806D02*
X51367343Y12081134D01*
X51333671Y12013791D01*
X51300000Y11980119D01*
X51232656Y11946447D01*
X51165312Y11946447D01*
X51114805Y11963283D01*
X51030625Y12013791D01*
X50980118Y12064298D01*
X50929610Y12148478D01*
X50912774Y12198985D01*
X50912774Y12266329D01*
X50946446Y12333672D01*
X50980118Y12367344D01*
X51047461Y12401016D01*
X51081133Y12401016D01*
X51569374Y12249493D02*
X51636717Y12316836D01*
X51653553Y12367344D01*
X51653553Y12401016D01*
X51636717Y12485195D01*
X51586209Y12569375D01*
X51451522Y12704062D01*
X51401015Y12720897D01*
X51367343Y12720897D01*
X51316835Y12704062D01*
X51249492Y12636718D01*
X51232656Y12586210D01*
X51232656Y12552539D01*
X51249492Y12502031D01*
X51333671Y12417852D01*
X51384179Y12401016D01*
X51417851Y12401016D01*
X51468358Y12417852D01*
X51535702Y12485195D01*
X51552538Y12535703D01*
X51552538Y12569375D01*
X51535702Y12619882D01*
G04 #@! TO.C,C10*
X45798984Y17946448D02*
X45798984Y17912776D01*
X45765312Y17845433D01*
X45731641Y17811761D01*
X45664297Y17778089D01*
X45596954Y17778089D01*
X45546446Y17794925D01*
X45462267Y17845433D01*
X45411759Y17895940D01*
X45361251Y17980120D01*
X45344416Y18030627D01*
X45344416Y18097971D01*
X45378087Y18165314D01*
X45411759Y18198986D01*
X45479103Y18232658D01*
X45512774Y18232658D01*
X46169374Y18249494D02*
X45967343Y18047463D01*
X46068358Y18148479D02*
X45714805Y18502032D01*
X45731641Y18417853D01*
X45731641Y18350509D01*
X45714805Y18300001D01*
X46034687Y18821914D02*
X46068358Y18855585D01*
X46118866Y18872421D01*
X46152538Y18872421D01*
X46203045Y18855585D01*
X46287225Y18805078D01*
X46371404Y18720898D01*
X46421912Y18636719D01*
X46438748Y18586211D01*
X46438748Y18552540D01*
X46421912Y18502032D01*
X46388240Y18468360D01*
X46337732Y18451524D01*
X46304061Y18451524D01*
X46253553Y18468360D01*
X46169374Y18518868D01*
X46085194Y18603047D01*
X46034687Y18687227D01*
X46017851Y18737734D01*
X46017851Y18771406D01*
X46034687Y18821914D01*
G04 #@! TO.C,C12*
X40078571Y16178572D02*
X40102380Y16154762D01*
X40126190Y16083334D01*
X40126190Y16035715D01*
X40102380Y15964286D01*
X40054761Y15916667D01*
X40007142Y15892858D01*
X39911904Y15869048D01*
X39840476Y15869048D01*
X39745238Y15892858D01*
X39697619Y15916667D01*
X39650000Y15964286D01*
X39626190Y16035715D01*
X39626190Y16083334D01*
X39650000Y16154762D01*
X39673809Y16178572D01*
X40126190Y16654762D02*
X40126190Y16369048D01*
X40126190Y16511905D02*
X39626190Y16511905D01*
X39697619Y16464286D01*
X39745238Y16416667D01*
X39769047Y16369048D01*
X39673809Y16845239D02*
X39650000Y16869048D01*
X39626190Y16916667D01*
X39626190Y17035715D01*
X39650000Y17083334D01*
X39673809Y17107143D01*
X39721428Y17130953D01*
X39769047Y17130953D01*
X39840476Y17107143D01*
X40126190Y16821429D01*
X40126190Y17130953D01*
G04 #@! TO.C,C13*
X38778571Y16178572D02*
X38802380Y16154762D01*
X38826190Y16083334D01*
X38826190Y16035715D01*
X38802380Y15964286D01*
X38754761Y15916667D01*
X38707142Y15892858D01*
X38611904Y15869048D01*
X38540476Y15869048D01*
X38445238Y15892858D01*
X38397619Y15916667D01*
X38350000Y15964286D01*
X38326190Y16035715D01*
X38326190Y16083334D01*
X38350000Y16154762D01*
X38373809Y16178572D01*
X38826190Y16654762D02*
X38826190Y16369048D01*
X38826190Y16511905D02*
X38326190Y16511905D01*
X38397619Y16464286D01*
X38445238Y16416667D01*
X38469047Y16369048D01*
X38326190Y16821429D02*
X38326190Y17130953D01*
X38516666Y16964286D01*
X38516666Y17035715D01*
X38540476Y17083334D01*
X38564285Y17107143D01*
X38611904Y17130953D01*
X38730952Y17130953D01*
X38778571Y17107143D01*
X38802380Y17083334D01*
X38826190Y17035715D01*
X38826190Y16892858D01*
X38802380Y16845239D01*
X38778571Y16821429D01*
G04 #@! TO.C,C14*
X36478571Y16178572D02*
X36502380Y16154762D01*
X36526190Y16083334D01*
X36526190Y16035715D01*
X36502380Y15964286D01*
X36454761Y15916667D01*
X36407142Y15892858D01*
X36311904Y15869048D01*
X36240476Y15869048D01*
X36145238Y15892858D01*
X36097619Y15916667D01*
X36050000Y15964286D01*
X36026190Y16035715D01*
X36026190Y16083334D01*
X36050000Y16154762D01*
X36073809Y16178572D01*
X36526190Y16654762D02*
X36526190Y16369048D01*
X36526190Y16511905D02*
X36026190Y16511905D01*
X36097619Y16464286D01*
X36145238Y16416667D01*
X36169047Y16369048D01*
X36192857Y17083334D02*
X36526190Y17083334D01*
X36002380Y16964286D02*
X36359523Y16845239D01*
X36359523Y17154762D01*
G04 #@! TO.C,C15*
X34678571Y16178572D02*
X34702380Y16154762D01*
X34726190Y16083334D01*
X34726190Y16035715D01*
X34702380Y15964286D01*
X34654761Y15916667D01*
X34607142Y15892858D01*
X34511904Y15869048D01*
X34440476Y15869048D01*
X34345238Y15892858D01*
X34297619Y15916667D01*
X34250000Y15964286D01*
X34226190Y16035715D01*
X34226190Y16083334D01*
X34250000Y16154762D01*
X34273809Y16178572D01*
X34726190Y16654762D02*
X34726190Y16369048D01*
X34726190Y16511905D02*
X34226190Y16511905D01*
X34297619Y16464286D01*
X34345238Y16416667D01*
X34369047Y16369048D01*
X34226190Y17107143D02*
X34226190Y16869048D01*
X34464285Y16845239D01*
X34440476Y16869048D01*
X34416666Y16916667D01*
X34416666Y17035715D01*
X34440476Y17083334D01*
X34464285Y17107143D01*
X34511904Y17130953D01*
X34630952Y17130953D01*
X34678571Y17107143D01*
X34702380Y17083334D01*
X34726190Y17035715D01*
X34726190Y16916667D01*
X34702380Y16869048D01*
X34678571Y16845239D01*
G04 #@! TO.C,C17*
X13728571Y2271429D02*
X13704761Y2247620D01*
X13633333Y2223810D01*
X13585714Y2223810D01*
X13514285Y2247620D01*
X13466666Y2295239D01*
X13442857Y2342858D01*
X13419047Y2438096D01*
X13419047Y2509524D01*
X13442857Y2604762D01*
X13466666Y2652381D01*
X13514285Y2700000D01*
X13585714Y2723810D01*
X13633333Y2723810D01*
X13704761Y2700000D01*
X13728571Y2676191D01*
X14204761Y2223810D02*
X13919047Y2223810D01*
X14061904Y2223810D02*
X14061904Y2723810D01*
X14014285Y2652381D01*
X13966666Y2604762D01*
X13919047Y2580953D01*
X14371428Y2723810D02*
X14704761Y2723810D01*
X14490476Y2223810D01*
G04 #@! TO.C,C19*
X5863571Y13571429D02*
X5839761Y13547620D01*
X5768333Y13523810D01*
X5720714Y13523810D01*
X5649285Y13547620D01*
X5601666Y13595239D01*
X5577857Y13642858D01*
X5554047Y13738096D01*
X5554047Y13809524D01*
X5577857Y13904762D01*
X5601666Y13952381D01*
X5649285Y14000000D01*
X5720714Y14023810D01*
X5768333Y14023810D01*
X5839761Y14000000D01*
X5863571Y13976191D01*
X6339761Y13523810D02*
X6054047Y13523810D01*
X6196904Y13523810D02*
X6196904Y14023810D01*
X6149285Y13952381D01*
X6101666Y13904762D01*
X6054047Y13880953D01*
X6577857Y13523810D02*
X6673095Y13523810D01*
X6720714Y13547620D01*
X6744523Y13571429D01*
X6792142Y13642858D01*
X6815952Y13738096D01*
X6815952Y13928572D01*
X6792142Y13976191D01*
X6768333Y14000000D01*
X6720714Y14023810D01*
X6625476Y14023810D01*
X6577857Y14000000D01*
X6554047Y13976191D01*
X6530238Y13928572D01*
X6530238Y13809524D01*
X6554047Y13761905D01*
X6577857Y13738096D01*
X6625476Y13714286D01*
X6720714Y13714286D01*
X6768333Y13738096D01*
X6792142Y13761905D01*
X6815952Y13809524D01*
G04 #@! TO.C,C23*
X21603571Y10146429D02*
X21579761Y10122620D01*
X21508333Y10098810D01*
X21460714Y10098810D01*
X21389285Y10122620D01*
X21341666Y10170239D01*
X21317857Y10217858D01*
X21294047Y10313096D01*
X21294047Y10384524D01*
X21317857Y10479762D01*
X21341666Y10527381D01*
X21389285Y10575000D01*
X21460714Y10598810D01*
X21508333Y10598810D01*
X21579761Y10575000D01*
X21603571Y10551191D01*
X21794047Y10551191D02*
X21817857Y10575000D01*
X21865476Y10598810D01*
X21984523Y10598810D01*
X22032142Y10575000D01*
X22055952Y10551191D01*
X22079761Y10503572D01*
X22079761Y10455953D01*
X22055952Y10384524D01*
X21770238Y10098810D01*
X22079761Y10098810D01*
X22246428Y10598810D02*
X22555952Y10598810D01*
X22389285Y10408334D01*
X22460714Y10408334D01*
X22508333Y10384524D01*
X22532142Y10360715D01*
X22555952Y10313096D01*
X22555952Y10194048D01*
X22532142Y10146429D01*
X22508333Y10122620D01*
X22460714Y10098810D01*
X22317857Y10098810D01*
X22270238Y10122620D01*
X22246428Y10146429D01*
G04 #@! TO.C,C24*
X23553571Y11546429D02*
X23529761Y11522620D01*
X23458333Y11498810D01*
X23410714Y11498810D01*
X23339285Y11522620D01*
X23291666Y11570239D01*
X23267857Y11617858D01*
X23244047Y11713096D01*
X23244047Y11784524D01*
X23267857Y11879762D01*
X23291666Y11927381D01*
X23339285Y11975000D01*
X23410714Y11998810D01*
X23458333Y11998810D01*
X23529761Y11975000D01*
X23553571Y11951191D01*
X23744047Y11951191D02*
X23767857Y11975000D01*
X23815476Y11998810D01*
X23934523Y11998810D01*
X23982142Y11975000D01*
X24005952Y11951191D01*
X24029761Y11903572D01*
X24029761Y11855953D01*
X24005952Y11784524D01*
X23720238Y11498810D01*
X24029761Y11498810D01*
X24458333Y11832143D02*
X24458333Y11498810D01*
X24339285Y12022620D02*
X24220238Y11665477D01*
X24529761Y11665477D01*
G04 #@! TO.C,C25*
X22328571Y18671429D02*
X22304761Y18647620D01*
X22233333Y18623810D01*
X22185714Y18623810D01*
X22114285Y18647620D01*
X22066666Y18695239D01*
X22042857Y18742858D01*
X22019047Y18838096D01*
X22019047Y18909524D01*
X22042857Y19004762D01*
X22066666Y19052381D01*
X22114285Y19100000D01*
X22185714Y19123810D01*
X22233333Y19123810D01*
X22304761Y19100000D01*
X22328571Y19076191D01*
X22519047Y19076191D02*
X22542857Y19100000D01*
X22590476Y19123810D01*
X22709523Y19123810D01*
X22757142Y19100000D01*
X22780952Y19076191D01*
X22804761Y19028572D01*
X22804761Y18980953D01*
X22780952Y18909524D01*
X22495238Y18623810D01*
X22804761Y18623810D01*
X23257142Y19123810D02*
X23019047Y19123810D01*
X22995238Y18885715D01*
X23019047Y18909524D01*
X23066666Y18933334D01*
X23185714Y18933334D01*
X23233333Y18909524D01*
X23257142Y18885715D01*
X23280952Y18838096D01*
X23280952Y18719048D01*
X23257142Y18671429D01*
X23233333Y18647620D01*
X23185714Y18623810D01*
X23066666Y18623810D01*
X23019047Y18647620D01*
X22995238Y18671429D01*
G04 #@! TO.C,C31*
X14178571Y16178572D02*
X14202380Y16154762D01*
X14226190Y16083334D01*
X14226190Y16035715D01*
X14202380Y15964286D01*
X14154761Y15916667D01*
X14107142Y15892858D01*
X14011904Y15869048D01*
X13940476Y15869048D01*
X13845238Y15892858D01*
X13797619Y15916667D01*
X13750000Y15964286D01*
X13726190Y16035715D01*
X13726190Y16083334D01*
X13750000Y16154762D01*
X13773809Y16178572D01*
X13726190Y16345239D02*
X13726190Y16654762D01*
X13916666Y16488096D01*
X13916666Y16559524D01*
X13940476Y16607143D01*
X13964285Y16630953D01*
X14011904Y16654762D01*
X14130952Y16654762D01*
X14178571Y16630953D01*
X14202380Y16607143D01*
X14226190Y16559524D01*
X14226190Y16416667D01*
X14202380Y16369048D01*
X14178571Y16345239D01*
X14226190Y17130953D02*
X14226190Y16845239D01*
X14226190Y16988096D02*
X13726190Y16988096D01*
X13797619Y16940477D01*
X13845238Y16892858D01*
X13869047Y16845239D01*
G04 #@! TO.C,C35*
X20878571Y14178572D02*
X20902380Y14154762D01*
X20926190Y14083334D01*
X20926190Y14035715D01*
X20902380Y13964286D01*
X20854761Y13916667D01*
X20807142Y13892858D01*
X20711904Y13869048D01*
X20640476Y13869048D01*
X20545238Y13892858D01*
X20497619Y13916667D01*
X20450000Y13964286D01*
X20426190Y14035715D01*
X20426190Y14083334D01*
X20450000Y14154762D01*
X20473809Y14178572D01*
X20426190Y14345239D02*
X20426190Y14654762D01*
X20616666Y14488096D01*
X20616666Y14559524D01*
X20640476Y14607143D01*
X20664285Y14630953D01*
X20711904Y14654762D01*
X20830952Y14654762D01*
X20878571Y14630953D01*
X20902380Y14607143D01*
X20926190Y14559524D01*
X20926190Y14416667D01*
X20902380Y14369048D01*
X20878571Y14345239D01*
X20426190Y15107143D02*
X20426190Y14869048D01*
X20664285Y14845239D01*
X20640476Y14869048D01*
X20616666Y14916667D01*
X20616666Y15035715D01*
X20640476Y15083334D01*
X20664285Y15107143D01*
X20711904Y15130953D01*
X20830952Y15130953D01*
X20878571Y15107143D01*
X20902380Y15083334D01*
X20926190Y15035715D01*
X20926190Y14916667D01*
X20902380Y14869048D01*
X20878571Y14845239D01*
G04 #@! TO.C,C39*
X51403571Y5106429D02*
X51379761Y5082620D01*
X51308333Y5058810D01*
X51260714Y5058810D01*
X51189285Y5082620D01*
X51141666Y5130239D01*
X51117857Y5177858D01*
X51094047Y5273096D01*
X51094047Y5344524D01*
X51117857Y5439762D01*
X51141666Y5487381D01*
X51189285Y5535000D01*
X51260714Y5558810D01*
X51308333Y5558810D01*
X51379761Y5535000D01*
X51403571Y5511191D01*
X51570238Y5558810D02*
X51879761Y5558810D01*
X51713095Y5368334D01*
X51784523Y5368334D01*
X51832142Y5344524D01*
X51855952Y5320715D01*
X51879761Y5273096D01*
X51879761Y5154048D01*
X51855952Y5106429D01*
X51832142Y5082620D01*
X51784523Y5058810D01*
X51641666Y5058810D01*
X51594047Y5082620D01*
X51570238Y5106429D01*
X52117857Y5058810D02*
X52213095Y5058810D01*
X52260714Y5082620D01*
X52284523Y5106429D01*
X52332142Y5177858D01*
X52355952Y5273096D01*
X52355952Y5463572D01*
X52332142Y5511191D01*
X52308333Y5535000D01*
X52260714Y5558810D01*
X52165476Y5558810D01*
X52117857Y5535000D01*
X52094047Y5511191D01*
X52070238Y5463572D01*
X52070238Y5344524D01*
X52094047Y5296905D01*
X52117857Y5273096D01*
X52165476Y5249286D01*
X52260714Y5249286D01*
X52308333Y5273096D01*
X52332142Y5296905D01*
X52355952Y5344524D01*
G04 #@! TO.C,C40*
X43978571Y22921429D02*
X43954761Y22897620D01*
X43883333Y22873810D01*
X43835714Y22873810D01*
X43764285Y22897620D01*
X43716666Y22945239D01*
X43692857Y22992858D01*
X43669047Y23088096D01*
X43669047Y23159524D01*
X43692857Y23254762D01*
X43716666Y23302381D01*
X43764285Y23350000D01*
X43835714Y23373810D01*
X43883333Y23373810D01*
X43954761Y23350000D01*
X43978571Y23326191D01*
X44407142Y23207143D02*
X44407142Y22873810D01*
X44288095Y23397620D02*
X44169047Y23040477D01*
X44478571Y23040477D01*
X44764285Y23373810D02*
X44811904Y23373810D01*
X44859523Y23350000D01*
X44883333Y23326191D01*
X44907142Y23278572D01*
X44930952Y23183334D01*
X44930952Y23064286D01*
X44907142Y22969048D01*
X44883333Y22921429D01*
X44859523Y22897620D01*
X44811904Y22873810D01*
X44764285Y22873810D01*
X44716666Y22897620D01*
X44692857Y22921429D01*
X44669047Y22969048D01*
X44645238Y23064286D01*
X44645238Y23183334D01*
X44669047Y23278572D01*
X44692857Y23326191D01*
X44716666Y23350000D01*
X44764285Y23373810D01*
G04 #@! TO.C,C41*
X46428571Y20528572D02*
X46452380Y20504762D01*
X46476190Y20433334D01*
X46476190Y20385715D01*
X46452380Y20314286D01*
X46404761Y20266667D01*
X46357142Y20242858D01*
X46261904Y20219048D01*
X46190476Y20219048D01*
X46095238Y20242858D01*
X46047619Y20266667D01*
X46000000Y20314286D01*
X45976190Y20385715D01*
X45976190Y20433334D01*
X46000000Y20504762D01*
X46023809Y20528572D01*
X46142857Y20957143D02*
X46476190Y20957143D01*
X45952380Y20838096D02*
X46309523Y20719048D01*
X46309523Y21028572D01*
X46476190Y21480953D02*
X46476190Y21195239D01*
X46476190Y21338096D02*
X45976190Y21338096D01*
X46047619Y21290477D01*
X46095238Y21242858D01*
X46119047Y21195239D01*
G04 #@! TO.C,C43*
X49578571Y17978572D02*
X49602380Y17954762D01*
X49626190Y17883334D01*
X49626190Y17835715D01*
X49602380Y17764286D01*
X49554761Y17716667D01*
X49507142Y17692858D01*
X49411904Y17669048D01*
X49340476Y17669048D01*
X49245238Y17692858D01*
X49197619Y17716667D01*
X49150000Y17764286D01*
X49126190Y17835715D01*
X49126190Y17883334D01*
X49150000Y17954762D01*
X49173809Y17978572D01*
X49292857Y18407143D02*
X49626190Y18407143D01*
X49102380Y18288096D02*
X49459523Y18169048D01*
X49459523Y18478572D01*
X49126190Y18621429D02*
X49126190Y18930953D01*
X49316666Y18764286D01*
X49316666Y18835715D01*
X49340476Y18883334D01*
X49364285Y18907143D01*
X49411904Y18930953D01*
X49530952Y18930953D01*
X49578571Y18907143D01*
X49602380Y18883334D01*
X49626190Y18835715D01*
X49626190Y18692858D01*
X49602380Y18645239D01*
X49578571Y18621429D01*
G04 #@! TO.C,C56*
X17953571Y11146429D02*
X17929761Y11122620D01*
X17858333Y11098810D01*
X17810714Y11098810D01*
X17739285Y11122620D01*
X17691666Y11170239D01*
X17667857Y11217858D01*
X17644047Y11313096D01*
X17644047Y11384524D01*
X17667857Y11479762D01*
X17691666Y11527381D01*
X17739285Y11575000D01*
X17810714Y11598810D01*
X17858333Y11598810D01*
X17929761Y11575000D01*
X17953571Y11551191D01*
X18405952Y11598810D02*
X18167857Y11598810D01*
X18144047Y11360715D01*
X18167857Y11384524D01*
X18215476Y11408334D01*
X18334523Y11408334D01*
X18382142Y11384524D01*
X18405952Y11360715D01*
X18429761Y11313096D01*
X18429761Y11194048D01*
X18405952Y11146429D01*
X18382142Y11122620D01*
X18334523Y11098810D01*
X18215476Y11098810D01*
X18167857Y11122620D01*
X18144047Y11146429D01*
X18858333Y11598810D02*
X18763095Y11598810D01*
X18715476Y11575000D01*
X18691666Y11551191D01*
X18644047Y11479762D01*
X18620238Y11384524D01*
X18620238Y11194048D01*
X18644047Y11146429D01*
X18667857Y11122620D01*
X18715476Y11098810D01*
X18810714Y11098810D01*
X18858333Y11122620D01*
X18882142Y11146429D01*
X18905952Y11194048D01*
X18905952Y11313096D01*
X18882142Y11360715D01*
X18858333Y11384524D01*
X18810714Y11408334D01*
X18715476Y11408334D01*
X18667857Y11384524D01*
X18644047Y11360715D01*
X18620238Y11313096D01*
G04 #@! TO.C,C59*
X15213571Y7943572D02*
X15237380Y7919762D01*
X15261190Y7848334D01*
X15261190Y7800715D01*
X15237380Y7729286D01*
X15189761Y7681667D01*
X15142142Y7657858D01*
X15046904Y7634048D01*
X14975476Y7634048D01*
X14880238Y7657858D01*
X14832619Y7681667D01*
X14785000Y7729286D01*
X14761190Y7800715D01*
X14761190Y7848334D01*
X14785000Y7919762D01*
X14808809Y7943572D01*
X14761190Y8395953D02*
X14761190Y8157858D01*
X14999285Y8134048D01*
X14975476Y8157858D01*
X14951666Y8205477D01*
X14951666Y8324524D01*
X14975476Y8372143D01*
X14999285Y8395953D01*
X15046904Y8419762D01*
X15165952Y8419762D01*
X15213571Y8395953D01*
X15237380Y8372143D01*
X15261190Y8324524D01*
X15261190Y8205477D01*
X15237380Y8157858D01*
X15213571Y8134048D01*
X15261190Y8657858D02*
X15261190Y8753096D01*
X15237380Y8800715D01*
X15213571Y8824524D01*
X15142142Y8872143D01*
X15046904Y8895953D01*
X14856428Y8895953D01*
X14808809Y8872143D01*
X14785000Y8848334D01*
X14761190Y8800715D01*
X14761190Y8705477D01*
X14785000Y8657858D01*
X14808809Y8634048D01*
X14856428Y8610239D01*
X14975476Y8610239D01*
X15023095Y8634048D01*
X15046904Y8657858D01*
X15070714Y8705477D01*
X15070714Y8800715D01*
X15046904Y8848334D01*
X15023095Y8872143D01*
X14975476Y8895953D01*
G04 #@! TO.C,C60*
X16548571Y15348572D02*
X16572380Y15324762D01*
X16596190Y15253334D01*
X16596190Y15205715D01*
X16572380Y15134286D01*
X16524761Y15086667D01*
X16477142Y15062858D01*
X16381904Y15039048D01*
X16310476Y15039048D01*
X16215238Y15062858D01*
X16167619Y15086667D01*
X16120000Y15134286D01*
X16096190Y15205715D01*
X16096190Y15253334D01*
X16120000Y15324762D01*
X16143809Y15348572D01*
X16096190Y15777143D02*
X16096190Y15681905D01*
X16120000Y15634286D01*
X16143809Y15610477D01*
X16215238Y15562858D01*
X16310476Y15539048D01*
X16500952Y15539048D01*
X16548571Y15562858D01*
X16572380Y15586667D01*
X16596190Y15634286D01*
X16596190Y15729524D01*
X16572380Y15777143D01*
X16548571Y15800953D01*
X16500952Y15824762D01*
X16381904Y15824762D01*
X16334285Y15800953D01*
X16310476Y15777143D01*
X16286666Y15729524D01*
X16286666Y15634286D01*
X16310476Y15586667D01*
X16334285Y15562858D01*
X16381904Y15539048D01*
X16096190Y16134286D02*
X16096190Y16181905D01*
X16120000Y16229524D01*
X16143809Y16253334D01*
X16191428Y16277143D01*
X16286666Y16300953D01*
X16405714Y16300953D01*
X16500952Y16277143D01*
X16548571Y16253334D01*
X16572380Y16229524D01*
X16596190Y16181905D01*
X16596190Y16134286D01*
X16572380Y16086667D01*
X16548571Y16062858D01*
X16500952Y16039048D01*
X16405714Y16015239D01*
X16286666Y16015239D01*
X16191428Y16039048D01*
X16143809Y16062858D01*
X16120000Y16086667D01*
X16096190Y16134286D01*
G04 #@! TO.C,C94*
X43978571Y19421429D02*
X43954761Y19397620D01*
X43883333Y19373810D01*
X43835714Y19373810D01*
X43764285Y19397620D01*
X43716666Y19445239D01*
X43692857Y19492858D01*
X43669047Y19588096D01*
X43669047Y19659524D01*
X43692857Y19754762D01*
X43716666Y19802381D01*
X43764285Y19850000D01*
X43835714Y19873810D01*
X43883333Y19873810D01*
X43954761Y19850000D01*
X43978571Y19826191D01*
X44216666Y19373810D02*
X44311904Y19373810D01*
X44359523Y19397620D01*
X44383333Y19421429D01*
X44430952Y19492858D01*
X44454761Y19588096D01*
X44454761Y19778572D01*
X44430952Y19826191D01*
X44407142Y19850000D01*
X44359523Y19873810D01*
X44264285Y19873810D01*
X44216666Y19850000D01*
X44192857Y19826191D01*
X44169047Y19778572D01*
X44169047Y19659524D01*
X44192857Y19611905D01*
X44216666Y19588096D01*
X44264285Y19564286D01*
X44359523Y19564286D01*
X44407142Y19588096D01*
X44430952Y19611905D01*
X44454761Y19659524D01*
X44883333Y19707143D02*
X44883333Y19373810D01*
X44764285Y19897620D02*
X44645238Y19540477D01*
X44954761Y19540477D01*
G04 #@! TO.C,R12*
X51178571Y10573810D02*
X51011904Y10811905D01*
X50892857Y10573810D02*
X50892857Y11073810D01*
X51083333Y11073810D01*
X51130952Y11050000D01*
X51154761Y11026191D01*
X51178571Y10978572D01*
X51178571Y10907143D01*
X51154761Y10859524D01*
X51130952Y10835715D01*
X51083333Y10811905D01*
X50892857Y10811905D01*
X51654761Y10573810D02*
X51369047Y10573810D01*
X51511904Y10573810D02*
X51511904Y11073810D01*
X51464285Y11002381D01*
X51416666Y10954762D01*
X51369047Y10930953D01*
X51845238Y11026191D02*
X51869047Y11050000D01*
X51916666Y11073810D01*
X52035714Y11073810D01*
X52083333Y11050000D01*
X52107142Y11026191D01*
X52130952Y10978572D01*
X52130952Y10930953D01*
X52107142Y10859524D01*
X51821428Y10573810D01*
X52130952Y10573810D01*
G04 #@! TO.C,R13*
X57551190Y9378572D02*
X57313095Y9211905D01*
X57551190Y9092858D02*
X57051190Y9092858D01*
X57051190Y9283334D01*
X57075000Y9330953D01*
X57098809Y9354762D01*
X57146428Y9378572D01*
X57217857Y9378572D01*
X57265476Y9354762D01*
X57289285Y9330953D01*
X57313095Y9283334D01*
X57313095Y9092858D01*
X57551190Y9854762D02*
X57551190Y9569048D01*
X57551190Y9711905D02*
X57051190Y9711905D01*
X57122619Y9664286D01*
X57170238Y9616667D01*
X57194047Y9569048D01*
X57051190Y10021429D02*
X57051190Y10330953D01*
X57241666Y10164286D01*
X57241666Y10235715D01*
X57265476Y10283334D01*
X57289285Y10307143D01*
X57336904Y10330953D01*
X57455952Y10330953D01*
X57503571Y10307143D01*
X57527380Y10283334D01*
X57551190Y10235715D01*
X57551190Y10092858D01*
X57527380Y10045239D01*
X57503571Y10021429D01*
G04 #@! TO.C,R23*
X55503571Y6373810D02*
X55336904Y6611905D01*
X55217857Y6373810D02*
X55217857Y6873810D01*
X55408333Y6873810D01*
X55455952Y6850000D01*
X55479761Y6826191D01*
X55503571Y6778572D01*
X55503571Y6707143D01*
X55479761Y6659524D01*
X55455952Y6635715D01*
X55408333Y6611905D01*
X55217857Y6611905D01*
X55694047Y6826191D02*
X55717857Y6850000D01*
X55765476Y6873810D01*
X55884523Y6873810D01*
X55932142Y6850000D01*
X55955952Y6826191D01*
X55979761Y6778572D01*
X55979761Y6730953D01*
X55955952Y6659524D01*
X55670238Y6373810D01*
X55979761Y6373810D01*
X56146428Y6873810D02*
X56455952Y6873810D01*
X56289285Y6683334D01*
X56360714Y6683334D01*
X56408333Y6659524D01*
X56432142Y6635715D01*
X56455952Y6588096D01*
X56455952Y6469048D01*
X56432142Y6421429D01*
X56408333Y6397620D01*
X56360714Y6373810D01*
X56217857Y6373810D01*
X56170238Y6397620D01*
X56146428Y6421429D01*
G04 #@! TO.C,R24*
X48726190Y22078572D02*
X48488095Y21911905D01*
X48726190Y21792858D02*
X48226190Y21792858D01*
X48226190Y21983334D01*
X48250000Y22030953D01*
X48273809Y22054762D01*
X48321428Y22078572D01*
X48392857Y22078572D01*
X48440476Y22054762D01*
X48464285Y22030953D01*
X48488095Y21983334D01*
X48488095Y21792858D01*
X48273809Y22269048D02*
X48250000Y22292858D01*
X48226190Y22340477D01*
X48226190Y22459524D01*
X48250000Y22507143D01*
X48273809Y22530953D01*
X48321428Y22554762D01*
X48369047Y22554762D01*
X48440476Y22530953D01*
X48726190Y22245239D01*
X48726190Y22554762D01*
X48392857Y22983334D02*
X48726190Y22983334D01*
X48202380Y22864286D02*
X48559523Y22745239D01*
X48559523Y23054762D01*
G04 #@! TO.C,R27*
X51978571Y22473810D02*
X51811904Y22711905D01*
X51692857Y22473810D02*
X51692857Y22973810D01*
X51883333Y22973810D01*
X51930952Y22950000D01*
X51954761Y22926191D01*
X51978571Y22878572D01*
X51978571Y22807143D01*
X51954761Y22759524D01*
X51930952Y22735715D01*
X51883333Y22711905D01*
X51692857Y22711905D01*
X52169047Y22926191D02*
X52192857Y22950000D01*
X52240476Y22973810D01*
X52359523Y22973810D01*
X52407142Y22950000D01*
X52430952Y22926191D01*
X52454761Y22878572D01*
X52454761Y22830953D01*
X52430952Y22759524D01*
X52145238Y22473810D01*
X52454761Y22473810D01*
X52621428Y22973810D02*
X52954761Y22973810D01*
X52740476Y22473810D01*
G04 #@! TO.C,R28*
X51928571Y25473810D02*
X51761904Y25711905D01*
X51642857Y25473810D02*
X51642857Y25973810D01*
X51833333Y25973810D01*
X51880952Y25950000D01*
X51904761Y25926191D01*
X51928571Y25878572D01*
X51928571Y25807143D01*
X51904761Y25759524D01*
X51880952Y25735715D01*
X51833333Y25711905D01*
X51642857Y25711905D01*
X52119047Y25926191D02*
X52142857Y25950000D01*
X52190476Y25973810D01*
X52309523Y25973810D01*
X52357142Y25950000D01*
X52380952Y25926191D01*
X52404761Y25878572D01*
X52404761Y25830953D01*
X52380952Y25759524D01*
X52095238Y25473810D01*
X52404761Y25473810D01*
X52690476Y25759524D02*
X52642857Y25783334D01*
X52619047Y25807143D01*
X52595238Y25854762D01*
X52595238Y25878572D01*
X52619047Y25926191D01*
X52642857Y25950000D01*
X52690476Y25973810D01*
X52785714Y25973810D01*
X52833333Y25950000D01*
X52857142Y25926191D01*
X52880952Y25878572D01*
X52880952Y25854762D01*
X52857142Y25807143D01*
X52833333Y25783334D01*
X52785714Y25759524D01*
X52690476Y25759524D01*
X52642857Y25735715D01*
X52619047Y25711905D01*
X52595238Y25664286D01*
X52595238Y25569048D01*
X52619047Y25521429D01*
X52642857Y25497620D01*
X52690476Y25473810D01*
X52785714Y25473810D01*
X52833333Y25497620D01*
X52857142Y25521429D01*
X52880952Y25569048D01*
X52880952Y25664286D01*
X52857142Y25711905D01*
X52833333Y25735715D01*
X52785714Y25759524D01*
G04 #@! TO.C,R31*
X49626190Y19978572D02*
X49388095Y19811905D01*
X49626190Y19692858D02*
X49126190Y19692858D01*
X49126190Y19883334D01*
X49150000Y19930953D01*
X49173809Y19954762D01*
X49221428Y19978572D01*
X49292857Y19978572D01*
X49340476Y19954762D01*
X49364285Y19930953D01*
X49388095Y19883334D01*
X49388095Y19692858D01*
X49126190Y20145239D02*
X49126190Y20454762D01*
X49316666Y20288096D01*
X49316666Y20359524D01*
X49340476Y20407143D01*
X49364285Y20430953D01*
X49411904Y20454762D01*
X49530952Y20454762D01*
X49578571Y20430953D01*
X49602380Y20407143D01*
X49626190Y20359524D01*
X49626190Y20216667D01*
X49602380Y20169048D01*
X49578571Y20145239D01*
X49626190Y20930953D02*
X49626190Y20645239D01*
X49626190Y20788096D02*
X49126190Y20788096D01*
X49197619Y20740477D01*
X49245238Y20692858D01*
X49269047Y20645239D01*
G04 #@! TO.C,R4*
X24766666Y6173810D02*
X24600000Y6411905D01*
X24480952Y6173810D02*
X24480952Y6673810D01*
X24671428Y6673810D01*
X24719047Y6650000D01*
X24742857Y6626191D01*
X24766666Y6578572D01*
X24766666Y6507143D01*
X24742857Y6459524D01*
X24719047Y6435715D01*
X24671428Y6411905D01*
X24480952Y6411905D01*
X25195238Y6507143D02*
X25195238Y6173810D01*
X25076190Y6697620D02*
X24957142Y6340477D01*
X25266666Y6340477D01*
G04 #@! TO.C,R5*
X26716666Y17473810D02*
X26550000Y17711905D01*
X26430952Y17473810D02*
X26430952Y17973810D01*
X26621428Y17973810D01*
X26669047Y17950000D01*
X26692857Y17926191D01*
X26716666Y17878572D01*
X26716666Y17807143D01*
X26692857Y17759524D01*
X26669047Y17735715D01*
X26621428Y17711905D01*
X26430952Y17711905D01*
X27169047Y17973810D02*
X26930952Y17973810D01*
X26907142Y17735715D01*
X26930952Y17759524D01*
X26978571Y17783334D01*
X27097619Y17783334D01*
X27145238Y17759524D01*
X27169047Y17735715D01*
X27192857Y17688096D01*
X27192857Y17569048D01*
X27169047Y17521429D01*
X27145238Y17497620D01*
X27097619Y17473810D01*
X26978571Y17473810D01*
X26930952Y17497620D01*
X26907142Y17521429D01*
G04 #@! TO.C,R6*
X54226190Y12616667D02*
X53988095Y12450000D01*
X54226190Y12330953D02*
X53726190Y12330953D01*
X53726190Y12521429D01*
X53750000Y12569048D01*
X53773809Y12592858D01*
X53821428Y12616667D01*
X53892857Y12616667D01*
X53940476Y12592858D01*
X53964285Y12569048D01*
X53988095Y12521429D01*
X53988095Y12330953D01*
X53726190Y13045239D02*
X53726190Y12950000D01*
X53750000Y12902381D01*
X53773809Y12878572D01*
X53845238Y12830953D01*
X53940476Y12807143D01*
X54130952Y12807143D01*
X54178571Y12830953D01*
X54202380Y12854762D01*
X54226190Y12902381D01*
X54226190Y12997620D01*
X54202380Y13045239D01*
X54178571Y13069048D01*
X54130952Y13092858D01*
X54011904Y13092858D01*
X53964285Y13069048D01*
X53940476Y13045239D01*
X53916666Y12997620D01*
X53916666Y12902381D01*
X53940476Y12854762D01*
X53964285Y12830953D01*
X54011904Y12807143D01*
G04 #@! TO.C,R7*
X56351190Y9841667D02*
X56113095Y9675000D01*
X56351190Y9555953D02*
X55851190Y9555953D01*
X55851190Y9746429D01*
X55875000Y9794048D01*
X55898809Y9817858D01*
X55946428Y9841667D01*
X56017857Y9841667D01*
X56065476Y9817858D01*
X56089285Y9794048D01*
X56113095Y9746429D01*
X56113095Y9555953D01*
X55851190Y10008334D02*
X55851190Y10341667D01*
X56351190Y10127381D01*
G04 #@! TO.C,D1*
X20205952Y2508810D02*
X20205952Y3008810D01*
X20325000Y3008810D01*
X20396428Y2985000D01*
X20444047Y2937381D01*
X20467857Y2889762D01*
X20491666Y2794524D01*
X20491666Y2723096D01*
X20467857Y2627858D01*
X20444047Y2580239D01*
X20396428Y2532620D01*
X20325000Y2508810D01*
X20205952Y2508810D01*
X20967857Y2508810D02*
X20682142Y2508810D01*
X20825000Y2508810D02*
X20825000Y3008810D01*
X20777380Y2937381D01*
X20729761Y2889762D01*
X20682142Y2865953D01*
G04 #@! TO.C,C58*
X19753571Y21423572D02*
X19777380Y21399762D01*
X19801190Y21328334D01*
X19801190Y21280715D01*
X19777380Y21209286D01*
X19729761Y21161667D01*
X19682142Y21137858D01*
X19586904Y21114048D01*
X19515476Y21114048D01*
X19420238Y21137858D01*
X19372619Y21161667D01*
X19325000Y21209286D01*
X19301190Y21280715D01*
X19301190Y21328334D01*
X19325000Y21399762D01*
X19348809Y21423572D01*
X19301190Y21875953D02*
X19301190Y21637858D01*
X19539285Y21614048D01*
X19515476Y21637858D01*
X19491666Y21685477D01*
X19491666Y21804524D01*
X19515476Y21852143D01*
X19539285Y21875953D01*
X19586904Y21899762D01*
X19705952Y21899762D01*
X19753571Y21875953D01*
X19777380Y21852143D01*
X19801190Y21804524D01*
X19801190Y21685477D01*
X19777380Y21637858D01*
X19753571Y21614048D01*
X19515476Y22185477D02*
X19491666Y22137858D01*
X19467857Y22114048D01*
X19420238Y22090239D01*
X19396428Y22090239D01*
X19348809Y22114048D01*
X19325000Y22137858D01*
X19301190Y22185477D01*
X19301190Y22280715D01*
X19325000Y22328334D01*
X19348809Y22352143D01*
X19396428Y22375953D01*
X19420238Y22375953D01*
X19467857Y22352143D01*
X19491666Y22328334D01*
X19515476Y22280715D01*
X19515476Y22185477D01*
X19539285Y22137858D01*
X19563095Y22114048D01*
X19610714Y22090239D01*
X19705952Y22090239D01*
X19753571Y22114048D01*
X19777380Y22137858D01*
X19801190Y22185477D01*
X19801190Y22280715D01*
X19777380Y22328334D01*
X19753571Y22352143D01*
X19705952Y22375953D01*
X19610714Y22375953D01*
X19563095Y22352143D01*
X19539285Y22328334D01*
X19515476Y22280715D01*
G04 #@! TO.C,U12*
X15405952Y6168810D02*
X15405952Y5764048D01*
X15429761Y5716429D01*
X15453571Y5692620D01*
X15501190Y5668810D01*
X15596428Y5668810D01*
X15644047Y5692620D01*
X15667857Y5716429D01*
X15691666Y5764048D01*
X15691666Y6168810D01*
X16191666Y5668810D02*
X15905952Y5668810D01*
X16048809Y5668810D02*
X16048809Y6168810D01*
X16001190Y6097381D01*
X15953571Y6049762D01*
X15905952Y6025953D01*
X16382142Y6121191D02*
X16405952Y6145000D01*
X16453571Y6168810D01*
X16572619Y6168810D01*
X16620238Y6145000D01*
X16644047Y6121191D01*
X16667857Y6073572D01*
X16667857Y6025953D01*
X16644047Y5954524D01*
X16358333Y5668810D01*
X16667857Y5668810D01*
G04 #@! TO.C,C61*
X18878571Y20628572D02*
X18902380Y20604762D01*
X18926190Y20533334D01*
X18926190Y20485715D01*
X18902380Y20414286D01*
X18854761Y20366667D01*
X18807142Y20342858D01*
X18711904Y20319048D01*
X18640476Y20319048D01*
X18545238Y20342858D01*
X18497619Y20366667D01*
X18450000Y20414286D01*
X18426190Y20485715D01*
X18426190Y20533334D01*
X18450000Y20604762D01*
X18473809Y20628572D01*
X18426190Y21057143D02*
X18426190Y20961905D01*
X18450000Y20914286D01*
X18473809Y20890477D01*
X18545238Y20842858D01*
X18640476Y20819048D01*
X18830952Y20819048D01*
X18878571Y20842858D01*
X18902380Y20866667D01*
X18926190Y20914286D01*
X18926190Y21009524D01*
X18902380Y21057143D01*
X18878571Y21080953D01*
X18830952Y21104762D01*
X18711904Y21104762D01*
X18664285Y21080953D01*
X18640476Y21057143D01*
X18616666Y21009524D01*
X18616666Y20914286D01*
X18640476Y20866667D01*
X18664285Y20842858D01*
X18711904Y20819048D01*
X18926190Y21580953D02*
X18926190Y21295239D01*
X18926190Y21438096D02*
X18426190Y21438096D01*
X18497619Y21390477D01*
X18545238Y21342858D01*
X18569047Y21295239D01*
G04 #@! TO.C,C67*
X7613571Y12543572D02*
X7637380Y12519762D01*
X7661190Y12448334D01*
X7661190Y12400715D01*
X7637380Y12329286D01*
X7589761Y12281667D01*
X7542142Y12257858D01*
X7446904Y12234048D01*
X7375476Y12234048D01*
X7280238Y12257858D01*
X7232619Y12281667D01*
X7185000Y12329286D01*
X7161190Y12400715D01*
X7161190Y12448334D01*
X7185000Y12519762D01*
X7208809Y12543572D01*
X7161190Y12972143D02*
X7161190Y12876905D01*
X7185000Y12829286D01*
X7208809Y12805477D01*
X7280238Y12757858D01*
X7375476Y12734048D01*
X7565952Y12734048D01*
X7613571Y12757858D01*
X7637380Y12781667D01*
X7661190Y12829286D01*
X7661190Y12924524D01*
X7637380Y12972143D01*
X7613571Y12995953D01*
X7565952Y13019762D01*
X7446904Y13019762D01*
X7399285Y12995953D01*
X7375476Y12972143D01*
X7351666Y12924524D01*
X7351666Y12829286D01*
X7375476Y12781667D01*
X7399285Y12757858D01*
X7446904Y12734048D01*
X7161190Y13186429D02*
X7161190Y13519762D01*
X7661190Y13305477D01*
G04 #@! TO.C,C73*
X27578571Y15578572D02*
X27602380Y15554762D01*
X27626190Y15483334D01*
X27626190Y15435715D01*
X27602380Y15364286D01*
X27554761Y15316667D01*
X27507142Y15292858D01*
X27411904Y15269048D01*
X27340476Y15269048D01*
X27245238Y15292858D01*
X27197619Y15316667D01*
X27150000Y15364286D01*
X27126190Y15435715D01*
X27126190Y15483334D01*
X27150000Y15554762D01*
X27173809Y15578572D01*
X27126190Y15745239D02*
X27126190Y16078572D01*
X27626190Y15864286D01*
X27126190Y16221429D02*
X27126190Y16530953D01*
X27316666Y16364286D01*
X27316666Y16435715D01*
X27340476Y16483334D01*
X27364285Y16507143D01*
X27411904Y16530953D01*
X27530952Y16530953D01*
X27578571Y16507143D01*
X27602380Y16483334D01*
X27626190Y16435715D01*
X27626190Y16292858D01*
X27602380Y16245239D01*
X27578571Y16221429D01*
G04 #@! TO.C,L18*
X19253571Y10048810D02*
X19015476Y10048810D01*
X19015476Y10548810D01*
X19682142Y10048810D02*
X19396428Y10048810D01*
X19539285Y10048810D02*
X19539285Y10548810D01*
X19491666Y10477381D01*
X19444047Y10429762D01*
X19396428Y10405953D01*
X19967857Y10334524D02*
X19920238Y10358334D01*
X19896428Y10382143D01*
X19872619Y10429762D01*
X19872619Y10453572D01*
X19896428Y10501191D01*
X19920238Y10525000D01*
X19967857Y10548810D01*
X20063095Y10548810D01*
X20110714Y10525000D01*
X20134523Y10501191D01*
X20158333Y10453572D01*
X20158333Y10429762D01*
X20134523Y10382143D01*
X20110714Y10358334D01*
X20063095Y10334524D01*
X19967857Y10334524D01*
X19920238Y10310715D01*
X19896428Y10286905D01*
X19872619Y10239286D01*
X19872619Y10144048D01*
X19896428Y10096429D01*
X19920238Y10072620D01*
X19967857Y10048810D01*
X20063095Y10048810D01*
X20110714Y10072620D01*
X20134523Y10096429D01*
X20158333Y10144048D01*
X20158333Y10239286D01*
X20134523Y10286905D01*
X20110714Y10310715D01*
X20063095Y10334524D01*
G04 #@! TO.C,L19*
X19726190Y14278572D02*
X19726190Y14040477D01*
X19226190Y14040477D01*
X19726190Y14707143D02*
X19726190Y14421429D01*
X19726190Y14564286D02*
X19226190Y14564286D01*
X19297619Y14516667D01*
X19345238Y14469048D01*
X19369047Y14421429D01*
X19726190Y14945239D02*
X19726190Y15040477D01*
X19702380Y15088096D01*
X19678571Y15111905D01*
X19607142Y15159524D01*
X19511904Y15183334D01*
X19321428Y15183334D01*
X19273809Y15159524D01*
X19250000Y15135715D01*
X19226190Y15088096D01*
X19226190Y14992858D01*
X19250000Y14945239D01*
X19273809Y14921429D01*
X19321428Y14897620D01*
X19440476Y14897620D01*
X19488095Y14921429D01*
X19511904Y14945239D01*
X19535714Y14992858D01*
X19535714Y15088096D01*
X19511904Y15135715D01*
X19488095Y15159524D01*
X19440476Y15183334D01*
G04 #@! TO.C,L21*
X16053571Y7973810D02*
X15815476Y7973810D01*
X15815476Y8473810D01*
X16196428Y8426191D02*
X16220238Y8450000D01*
X16267857Y8473810D01*
X16386904Y8473810D01*
X16434523Y8450000D01*
X16458333Y8426191D01*
X16482142Y8378572D01*
X16482142Y8330953D01*
X16458333Y8259524D01*
X16172619Y7973810D01*
X16482142Y7973810D01*
X16958333Y7973810D02*
X16672619Y7973810D01*
X16815476Y7973810D02*
X16815476Y8473810D01*
X16767857Y8402381D01*
X16720238Y8354762D01*
X16672619Y8330953D01*
G04 #@! TO.C,L24*
X12778571Y9373810D02*
X12540476Y9373810D01*
X12540476Y9873810D01*
X12921428Y9826191D02*
X12945238Y9850000D01*
X12992857Y9873810D01*
X13111904Y9873810D01*
X13159523Y9850000D01*
X13183333Y9826191D01*
X13207142Y9778572D01*
X13207142Y9730953D01*
X13183333Y9659524D01*
X12897619Y9373810D01*
X13207142Y9373810D01*
X13635714Y9707143D02*
X13635714Y9373810D01*
X13516666Y9897620D02*
X13397619Y9540477D01*
X13707142Y9540477D01*
G04 #@! TO.C,L27*
X8928571Y9373810D02*
X8690476Y9373810D01*
X8690476Y9873810D01*
X9071428Y9826191D02*
X9095238Y9850000D01*
X9142857Y9873810D01*
X9261904Y9873810D01*
X9309523Y9850000D01*
X9333333Y9826191D01*
X9357142Y9778572D01*
X9357142Y9730953D01*
X9333333Y9659524D01*
X9047619Y9373810D01*
X9357142Y9373810D01*
X9523809Y9873810D02*
X9857142Y9873810D01*
X9642857Y9373810D01*
G04 #@! TO.C,L28*
X11978571Y11673810D02*
X11740476Y11673810D01*
X11740476Y12173810D01*
X12121428Y12126191D02*
X12145238Y12150000D01*
X12192857Y12173810D01*
X12311904Y12173810D01*
X12359523Y12150000D01*
X12383333Y12126191D01*
X12407142Y12078572D01*
X12407142Y12030953D01*
X12383333Y11959524D01*
X12097619Y11673810D01*
X12407142Y11673810D01*
X12692857Y11959524D02*
X12645238Y11983334D01*
X12621428Y12007143D01*
X12597619Y12054762D01*
X12597619Y12078572D01*
X12621428Y12126191D01*
X12645238Y12150000D01*
X12692857Y12173810D01*
X12788095Y12173810D01*
X12835714Y12150000D01*
X12859523Y12126191D01*
X12883333Y12078572D01*
X12883333Y12054762D01*
X12859523Y12007143D01*
X12835714Y11983334D01*
X12788095Y11959524D01*
X12692857Y11959524D01*
X12645238Y11935715D01*
X12621428Y11911905D01*
X12597619Y11864286D01*
X12597619Y11769048D01*
X12621428Y11721429D01*
X12645238Y11697620D01*
X12692857Y11673810D01*
X12788095Y11673810D01*
X12835714Y11697620D01*
X12859523Y11721429D01*
X12883333Y11769048D01*
X12883333Y11864286D01*
X12859523Y11911905D01*
X12835714Y11935715D01*
X12788095Y11959524D01*
G04 #@! TO.C,C53*
X17838571Y7638572D02*
X17862380Y7614762D01*
X17886190Y7543334D01*
X17886190Y7495715D01*
X17862380Y7424286D01*
X17814761Y7376667D01*
X17767142Y7352858D01*
X17671904Y7329048D01*
X17600476Y7329048D01*
X17505238Y7352858D01*
X17457619Y7376667D01*
X17410000Y7424286D01*
X17386190Y7495715D01*
X17386190Y7543334D01*
X17410000Y7614762D01*
X17433809Y7638572D01*
X17386190Y8090953D02*
X17386190Y7852858D01*
X17624285Y7829048D01*
X17600476Y7852858D01*
X17576666Y7900477D01*
X17576666Y8019524D01*
X17600476Y8067143D01*
X17624285Y8090953D01*
X17671904Y8114762D01*
X17790952Y8114762D01*
X17838571Y8090953D01*
X17862380Y8067143D01*
X17886190Y8019524D01*
X17886190Y7900477D01*
X17862380Y7852858D01*
X17838571Y7829048D01*
X17386190Y8281429D02*
X17386190Y8590953D01*
X17576666Y8424286D01*
X17576666Y8495715D01*
X17600476Y8543334D01*
X17624285Y8567143D01*
X17671904Y8590953D01*
X17790952Y8590953D01*
X17838571Y8567143D01*
X17862380Y8543334D01*
X17886190Y8495715D01*
X17886190Y8352858D01*
X17862380Y8305239D01*
X17838571Y8281429D01*
G04 #@! TO.C,C62*
X11268571Y7988572D02*
X11292380Y7964762D01*
X11316190Y7893334D01*
X11316190Y7845715D01*
X11292380Y7774286D01*
X11244761Y7726667D01*
X11197142Y7702858D01*
X11101904Y7679048D01*
X11030476Y7679048D01*
X10935238Y7702858D01*
X10887619Y7726667D01*
X10840000Y7774286D01*
X10816190Y7845715D01*
X10816190Y7893334D01*
X10840000Y7964762D01*
X10863809Y7988572D01*
X10816190Y8417143D02*
X10816190Y8321905D01*
X10840000Y8274286D01*
X10863809Y8250477D01*
X10935238Y8202858D01*
X11030476Y8179048D01*
X11220952Y8179048D01*
X11268571Y8202858D01*
X11292380Y8226667D01*
X11316190Y8274286D01*
X11316190Y8369524D01*
X11292380Y8417143D01*
X11268571Y8440953D01*
X11220952Y8464762D01*
X11101904Y8464762D01*
X11054285Y8440953D01*
X11030476Y8417143D01*
X11006666Y8369524D01*
X11006666Y8274286D01*
X11030476Y8226667D01*
X11054285Y8202858D01*
X11101904Y8179048D01*
X10863809Y8655239D02*
X10840000Y8679048D01*
X10816190Y8726667D01*
X10816190Y8845715D01*
X10840000Y8893334D01*
X10863809Y8917143D01*
X10911428Y8940953D01*
X10959047Y8940953D01*
X11030476Y8917143D01*
X11316190Y8631429D01*
X11316190Y8940953D01*
G04 #@! TO.C,C63*
X13548571Y12141429D02*
X13524761Y12117620D01*
X13453333Y12093810D01*
X13405714Y12093810D01*
X13334285Y12117620D01*
X13286666Y12165239D01*
X13262857Y12212858D01*
X13239047Y12308096D01*
X13239047Y12379524D01*
X13262857Y12474762D01*
X13286666Y12522381D01*
X13334285Y12570000D01*
X13405714Y12593810D01*
X13453333Y12593810D01*
X13524761Y12570000D01*
X13548571Y12546191D01*
X13977142Y12593810D02*
X13881904Y12593810D01*
X13834285Y12570000D01*
X13810476Y12546191D01*
X13762857Y12474762D01*
X13739047Y12379524D01*
X13739047Y12189048D01*
X13762857Y12141429D01*
X13786666Y12117620D01*
X13834285Y12093810D01*
X13929523Y12093810D01*
X13977142Y12117620D01*
X14000952Y12141429D01*
X14024761Y12189048D01*
X14024761Y12308096D01*
X14000952Y12355715D01*
X13977142Y12379524D01*
X13929523Y12403334D01*
X13834285Y12403334D01*
X13786666Y12379524D01*
X13762857Y12355715D01*
X13739047Y12308096D01*
X14191428Y12593810D02*
X14500952Y12593810D01*
X14334285Y12403334D01*
X14405714Y12403334D01*
X14453333Y12379524D01*
X14477142Y12355715D01*
X14500952Y12308096D01*
X14500952Y12189048D01*
X14477142Y12141429D01*
X14453333Y12117620D01*
X14405714Y12093810D01*
X14262857Y12093810D01*
X14215238Y12117620D01*
X14191428Y12141429D01*
G04 #@! TO.C,C66*
X12203571Y24453572D02*
X12227380Y24429762D01*
X12251190Y24358334D01*
X12251190Y24310715D01*
X12227380Y24239286D01*
X12179761Y24191667D01*
X12132142Y24167858D01*
X12036904Y24144048D01*
X11965476Y24144048D01*
X11870238Y24167858D01*
X11822619Y24191667D01*
X11775000Y24239286D01*
X11751190Y24310715D01*
X11751190Y24358334D01*
X11775000Y24429762D01*
X11798809Y24453572D01*
X11751190Y24882143D02*
X11751190Y24786905D01*
X11775000Y24739286D01*
X11798809Y24715477D01*
X11870238Y24667858D01*
X11965476Y24644048D01*
X12155952Y24644048D01*
X12203571Y24667858D01*
X12227380Y24691667D01*
X12251190Y24739286D01*
X12251190Y24834524D01*
X12227380Y24882143D01*
X12203571Y24905953D01*
X12155952Y24929762D01*
X12036904Y24929762D01*
X11989285Y24905953D01*
X11965476Y24882143D01*
X11941666Y24834524D01*
X11941666Y24739286D01*
X11965476Y24691667D01*
X11989285Y24667858D01*
X12036904Y24644048D01*
X11751190Y25358334D02*
X11751190Y25263096D01*
X11775000Y25215477D01*
X11798809Y25191667D01*
X11870238Y25144048D01*
X11965476Y25120239D01*
X12155952Y25120239D01*
X12203571Y25144048D01*
X12227380Y25167858D01*
X12251190Y25215477D01*
X12251190Y25310715D01*
X12227380Y25358334D01*
X12203571Y25382143D01*
X12155952Y25405953D01*
X12036904Y25405953D01*
X11989285Y25382143D01*
X11965476Y25358334D01*
X11941666Y25310715D01*
X11941666Y25215477D01*
X11965476Y25167858D01*
X11989285Y25144048D01*
X12036904Y25120239D01*
G04 #@! TO.C,C68*
X10003571Y13653572D02*
X10027380Y13629762D01*
X10051190Y13558334D01*
X10051190Y13510715D01*
X10027380Y13439286D01*
X9979761Y13391667D01*
X9932142Y13367858D01*
X9836904Y13344048D01*
X9765476Y13344048D01*
X9670238Y13367858D01*
X9622619Y13391667D01*
X9575000Y13439286D01*
X9551190Y13510715D01*
X9551190Y13558334D01*
X9575000Y13629762D01*
X9598809Y13653572D01*
X9551190Y14082143D02*
X9551190Y13986905D01*
X9575000Y13939286D01*
X9598809Y13915477D01*
X9670238Y13867858D01*
X9765476Y13844048D01*
X9955952Y13844048D01*
X10003571Y13867858D01*
X10027380Y13891667D01*
X10051190Y13939286D01*
X10051190Y14034524D01*
X10027380Y14082143D01*
X10003571Y14105953D01*
X9955952Y14129762D01*
X9836904Y14129762D01*
X9789285Y14105953D01*
X9765476Y14082143D01*
X9741666Y14034524D01*
X9741666Y13939286D01*
X9765476Y13891667D01*
X9789285Y13867858D01*
X9836904Y13844048D01*
X9765476Y14415477D02*
X9741666Y14367858D01*
X9717857Y14344048D01*
X9670238Y14320239D01*
X9646428Y14320239D01*
X9598809Y14344048D01*
X9575000Y14367858D01*
X9551190Y14415477D01*
X9551190Y14510715D01*
X9575000Y14558334D01*
X9598809Y14582143D01*
X9646428Y14605953D01*
X9670238Y14605953D01*
X9717857Y14582143D01*
X9741666Y14558334D01*
X9765476Y14510715D01*
X9765476Y14415477D01*
X9789285Y14367858D01*
X9813095Y14344048D01*
X9860714Y14320239D01*
X9955952Y14320239D01*
X10003571Y14344048D01*
X10027380Y14367858D01*
X10051190Y14415477D01*
X10051190Y14510715D01*
X10027380Y14558334D01*
X10003571Y14582143D01*
X9955952Y14605953D01*
X9860714Y14605953D01*
X9813095Y14582143D01*
X9789285Y14558334D01*
X9765476Y14510715D01*
G04 #@! TO.C,C70*
X9528571Y20328572D02*
X9552380Y20304762D01*
X9576190Y20233334D01*
X9576190Y20185715D01*
X9552380Y20114286D01*
X9504761Y20066667D01*
X9457142Y20042858D01*
X9361904Y20019048D01*
X9290476Y20019048D01*
X9195238Y20042858D01*
X9147619Y20066667D01*
X9100000Y20114286D01*
X9076190Y20185715D01*
X9076190Y20233334D01*
X9100000Y20304762D01*
X9123809Y20328572D01*
X9076190Y20495239D02*
X9076190Y20828572D01*
X9576190Y20614286D01*
X9076190Y21114286D02*
X9076190Y21161905D01*
X9100000Y21209524D01*
X9123809Y21233334D01*
X9171428Y21257143D01*
X9266666Y21280953D01*
X9385714Y21280953D01*
X9480952Y21257143D01*
X9528571Y21233334D01*
X9552380Y21209524D01*
X9576190Y21161905D01*
X9576190Y21114286D01*
X9552380Y21066667D01*
X9528571Y21042858D01*
X9480952Y21019048D01*
X9385714Y20995239D01*
X9266666Y20995239D01*
X9171428Y21019048D01*
X9123809Y21042858D01*
X9100000Y21066667D01*
X9076190Y21114286D01*
G04 #@! TO.C,C71*
X33328571Y11721429D02*
X33304761Y11697620D01*
X33233333Y11673810D01*
X33185714Y11673810D01*
X33114285Y11697620D01*
X33066666Y11745239D01*
X33042857Y11792858D01*
X33019047Y11888096D01*
X33019047Y11959524D01*
X33042857Y12054762D01*
X33066666Y12102381D01*
X33114285Y12150000D01*
X33185714Y12173810D01*
X33233333Y12173810D01*
X33304761Y12150000D01*
X33328571Y12126191D01*
X33495238Y12173810D02*
X33828571Y12173810D01*
X33614285Y11673810D01*
X34280952Y11673810D02*
X33995238Y11673810D01*
X34138095Y11673810D02*
X34138095Y12173810D01*
X34090476Y12102381D01*
X34042857Y12054762D01*
X33995238Y12030953D01*
G04 #@! TO.C,C75*
X27378571Y10878572D02*
X27402380Y10854762D01*
X27426190Y10783334D01*
X27426190Y10735715D01*
X27402380Y10664286D01*
X27354761Y10616667D01*
X27307142Y10592858D01*
X27211904Y10569048D01*
X27140476Y10569048D01*
X27045238Y10592858D01*
X26997619Y10616667D01*
X26950000Y10664286D01*
X26926190Y10735715D01*
X26926190Y10783334D01*
X26950000Y10854762D01*
X26973809Y10878572D01*
X26926190Y11045239D02*
X26926190Y11378572D01*
X27426190Y11164286D01*
X26926190Y11807143D02*
X26926190Y11569048D01*
X27164285Y11545239D01*
X27140476Y11569048D01*
X27116666Y11616667D01*
X27116666Y11735715D01*
X27140476Y11783334D01*
X27164285Y11807143D01*
X27211904Y11830953D01*
X27330952Y11830953D01*
X27378571Y11807143D01*
X27402380Y11783334D01*
X27426190Y11735715D01*
X27426190Y11616667D01*
X27402380Y11569048D01*
X27378571Y11545239D01*
G04 #@! TO.C,C76*
X32478571Y9578572D02*
X32502380Y9554762D01*
X32526190Y9483334D01*
X32526190Y9435715D01*
X32502380Y9364286D01*
X32454761Y9316667D01*
X32407142Y9292858D01*
X32311904Y9269048D01*
X32240476Y9269048D01*
X32145238Y9292858D01*
X32097619Y9316667D01*
X32050000Y9364286D01*
X32026190Y9435715D01*
X32026190Y9483334D01*
X32050000Y9554762D01*
X32073809Y9578572D01*
X32026190Y9745239D02*
X32026190Y10078572D01*
X32526190Y9864286D01*
X32026190Y10483334D02*
X32026190Y10388096D01*
X32050000Y10340477D01*
X32073809Y10316667D01*
X32145238Y10269048D01*
X32240476Y10245239D01*
X32430952Y10245239D01*
X32478571Y10269048D01*
X32502380Y10292858D01*
X32526190Y10340477D01*
X32526190Y10435715D01*
X32502380Y10483334D01*
X32478571Y10507143D01*
X32430952Y10530953D01*
X32311904Y10530953D01*
X32264285Y10507143D01*
X32240476Y10483334D01*
X32216666Y10435715D01*
X32216666Y10340477D01*
X32240476Y10292858D01*
X32264285Y10269048D01*
X32311904Y10245239D01*
G04 #@! TO.C,L22*
X17526190Y15278572D02*
X17526190Y15040477D01*
X17026190Y15040477D01*
X17073809Y15421429D02*
X17050000Y15445239D01*
X17026190Y15492858D01*
X17026190Y15611905D01*
X17050000Y15659524D01*
X17073809Y15683334D01*
X17121428Y15707143D01*
X17169047Y15707143D01*
X17240476Y15683334D01*
X17526190Y15397620D01*
X17526190Y15707143D01*
X17073809Y15897620D02*
X17050000Y15921429D01*
X17026190Y15969048D01*
X17026190Y16088096D01*
X17050000Y16135715D01*
X17073809Y16159524D01*
X17121428Y16183334D01*
X17169047Y16183334D01*
X17240476Y16159524D01*
X17526190Y15873810D01*
X17526190Y16183334D01*
G04 #@! TO.C,L23*
X16853571Y17798810D02*
X16615476Y17798810D01*
X16615476Y18298810D01*
X16996428Y18251191D02*
X17020238Y18275000D01*
X17067857Y18298810D01*
X17186904Y18298810D01*
X17234523Y18275000D01*
X17258333Y18251191D01*
X17282142Y18203572D01*
X17282142Y18155953D01*
X17258333Y18084524D01*
X16972619Y17798810D01*
X17282142Y17798810D01*
X17448809Y18298810D02*
X17758333Y18298810D01*
X17591666Y18108334D01*
X17663095Y18108334D01*
X17710714Y18084524D01*
X17734523Y18060715D01*
X17758333Y18013096D01*
X17758333Y17894048D01*
X17734523Y17846429D01*
X17710714Y17822620D01*
X17663095Y17798810D01*
X17520238Y17798810D01*
X17472619Y17822620D01*
X17448809Y17846429D01*
G04 #@! TO.C,L25*
X14478571Y13173810D02*
X14240476Y13173810D01*
X14240476Y13673810D01*
X14621428Y13626191D02*
X14645238Y13650000D01*
X14692857Y13673810D01*
X14811904Y13673810D01*
X14859523Y13650000D01*
X14883333Y13626191D01*
X14907142Y13578572D01*
X14907142Y13530953D01*
X14883333Y13459524D01*
X14597619Y13173810D01*
X14907142Y13173810D01*
X15359523Y13673810D02*
X15121428Y13673810D01*
X15097619Y13435715D01*
X15121428Y13459524D01*
X15169047Y13483334D01*
X15288095Y13483334D01*
X15335714Y13459524D01*
X15359523Y13435715D01*
X15383333Y13388096D01*
X15383333Y13269048D01*
X15359523Y13221429D01*
X15335714Y13197620D01*
X15288095Y13173810D01*
X15169047Y13173810D01*
X15121428Y13197620D01*
X15097619Y13221429D01*
G04 #@! TO.C,L26*
X13953571Y23748810D02*
X13715476Y23748810D01*
X13715476Y24248810D01*
X14096428Y24201191D02*
X14120238Y24225000D01*
X14167857Y24248810D01*
X14286904Y24248810D01*
X14334523Y24225000D01*
X14358333Y24201191D01*
X14382142Y24153572D01*
X14382142Y24105953D01*
X14358333Y24034524D01*
X14072619Y23748810D01*
X14382142Y23748810D01*
X14810714Y24248810D02*
X14715476Y24248810D01*
X14667857Y24225000D01*
X14644047Y24201191D01*
X14596428Y24129762D01*
X14572619Y24034524D01*
X14572619Y23844048D01*
X14596428Y23796429D01*
X14620238Y23772620D01*
X14667857Y23748810D01*
X14763095Y23748810D01*
X14810714Y23772620D01*
X14834523Y23796429D01*
X14858333Y23844048D01*
X14858333Y23963096D01*
X14834523Y24010715D01*
X14810714Y24034524D01*
X14763095Y24058334D01*
X14667857Y24058334D01*
X14620238Y24034524D01*
X14596428Y24010715D01*
X14572619Y23963096D01*
G04 #@! TO.C,C74*
X31778571Y9578572D02*
X31802380Y9554762D01*
X31826190Y9483334D01*
X31826190Y9435715D01*
X31802380Y9364286D01*
X31754761Y9316667D01*
X31707142Y9292858D01*
X31611904Y9269048D01*
X31540476Y9269048D01*
X31445238Y9292858D01*
X31397619Y9316667D01*
X31350000Y9364286D01*
X31326190Y9435715D01*
X31326190Y9483334D01*
X31350000Y9554762D01*
X31373809Y9578572D01*
X31326190Y9745239D02*
X31326190Y10078572D01*
X31826190Y9864286D01*
X31492857Y10483334D02*
X31826190Y10483334D01*
X31302380Y10364286D02*
X31659523Y10245239D01*
X31659523Y10554762D01*
G04 #@! TO.C,C77*
X30578571Y16621429D02*
X30554761Y16597620D01*
X30483333Y16573810D01*
X30435714Y16573810D01*
X30364285Y16597620D01*
X30316666Y16645239D01*
X30292857Y16692858D01*
X30269047Y16788096D01*
X30269047Y16859524D01*
X30292857Y16954762D01*
X30316666Y17002381D01*
X30364285Y17050000D01*
X30435714Y17073810D01*
X30483333Y17073810D01*
X30554761Y17050000D01*
X30578571Y17026191D01*
X30745238Y17073810D02*
X31078571Y17073810D01*
X30864285Y16573810D01*
X31221428Y17073810D02*
X31554761Y17073810D01*
X31340476Y16573810D01*
G04 #@! TO.C,L30*
X28126190Y17778572D02*
X28126190Y17540477D01*
X27626190Y17540477D01*
X27626190Y17897620D02*
X27626190Y18207143D01*
X27816666Y18040477D01*
X27816666Y18111905D01*
X27840476Y18159524D01*
X27864285Y18183334D01*
X27911904Y18207143D01*
X28030952Y18207143D01*
X28078571Y18183334D01*
X28102380Y18159524D01*
X28126190Y18111905D01*
X28126190Y17969048D01*
X28102380Y17921429D01*
X28078571Y17897620D01*
X27626190Y18516667D02*
X27626190Y18564286D01*
X27650000Y18611905D01*
X27673809Y18635715D01*
X27721428Y18659524D01*
X27816666Y18683334D01*
X27935714Y18683334D01*
X28030952Y18659524D01*
X28078571Y18635715D01*
X28102380Y18611905D01*
X28126190Y18564286D01*
X28126190Y18516667D01*
X28102380Y18469048D01*
X28078571Y18445239D01*
X28030952Y18421429D01*
X27935714Y18397620D01*
X27816666Y18397620D01*
X27721428Y18421429D01*
X27673809Y18445239D01*
X27650000Y18469048D01*
X27626190Y18516667D01*
G04 #@! TO.C,L31*
X34326190Y17678572D02*
X34326190Y17440477D01*
X33826190Y17440477D01*
X33826190Y17797620D02*
X33826190Y18107143D01*
X34016666Y17940477D01*
X34016666Y18011905D01*
X34040476Y18059524D01*
X34064285Y18083334D01*
X34111904Y18107143D01*
X34230952Y18107143D01*
X34278571Y18083334D01*
X34302380Y18059524D01*
X34326190Y18011905D01*
X34326190Y17869048D01*
X34302380Y17821429D01*
X34278571Y17797620D01*
X34326190Y18583334D02*
X34326190Y18297620D01*
X34326190Y18440477D02*
X33826190Y18440477D01*
X33897619Y18392858D01*
X33945238Y18345239D01*
X33969047Y18297620D01*
G04 #@! TO.C,L32*
X7531190Y19678572D02*
X7531190Y19440477D01*
X7031190Y19440477D01*
X7031190Y19797620D02*
X7031190Y20107143D01*
X7221666Y19940477D01*
X7221666Y20011905D01*
X7245476Y20059524D01*
X7269285Y20083334D01*
X7316904Y20107143D01*
X7435952Y20107143D01*
X7483571Y20083334D01*
X7507380Y20059524D01*
X7531190Y20011905D01*
X7531190Y19869048D01*
X7507380Y19821429D01*
X7483571Y19797620D01*
X7078809Y20297620D02*
X7055000Y20321429D01*
X7031190Y20369048D01*
X7031190Y20488096D01*
X7055000Y20535715D01*
X7078809Y20559524D01*
X7126428Y20583334D01*
X7174047Y20583334D01*
X7245476Y20559524D01*
X7531190Y20273810D01*
X7531190Y20583334D01*
G04 #@! TO.C,R9*
X5811190Y17831667D02*
X5573095Y17665000D01*
X5811190Y17545953D02*
X5311190Y17545953D01*
X5311190Y17736429D01*
X5335000Y17784048D01*
X5358809Y17807858D01*
X5406428Y17831667D01*
X5477857Y17831667D01*
X5525476Y17807858D01*
X5549285Y17784048D01*
X5573095Y17736429D01*
X5573095Y17545953D01*
X5811190Y18069762D02*
X5811190Y18165000D01*
X5787380Y18212620D01*
X5763571Y18236429D01*
X5692142Y18284048D01*
X5596904Y18307858D01*
X5406428Y18307858D01*
X5358809Y18284048D01*
X5335000Y18260239D01*
X5311190Y18212620D01*
X5311190Y18117381D01*
X5335000Y18069762D01*
X5358809Y18045953D01*
X5406428Y18022143D01*
X5525476Y18022143D01*
X5573095Y18045953D01*
X5596904Y18069762D01*
X5620714Y18117381D01*
X5620714Y18212620D01*
X5596904Y18260239D01*
X5573095Y18284048D01*
X5525476Y18307858D01*
G04 #@! TO.C,C22*
X17778571Y24478572D02*
X17802380Y24454762D01*
X17826190Y24383334D01*
X17826190Y24335715D01*
X17802380Y24264286D01*
X17754761Y24216667D01*
X17707142Y24192858D01*
X17611904Y24169048D01*
X17540476Y24169048D01*
X17445238Y24192858D01*
X17397619Y24216667D01*
X17350000Y24264286D01*
X17326190Y24335715D01*
X17326190Y24383334D01*
X17350000Y24454762D01*
X17373809Y24478572D01*
X17373809Y24669048D02*
X17350000Y24692858D01*
X17326190Y24740477D01*
X17326190Y24859524D01*
X17350000Y24907143D01*
X17373809Y24930953D01*
X17421428Y24954762D01*
X17469047Y24954762D01*
X17540476Y24930953D01*
X17826190Y24645239D01*
X17826190Y24954762D01*
X17373809Y25145239D02*
X17350000Y25169048D01*
X17326190Y25216667D01*
X17326190Y25335715D01*
X17350000Y25383334D01*
X17373809Y25407143D01*
X17421428Y25430953D01*
X17469047Y25430953D01*
X17540476Y25407143D01*
X17826190Y25121429D01*
X17826190Y25430953D01*
G04 #@! TO.C,L3*
X28726190Y14116667D02*
X28726190Y13878572D01*
X28226190Y13878572D01*
X28226190Y14235715D02*
X28226190Y14545239D01*
X28416666Y14378572D01*
X28416666Y14450000D01*
X28440476Y14497620D01*
X28464285Y14521429D01*
X28511904Y14545239D01*
X28630952Y14545239D01*
X28678571Y14521429D01*
X28702380Y14497620D01*
X28726190Y14450000D01*
X28726190Y14307143D01*
X28702380Y14259524D01*
X28678571Y14235715D01*
G04 #@! TO.C,L20*
X20201190Y17453572D02*
X20201190Y17215477D01*
X19701190Y17215477D01*
X19748809Y17596429D02*
X19725000Y17620239D01*
X19701190Y17667858D01*
X19701190Y17786905D01*
X19725000Y17834524D01*
X19748809Y17858334D01*
X19796428Y17882143D01*
X19844047Y17882143D01*
X19915476Y17858334D01*
X20201190Y17572620D01*
X20201190Y17882143D01*
X19701190Y18191667D02*
X19701190Y18239286D01*
X19725000Y18286905D01*
X19748809Y18310715D01*
X19796428Y18334524D01*
X19891666Y18358334D01*
X20010714Y18358334D01*
X20105952Y18334524D01*
X20153571Y18310715D01*
X20177380Y18286905D01*
X20201190Y18239286D01*
X20201190Y18191667D01*
X20177380Y18144048D01*
X20153571Y18120239D01*
X20105952Y18096429D01*
X20010714Y18072620D01*
X19891666Y18072620D01*
X19796428Y18096429D01*
X19748809Y18120239D01*
X19725000Y18144048D01*
X19701190Y18191667D01*
G04 #@! TO.C,L29*
X10603571Y23448810D02*
X10365476Y23448810D01*
X10365476Y23948810D01*
X10746428Y23901191D02*
X10770238Y23925000D01*
X10817857Y23948810D01*
X10936904Y23948810D01*
X10984523Y23925000D01*
X11008333Y23901191D01*
X11032142Y23853572D01*
X11032142Y23805953D01*
X11008333Y23734524D01*
X10722619Y23448810D01*
X11032142Y23448810D01*
X11270238Y23448810D02*
X11365476Y23448810D01*
X11413095Y23472620D01*
X11436904Y23496429D01*
X11484523Y23567858D01*
X11508333Y23663096D01*
X11508333Y23853572D01*
X11484523Y23901191D01*
X11460714Y23925000D01*
X11413095Y23948810D01*
X11317857Y23948810D01*
X11270238Y23925000D01*
X11246428Y23901191D01*
X11222619Y23853572D01*
X11222619Y23734524D01*
X11246428Y23686905D01*
X11270238Y23663096D01*
X11317857Y23639286D01*
X11413095Y23639286D01*
X11460714Y23663096D01*
X11484523Y23686905D01*
X11508333Y23734524D01*
G04 #@! TO.C,C80*
X47078571Y7121429D02*
X47054761Y7097620D01*
X46983333Y7073810D01*
X46935714Y7073810D01*
X46864285Y7097620D01*
X46816666Y7145239D01*
X46792857Y7192858D01*
X46769047Y7288096D01*
X46769047Y7359524D01*
X46792857Y7454762D01*
X46816666Y7502381D01*
X46864285Y7550000D01*
X46935714Y7573810D01*
X46983333Y7573810D01*
X47054761Y7550000D01*
X47078571Y7526191D01*
X47364285Y7359524D02*
X47316666Y7383334D01*
X47292857Y7407143D01*
X47269047Y7454762D01*
X47269047Y7478572D01*
X47292857Y7526191D01*
X47316666Y7550000D01*
X47364285Y7573810D01*
X47459523Y7573810D01*
X47507142Y7550000D01*
X47530952Y7526191D01*
X47554761Y7478572D01*
X47554761Y7454762D01*
X47530952Y7407143D01*
X47507142Y7383334D01*
X47459523Y7359524D01*
X47364285Y7359524D01*
X47316666Y7335715D01*
X47292857Y7311905D01*
X47269047Y7264286D01*
X47269047Y7169048D01*
X47292857Y7121429D01*
X47316666Y7097620D01*
X47364285Y7073810D01*
X47459523Y7073810D01*
X47507142Y7097620D01*
X47530952Y7121429D01*
X47554761Y7169048D01*
X47554761Y7264286D01*
X47530952Y7311905D01*
X47507142Y7335715D01*
X47459523Y7359524D01*
X47864285Y7573810D02*
X47911904Y7573810D01*
X47959523Y7550000D01*
X47983333Y7526191D01*
X48007142Y7478572D01*
X48030952Y7383334D01*
X48030952Y7264286D01*
X48007142Y7169048D01*
X47983333Y7121429D01*
X47959523Y7097620D01*
X47911904Y7073810D01*
X47864285Y7073810D01*
X47816666Y7097620D01*
X47792857Y7121429D01*
X47769047Y7169048D01*
X47745238Y7264286D01*
X47745238Y7383334D01*
X47769047Y7478572D01*
X47792857Y7526191D01*
X47816666Y7550000D01*
X47864285Y7573810D01*
G04 #@! TO.C,C81*
X24778571Y8978572D02*
X24802380Y8954762D01*
X24826190Y8883334D01*
X24826190Y8835715D01*
X24802380Y8764286D01*
X24754761Y8716667D01*
X24707142Y8692858D01*
X24611904Y8669048D01*
X24540476Y8669048D01*
X24445238Y8692858D01*
X24397619Y8716667D01*
X24350000Y8764286D01*
X24326190Y8835715D01*
X24326190Y8883334D01*
X24350000Y8954762D01*
X24373809Y8978572D01*
X24540476Y9264286D02*
X24516666Y9216667D01*
X24492857Y9192858D01*
X24445238Y9169048D01*
X24421428Y9169048D01*
X24373809Y9192858D01*
X24350000Y9216667D01*
X24326190Y9264286D01*
X24326190Y9359524D01*
X24350000Y9407143D01*
X24373809Y9430953D01*
X24421428Y9454762D01*
X24445238Y9454762D01*
X24492857Y9430953D01*
X24516666Y9407143D01*
X24540476Y9359524D01*
X24540476Y9264286D01*
X24564285Y9216667D01*
X24588095Y9192858D01*
X24635714Y9169048D01*
X24730952Y9169048D01*
X24778571Y9192858D01*
X24802380Y9216667D01*
X24826190Y9264286D01*
X24826190Y9359524D01*
X24802380Y9407143D01*
X24778571Y9430953D01*
X24730952Y9454762D01*
X24635714Y9454762D01*
X24588095Y9430953D01*
X24564285Y9407143D01*
X24540476Y9359524D01*
X24826190Y9930953D02*
X24826190Y9645239D01*
X24826190Y9788096D02*
X24326190Y9788096D01*
X24397619Y9740477D01*
X24445238Y9692858D01*
X24469047Y9645239D01*
G04 #@! TO.C,J1*
X2018333Y10698810D02*
X2018333Y10341667D01*
X1994523Y10270239D01*
X1946904Y10222620D01*
X1875476Y10198810D01*
X1827857Y10198810D01*
X2518333Y10198810D02*
X2232619Y10198810D01*
X2375476Y10198810D02*
X2375476Y10698810D01*
X2327857Y10627381D01*
X2280238Y10579762D01*
X2232619Y10555953D01*
G04 #@! TO.C,D2*
X62030952Y3523810D02*
X62030952Y4023810D01*
X62150000Y4023810D01*
X62221428Y4000000D01*
X62269047Y3952381D01*
X62292857Y3904762D01*
X62316666Y3809524D01*
X62316666Y3738096D01*
X62292857Y3642858D01*
X62269047Y3595239D01*
X62221428Y3547620D01*
X62150000Y3523810D01*
X62030952Y3523810D01*
X62507142Y3976191D02*
X62530952Y4000000D01*
X62578571Y4023810D01*
X62697619Y4023810D01*
X62745238Y4000000D01*
X62769047Y3976191D01*
X62792857Y3928572D01*
X62792857Y3880953D01*
X62769047Y3809524D01*
X62483333Y3523810D01*
X62792857Y3523810D01*
G04 #@! TO.C,D3*
X59250952Y3523810D02*
X59250952Y4023810D01*
X59370000Y4023810D01*
X59441428Y4000000D01*
X59489047Y3952381D01*
X59512857Y3904762D01*
X59536666Y3809524D01*
X59536666Y3738096D01*
X59512857Y3642858D01*
X59489047Y3595239D01*
X59441428Y3547620D01*
X59370000Y3523810D01*
X59250952Y3523810D01*
X59703333Y4023810D02*
X60012857Y4023810D01*
X59846190Y3833334D01*
X59917619Y3833334D01*
X59965238Y3809524D01*
X59989047Y3785715D01*
X60012857Y3738096D01*
X60012857Y3619048D01*
X59989047Y3571429D01*
X59965238Y3547620D01*
X59917619Y3523810D01*
X59774761Y3523810D01*
X59727142Y3547620D01*
X59703333Y3571429D01*
G04 #@! TO.C,R20*
X61676190Y4728572D02*
X61438095Y4561905D01*
X61676190Y4442858D02*
X61176190Y4442858D01*
X61176190Y4633334D01*
X61200000Y4680953D01*
X61223809Y4704762D01*
X61271428Y4728572D01*
X61342857Y4728572D01*
X61390476Y4704762D01*
X61414285Y4680953D01*
X61438095Y4633334D01*
X61438095Y4442858D01*
X61223809Y4919048D02*
X61200000Y4942858D01*
X61176190Y4990477D01*
X61176190Y5109524D01*
X61200000Y5157143D01*
X61223809Y5180953D01*
X61271428Y5204762D01*
X61319047Y5204762D01*
X61390476Y5180953D01*
X61676190Y4895239D01*
X61676190Y5204762D01*
X61176190Y5514286D02*
X61176190Y5561905D01*
X61200000Y5609524D01*
X61223809Y5633334D01*
X61271428Y5657143D01*
X61366666Y5680953D01*
X61485714Y5680953D01*
X61580952Y5657143D01*
X61628571Y5633334D01*
X61652380Y5609524D01*
X61676190Y5561905D01*
X61676190Y5514286D01*
X61652380Y5466667D01*
X61628571Y5442858D01*
X61580952Y5419048D01*
X61485714Y5395239D01*
X61366666Y5395239D01*
X61271428Y5419048D01*
X61223809Y5442858D01*
X61200000Y5466667D01*
X61176190Y5514286D01*
G04 #@! TO.C,R22*
X60906190Y4718572D02*
X60668095Y4551905D01*
X60906190Y4432858D02*
X60406190Y4432858D01*
X60406190Y4623334D01*
X60430000Y4670953D01*
X60453809Y4694762D01*
X60501428Y4718572D01*
X60572857Y4718572D01*
X60620476Y4694762D01*
X60644285Y4670953D01*
X60668095Y4623334D01*
X60668095Y4432858D01*
X60453809Y4909048D02*
X60430000Y4932858D01*
X60406190Y4980477D01*
X60406190Y5099524D01*
X60430000Y5147143D01*
X60453809Y5170953D01*
X60501428Y5194762D01*
X60549047Y5194762D01*
X60620476Y5170953D01*
X60906190Y4885239D01*
X60906190Y5194762D01*
X60453809Y5385239D02*
X60430000Y5409048D01*
X60406190Y5456667D01*
X60406190Y5575715D01*
X60430000Y5623334D01*
X60453809Y5647143D01*
X60501428Y5670953D01*
X60549047Y5670953D01*
X60620476Y5647143D01*
X60906190Y5361429D01*
X60906190Y5670953D01*
G04 #@! TO.C,U6*
X20876190Y28519048D02*
X21280952Y28519048D01*
X21328571Y28542858D01*
X21352380Y28566667D01*
X21376190Y28614286D01*
X21376190Y28709524D01*
X21352380Y28757143D01*
X21328571Y28780953D01*
X21280952Y28804762D01*
X20876190Y28804762D01*
X20876190Y29257143D02*
X20876190Y29161905D01*
X20900000Y29114286D01*
X20923809Y29090477D01*
X20995238Y29042858D01*
X21090476Y29019048D01*
X21280952Y29019048D01*
X21328571Y29042858D01*
X21352380Y29066667D01*
X21376190Y29114286D01*
X21376190Y29209524D01*
X21352380Y29257143D01*
X21328571Y29280953D01*
X21280952Y29304762D01*
X21161904Y29304762D01*
X21114285Y29280953D01*
X21090476Y29257143D01*
X21066666Y29209524D01*
X21066666Y29114286D01*
X21090476Y29066667D01*
X21114285Y29042858D01*
X21161904Y29019048D01*
G04 #@! TO.C,Y1*
X47948223Y17740060D02*
X48116582Y17571701D01*
X47645177Y17807403D02*
X47948223Y17740060D01*
X47880879Y18043105D01*
X48537478Y17992598D02*
X48335448Y17790567D01*
X48436463Y17891583D02*
X48082910Y18245136D01*
X48099746Y18160957D01*
X48099746Y18093613D01*
X48082910Y18043105D01*
G04 #@! TO.C,C42*
X52378571Y19721429D02*
X52354761Y19697620D01*
X52283333Y19673810D01*
X52235714Y19673810D01*
X52164285Y19697620D01*
X52116666Y19745239D01*
X52092857Y19792858D01*
X52069047Y19888096D01*
X52069047Y19959524D01*
X52092857Y20054762D01*
X52116666Y20102381D01*
X52164285Y20150000D01*
X52235714Y20173810D01*
X52283333Y20173810D01*
X52354761Y20150000D01*
X52378571Y20126191D01*
X52807142Y20007143D02*
X52807142Y19673810D01*
X52688095Y20197620D02*
X52569047Y19840477D01*
X52878571Y19840477D01*
X53045238Y20126191D02*
X53069047Y20150000D01*
X53116666Y20173810D01*
X53235714Y20173810D01*
X53283333Y20150000D01*
X53307142Y20126191D01*
X53330952Y20078572D01*
X53330952Y20030953D01*
X53307142Y19959524D01*
X53021428Y19673810D01*
X53330952Y19673810D01*
G04 #@! TO.C,C47*
X52178571Y15378572D02*
X52202380Y15354762D01*
X52226190Y15283334D01*
X52226190Y15235715D01*
X52202380Y15164286D01*
X52154761Y15116667D01*
X52107142Y15092858D01*
X52011904Y15069048D01*
X51940476Y15069048D01*
X51845238Y15092858D01*
X51797619Y15116667D01*
X51750000Y15164286D01*
X51726190Y15235715D01*
X51726190Y15283334D01*
X51750000Y15354762D01*
X51773809Y15378572D01*
X51892857Y15807143D02*
X52226190Y15807143D01*
X51702380Y15688096D02*
X52059523Y15569048D01*
X52059523Y15878572D01*
X51726190Y16021429D02*
X51726190Y16354762D01*
X52226190Y16140477D01*
G04 #@! TO.C,C93*
X64253571Y7778572D02*
X64277380Y7754762D01*
X64301190Y7683334D01*
X64301190Y7635715D01*
X64277380Y7564286D01*
X64229761Y7516667D01*
X64182142Y7492858D01*
X64086904Y7469048D01*
X64015476Y7469048D01*
X63920238Y7492858D01*
X63872619Y7516667D01*
X63825000Y7564286D01*
X63801190Y7635715D01*
X63801190Y7683334D01*
X63825000Y7754762D01*
X63848809Y7778572D01*
X64301190Y8016667D02*
X64301190Y8111905D01*
X64277380Y8159524D01*
X64253571Y8183334D01*
X64182142Y8230953D01*
X64086904Y8254762D01*
X63896428Y8254762D01*
X63848809Y8230953D01*
X63825000Y8207143D01*
X63801190Y8159524D01*
X63801190Y8064286D01*
X63825000Y8016667D01*
X63848809Y7992858D01*
X63896428Y7969048D01*
X64015476Y7969048D01*
X64063095Y7992858D01*
X64086904Y8016667D01*
X64110714Y8064286D01*
X64110714Y8159524D01*
X64086904Y8207143D01*
X64063095Y8230953D01*
X64015476Y8254762D01*
X63801190Y8421429D02*
X63801190Y8730953D01*
X63991666Y8564286D01*
X63991666Y8635715D01*
X64015476Y8683334D01*
X64039285Y8707143D01*
X64086904Y8730953D01*
X64205952Y8730953D01*
X64253571Y8707143D01*
X64277380Y8683334D01*
X64301190Y8635715D01*
X64301190Y8492858D01*
X64277380Y8445239D01*
X64253571Y8421429D01*
G04 #@! TO.C,P2*
X32826190Y27430953D02*
X32326190Y27430953D01*
X32326190Y27621429D01*
X32350000Y27669048D01*
X32373809Y27692858D01*
X32421428Y27716667D01*
X32492857Y27716667D01*
X32540476Y27692858D01*
X32564285Y27669048D01*
X32588095Y27621429D01*
X32588095Y27430953D01*
X32373809Y27907143D02*
X32350000Y27930953D01*
X32326190Y27978572D01*
X32326190Y28097620D01*
X32350000Y28145239D01*
X32373809Y28169048D01*
X32421428Y28192858D01*
X32469047Y28192858D01*
X32540476Y28169048D01*
X32826190Y27883334D01*
X32826190Y28192858D01*
G04 #@! TO.C,C18*
X24528571Y23271429D02*
X24504761Y23247620D01*
X24433333Y23223810D01*
X24385714Y23223810D01*
X24314285Y23247620D01*
X24266666Y23295239D01*
X24242857Y23342858D01*
X24219047Y23438096D01*
X24219047Y23509524D01*
X24242857Y23604762D01*
X24266666Y23652381D01*
X24314285Y23700000D01*
X24385714Y23723810D01*
X24433333Y23723810D01*
X24504761Y23700000D01*
X24528571Y23676191D01*
X25004761Y23223810D02*
X24719047Y23223810D01*
X24861904Y23223810D02*
X24861904Y23723810D01*
X24814285Y23652381D01*
X24766666Y23604762D01*
X24719047Y23580953D01*
X25290476Y23509524D02*
X25242857Y23533334D01*
X25219047Y23557143D01*
X25195238Y23604762D01*
X25195238Y23628572D01*
X25219047Y23676191D01*
X25242857Y23700000D01*
X25290476Y23723810D01*
X25385714Y23723810D01*
X25433333Y23700000D01*
X25457142Y23676191D01*
X25480952Y23628572D01*
X25480952Y23604762D01*
X25457142Y23557143D01*
X25433333Y23533334D01*
X25385714Y23509524D01*
X25290476Y23509524D01*
X25242857Y23485715D01*
X25219047Y23461905D01*
X25195238Y23414286D01*
X25195238Y23319048D01*
X25219047Y23271429D01*
X25242857Y23247620D01*
X25290476Y23223810D01*
X25385714Y23223810D01*
X25433333Y23247620D01*
X25457142Y23271429D01*
X25480952Y23319048D01*
X25480952Y23414286D01*
X25457142Y23461905D01*
X25433333Y23485715D01*
X25385714Y23509524D01*
G04 #@! TO.C,C21*
X30678571Y28071429D02*
X30654761Y28047620D01*
X30583333Y28023810D01*
X30535714Y28023810D01*
X30464285Y28047620D01*
X30416666Y28095239D01*
X30392857Y28142858D01*
X30369047Y28238096D01*
X30369047Y28309524D01*
X30392857Y28404762D01*
X30416666Y28452381D01*
X30464285Y28500000D01*
X30535714Y28523810D01*
X30583333Y28523810D01*
X30654761Y28500000D01*
X30678571Y28476191D01*
X30869047Y28476191D02*
X30892857Y28500000D01*
X30940476Y28523810D01*
X31059523Y28523810D01*
X31107142Y28500000D01*
X31130952Y28476191D01*
X31154761Y28428572D01*
X31154761Y28380953D01*
X31130952Y28309524D01*
X30845238Y28023810D01*
X31154761Y28023810D01*
X31630952Y28023810D02*
X31345238Y28023810D01*
X31488095Y28023810D02*
X31488095Y28523810D01*
X31440476Y28452381D01*
X31392857Y28404762D01*
X31345238Y28380953D01*
G04 #@! TO.C,C11*
X41058571Y15878572D02*
X41082380Y15854762D01*
X41106190Y15783334D01*
X41106190Y15735715D01*
X41082380Y15664286D01*
X41034761Y15616667D01*
X40987142Y15592858D01*
X40891904Y15569048D01*
X40820476Y15569048D01*
X40725238Y15592858D01*
X40677619Y15616667D01*
X40630000Y15664286D01*
X40606190Y15735715D01*
X40606190Y15783334D01*
X40630000Y15854762D01*
X40653809Y15878572D01*
X41106190Y16354762D02*
X41106190Y16069048D01*
X41106190Y16211905D02*
X40606190Y16211905D01*
X40677619Y16164286D01*
X40725238Y16116667D01*
X40749047Y16069048D01*
X41106190Y16830953D02*
X41106190Y16545239D01*
X41106190Y16688096D02*
X40606190Y16688096D01*
X40677619Y16640477D01*
X40725238Y16592858D01*
X40749047Y16545239D01*
G04 #@! TO.C,R2*
X44151190Y14866667D02*
X43913095Y14700000D01*
X44151190Y14580953D02*
X43651190Y14580953D01*
X43651190Y14771429D01*
X43675000Y14819048D01*
X43698809Y14842858D01*
X43746428Y14866667D01*
X43817857Y14866667D01*
X43865476Y14842858D01*
X43889285Y14819048D01*
X43913095Y14771429D01*
X43913095Y14580953D01*
X43698809Y15057143D02*
X43675000Y15080953D01*
X43651190Y15128572D01*
X43651190Y15247620D01*
X43675000Y15295239D01*
X43698809Y15319048D01*
X43746428Y15342858D01*
X43794047Y15342858D01*
X43865476Y15319048D01*
X44151190Y15033334D01*
X44151190Y15342858D01*
G04 #@! TO.C,R3*
X43426190Y14816667D02*
X43188095Y14650000D01*
X43426190Y14530953D02*
X42926190Y14530953D01*
X42926190Y14721429D01*
X42950000Y14769048D01*
X42973809Y14792858D01*
X43021428Y14816667D01*
X43092857Y14816667D01*
X43140476Y14792858D01*
X43164285Y14769048D01*
X43188095Y14721429D01*
X43188095Y14530953D01*
X42926190Y14983334D02*
X42926190Y15292858D01*
X43116666Y15126191D01*
X43116666Y15197620D01*
X43140476Y15245239D01*
X43164285Y15269048D01*
X43211904Y15292858D01*
X43330952Y15292858D01*
X43378571Y15269048D01*
X43402380Y15245239D01*
X43426190Y15197620D01*
X43426190Y15054762D01*
X43402380Y15007143D01*
X43378571Y14983334D01*
G04 #@! TO.C,U4*
X31976190Y13969048D02*
X32380952Y13969048D01*
X32428571Y13992858D01*
X32452380Y14016667D01*
X32476190Y14064286D01*
X32476190Y14159524D01*
X32452380Y14207143D01*
X32428571Y14230953D01*
X32380952Y14254762D01*
X31976190Y14254762D01*
X32142857Y14707143D02*
X32476190Y14707143D01*
X31952380Y14588096D02*
X32309523Y14469048D01*
X32309523Y14778572D01*
G04 #@! TO.C,Q1*
X31552380Y5726191D02*
X31504761Y5750000D01*
X31457142Y5797620D01*
X31385714Y5869048D01*
X31338095Y5892858D01*
X31290476Y5892858D01*
X31314285Y5773810D02*
X31266666Y5797620D01*
X31219047Y5845239D01*
X31195238Y5940477D01*
X31195238Y6107143D01*
X31219047Y6202381D01*
X31266666Y6250000D01*
X31314285Y6273810D01*
X31409523Y6273810D01*
X31457142Y6250000D01*
X31504761Y6202381D01*
X31528571Y6107143D01*
X31528571Y5940477D01*
X31504761Y5845239D01*
X31457142Y5797620D01*
X31409523Y5773810D01*
X31314285Y5773810D01*
X32004761Y5773810D02*
X31719047Y5773810D01*
X31861904Y5773810D02*
X31861904Y6273810D01*
X31814285Y6202381D01*
X31766666Y6154762D01*
X31719047Y6130953D01*
G04 #@! TO.C,U10*
X11580952Y19998810D02*
X11580952Y19594048D01*
X11604761Y19546429D01*
X11628571Y19522620D01*
X11676190Y19498810D01*
X11771428Y19498810D01*
X11819047Y19522620D01*
X11842857Y19546429D01*
X11866666Y19594048D01*
X11866666Y19998810D01*
X12366666Y19498810D02*
X12080952Y19498810D01*
X12223809Y19498810D02*
X12223809Y19998810D01*
X12176190Y19927381D01*
X12128571Y19879762D01*
X12080952Y19855953D01*
X12676190Y19998810D02*
X12723809Y19998810D01*
X12771428Y19975000D01*
X12795238Y19951191D01*
X12819047Y19903572D01*
X12842857Y19808334D01*
X12842857Y19689286D01*
X12819047Y19594048D01*
X12795238Y19546429D01*
X12771428Y19522620D01*
X12723809Y19498810D01*
X12676190Y19498810D01*
X12628571Y19522620D01*
X12604761Y19546429D01*
X12580952Y19594048D01*
X12557142Y19689286D01*
X12557142Y19808334D01*
X12580952Y19903572D01*
X12604761Y19951191D01*
X12628571Y19975000D01*
X12676190Y19998810D01*
G04 #@! TO.C,U2*
X11269047Y6823810D02*
X11269047Y6419048D01*
X11292857Y6371429D01*
X11316666Y6347620D01*
X11364285Y6323810D01*
X11459523Y6323810D01*
X11507142Y6347620D01*
X11530952Y6371429D01*
X11554761Y6419048D01*
X11554761Y6823810D01*
X11769047Y6776191D02*
X11792857Y6800000D01*
X11840476Y6823810D01*
X11959523Y6823810D01*
X12007142Y6800000D01*
X12030952Y6776191D01*
X12054761Y6728572D01*
X12054761Y6680953D01*
X12030952Y6609524D01*
X11745238Y6323810D01*
X12054761Y6323810D01*
G04 #@! TD*
%LPC*%
D20*
G04 #@! TO.C,U11*
X23025000Y15000000D03*
X23025000Y14500000D03*
X23025000Y14000000D03*
X23025000Y13500000D03*
D21*
X23750000Y12775000D03*
X24250000Y12775000D03*
X24750000Y12775000D03*
X25250000Y12775000D03*
D20*
X25975000Y13500000D03*
X25975000Y14000000D03*
X25975000Y14500000D03*
X25975000Y15000000D03*
D21*
X25250000Y15725000D03*
X24750000Y15725000D03*
X24250000Y15725000D03*
X23750000Y15725000D03*
D22*
X24950000Y13800000D03*
X24950000Y14700000D03*
X24050000Y13800000D03*
X24050000Y14700000D03*
G04 #@! TD*
D23*
G04 #@! TO.C,R36*
X29700000Y27200000D03*
X29700000Y26300000D03*
G04 #@! TD*
G04 #@! TO.C,R37*
X28600000Y27200000D03*
X28600000Y26300000D03*
G04 #@! TD*
D24*
G04 #@! TO.C,FD1*
X63700000Y28500000D03*
G04 #@! TD*
D25*
G04 #@! TO.C,R1*
X28825000Y20125000D03*
X29725000Y20125000D03*
G04 #@! TD*
G04 #@! TO.C,R14*
X32225000Y20125000D03*
X33125000Y20125000D03*
G04 #@! TD*
G04 #@! TO.C,R15*
X36025000Y20125000D03*
X36925000Y20125000D03*
G04 #@! TD*
D23*
G04 #@! TO.C,R16*
X27500000Y27200000D03*
X27500000Y26300000D03*
G04 #@! TD*
D26*
G04 #@! TO.C,Q5*
X27825000Y21625000D03*
X29725000Y21625000D03*
X28775000Y23625000D03*
G04 #@! TD*
G04 #@! TO.C,Q6*
X31225000Y21625000D03*
X33125000Y21625000D03*
X32175000Y23625000D03*
G04 #@! TD*
G04 #@! TO.C,Q7*
X35025000Y21625000D03*
X36925000Y21625000D03*
X35975000Y23625000D03*
G04 #@! TD*
D27*
G04 #@! TO.C,J2*
X63000000Y25300000D03*
X63000000Y22500000D03*
D28*
X55800000Y24400000D03*
X55800000Y27200000D03*
D29*
X55800000Y15000000D03*
X60150000Y10900000D03*
D30*
X59400000Y23300000D03*
X59400000Y16300000D03*
G04 #@! TD*
D31*
G04 #@! TO.C,U1*
X40899680Y9250640D03*
X40399300Y9250640D03*
X39898920Y9250640D03*
X41400060Y9250640D03*
D32*
X42149360Y9999940D03*
X42149360Y10500320D03*
X42149360Y11000700D03*
X42149360Y11501080D03*
X42149360Y11998920D03*
X42149360Y12499300D03*
X42149360Y12999680D03*
X42149360Y13500060D03*
D31*
X37899940Y14249360D03*
X41400060Y14249360D03*
X40899680Y14249360D03*
X40399300Y14249360D03*
X39898920Y14249360D03*
X39401080Y14249360D03*
X38900700Y14249360D03*
X38400320Y14249360D03*
D32*
X37150640Y13500060D03*
X37150640Y12999680D03*
X37150640Y12499300D03*
X37150640Y11998920D03*
X37150640Y11501080D03*
X37150640Y11000700D03*
X37150640Y10500320D03*
X37150640Y9999940D03*
D31*
X37899940Y9250640D03*
X38400320Y9250640D03*
X38900700Y9250640D03*
X39401080Y9250640D03*
D33*
X39650000Y11750000D03*
G04 #@! TD*
D34*
G04 #@! TO.C,U3*
X53672940Y9499960D03*
X53672940Y8550000D03*
X53672940Y7600040D03*
X51077060Y7600040D03*
X51077060Y8550000D03*
X51077060Y9499960D03*
G04 #@! TD*
D35*
G04 #@! TO.C,P1*
X50000000Y2250000D03*
D36*
X47460000Y2250000D03*
X44920000Y2250000D03*
X42380000Y2250000D03*
X39840000Y2250000D03*
X37300000Y2250000D03*
X34760000Y2250000D03*
X32220000Y2250000D03*
X29680000Y2250000D03*
X27140000Y2250000D03*
G04 #@! TD*
D37*
G04 #@! TO.C,C20*
X22300000Y28350000D03*
X22300000Y26850000D03*
G04 #@! TD*
D38*
G04 #@! TO.C,C1*
X43500000Y8275000D03*
X42400000Y8275000D03*
G04 #@! TD*
G04 #@! TO.C,C2*
X43500000Y7250000D03*
X42400000Y7250000D03*
G04 #@! TD*
G04 #@! TO.C,C3*
X34550000Y11200000D03*
X35650000Y11200000D03*
G04 #@! TD*
G04 #@! TO.C,C4*
X34550000Y10250000D03*
X35650000Y10250000D03*
G04 #@! TD*
G04 #@! TO.C,C5*
X46625000Y10900000D03*
X45525000Y10900000D03*
G04 #@! TD*
G04 #@! TO.C,C6*
X46625000Y9950000D03*
X45525000Y9950000D03*
G04 #@! TD*
G04 #@! TO.C,C7*
X34550000Y9300000D03*
X35650000Y9300000D03*
G04 #@! TD*
G04 #@! TO.C,C8*
X34550000Y8350000D03*
X35650000Y8350000D03*
G04 #@! TD*
D39*
G04 #@! TO.C,C9*
X51513909Y13788909D03*
D11*
G36*
X51549264Y14354594D02*
X52079594Y13824264D01*
X51478554Y13223224D01*
X50948224Y13753554D01*
X51549264Y14354594D01*
X51549264Y14354594D01*
G37*
D39*
X50736091Y13011091D03*
D11*
G36*
X50771446Y13576776D02*
X51301776Y13046446D01*
X50700736Y12445406D01*
X50170406Y12975736D01*
X50771446Y13576776D01*
X50771446Y13576776D01*
G37*
G04 #@! TD*
D39*
G04 #@! TO.C,C10*
X45038909Y17413909D03*
D11*
G36*
X45074264Y17979594D02*
X45604594Y17449264D01*
X45003554Y16848224D01*
X44473224Y17378554D01*
X45074264Y17979594D01*
X45074264Y17979594D01*
G37*
D39*
X44261091Y16636091D03*
D11*
G36*
X44296446Y17201776D02*
X44826776Y16671446D01*
X44225736Y16070406D01*
X43695406Y16600736D01*
X44296446Y17201776D01*
X44296446Y17201776D01*
G37*
G04 #@! TD*
D40*
G04 #@! TO.C,C12*
X39775000Y18850000D03*
X39775000Y17750000D03*
G04 #@! TD*
G04 #@! TO.C,C13*
X38825000Y18850000D03*
X38825000Y17750000D03*
G04 #@! TD*
G04 #@! TO.C,C14*
X35870000Y15350000D03*
X35870000Y14250000D03*
G04 #@! TD*
G04 #@! TO.C,C15*
X34730000Y15350000D03*
X34730000Y14250000D03*
G04 #@! TD*
D38*
G04 #@! TO.C,C17*
X16480000Y2490000D03*
X15380000Y2490000D03*
G04 #@! TD*
D41*
G04 #@! TO.C,C19*
X5475000Y14825000D03*
X6975000Y14825000D03*
G04 #@! TD*
G04 #@! TO.C,C23*
X23075000Y9225000D03*
X21575000Y9225000D03*
G04 #@! TD*
G04 #@! TO.C,C24*
X22475000Y11775000D03*
X20975000Y11775000D03*
G04 #@! TD*
G04 #@! TO.C,C25*
X22300000Y17800000D03*
X23800000Y17800000D03*
G04 #@! TD*
D40*
G04 #@! TO.C,C31*
X13100000Y16950000D03*
X13100000Y15850000D03*
G04 #@! TD*
G04 #@! TO.C,C35*
X21600000Y14500000D03*
X21600000Y15600000D03*
G04 #@! TD*
D38*
G04 #@! TO.C,C39*
X52175000Y6375000D03*
X51075000Y6375000D03*
G04 #@! TD*
D41*
G04 #@! TO.C,C40*
X45075000Y22050000D03*
X43575000Y22050000D03*
G04 #@! TD*
D40*
G04 #@! TO.C,C41*
X46300000Y23150000D03*
X46300000Y22050000D03*
G04 #@! TD*
G04 #@! TO.C,C43*
X50350000Y18800000D03*
X50350000Y17700000D03*
G04 #@! TD*
G04 #@! TO.C,C56*
X18275000Y13275000D03*
X18275000Y12175000D03*
G04 #@! TD*
G04 #@! TO.C,C59*
X15025000Y10725000D03*
X15025000Y9625000D03*
G04 #@! TD*
G04 #@! TO.C,C60*
X16375000Y14375000D03*
X16375000Y13275000D03*
G04 #@! TD*
D41*
G04 #@! TO.C,C94*
X45075000Y20725000D03*
X43575000Y20725000D03*
G04 #@! TD*
D25*
G04 #@! TO.C,R12*
X53675000Y10775000D03*
X52775000Y10775000D03*
G04 #@! TD*
D23*
G04 #@! TO.C,R13*
X57275000Y7600000D03*
X57275000Y8500000D03*
G04 #@! TD*
D25*
G04 #@! TO.C,R23*
X56275000Y7600000D03*
X55375000Y7600000D03*
G04 #@! TD*
D23*
G04 #@! TO.C,R24*
X47450000Y22950000D03*
X47450000Y22050000D03*
G04 #@! TD*
D25*
G04 #@! TO.C,R27*
X52750000Y23700000D03*
X51850000Y23700000D03*
G04 #@! TD*
G04 #@! TO.C,R28*
X52750000Y24750000D03*
X51850000Y24750000D03*
G04 #@! TD*
D23*
G04 #@! TO.C,R31*
X50350000Y20750000D03*
X50350000Y19850000D03*
G04 #@! TD*
D25*
G04 #@! TO.C,R4*
X25850000Y6500000D03*
X26750000Y6500000D03*
G04 #@! TD*
G04 #@! TO.C,R5*
X25700000Y16750000D03*
X26600000Y16750000D03*
G04 #@! TD*
D23*
G04 #@! TO.C,R6*
X53000000Y12200000D03*
X53000000Y13100000D03*
G04 #@! TD*
G04 #@! TO.C,R7*
X55050000Y9500000D03*
X55050000Y10400000D03*
G04 #@! TD*
D42*
G04 #@! TO.C,D1*
X19680000Y5090000D03*
X19680000Y4440000D03*
X19680000Y3790000D03*
X21580000Y3790000D03*
X21580000Y4440000D03*
X21580000Y5090000D03*
G04 #@! TD*
D40*
G04 #@! TO.C,C58*
X19550000Y19300000D03*
X19550000Y20400000D03*
G04 #@! TD*
D43*
G04 #@! TO.C,U12*
X16429960Y3889760D03*
X16429960Y4540000D03*
X16429960Y5190240D03*
X14530040Y5190240D03*
X14530040Y4540000D03*
X14530040Y3889760D03*
G04 #@! TD*
D41*
G04 #@! TO.C,C61*
X16200000Y20850000D03*
X17700000Y20850000D03*
G04 #@! TD*
D37*
G04 #@! TO.C,C67*
X8475000Y13625000D03*
X8475000Y12125000D03*
G04 #@! TD*
G04 #@! TO.C,C73*
X27150000Y13000000D03*
X27150000Y14500000D03*
G04 #@! TD*
D41*
G04 #@! TO.C,L18*
X20275000Y9225000D03*
X18775000Y9225000D03*
G04 #@! TD*
D37*
G04 #@! TO.C,L19*
X19425000Y11775000D03*
X19425000Y13275000D03*
G04 #@! TD*
G04 #@! TO.C,L21*
X16375000Y9225000D03*
X16375000Y10725000D03*
G04 #@! TD*
D41*
G04 #@! TO.C,L24*
X13825000Y10725000D03*
X12325000Y10725000D03*
G04 #@! TD*
G04 #@! TO.C,L27*
X9975000Y10725000D03*
X8475000Y10725000D03*
G04 #@! TD*
D37*
G04 #@! TO.C,L28*
X12275000Y14375000D03*
X12275000Y12875000D03*
G04 #@! TD*
D40*
G04 #@! TO.C,C53*
X17675000Y9225000D03*
X17675000Y10325000D03*
G04 #@! TD*
G04 #@! TO.C,C62*
X11125000Y10725000D03*
X11125000Y9625000D03*
G04 #@! TD*
G04 #@! TO.C,C63*
X13425000Y14375000D03*
X13425000Y13275000D03*
G04 #@! TD*
G04 #@! TO.C,C66*
X12950000Y22700000D03*
X12950000Y23800000D03*
G04 #@! TD*
D37*
G04 #@! TO.C,C68*
X10825000Y14375000D03*
X10825000Y12875000D03*
G04 #@! TD*
G04 #@! TO.C,C70*
X10375000Y21450000D03*
X10375000Y19950000D03*
G04 #@! TD*
D41*
G04 #@! TO.C,C71*
X34400000Y13000000D03*
X32900000Y13000000D03*
G04 #@! TD*
D38*
G04 #@! TO.C,C75*
X28450000Y9900000D03*
X27350000Y9900000D03*
G04 #@! TD*
D40*
G04 #@! TO.C,C76*
X30600000Y9850000D03*
X30600000Y10950000D03*
G04 #@! TD*
G04 #@! TO.C,L22*
X17325000Y13275000D03*
X17325000Y14375000D03*
G04 #@! TD*
D44*
G04 #@! TO.C,L23*
X18200000Y19300000D03*
X16200000Y19300000D03*
G04 #@! TD*
D38*
G04 #@! TO.C,L25*
X15375000Y14375000D03*
X14275000Y14375000D03*
G04 #@! TD*
D44*
G04 #@! TO.C,L26*
X16200000Y22700000D03*
X14200000Y22700000D03*
G04 #@! TD*
D40*
G04 #@! TO.C,C74*
X29600000Y9850000D03*
X29600000Y10950000D03*
G04 #@! TD*
D24*
G04 #@! TO.C,FD2*
X9000000Y1950000D03*
G04 #@! TD*
D41*
G04 #@! TO.C,C77*
X30240000Y17910000D03*
X31740000Y17910000D03*
G04 #@! TD*
D37*
G04 #@! TO.C,L30*
X28900000Y16420000D03*
X28900000Y17920000D03*
G04 #@! TD*
G04 #@! TO.C,L31*
X32990000Y16420000D03*
X32990000Y17920000D03*
G04 #@! TD*
G04 #@! TO.C,L32*
X7325000Y17075000D03*
X7325000Y18575000D03*
G04 #@! TD*
D23*
G04 #@! TO.C,R9*
X5575000Y16125000D03*
X5575000Y17025000D03*
G04 #@! TD*
D44*
G04 #@! TO.C,C22*
X20700000Y24800000D03*
X18700000Y24800000D03*
G04 #@! TD*
D37*
G04 #@! TO.C,L3*
X28450000Y11500000D03*
X28450000Y13000000D03*
G04 #@! TD*
G04 #@! TO.C,L20*
X21000000Y17800000D03*
X21000000Y19300000D03*
G04 #@! TD*
D41*
G04 #@! TO.C,L29*
X11850000Y22700000D03*
X10350000Y22700000D03*
G04 #@! TD*
D44*
G04 #@! TO.C,C80*
X45625000Y8600000D03*
X47625000Y8600000D03*
G04 #@! TD*
D45*
G04 #@! TO.C,C81*
X25900000Y8300000D03*
X25900000Y10300000D03*
G04 #@! TD*
D46*
G04 #@! TO.C,J1*
X2325000Y12063000D03*
X2325000Y17587000D03*
D47*
X2325000Y14825000D03*
G04 #@! TD*
D48*
G04 #@! TO.C,D2*
X62380000Y1190000D03*
X62380000Y2890000D03*
G04 #@! TD*
G04 #@! TO.C,D3*
X59650000Y1190000D03*
X59650000Y2890000D03*
G04 #@! TD*
D23*
G04 #@! TO.C,R20*
X62380000Y5490000D03*
X62380000Y4590000D03*
G04 #@! TD*
G04 #@! TO.C,R22*
X59630000Y5490000D03*
X59630000Y4590000D03*
G04 #@! TD*
D26*
G04 #@! TO.C,U6*
X18850000Y26400000D03*
X20750000Y26400000D03*
X19800000Y28400000D03*
G04 #@! TD*
D49*
G04 #@! TO.C,Y1*
X49719340Y14479290D03*
D11*
G36*
X50956685Y14196412D02*
X50002218Y13241945D01*
X48481995Y14762168D01*
X49436462Y15716635D01*
X50956685Y14196412D01*
X50956685Y14196412D01*
G37*
D49*
X47104290Y17094340D03*
D11*
G36*
X48341635Y16811462D02*
X47387168Y15856995D01*
X45866945Y17377218D01*
X46821412Y18331685D01*
X48341635Y16811462D01*
X48341635Y16811462D01*
G37*
D49*
X45480660Y15470710D03*
D11*
G36*
X46718005Y15187832D02*
X45763538Y14233365D01*
X44243315Y15753588D01*
X45197782Y16708055D01*
X46718005Y15187832D01*
X46718005Y15187832D01*
G37*
D49*
X48095710Y12855660D03*
D11*
G36*
X49333055Y12572782D02*
X48378588Y11618315D01*
X46858365Y13138538D01*
X47812832Y14093005D01*
X49333055Y12572782D01*
X49333055Y12572782D01*
G37*
G04 #@! TD*
D41*
G04 #@! TO.C,C42*
X51950000Y21000000D03*
X53450000Y21000000D03*
G04 #@! TD*
D37*
G04 #@! TO.C,C47*
X53000000Y14350000D03*
X53000000Y15850000D03*
G04 #@! TD*
D50*
G04 #@! TO.C,C93*
X62560000Y7600000D03*
X59640000Y7600000D03*
G04 #@! TD*
D24*
G04 #@! TO.C,FD3*
X9000000Y28000000D03*
G04 #@! TD*
D51*
G04 #@! TO.C,P2*
X50000000Y27650000D03*
D52*
X47460000Y27650000D03*
X44920000Y27650000D03*
X42380000Y27650000D03*
X39840000Y27650000D03*
X37300000Y27650000D03*
X34760000Y27650000D03*
G04 #@! TD*
D53*
G04 #@! TO.C,C18*
X24950000Y24940000D03*
X24950000Y27860000D03*
G04 #@! TD*
D37*
G04 #@! TO.C,C21*
X31000000Y25700000D03*
X31000000Y27200000D03*
G04 #@! TD*
G04 #@! TO.C,C11*
X40850000Y17550000D03*
X40850000Y19050000D03*
G04 #@! TD*
D54*
G04 #@! TO.C,MK1*
X4000000Y26000000D03*
G04 #@! TD*
G04 #@! TO.C,MK2*
X4000000Y4000000D03*
G04 #@! TD*
D23*
G04 #@! TO.C,R2*
X44450000Y14025000D03*
X44450000Y13125000D03*
G04 #@! TD*
G04 #@! TO.C,R3*
X43400000Y14025000D03*
X43400000Y13125000D03*
G04 #@! TD*
D55*
G04 #@! TO.C,U4*
X31450000Y12500000D03*
X31450000Y13000000D03*
X31450000Y13500000D03*
X31450000Y14000000D03*
X29550000Y14000000D03*
X29550000Y13500000D03*
X29550000Y13000000D03*
X29550000Y12500000D03*
D56*
X30500000Y13725000D03*
X30500000Y12775000D03*
G04 #@! TD*
D57*
G04 #@! TO.C,Q1*
X30300000Y6450000D03*
X30300000Y7400000D03*
X30300000Y8350000D03*
X28100000Y8350000D03*
X28100000Y7400000D03*
X28100000Y6450000D03*
G04 #@! TD*
D22*
G04 #@! TO.C,U10*
X10575000Y16800000D03*
X10575000Y17700000D03*
X9675000Y16800000D03*
X9675000Y17700000D03*
D21*
X10875000Y15775000D03*
X10375000Y15775000D03*
X9875000Y15775000D03*
X9375000Y15775000D03*
D20*
X8650000Y16500000D03*
X8650000Y17000000D03*
X8650000Y17500000D03*
X8650000Y18000000D03*
D21*
X9375000Y18725000D03*
X9875000Y18725000D03*
X10375000Y18725000D03*
X10875000Y18725000D03*
D20*
X11600000Y18000000D03*
X11600000Y17500000D03*
X11600000Y17000000D03*
X11600000Y16500000D03*
G04 #@! TD*
D58*
G04 #@! TO.C,U2*
X12600000Y5200000D03*
X12600000Y3900000D03*
X10700000Y4550000D03*
X10700000Y3900000D03*
X10700000Y5200000D03*
G04 #@! TD*
M02*
