M48
;DRILL file {KiCad (5.0.0)} date 09/16/18 16:08:29
;FORMAT={2:4/ absolute / inch / suppress leading zeros}
FMAT,2
INCH,TZ
T1C0.0100
T2C0.0130
T3C0.0394
T4C0.0400
T5C0.0669
T6C0.1260
%
G90
G05
M72
T1
X3780Y1713
X3819Y2047
X3986Y6791
X4606Y2480
X4764Y7480
X5000Y7047
X5118Y2795
X5669Y6654
X6053Y620
X6988Y1535
X7333Y2008
X7756Y2520
X7992Y5709
X8307Y5354
X8504Y2421
X8622Y5079
X9606Y3268
X9646Y5610
X10472Y6181
X10669Y2913
X10955Y8022
X11703Y9301
X11703Y8907
X12293Y8041
X12539Y3415
X13041Y8898
X13071Y9301
X13346Y5610
X13789Y8022
X14035Y2854
X14537Y9301
X14941Y8514
X15323Y4898
X15323Y4327
X15500Y6484
X15917Y4937
X15921Y4350
X16673Y5768
X16693Y2480
X17146Y4183
X17165Y3711
X17382Y5906
X17953Y2874
X19823Y8543
X20266Y7411
X21043Y7697
X21102Y9331
X22156Y3396
X22490Y6781
X23031Y2008
X23337Y10709
X24626Y6220
X25128Y2165
T2
X14764Y7283
X23425Y5512
X2756Y8858
X8071Y8268
X4921Y8268
X15551Y7874
X19390Y3051
X22441Y8563
X3583Y8720
X8701Y9724
X25098Y591
X12402Y6299
X18701Y2559
X24409Y10827
X10039Y7283
X6909Y8760
X5906Y7126
X3839Y4724
X10236Y4626
X21673Y3406
X5866Y6142
X2559Y5020
X3228Y6083
X4724Y10827
X13780Y7480
X14764Y6102
X1772Y3937
X12598Y7480
X5906Y9646
X5906Y4843
X12992Y4331
X9606Y7933
X7205Y1063
X6594Y2756
X7953Y6457
X18701Y5709
X21457Y984
X10236Y8661
X3937Y9646
X7362Y6890
X13386Y2756
X7283Y5709
X8701Y9272
X10827Y11319
X12795Y11319
X5118Y3425
X787Y8858
X13976Y6693
X2756Y2953
X7677Y9252
X4724Y9646
X16535Y8858
X5630Y3346
X9547Y3937
X3937Y3445
X15551Y8858
X8839Y6496
X20669Y6850
X11614Y7480
X11811Y6299
X9232Y9193
X5709Y8268
X19094Y9449
X8268Y4134
X11220Y6004
X7283Y3150
X17028Y6201
X21535Y2362
X6693Y4724
X1772Y7874
X6693Y10827
X787Y2953
X20906Y11142
X9055Y8268
X5394Y7638
X18898Y7677
X2953Y3740
X17520Y2362
X14370Y2559
X8366Y3150
X9252Y2441
X19488Y4134
T3
X13685Y10886
X14685Y10886
X15685Y10886
X16685Y10886
X17685Y10886
X18685Y10886
X19685Y10886
T4
X10685Y886
X11685Y886
X12685Y886
X13685Y886
X14685Y886
X15685Y886
X16685Y886
X17685Y886
X18685Y886
X19685Y886
T5
X23386Y9173
X23386Y6417
T6
X1575Y10236
X1575Y1575
T0
M30
