G04 #@! TF.GenerationSoftware,KiCad,Pcbnew,(5.0.0)*
G04 #@! TF.CreationDate,2018-09-16T16:08:26-07:00*
G04 #@! TF.ProjectId,HamShieldMini1.2,48616D536869656C644D696E69312E32,rev?*
G04 #@! TF.SameCoordinates,PX459e440PY8f0d180*
G04 #@! TF.FileFunction,Copper,L3,Inr,Signal*
G04 #@! TF.FilePolarity,Positive*
%FSLAX46Y46*%
G04 Gerber Fmt 4.6, Leading zero omitted, Abs format (unit mm)*
G04 Created by KiCad (PCBNEW (5.0.0)) date 09/16/18 16:08:26*
%MOMM*%
%LPD*%
G01*
G04 APERTURE LIST*
G04 #@! TA.AperFunction,ViaPad*
%ADD10C,0.838200*%
G04 #@! TD*
G04 #@! TA.AperFunction,ViaPad*
%ADD11C,1.700000*%
G04 #@! TD*
G04 #@! TA.AperFunction,ViaPad*
%ADD12R,1.727200X2.032000*%
G04 #@! TD*
G04 #@! TA.AperFunction,ViaPad*
%ADD13O,1.727200X2.032000*%
G04 #@! TD*
G04 #@! TA.AperFunction,ViaPad*
%ADD14R,1.700000X1.700000*%
G04 #@! TD*
G04 #@! TA.AperFunction,ViaPad*
%ADD15O,1.700000X1.700000*%
G04 #@! TD*
G04 #@! TA.AperFunction,ViaPad*
%ADD16C,0.558800*%
G04 #@! TD*
G04 #@! TA.AperFunction,ViaPad*
%ADD17C,0.750000*%
G04 #@! TD*
G04 #@! TA.AperFunction,Conductor*
%ADD18C,0.599440*%
G04 #@! TD*
G04 #@! TA.AperFunction,Conductor*
%ADD19C,0.200660*%
G04 #@! TD*
G04 #@! TA.AperFunction,Conductor*
%ADD20C,0.600000*%
G04 #@! TD*
G04 #@! TA.AperFunction,Conductor*
%ADD21C,0.254000*%
G04 #@! TD*
G04 APERTURE END LIST*
D10*
G04 #@! TO.N,GND*
G04 #@! TO.C,REF\002A\002A*
X13000000Y8700000D03*
G04 #@! TD*
G04 #@! TO.N,GND*
G04 #@! TO.C,REF\002A\002A*
X8200000Y15450000D03*
G04 #@! TD*
G04 #@! TO.N,GND*
G04 #@! TO.C,REF\002A\002A*
X9100000Y22150000D03*
G04 #@! TD*
G04 #@! TO.N,VCC*
G04 #@! TO.C,REF\002A\002A*
X22100000Y23550000D03*
G04 #@! TD*
G04 #@! TO.N,VCC*
G04 #@! TO.C,REF\002A\002A*
X22100000Y24700000D03*
G04 #@! TD*
G04 #@! TO.N,GND*
G04 #@! TO.C,REF\002A\002A*
X18300000Y2700000D03*
G04 #@! TD*
G04 #@! TO.N,GND*
G04 #@! TO.C,REF\002A\002A*
X54700000Y6000000D03*
G04 #@! TD*
G04 #@! TO.N,GND*
G04 #@! TO.C,REF\002A\002A*
X55050000Y8650000D03*
G04 #@! TD*
G04 #@! TO.N,GND*
G04 #@! TO.C,REF\002A\002A*
X49250000Y7750000D03*
G04 #@! TD*
G04 #@! TO.N,GND*
G04 #@! TO.C,REF\002A\002A*
X44500000Y6000000D03*
G04 #@! TD*
G04 #@! TO.N,GND*
G04 #@! TO.C,REF\002A\002A*
X43250000Y15750000D03*
G04 #@! TD*
G04 #@! TO.N,GND*
G04 #@! TO.C,REF\002A\002A*
X57000000Y21750000D03*
G04 #@! TD*
G04 #@! TO.N,GND*
G04 #@! TO.C,REF\002A\002A*
X63750000Y1500000D03*
G04 #@! TD*
G04 #@! TO.N,GND*
G04 #@! TO.C,REF\002A\002A*
X27500000Y28750000D03*
G04 #@! TD*
G04 #@! TO.N,GND*
G04 #@! TO.C,REF\002A\002A*
X32500000Y28750000D03*
G04 #@! TD*
G04 #@! TO.N,GND*
G04 #@! TO.C,REF\002A\002A*
X22450000Y16500000D03*
G04 #@! TD*
G04 #@! TO.N,GND*
G04 #@! TO.C,REF\002A\002A*
X24400000Y20150000D03*
G04 #@! TD*
G04 #@! TO.N,GND*
G04 #@! TO.C,REF\002A\002A*
X28500000Y15250000D03*
G04 #@! TD*
G04 #@! TO.N,GND*
G04 #@! TO.C,REF\002A\002A*
X26000000Y11750000D03*
G04 #@! TD*
G04 #@! TO.N,GND*
G04 #@! TO.C,REF\002A\002A*
X24250000Y10000000D03*
G04 #@! TD*
G04 #@! TO.N,GND*
G04 #@! TO.C,REF\002A\002A*
X21250000Y8000000D03*
G04 #@! TD*
G04 #@! TO.N,GND*
G04 #@! TO.C,REF\002A\002A*
X16750000Y7000000D03*
G04 #@! TD*
G04 #@! TO.N,GND*
G04 #@! TO.C,REF\002A\002A*
X18500000Y8000000D03*
G04 #@! TD*
G04 #@! TO.N,GND*
G04 #@! TO.C,REF\002A\002A*
X20200000Y16400000D03*
G04 #@! TD*
G04 #@! TO.N,GND*
G04 #@! TO.C,REF\002A\002A*
X14900000Y15600000D03*
G04 #@! TD*
G04 #@! TO.N,GND*
G04 #@! TO.C,REF\002A\002A*
X18500000Y14500000D03*
G04 #@! TD*
G04 #@! TO.N,GND*
G04 #@! TO.C,REF\002A\002A*
X21000000Y10500000D03*
G04 #@! TD*
G04 #@! TO.N,GND*
G04 #@! TO.C,REF\002A\002A*
X10000000Y8750000D03*
G04 #@! TD*
G04 #@! TO.N,GND*
G04 #@! TO.C,REF\002A\002A*
X7500000Y9500000D03*
G04 #@! TD*
G04 #@! TO.N,GND*
G04 #@! TO.C,REF\002A\002A*
X6500000Y12750000D03*
G04 #@! TD*
G04 #@! TO.N,GND*
G04 #@! TO.C,REF\002A\002A*
X17000000Y12000000D03*
G04 #@! TD*
G04 #@! TO.N,GND*
G04 #@! TO.C,REF\002A\002A*
X9750000Y12000000D03*
G04 #@! TD*
G04 #@! TO.N,GND*
G04 #@! TO.C,REF\002A\002A*
X14300000Y8500000D03*
G04 #@! TD*
G04 #@! TO.N,GND*
G04 #@! TO.C,REF\002A\002A*
X34000000Y7000000D03*
G04 #@! TD*
G04 #@! TO.N,GND*
G04 #@! TO.C,REF\002A\002A*
X36500000Y6500000D03*
G04 #@! TD*
G04 #@! TO.N,GND*
G04 #@! TO.C,REF\002A\002A*
X33000000Y11000000D03*
G04 #@! TD*
G04 #@! TO.N,GND*
G04 #@! TO.C,REF\002A\002A*
X39500000Y20000000D03*
G04 #@! TD*
G04 #@! TO.N,GND*
G04 #@! TO.C,REF\002A\002A*
X48000000Y19500000D03*
G04 #@! TD*
G04 #@! TO.N,GND*
G04 #@! TO.C,REF\002A\002A*
X48500000Y24000000D03*
G04 #@! TD*
G04 #@! TO.N,GND*
G04 #@! TO.C,REF\002A\002A*
X42000000Y22500000D03*
G04 #@! TD*
G04 #@! TO.N,GND*
G04 #@! TO.C,REF\002A\002A*
X39500000Y22500000D03*
G04 #@! TD*
G04 #@! TO.N,GND*
G04 #@! TO.C,REF\002A\002A*
X15000000Y12300000D03*
G04 #@! TD*
G04 #@! TO.N,GND*
G04 #@! TO.C,REF\002A\002A*
X18700000Y17500000D03*
G04 #@! TD*
G04 #@! TO.N,GND*
G04 #@! TO.C,REF\002A\002A*
X15000000Y18100000D03*
G04 #@! TD*
G04 #@! TO.N,GND*
G04 #@! TO.C,REF\002A\002A*
X12500000Y21000000D03*
G04 #@! TD*
G04 #@! TO.N,GND*
G04 #@! TO.C,REF\002A\002A*
X14500000Y21000000D03*
G04 #@! TD*
G04 #@! TO.N,GND*
G04 #@! TO.C,REF\002A\002A*
X13700000Y19400000D03*
G04 #@! TD*
G04 #@! TO.N,GND*
G04 #@! TO.C,REF\002A\002A*
X12000000Y24500000D03*
G04 #@! TD*
G04 #@! TO.N,GND*
G04 #@! TO.C,REF\002A\002A*
X10000000Y24500000D03*
G04 #@! TD*
G04 #@! TO.N,GND*
G04 #@! TO.C,REF\002A\002A*
X15000000Y24500000D03*
G04 #@! TD*
G04 #@! TO.N,GND*
G04 #@! TO.C,REF\002A\002A*
X17550000Y22250000D03*
G04 #@! TD*
G04 #@! TO.N,GND*
G04 #@! TO.C,REF\002A\002A*
X19500000Y23500000D03*
G04 #@! TD*
G04 #@! TO.N,GND*
G04 #@! TO.C,REF\002A\002A*
X20500000Y21000000D03*
G04 #@! TD*
G04 #@! TO.N,GND*
G04 #@! TO.C,REF\002A\002A*
X26000000Y22000000D03*
G04 #@! TD*
G04 #@! TO.N,GND*
G04 #@! TO.C,REF\002A\002A*
X23000000Y21000000D03*
G04 #@! TD*
G04 #@! TO.N,GND*
G04 #@! TO.C,REF\002A\002A*
X23450000Y23350000D03*
G04 #@! TD*
G04 #@! TO.N,GND*
G04 #@! TO.C,REF\002A\002A*
X25500000Y18500000D03*
G04 #@! TD*
G04 #@! TO.N,GND*
G04 #@! TO.C,REF\002A\002A*
X32000000Y19000000D03*
G04 #@! TD*
G04 #@! TO.N,GND*
G04 #@! TO.C,REF\002A\002A*
X29500000Y19000000D03*
G04 #@! TD*
G04 #@! TO.N,GND*
G04 #@! TO.C,REF\002A\002A*
X30000000Y16000000D03*
G04 #@! TD*
G04 #@! TO.N,GND*
G04 #@! TO.C,REF\002A\002A*
X31500000Y16000000D03*
G04 #@! TD*
G04 #@! TO.N,GND*
G04 #@! TO.C,REF\002A\002A*
X35500000Y17000000D03*
G04 #@! TD*
G04 #@! TO.N,GND*
G04 #@! TO.C,REF\002A\002A*
X35000000Y19000000D03*
G04 #@! TD*
G04 #@! TO.N,GND*
G04 #@! TO.C,REF\002A\002A*
X37500000Y18500000D03*
G04 #@! TD*
G04 #@! TO.N,GND*
G04 #@! TO.C,REF\002A\002A*
X37500000Y15500000D03*
G04 #@! TD*
G04 #@! TO.N,GND*
G04 #@! TO.C,REF\002A\002A*
X47500000Y14500000D03*
G04 #@! TD*
G04 #@! TO.N,GND*
G04 #@! TO.C,REF\002A\002A*
X47500000Y6500000D03*
G04 #@! TD*
G04 #@! TO.N,GND*
G04 #@! TO.C,REF\002A\002A*
X49500000Y10500000D03*
G04 #@! TD*
G04 #@! TO.N,GND*
G04 #@! TO.C,REF\002A\002A*
X59500000Y14000000D03*
G04 #@! TD*
G04 #@! TO.N,GND*
G04 #@! TO.C,REF\002A\002A*
X54500000Y2500000D03*
G04 #@! TD*
G04 #@! TO.N,GND*
G04 #@! TO.C,REF\002A\002A*
X62000000Y27500000D03*
G04 #@! TD*
G04 #@! TO.N,GND*
G04 #@! TO.C,REF\002A\002A*
X4500000Y10000000D03*
G04 #@! TD*
G04 #@! TO.N,GND*
G04 #@! TO.C,REF\002A\002A*
X4500000Y20000000D03*
G04 #@! TD*
G04 #@! TO.N,GND*
G04 #@! TO.C,REF\002A\002A*
X17000000Y27500000D03*
G04 #@! TD*
G04 #@! TO.N,GND*
G04 #@! TO.C,REF\002A\002A*
X12000000Y27500000D03*
G04 #@! TD*
G04 #@! TO.N,GND*
G04 #@! TO.C,REF\002A\002A*
X7000000Y22500000D03*
G04 #@! TD*
G04 #@! TO.N,GND*
G04 #@! TO.C,REF\002A\002A*
X7000000Y7500000D03*
G04 #@! TD*
G04 #@! TO.N,GND*
G04 #@! TO.C,REF\002A\002A*
X53100000Y28300000D03*
G04 #@! TD*
G04 #@! TO.N,GND*
G04 #@! TO.C,REF\002A\002A*
X52500000Y17400000D03*
G04 #@! TD*
G04 #@! TO.N,GND*
G04 #@! TO.C,REF\002A\002A*
X2000000Y22500000D03*
G04 #@! TD*
G04 #@! TO.N,GND*
G04 #@! TO.C,REF\002A\002A*
X2000000Y7500000D03*
G04 #@! TD*
D11*
G04 #@! TO.N,N/C*
G04 #@! TO.C,J2*
X59400000Y23300000D03*
X59400000Y16300000D03*
G04 #@! TD*
D12*
G04 #@! TO.N,VCC*
G04 #@! TO.C,P1*
X50000000Y2250000D03*
D13*
G04 #@! TO.N,/GPIO0*
X47460000Y2250000D03*
G04 #@! TO.N,/GPIO1*
X44920000Y2250000D03*
G04 #@! TO.N,/GPIO2*
X42380000Y2250000D03*
G04 #@! TO.N,/GPIO3*
X39840000Y2250000D03*
G04 #@! TO.N,/GPIO4*
X37300000Y2250000D03*
G04 #@! TO.N,/GPIO5*
X34760000Y2250000D03*
G04 #@! TO.N,/GPIO6*
X32220000Y2250000D03*
G04 #@! TO.N,/GPIO7*
X29680000Y2250000D03*
G04 #@! TO.N,GND*
X27140000Y2250000D03*
G04 #@! TD*
D14*
G04 #@! TO.N,/User Interface/ARD_AUDIO_OUT*
G04 #@! TO.C,P2*
X50000000Y27650000D03*
D15*
G04 #@! TO.N,/User Interface/PWM_AUDIO_IN*
X47460000Y27650000D03*
G04 #@! TO.N,Net-(P2-Pad3)*
X44920000Y27650000D03*
G04 #@! TO.N,Net-(P2-Pad4)*
X42380000Y27650000D03*
G04 #@! TO.N,Net-(P2-Pad5)*
X39840000Y27650000D03*
G04 #@! TO.N,GND*
X37300000Y27650000D03*
G04 #@! TO.N,VIN*
X34760000Y27650000D03*
G04 #@! TD*
D10*
G04 #@! TO.N,GND*
G04 #@! TO.C,REF\002A\002A*
X23500000Y6200000D03*
G04 #@! TD*
D16*
G04 #@! TO.N,GND*
X24500000Y14250000D03*
X26600000Y15700000D03*
X10125000Y17250000D03*
X40440000Y11050000D03*
X40430000Y12540000D03*
X38920000Y12440000D03*
X38920000Y10990000D03*
D17*
G04 #@! TO.N,VCC*
X35650000Y7250000D03*
X15375000Y1575000D03*
X35025000Y20375000D03*
X31225000Y20425000D03*
X27825000Y20375000D03*
X44150000Y15000000D03*
X33900000Y14250000D03*
X39370000Y16470000D03*
X53600000Y23700000D03*
X58500000Y5100000D03*
X42400000Y6300000D03*
X45600000Y7300000D03*
X20300000Y14500000D03*
X14400000Y16900000D03*
G04 #@! TO.N,VTX*
X31850000Y8675000D03*
X51475000Y18825000D03*
X63825000Y5500000D03*
D16*
G04 #@! TO.N,Net-(C93-Pad2)*
X62550000Y15800000D03*
G04 #@! TO.N,Net-(J2-Pad2)*
X57125000Y17225000D03*
G04 #@! TO.N,Net-(D1-Pad4)*
X21600000Y6150000D03*
X27100000Y7400000D03*
G04 #@! TO.N,/GPIO4*
X18625000Y5100000D03*
X9700000Y5200000D03*
X19700000Y6400000D03*
X21900000Y12900000D03*
G04 #@! TO.N,/GPIO5*
X17750000Y3900000D03*
X9600000Y4350000D03*
G04 #@! TO.N,/nSEN*
X42350000Y14650000D03*
X29725000Y22625000D03*
G04 #@! TO.N,/SDIO*
X33125000Y22600000D03*
X43550000Y10625000D03*
G04 #@! TO.N,/SCLK*
X37950000Y21625000D03*
X43600000Y9425000D03*
G04 #@! TO.N,/Y1*
X13000000Y7100000D03*
X12100000Y19000000D03*
G04 #@! TO.N,Net-(P2-Pad3)*
X36925000Y23625000D03*
G04 #@! TO.N,Net-(P2-Pad4)*
X33200000Y23625000D03*
G04 #@! TO.N,Net-(P2-Pad5)*
X29725000Y23625000D03*
D17*
G04 #@! TO.N,VIN*
X24400000Y8300000D03*
D16*
G04 #@! TO.N,Net-(C42-Pad2)*
X53450000Y19550000D03*
X56275000Y8625000D03*
G04 #@! TO.N,Net-(C94-Pad1)*
X50350000Y21700000D03*
X59275000Y27200000D03*
G04 #@! TO.N,/RF Front End/V1xorV2*
X21100000Y13600000D03*
X11700000Y6300000D03*
X12700000Y17900000D03*
G04 #@! TD*
D18*
G04 #@! TO.N,VCC*
X32725000Y4325000D02*
X35650000Y7250000D01*
X24875000Y4325000D02*
X32725000Y4325000D01*
X22125000Y1575000D02*
X24875000Y4325000D01*
X15375000Y1575000D02*
X22125000Y1575000D01*
D19*
X27825000Y20375000D02*
X27850000Y20400000D01*
X39370000Y16470000D02*
X39400000Y16500000D01*
D18*
X27825000Y20375000D02*
X27825000Y18925000D01*
X27825000Y18925000D02*
X23400000Y14500000D01*
X23400000Y14500000D02*
X20300000Y14500000D01*
X20300000Y14500000D02*
X18400000Y16400000D01*
X18400000Y16400000D02*
X15900000Y16400000D01*
X15900000Y16400000D02*
X15400000Y16900000D01*
X15400000Y16900000D02*
X14400000Y16900000D01*
D20*
G04 #@! TO.N,VIN*
X24400000Y8300000D02*
X26100000Y8300000D01*
X26100000Y8300000D02*
X33500000Y15700000D01*
X33500000Y15700000D02*
X33500000Y21000000D01*
X34760000Y22260000D02*
X34760000Y27650000D01*
X33500000Y21000000D02*
X34760000Y22260000D01*
G04 #@! TD*
D21*
G04 #@! TO.N,VCC*
G36*
X27076994Y29383073D02*
X26866927Y29173006D01*
X26753240Y28898540D01*
X26753240Y28601460D01*
X26866927Y28326994D01*
X27076994Y28116927D01*
X27351460Y28003240D01*
X27648540Y28003240D01*
X27923006Y28116927D01*
X28133073Y28326994D01*
X28246760Y28601460D01*
X28246760Y28898540D01*
X28133073Y29173006D01*
X27923006Y29383073D01*
X27682967Y29482500D01*
X32317033Y29482500D01*
X32076994Y29383073D01*
X31866927Y29173006D01*
X31753240Y28898540D01*
X31753240Y28601460D01*
X31866927Y28326994D01*
X32076994Y28116927D01*
X32351460Y28003240D01*
X32648540Y28003240D01*
X32923006Y28116927D01*
X33133073Y28326994D01*
X33246760Y28601460D01*
X33246760Y28898540D01*
X33133073Y29173006D01*
X32923006Y29383073D01*
X32682967Y29482500D01*
X64482501Y29482500D01*
X64482500Y5748793D01*
X64420686Y5898025D01*
X64223025Y6095686D01*
X63964768Y6202660D01*
X63685232Y6202660D01*
X63426975Y6095686D01*
X63229314Y5898025D01*
X63122340Y5639768D01*
X63122340Y5360232D01*
X63229314Y5101975D01*
X63426975Y4904314D01*
X63685232Y4797340D01*
X63964768Y4797340D01*
X64223025Y4904314D01*
X64420686Y5101975D01*
X64482500Y5251207D01*
X64482500Y1682967D01*
X64383073Y1923006D01*
X64173006Y2133073D01*
X63898540Y2246760D01*
X63601460Y2246760D01*
X63326994Y2133073D01*
X63116927Y1923006D01*
X63003240Y1648540D01*
X63003240Y1351460D01*
X63116927Y1076994D01*
X63326994Y866927D01*
X63601460Y753240D01*
X63898540Y753240D01*
X64173006Y866927D01*
X64383073Y1076994D01*
X64482500Y1317033D01*
X64482500Y517500D01*
X517500Y517500D01*
X517500Y4383435D01*
X2072340Y4383435D01*
X2072340Y3616565D01*
X2365809Y2908068D01*
X2908068Y2365809D01*
X3616565Y2072340D01*
X4383435Y2072340D01*
X5091932Y2365809D01*
X5634191Y2908068D01*
X5927660Y3616565D01*
X5927660Y4383435D01*
X5891493Y4470752D01*
X8992940Y4470752D01*
X8992940Y4229248D01*
X9085359Y4006128D01*
X9256128Y3835359D01*
X9479248Y3742940D01*
X9720752Y3742940D01*
X9943872Y3835359D01*
X10114641Y4006128D01*
X10120698Y4020752D01*
X17142940Y4020752D01*
X17142940Y3779248D01*
X17235359Y3556128D01*
X17406128Y3385359D01*
X17629248Y3292940D01*
X17836861Y3292940D01*
X17666927Y3123006D01*
X17553240Y2848540D01*
X17553240Y2551460D01*
X17666927Y2276994D01*
X17876994Y2066927D01*
X18151460Y1953240D01*
X18448540Y1953240D01*
X18723006Y2066927D01*
X18933073Y2276994D01*
X19033616Y2519728D01*
X25948740Y2519728D01*
X25948740Y1980273D01*
X26017858Y1632794D01*
X26281150Y1238750D01*
X26675193Y975458D01*
X27140000Y883002D01*
X27604806Y975458D01*
X27998850Y1238750D01*
X28262142Y1632793D01*
X28331260Y1980272D01*
X28331260Y2519727D01*
X28331260Y2519728D01*
X28488740Y2519728D01*
X28488740Y1980273D01*
X28557858Y1632794D01*
X28821150Y1238750D01*
X29215193Y975458D01*
X29680000Y883002D01*
X30144806Y975458D01*
X30538850Y1238750D01*
X30802142Y1632793D01*
X30871260Y1980272D01*
X30871260Y2519727D01*
X30871260Y2519728D01*
X31028740Y2519728D01*
X31028740Y1980273D01*
X31097858Y1632794D01*
X31361150Y1238750D01*
X31755193Y975458D01*
X32220000Y883002D01*
X32684806Y975458D01*
X33078850Y1238750D01*
X33342142Y1632793D01*
X33411260Y1980272D01*
X33411260Y2519727D01*
X33411260Y2519728D01*
X33568740Y2519728D01*
X33568740Y1980273D01*
X33637858Y1632794D01*
X33901150Y1238750D01*
X34295193Y975458D01*
X34760000Y883002D01*
X35224806Y975458D01*
X35618850Y1238750D01*
X35882142Y1632793D01*
X35951260Y1980272D01*
X35951260Y2519727D01*
X35951260Y2519728D01*
X36108740Y2519728D01*
X36108740Y1980273D01*
X36177858Y1632794D01*
X36441150Y1238750D01*
X36835193Y975458D01*
X37300000Y883002D01*
X37764806Y975458D01*
X38158850Y1238750D01*
X38422142Y1632793D01*
X38491260Y1980272D01*
X38491260Y2519727D01*
X38491260Y2519728D01*
X38648740Y2519728D01*
X38648740Y1980273D01*
X38717858Y1632794D01*
X38981150Y1238750D01*
X39375193Y975458D01*
X39840000Y883002D01*
X40304806Y975458D01*
X40698850Y1238750D01*
X40962142Y1632793D01*
X41031260Y1980272D01*
X41031260Y2519727D01*
X41031260Y2519728D01*
X41188740Y2519728D01*
X41188740Y1980273D01*
X41257858Y1632794D01*
X41521150Y1238750D01*
X41915193Y975458D01*
X42380000Y883002D01*
X42844806Y975458D01*
X43238850Y1238750D01*
X43502142Y1632793D01*
X43571260Y1980272D01*
X43571260Y2519727D01*
X43571260Y2519728D01*
X43728740Y2519728D01*
X43728740Y1980273D01*
X43797858Y1632794D01*
X44061150Y1238750D01*
X44455193Y975458D01*
X44920000Y883002D01*
X45384806Y975458D01*
X45778850Y1238750D01*
X46042142Y1632793D01*
X46111260Y1980272D01*
X46111260Y2519727D01*
X46111260Y2519728D01*
X46268740Y2519728D01*
X46268740Y1980273D01*
X46337858Y1632794D01*
X46601150Y1238750D01*
X46995193Y975458D01*
X47460000Y883002D01*
X47924806Y975458D01*
X48318850Y1238750D01*
X48501400Y1511954D01*
X48501400Y1107691D01*
X48598073Y874302D01*
X48776701Y695673D01*
X49010090Y599000D01*
X49714250Y599000D01*
X49873000Y757750D01*
X49873000Y2123000D01*
X50127000Y2123000D01*
X50127000Y757750D01*
X50285750Y599000D01*
X50989910Y599000D01*
X51223299Y695673D01*
X51401927Y874302D01*
X51498600Y1107691D01*
X51498600Y1964250D01*
X51339850Y2123000D01*
X50127000Y2123000D01*
X49873000Y2123000D01*
X49853000Y2123000D01*
X49853000Y2377000D01*
X49873000Y2377000D01*
X49873000Y3742250D01*
X50127000Y3742250D01*
X50127000Y2377000D01*
X51339850Y2377000D01*
X51498600Y2535750D01*
X51498600Y2648540D01*
X53753240Y2648540D01*
X53753240Y2351460D01*
X53866927Y2076994D01*
X54076994Y1866927D01*
X54351460Y1753240D01*
X54648540Y1753240D01*
X54923006Y1866927D01*
X55133073Y2076994D01*
X55246760Y2351460D01*
X55246760Y2648540D01*
X55133073Y2923006D01*
X54923006Y3133073D01*
X54648540Y3246760D01*
X54351460Y3246760D01*
X54076994Y3133073D01*
X53866927Y2923006D01*
X53753240Y2648540D01*
X51498600Y2648540D01*
X51498600Y3392309D01*
X51401927Y3625698D01*
X51223299Y3804327D01*
X50989910Y3901000D01*
X50285750Y3901000D01*
X50127000Y3742250D01*
X49873000Y3742250D01*
X49714250Y3901000D01*
X49010090Y3901000D01*
X48776701Y3804327D01*
X48598073Y3625698D01*
X48501400Y3392309D01*
X48501400Y2988045D01*
X48318850Y3261250D01*
X47924807Y3524542D01*
X47460000Y3616998D01*
X46995194Y3524542D01*
X46601151Y3261250D01*
X46337858Y2867207D01*
X46268740Y2519728D01*
X46111260Y2519728D01*
X46042142Y2867206D01*
X45778850Y3261250D01*
X45384807Y3524542D01*
X44920000Y3616998D01*
X44455194Y3524542D01*
X44061151Y3261250D01*
X43797858Y2867207D01*
X43728740Y2519728D01*
X43571260Y2519728D01*
X43502142Y2867206D01*
X43238850Y3261250D01*
X42844807Y3524542D01*
X42380000Y3616998D01*
X41915194Y3524542D01*
X41521151Y3261250D01*
X41257858Y2867207D01*
X41188740Y2519728D01*
X41031260Y2519728D01*
X40962142Y2867206D01*
X40698850Y3261250D01*
X40304807Y3524542D01*
X39840000Y3616998D01*
X39375194Y3524542D01*
X38981151Y3261250D01*
X38717858Y2867207D01*
X38648740Y2519728D01*
X38491260Y2519728D01*
X38422142Y2867206D01*
X38158850Y3261250D01*
X37764807Y3524542D01*
X37300000Y3616998D01*
X36835194Y3524542D01*
X36441151Y3261250D01*
X36177858Y2867207D01*
X36108740Y2519728D01*
X35951260Y2519728D01*
X35882142Y2867206D01*
X35618850Y3261250D01*
X35224807Y3524542D01*
X34760000Y3616998D01*
X34295194Y3524542D01*
X33901151Y3261250D01*
X33637858Y2867207D01*
X33568740Y2519728D01*
X33411260Y2519728D01*
X33342142Y2867206D01*
X33078850Y3261250D01*
X32684807Y3524542D01*
X32220000Y3616998D01*
X31755194Y3524542D01*
X31361151Y3261250D01*
X31097858Y2867207D01*
X31028740Y2519728D01*
X30871260Y2519728D01*
X30802142Y2867206D01*
X30538850Y3261250D01*
X30144807Y3524542D01*
X29680000Y3616998D01*
X29215194Y3524542D01*
X28821151Y3261250D01*
X28557858Y2867207D01*
X28488740Y2519728D01*
X28331260Y2519728D01*
X28262142Y2867206D01*
X27998850Y3261250D01*
X27604807Y3524542D01*
X27140000Y3616998D01*
X26675194Y3524542D01*
X26281151Y3261250D01*
X26017858Y2867207D01*
X25948740Y2519728D01*
X19033616Y2519728D01*
X19046760Y2551460D01*
X19046760Y2848540D01*
X18933073Y3123006D01*
X18723006Y3333073D01*
X18448540Y3446760D01*
X18155273Y3446760D01*
X18264641Y3556128D01*
X18357060Y3779248D01*
X18357060Y4020752D01*
X18264641Y4243872D01*
X18093872Y4414641D01*
X17870752Y4507060D01*
X17629248Y4507060D01*
X17406128Y4414641D01*
X17235359Y4243872D01*
X17142940Y4020752D01*
X10120698Y4020752D01*
X10207060Y4229248D01*
X10207060Y4470752D01*
X10114641Y4693872D01*
X10083513Y4725000D01*
X10214641Y4856128D01*
X10307060Y5079248D01*
X10307060Y5220752D01*
X18017940Y5220752D01*
X18017940Y4979248D01*
X18110359Y4756128D01*
X18281128Y4585359D01*
X18504248Y4492940D01*
X18745752Y4492940D01*
X18968872Y4585359D01*
X19139641Y4756128D01*
X19232060Y4979248D01*
X19232060Y5220752D01*
X19139641Y5443872D01*
X18968872Y5614641D01*
X18745752Y5707060D01*
X18504248Y5707060D01*
X18281128Y5614641D01*
X18110359Y5443872D01*
X18017940Y5220752D01*
X10307060Y5220752D01*
X10307060Y5320752D01*
X10214641Y5543872D01*
X10043872Y5714641D01*
X9820752Y5807060D01*
X9579248Y5807060D01*
X9356128Y5714641D01*
X9185359Y5543872D01*
X9092940Y5320752D01*
X9092940Y5079248D01*
X9185359Y4856128D01*
X9216487Y4825000D01*
X9085359Y4693872D01*
X8992940Y4470752D01*
X5891493Y4470752D01*
X5634191Y5091932D01*
X5091932Y5634191D01*
X4383435Y5927660D01*
X3616565Y5927660D01*
X2908068Y5634191D01*
X2365809Y5091932D01*
X2072340Y4383435D01*
X517500Y4383435D01*
X517500Y6420752D01*
X11092940Y6420752D01*
X11092940Y6179248D01*
X11185359Y5956128D01*
X11356128Y5785359D01*
X11579248Y5692940D01*
X11820752Y5692940D01*
X12043872Y5785359D01*
X12214641Y5956128D01*
X12307060Y6179248D01*
X12307060Y6420752D01*
X12214641Y6643872D01*
X12043872Y6814641D01*
X11820752Y6907060D01*
X11579248Y6907060D01*
X11356128Y6814641D01*
X11185359Y6643872D01*
X11092940Y6420752D01*
X517500Y6420752D01*
X517500Y7648540D01*
X1253240Y7648540D01*
X1253240Y7351460D01*
X1366927Y7076994D01*
X1576994Y6866927D01*
X1851460Y6753240D01*
X2148540Y6753240D01*
X2423006Y6866927D01*
X2633073Y7076994D01*
X2746760Y7351460D01*
X2746760Y7648540D01*
X6253240Y7648540D01*
X6253240Y7351460D01*
X6366927Y7076994D01*
X6576994Y6866927D01*
X6851460Y6753240D01*
X7148540Y6753240D01*
X7423006Y6866927D01*
X7633073Y7076994D01*
X7692619Y7220752D01*
X12392940Y7220752D01*
X12392940Y6979248D01*
X12485359Y6756128D01*
X12656128Y6585359D01*
X12879248Y6492940D01*
X13120752Y6492940D01*
X13343872Y6585359D01*
X13514641Y6756128D01*
X13607060Y6979248D01*
X13607060Y7148540D01*
X16003240Y7148540D01*
X16003240Y6851460D01*
X16116927Y6576994D01*
X16326994Y6366927D01*
X16601460Y6253240D01*
X16898540Y6253240D01*
X17173006Y6366927D01*
X17326831Y6520752D01*
X19092940Y6520752D01*
X19092940Y6279248D01*
X19185359Y6056128D01*
X19356128Y5885359D01*
X19579248Y5792940D01*
X19820752Y5792940D01*
X20043872Y5885359D01*
X20214641Y6056128D01*
X20303540Y6270752D01*
X20992940Y6270752D01*
X20992940Y6029248D01*
X21085359Y5806128D01*
X21256128Y5635359D01*
X21479248Y5542940D01*
X21720752Y5542940D01*
X21943872Y5635359D01*
X22114641Y5806128D01*
X22207060Y6029248D01*
X22207060Y6270752D01*
X22174840Y6348540D01*
X22753240Y6348540D01*
X22753240Y6051460D01*
X22866927Y5776994D01*
X23076994Y5566927D01*
X23351460Y5453240D01*
X23648540Y5453240D01*
X23923006Y5566927D01*
X24133073Y5776994D01*
X24246760Y6051460D01*
X24246760Y6348540D01*
X24133073Y6623006D01*
X23923006Y6833073D01*
X23648540Y6946760D01*
X23351460Y6946760D01*
X23076994Y6833073D01*
X22866927Y6623006D01*
X22753240Y6348540D01*
X22174840Y6348540D01*
X22114641Y6493872D01*
X21943872Y6664641D01*
X21720752Y6757060D01*
X21479248Y6757060D01*
X21256128Y6664641D01*
X21085359Y6493872D01*
X20992940Y6270752D01*
X20303540Y6270752D01*
X20307060Y6279248D01*
X20307060Y6520752D01*
X20214641Y6743872D01*
X20043872Y6914641D01*
X19820752Y7007060D01*
X19579248Y7007060D01*
X19356128Y6914641D01*
X19185359Y6743872D01*
X19092940Y6520752D01*
X17326831Y6520752D01*
X17383073Y6576994D01*
X17496760Y6851460D01*
X17496760Y7148540D01*
X17383073Y7423006D01*
X17173006Y7633073D01*
X16898540Y7746760D01*
X16601460Y7746760D01*
X16326994Y7633073D01*
X16116927Y7423006D01*
X16003240Y7148540D01*
X13607060Y7148540D01*
X13607060Y7220752D01*
X13514641Y7443872D01*
X13343872Y7614641D01*
X13120752Y7707060D01*
X12879248Y7707060D01*
X12656128Y7614641D01*
X12485359Y7443872D01*
X12392940Y7220752D01*
X7692619Y7220752D01*
X7746760Y7351460D01*
X7746760Y7648540D01*
X7633073Y7923006D01*
X7423006Y8133073D01*
X7148540Y8246760D01*
X6851460Y8246760D01*
X6576994Y8133073D01*
X6366927Y7923006D01*
X6253240Y7648540D01*
X2746760Y7648540D01*
X2633073Y7923006D01*
X2423006Y8133073D01*
X2148540Y8246760D01*
X1851460Y8246760D01*
X1576994Y8133073D01*
X1366927Y7923006D01*
X1253240Y7648540D01*
X517500Y7648540D01*
X517500Y10148540D01*
X3753240Y10148540D01*
X3753240Y9851460D01*
X3866927Y9576994D01*
X4076994Y9366927D01*
X4351460Y9253240D01*
X4648540Y9253240D01*
X4923006Y9366927D01*
X5133073Y9576994D01*
X5162708Y9648540D01*
X6753240Y9648540D01*
X6753240Y9351460D01*
X6866927Y9076994D01*
X7076994Y8866927D01*
X7351460Y8753240D01*
X7648540Y8753240D01*
X7923006Y8866927D01*
X7954619Y8898540D01*
X9253240Y8898540D01*
X9253240Y8601460D01*
X9366927Y8326994D01*
X9576994Y8116927D01*
X9851460Y8003240D01*
X10148540Y8003240D01*
X10423006Y8116927D01*
X10633073Y8326994D01*
X10746760Y8601460D01*
X10746760Y8848540D01*
X12253240Y8848540D01*
X12253240Y8551460D01*
X12366927Y8276994D01*
X12576994Y8066927D01*
X12851460Y7953240D01*
X13148540Y7953240D01*
X13423006Y8066927D01*
X13598433Y8242354D01*
X13666927Y8076994D01*
X13876994Y7866927D01*
X14151460Y7753240D01*
X14448540Y7753240D01*
X14723006Y7866927D01*
X14933073Y8076994D01*
X14962708Y8148540D01*
X17753240Y8148540D01*
X17753240Y7851460D01*
X17866927Y7576994D01*
X18076994Y7366927D01*
X18351460Y7253240D01*
X18648540Y7253240D01*
X18923006Y7366927D01*
X19133073Y7576994D01*
X19246760Y7851460D01*
X19246760Y8148540D01*
X20503240Y8148540D01*
X20503240Y7851460D01*
X20616927Y7576994D01*
X20826994Y7366927D01*
X21101460Y7253240D01*
X21398540Y7253240D01*
X21673006Y7366927D01*
X21826831Y7520752D01*
X26492940Y7520752D01*
X26492940Y7279248D01*
X26585359Y7056128D01*
X26756128Y6885359D01*
X26979248Y6792940D01*
X27220752Y6792940D01*
X27443872Y6885359D01*
X27614641Y7056128D01*
X27652919Y7148540D01*
X33253240Y7148540D01*
X33253240Y6851460D01*
X33366927Y6576994D01*
X33576994Y6366927D01*
X33851460Y6253240D01*
X34148540Y6253240D01*
X34423006Y6366927D01*
X34633073Y6576994D01*
X34662708Y6648540D01*
X35753240Y6648540D01*
X35753240Y6351460D01*
X35866927Y6076994D01*
X36076994Y5866927D01*
X36351460Y5753240D01*
X36648540Y5753240D01*
X36923006Y5866927D01*
X37133073Y6076994D01*
X37162708Y6148540D01*
X43753240Y6148540D01*
X43753240Y5851460D01*
X43866927Y5576994D01*
X44076994Y5366927D01*
X44351460Y5253240D01*
X44648540Y5253240D01*
X44923006Y5366927D01*
X45133073Y5576994D01*
X45246760Y5851460D01*
X45246760Y6148540D01*
X45133073Y6423006D01*
X44923006Y6633073D01*
X44885666Y6648540D01*
X46753240Y6648540D01*
X46753240Y6351460D01*
X46866927Y6076994D01*
X47076994Y5866927D01*
X47351460Y5753240D01*
X47648540Y5753240D01*
X47923006Y5866927D01*
X48133073Y6076994D01*
X48162708Y6148540D01*
X53953240Y6148540D01*
X53953240Y5851460D01*
X54066927Y5576994D01*
X54276994Y5366927D01*
X54551460Y5253240D01*
X54848540Y5253240D01*
X55123006Y5366927D01*
X55333073Y5576994D01*
X55446760Y5851460D01*
X55446760Y6148540D01*
X55333073Y6423006D01*
X55123006Y6633073D01*
X54848540Y6746760D01*
X54551460Y6746760D01*
X54276994Y6633073D01*
X54066927Y6423006D01*
X53953240Y6148540D01*
X48162708Y6148540D01*
X48246760Y6351460D01*
X48246760Y6648540D01*
X48133073Y6923006D01*
X47923006Y7133073D01*
X47648540Y7246760D01*
X47351460Y7246760D01*
X47076994Y7133073D01*
X46866927Y6923006D01*
X46753240Y6648540D01*
X44885666Y6648540D01*
X44648540Y6746760D01*
X44351460Y6746760D01*
X44076994Y6633073D01*
X43866927Y6423006D01*
X43753240Y6148540D01*
X37162708Y6148540D01*
X37246760Y6351460D01*
X37246760Y6648540D01*
X37133073Y6923006D01*
X36923006Y7133073D01*
X36648540Y7246760D01*
X36351460Y7246760D01*
X36076994Y7133073D01*
X35866927Y6923006D01*
X35753240Y6648540D01*
X34662708Y6648540D01*
X34746760Y6851460D01*
X34746760Y7148540D01*
X34633073Y7423006D01*
X34423006Y7633073D01*
X34148540Y7746760D01*
X33851460Y7746760D01*
X33576994Y7633073D01*
X33366927Y7423006D01*
X33253240Y7148540D01*
X27652919Y7148540D01*
X27707060Y7279248D01*
X27707060Y7520752D01*
X27614641Y7743872D01*
X27459973Y7898540D01*
X48503240Y7898540D01*
X48503240Y7601460D01*
X48616927Y7326994D01*
X48826994Y7116927D01*
X49101460Y7003240D01*
X49398540Y7003240D01*
X49673006Y7116927D01*
X49883073Y7326994D01*
X49996760Y7601460D01*
X49996760Y7898540D01*
X49883073Y8173006D01*
X49673006Y8383073D01*
X49398540Y8496760D01*
X49101460Y8496760D01*
X48826994Y8383073D01*
X48616927Y8173006D01*
X48503240Y7898540D01*
X27459973Y7898540D01*
X27443872Y7914641D01*
X27220752Y8007060D01*
X26979248Y8007060D01*
X26756128Y7914641D01*
X26585359Y7743872D01*
X26492940Y7520752D01*
X21826831Y7520752D01*
X21883073Y7576994D01*
X21996760Y7851460D01*
X21996760Y8148540D01*
X21883073Y8423006D01*
X21866311Y8439768D01*
X23697340Y8439768D01*
X23697340Y8160232D01*
X23804314Y7901975D01*
X24001975Y7704314D01*
X24260232Y7597340D01*
X24539768Y7597340D01*
X24720833Y7672340D01*
X26038188Y7672340D01*
X26100000Y7660045D01*
X26161812Y7672340D01*
X26161816Y7672340D01*
X26344901Y7708758D01*
X26552517Y7847483D01*
X26587533Y7899888D01*
X27502413Y8814768D01*
X31147340Y8814768D01*
X31147340Y8535232D01*
X31254314Y8276975D01*
X31451975Y8079314D01*
X31710232Y7972340D01*
X31989768Y7972340D01*
X32248025Y8079314D01*
X32445686Y8276975D01*
X32552660Y8535232D01*
X32552660Y8798540D01*
X54303240Y8798540D01*
X54303240Y8501460D01*
X54416927Y8226994D01*
X54626994Y8016927D01*
X54901460Y7903240D01*
X55198540Y7903240D01*
X55473006Y8016927D01*
X55683073Y8226994D01*
X55732927Y8347354D01*
X55760359Y8281128D01*
X55931128Y8110359D01*
X56154248Y8017940D01*
X56395752Y8017940D01*
X56618872Y8110359D01*
X56789641Y8281128D01*
X56882060Y8504248D01*
X56882060Y8745752D01*
X56789641Y8968872D01*
X56618872Y9139641D01*
X56395752Y9232060D01*
X56154248Y9232060D01*
X55931128Y9139641D01*
X55760359Y8968872D01*
X55743283Y8927646D01*
X55683073Y9073006D01*
X55473006Y9283073D01*
X55198540Y9396760D01*
X54901460Y9396760D01*
X54626994Y9283073D01*
X54416927Y9073006D01*
X54303240Y8798540D01*
X32552660Y8798540D01*
X32552660Y8814768D01*
X32445686Y9073025D01*
X32248025Y9270686D01*
X31989768Y9377660D01*
X31710232Y9377660D01*
X31451975Y9270686D01*
X31254314Y9073025D01*
X31147340Y8814768D01*
X27502413Y8814768D01*
X29836185Y11148540D01*
X32253240Y11148540D01*
X32253240Y10851460D01*
X32366927Y10576994D01*
X32576994Y10366927D01*
X32851460Y10253240D01*
X33148540Y10253240D01*
X33423006Y10366927D01*
X33633073Y10576994D01*
X33746760Y10851460D01*
X33746760Y11110752D01*
X38312940Y11110752D01*
X38312940Y10869248D01*
X38405359Y10646128D01*
X38576128Y10475359D01*
X38799248Y10382940D01*
X39040752Y10382940D01*
X39263872Y10475359D01*
X39434641Y10646128D01*
X39527060Y10869248D01*
X39527060Y11110752D01*
X39502208Y11170752D01*
X39832940Y11170752D01*
X39832940Y10929248D01*
X39925359Y10706128D01*
X40096128Y10535359D01*
X40319248Y10442940D01*
X40560752Y10442940D01*
X40783872Y10535359D01*
X40954641Y10706128D01*
X40971053Y10745752D01*
X42942940Y10745752D01*
X42942940Y10504248D01*
X43035359Y10281128D01*
X43206128Y10110359D01*
X43429248Y10017940D01*
X43445159Y10017940D01*
X43256128Y9939641D01*
X43085359Y9768872D01*
X42992940Y9545752D01*
X42992940Y9304248D01*
X43085359Y9081128D01*
X43256128Y8910359D01*
X43479248Y8817940D01*
X43720752Y8817940D01*
X43943872Y8910359D01*
X44114641Y9081128D01*
X44207060Y9304248D01*
X44207060Y9545752D01*
X44114641Y9768872D01*
X43943872Y9939641D01*
X43720752Y10032060D01*
X43704841Y10032060D01*
X43893872Y10110359D01*
X44064641Y10281128D01*
X44157060Y10504248D01*
X44157060Y10648540D01*
X48753240Y10648540D01*
X48753240Y10351460D01*
X48866927Y10076994D01*
X49076994Y9866927D01*
X49351460Y9753240D01*
X49648540Y9753240D01*
X49923006Y9866927D01*
X50133073Y10076994D01*
X50246760Y10351460D01*
X50246760Y10648540D01*
X50133073Y10923006D01*
X49923006Y11133073D01*
X49648540Y11246760D01*
X49351460Y11246760D01*
X49076994Y11133073D01*
X48866927Y10923006D01*
X48753240Y10648540D01*
X44157060Y10648540D01*
X44157060Y10745752D01*
X44064641Y10968872D01*
X43893872Y11139641D01*
X43670752Y11232060D01*
X43429248Y11232060D01*
X43206128Y11139641D01*
X43035359Y10968872D01*
X42942940Y10745752D01*
X40971053Y10745752D01*
X41047060Y10929248D01*
X41047060Y11170752D01*
X40954641Y11393872D01*
X40783872Y11564641D01*
X40560752Y11657060D01*
X40319248Y11657060D01*
X40096128Y11564641D01*
X39925359Y11393872D01*
X39832940Y11170752D01*
X39502208Y11170752D01*
X39434641Y11333872D01*
X39263872Y11504641D01*
X39040752Y11597060D01*
X38799248Y11597060D01*
X38576128Y11504641D01*
X38405359Y11333872D01*
X38312940Y11110752D01*
X33746760Y11110752D01*
X33746760Y11148540D01*
X33633073Y11423006D01*
X33423006Y11633073D01*
X33148540Y11746760D01*
X32851460Y11746760D01*
X32576994Y11633073D01*
X32366927Y11423006D01*
X32253240Y11148540D01*
X29836185Y11148540D01*
X31248397Y12560752D01*
X38312940Y12560752D01*
X38312940Y12319248D01*
X38405359Y12096128D01*
X38576128Y11925359D01*
X38799248Y11832940D01*
X39040752Y11832940D01*
X39263872Y11925359D01*
X39434641Y12096128D01*
X39527060Y12319248D01*
X39527060Y12560752D01*
X39485639Y12660752D01*
X39822940Y12660752D01*
X39822940Y12419248D01*
X39915359Y12196128D01*
X40086128Y12025359D01*
X40309248Y11932940D01*
X40550752Y11932940D01*
X40773872Y12025359D01*
X40944641Y12196128D01*
X41037060Y12419248D01*
X41037060Y12660752D01*
X40944641Y12883872D01*
X40773872Y13054641D01*
X40550752Y13147060D01*
X40309248Y13147060D01*
X40086128Y13054641D01*
X39915359Y12883872D01*
X39822940Y12660752D01*
X39485639Y12660752D01*
X39434641Y12783872D01*
X39263872Y12954641D01*
X39040752Y13047060D01*
X38799248Y13047060D01*
X38576128Y12954641D01*
X38405359Y12783872D01*
X38312940Y12560752D01*
X31248397Y12560752D01*
X33900112Y15212467D01*
X33952517Y15247483D01*
X34091242Y15455099D01*
X34127660Y15638184D01*
X34127660Y15638187D01*
X34129719Y15648540D01*
X36753240Y15648540D01*
X36753240Y15351460D01*
X36866927Y15076994D01*
X37076994Y14866927D01*
X37351460Y14753240D01*
X37648540Y14753240D01*
X37690817Y14770752D01*
X41742940Y14770752D01*
X41742940Y14529248D01*
X41835359Y14306128D01*
X42006128Y14135359D01*
X42229248Y14042940D01*
X42470752Y14042940D01*
X42693872Y14135359D01*
X42864641Y14306128D01*
X42957060Y14529248D01*
X42957060Y14648540D01*
X46753240Y14648540D01*
X46753240Y14351460D01*
X46866927Y14076994D01*
X47076994Y13866927D01*
X47351460Y13753240D01*
X47648540Y13753240D01*
X47923006Y13866927D01*
X48133073Y14076994D01*
X48162708Y14148540D01*
X58753240Y14148540D01*
X58753240Y13851460D01*
X58866927Y13576994D01*
X59076994Y13366927D01*
X59351460Y13253240D01*
X59648540Y13253240D01*
X59923006Y13366927D01*
X60133073Y13576994D01*
X60246760Y13851460D01*
X60246760Y14148540D01*
X60133073Y14423006D01*
X59923006Y14633073D01*
X59648540Y14746760D01*
X59351460Y14746760D01*
X59076994Y14633073D01*
X58866927Y14423006D01*
X58753240Y14148540D01*
X48162708Y14148540D01*
X48246760Y14351460D01*
X48246760Y14648540D01*
X48133073Y14923006D01*
X47923006Y15133073D01*
X47648540Y15246760D01*
X47351460Y15246760D01*
X47076994Y15133073D01*
X46866927Y14923006D01*
X46753240Y14648540D01*
X42957060Y14648540D01*
X42957060Y14770752D01*
X42864641Y14993872D01*
X42693872Y15164641D01*
X42470752Y15257060D01*
X42229248Y15257060D01*
X42006128Y15164641D01*
X41835359Y14993872D01*
X41742940Y14770752D01*
X37690817Y14770752D01*
X37923006Y14866927D01*
X38133073Y15076994D01*
X38246760Y15351460D01*
X38246760Y15648540D01*
X38143208Y15898540D01*
X42503240Y15898540D01*
X42503240Y15601460D01*
X42616927Y15326994D01*
X42826994Y15116927D01*
X43101460Y15003240D01*
X43398540Y15003240D01*
X43673006Y15116927D01*
X43883073Y15326994D01*
X43996760Y15601460D01*
X43996760Y15898540D01*
X43883073Y16173006D01*
X43673006Y16383073D01*
X43398540Y16496760D01*
X43101460Y16496760D01*
X42826994Y16383073D01*
X42616927Y16173006D01*
X42503240Y15898540D01*
X38143208Y15898540D01*
X38133073Y15923006D01*
X37923006Y16133073D01*
X37648540Y16246760D01*
X37351460Y16246760D01*
X37076994Y16133073D01*
X36866927Y15923006D01*
X36753240Y15648540D01*
X34129719Y15648540D01*
X34139955Y15699999D01*
X34127660Y15761811D01*
X34127660Y17148540D01*
X34753240Y17148540D01*
X34753240Y16851460D01*
X34866927Y16576994D01*
X35076994Y16366927D01*
X35351460Y16253240D01*
X35648540Y16253240D01*
X35923006Y16366927D01*
X36090330Y16534251D01*
X58222340Y16534251D01*
X58222340Y16065749D01*
X58401628Y15632909D01*
X58732909Y15301628D01*
X59165749Y15122340D01*
X59634251Y15122340D01*
X60067091Y15301628D01*
X60398372Y15632909D01*
X60517600Y15920752D01*
X61942940Y15920752D01*
X61942940Y15679248D01*
X62035359Y15456128D01*
X62206128Y15285359D01*
X62429248Y15192940D01*
X62670752Y15192940D01*
X62893872Y15285359D01*
X63064641Y15456128D01*
X63157060Y15679248D01*
X63157060Y15920752D01*
X63064641Y16143872D01*
X62893872Y16314641D01*
X62670752Y16407060D01*
X62429248Y16407060D01*
X62206128Y16314641D01*
X62035359Y16143872D01*
X61942940Y15920752D01*
X60517600Y15920752D01*
X60577660Y16065749D01*
X60577660Y16534251D01*
X60398372Y16967091D01*
X60067091Y17298372D01*
X59634251Y17477660D01*
X59165749Y17477660D01*
X58732909Y17298372D01*
X58401628Y16967091D01*
X58222340Y16534251D01*
X36090330Y16534251D01*
X36133073Y16576994D01*
X36246760Y16851460D01*
X36246760Y17148540D01*
X36133073Y17423006D01*
X36007539Y17548540D01*
X51753240Y17548540D01*
X51753240Y17251460D01*
X51866927Y16976994D01*
X52076994Y16766927D01*
X52351460Y16653240D01*
X52648540Y16653240D01*
X52923006Y16766927D01*
X53133073Y16976994D01*
X53246760Y17251460D01*
X53246760Y17345752D01*
X56517940Y17345752D01*
X56517940Y17104248D01*
X56610359Y16881128D01*
X56781128Y16710359D01*
X57004248Y16617940D01*
X57245752Y16617940D01*
X57468872Y16710359D01*
X57639641Y16881128D01*
X57732060Y17104248D01*
X57732060Y17345752D01*
X57639641Y17568872D01*
X57468872Y17739641D01*
X57245752Y17832060D01*
X57004248Y17832060D01*
X56781128Y17739641D01*
X56610359Y17568872D01*
X56517940Y17345752D01*
X53246760Y17345752D01*
X53246760Y17548540D01*
X53133073Y17823006D01*
X52923006Y18033073D01*
X52648540Y18146760D01*
X52351460Y18146760D01*
X52076994Y18033073D01*
X51866927Y17823006D01*
X51753240Y17548540D01*
X36007539Y17548540D01*
X35923006Y17633073D01*
X35648540Y17746760D01*
X35351460Y17746760D01*
X35076994Y17633073D01*
X34866927Y17423006D01*
X34753240Y17148540D01*
X34127660Y17148540D01*
X34127660Y19148540D01*
X34253240Y19148540D01*
X34253240Y18851460D01*
X34366927Y18576994D01*
X34576994Y18366927D01*
X34851460Y18253240D01*
X35148540Y18253240D01*
X35423006Y18366927D01*
X35633073Y18576994D01*
X35662708Y18648540D01*
X36753240Y18648540D01*
X36753240Y18351460D01*
X36866927Y18076994D01*
X37076994Y17866927D01*
X37351460Y17753240D01*
X37648540Y17753240D01*
X37923006Y17866927D01*
X38133073Y18076994D01*
X38246760Y18351460D01*
X38246760Y18648540D01*
X38133073Y18923006D01*
X37923006Y19133073D01*
X37648540Y19246760D01*
X37351460Y19246760D01*
X37076994Y19133073D01*
X36866927Y18923006D01*
X36753240Y18648540D01*
X35662708Y18648540D01*
X35746760Y18851460D01*
X35746760Y19148540D01*
X35633073Y19423006D01*
X35423006Y19633073D01*
X35148540Y19746760D01*
X34851460Y19746760D01*
X34576994Y19633073D01*
X34366927Y19423006D01*
X34253240Y19148540D01*
X34127660Y19148540D01*
X34127660Y20148540D01*
X38753240Y20148540D01*
X38753240Y19851460D01*
X38866927Y19576994D01*
X39076994Y19366927D01*
X39351460Y19253240D01*
X39648540Y19253240D01*
X39923006Y19366927D01*
X40133073Y19576994D01*
X40162708Y19648540D01*
X47253240Y19648540D01*
X47253240Y19351460D01*
X47366927Y19076994D01*
X47576994Y18866927D01*
X47851460Y18753240D01*
X48148540Y18753240D01*
X48423006Y18866927D01*
X48520847Y18964768D01*
X50772340Y18964768D01*
X50772340Y18685232D01*
X50879314Y18426975D01*
X51076975Y18229314D01*
X51335232Y18122340D01*
X51614768Y18122340D01*
X51873025Y18229314D01*
X52070686Y18426975D01*
X52177660Y18685232D01*
X52177660Y18964768D01*
X52070686Y19223025D01*
X51873025Y19420686D01*
X51614768Y19527660D01*
X51335232Y19527660D01*
X51076975Y19420686D01*
X50879314Y19223025D01*
X50772340Y18964768D01*
X48520847Y18964768D01*
X48633073Y19076994D01*
X48746760Y19351460D01*
X48746760Y19648540D01*
X48737560Y19670752D01*
X52842940Y19670752D01*
X52842940Y19429248D01*
X52935359Y19206128D01*
X53106128Y19035359D01*
X53329248Y18942940D01*
X53570752Y18942940D01*
X53793872Y19035359D01*
X53964641Y19206128D01*
X54057060Y19429248D01*
X54057060Y19670752D01*
X53964641Y19893872D01*
X53793872Y20064641D01*
X53570752Y20157060D01*
X53329248Y20157060D01*
X53106128Y20064641D01*
X52935359Y19893872D01*
X52842940Y19670752D01*
X48737560Y19670752D01*
X48633073Y19923006D01*
X48423006Y20133073D01*
X48148540Y20246760D01*
X47851460Y20246760D01*
X47576994Y20133073D01*
X47366927Y19923006D01*
X47253240Y19648540D01*
X40162708Y19648540D01*
X40246760Y19851460D01*
X40246760Y20148540D01*
X40133073Y20423006D01*
X39923006Y20633073D01*
X39648540Y20746760D01*
X39351460Y20746760D01*
X39076994Y20633073D01*
X38866927Y20423006D01*
X38753240Y20148540D01*
X34127660Y20148540D01*
X34127660Y20740015D01*
X35133397Y21745752D01*
X37342940Y21745752D01*
X37342940Y21504248D01*
X37435359Y21281128D01*
X37606128Y21110359D01*
X37829248Y21017940D01*
X38070752Y21017940D01*
X38293872Y21110359D01*
X38464641Y21281128D01*
X38557060Y21504248D01*
X38557060Y21745752D01*
X38464641Y21968872D01*
X38293872Y22139641D01*
X38070752Y22232060D01*
X37829248Y22232060D01*
X37606128Y22139641D01*
X37435359Y21968872D01*
X37342940Y21745752D01*
X35133397Y21745752D01*
X35160115Y21772469D01*
X35212517Y21807483D01*
X35247531Y21859885D01*
X35247533Y21859887D01*
X35351242Y22015099D01*
X35363554Y22076994D01*
X35387660Y22198184D01*
X35387660Y22198187D01*
X35399955Y22259999D01*
X35387660Y22321811D01*
X35387660Y22648540D01*
X38753240Y22648540D01*
X38753240Y22351460D01*
X38866927Y22076994D01*
X39076994Y21866927D01*
X39351460Y21753240D01*
X39648540Y21753240D01*
X39923006Y21866927D01*
X40133073Y22076994D01*
X40246760Y22351460D01*
X40246760Y22648540D01*
X41253240Y22648540D01*
X41253240Y22351460D01*
X41366927Y22076994D01*
X41576994Y21866927D01*
X41851460Y21753240D01*
X42148540Y21753240D01*
X42311529Y21820752D01*
X49742940Y21820752D01*
X49742940Y21579248D01*
X49835359Y21356128D01*
X50006128Y21185359D01*
X50229248Y21092940D01*
X50470752Y21092940D01*
X50693872Y21185359D01*
X50864641Y21356128D01*
X50957060Y21579248D01*
X50957060Y21820752D01*
X50924840Y21898540D01*
X56253240Y21898540D01*
X56253240Y21601460D01*
X56366927Y21326994D01*
X56576994Y21116927D01*
X56851460Y21003240D01*
X57148540Y21003240D01*
X57423006Y21116927D01*
X57633073Y21326994D01*
X57746760Y21601460D01*
X57746760Y21898540D01*
X57633073Y22173006D01*
X57423006Y22383073D01*
X57148540Y22496760D01*
X56851460Y22496760D01*
X56576994Y22383073D01*
X56366927Y22173006D01*
X56253240Y21898540D01*
X50924840Y21898540D01*
X50864641Y22043872D01*
X50693872Y22214641D01*
X50470752Y22307060D01*
X50229248Y22307060D01*
X50006128Y22214641D01*
X49835359Y22043872D01*
X49742940Y21820752D01*
X42311529Y21820752D01*
X42423006Y21866927D01*
X42633073Y22076994D01*
X42746760Y22351460D01*
X42746760Y22648540D01*
X42633073Y22923006D01*
X42423006Y23133073D01*
X42148540Y23246760D01*
X41851460Y23246760D01*
X41576994Y23133073D01*
X41366927Y22923006D01*
X41253240Y22648540D01*
X40246760Y22648540D01*
X40133073Y22923006D01*
X39923006Y23133073D01*
X39648540Y23246760D01*
X39351460Y23246760D01*
X39076994Y23133073D01*
X38866927Y22923006D01*
X38753240Y22648540D01*
X35387660Y22648540D01*
X35387660Y23745752D01*
X36317940Y23745752D01*
X36317940Y23504248D01*
X36410359Y23281128D01*
X36581128Y23110359D01*
X36804248Y23017940D01*
X37045752Y23017940D01*
X37268872Y23110359D01*
X37439641Y23281128D01*
X37532060Y23504248D01*
X37532060Y23745752D01*
X37439641Y23968872D01*
X37268872Y24139641D01*
X37247388Y24148540D01*
X47753240Y24148540D01*
X47753240Y23851460D01*
X47866927Y23576994D01*
X48076994Y23366927D01*
X48351460Y23253240D01*
X48648540Y23253240D01*
X48923006Y23366927D01*
X49090330Y23534251D01*
X58222340Y23534251D01*
X58222340Y23065749D01*
X58401628Y22632909D01*
X58732909Y22301628D01*
X59165749Y22122340D01*
X59634251Y22122340D01*
X60067091Y22301628D01*
X60398372Y22632909D01*
X60577660Y23065749D01*
X60577660Y23534251D01*
X60398372Y23967091D01*
X60067091Y24298372D01*
X59634251Y24477660D01*
X59165749Y24477660D01*
X58732909Y24298372D01*
X58401628Y23967091D01*
X58222340Y23534251D01*
X49090330Y23534251D01*
X49133073Y23576994D01*
X49246760Y23851460D01*
X49246760Y24148540D01*
X49133073Y24423006D01*
X48923006Y24633073D01*
X48648540Y24746760D01*
X48351460Y24746760D01*
X48076994Y24633073D01*
X47866927Y24423006D01*
X47753240Y24148540D01*
X37247388Y24148540D01*
X37045752Y24232060D01*
X36804248Y24232060D01*
X36581128Y24139641D01*
X36410359Y23968872D01*
X36317940Y23745752D01*
X35387660Y23745752D01*
X35387660Y26653030D01*
X35609045Y26800955D01*
X35869331Y27190500D01*
X35960731Y27650000D01*
X36099269Y27650000D01*
X36190669Y27190500D01*
X36450955Y26800955D01*
X36840500Y26540669D01*
X37184014Y26472340D01*
X37415986Y26472340D01*
X37759500Y26540669D01*
X38149045Y26800955D01*
X38409331Y27190500D01*
X38500731Y27650000D01*
X38639269Y27650000D01*
X38730669Y27190500D01*
X38990955Y26800955D01*
X39380500Y26540669D01*
X39724014Y26472340D01*
X39955986Y26472340D01*
X40299500Y26540669D01*
X40689045Y26800955D01*
X40949331Y27190500D01*
X41040731Y27650000D01*
X41179269Y27650000D01*
X41270669Y27190500D01*
X41530955Y26800955D01*
X41920500Y26540669D01*
X42264014Y26472340D01*
X42495986Y26472340D01*
X42839500Y26540669D01*
X43229045Y26800955D01*
X43489331Y27190500D01*
X43580731Y27650000D01*
X43719269Y27650000D01*
X43810669Y27190500D01*
X44070955Y26800955D01*
X44460500Y26540669D01*
X44804014Y26472340D01*
X45035986Y26472340D01*
X45379500Y26540669D01*
X45769045Y26800955D01*
X46029331Y27190500D01*
X46120731Y27650000D01*
X46259269Y27650000D01*
X46350669Y27190500D01*
X46610955Y26800955D01*
X47000500Y26540669D01*
X47344014Y26472340D01*
X47575986Y26472340D01*
X47919500Y26540669D01*
X48309045Y26800955D01*
X48569331Y27190500D01*
X48660731Y27650000D01*
X48569331Y28109500D01*
X48309045Y28499045D01*
X48307616Y28500000D01*
X48815921Y28500000D01*
X48815921Y26800000D01*
X48841351Y26672154D01*
X48913770Y26563770D01*
X49022154Y26491351D01*
X49150000Y26465921D01*
X50850000Y26465921D01*
X50977846Y26491351D01*
X51086230Y26563770D01*
X51158649Y26672154D01*
X51184079Y26800000D01*
X51184079Y27320752D01*
X58667940Y27320752D01*
X58667940Y27079248D01*
X58760359Y26856128D01*
X58931128Y26685359D01*
X59154248Y26592940D01*
X59395752Y26592940D01*
X59618872Y26685359D01*
X59789641Y26856128D01*
X59882060Y27079248D01*
X59882060Y27320752D01*
X59789641Y27543872D01*
X59684973Y27648540D01*
X61253240Y27648540D01*
X61253240Y27351460D01*
X61366927Y27076994D01*
X61576994Y26866927D01*
X61851460Y26753240D01*
X62148540Y26753240D01*
X62423006Y26866927D01*
X62633073Y27076994D01*
X62746760Y27351460D01*
X62746760Y27648540D01*
X62633073Y27923006D01*
X62423006Y28133073D01*
X62148540Y28246760D01*
X61851460Y28246760D01*
X61576994Y28133073D01*
X61366927Y27923006D01*
X61253240Y27648540D01*
X59684973Y27648540D01*
X59618872Y27714641D01*
X59395752Y27807060D01*
X59154248Y27807060D01*
X58931128Y27714641D01*
X58760359Y27543872D01*
X58667940Y27320752D01*
X51184079Y27320752D01*
X51184079Y28448540D01*
X52353240Y28448540D01*
X52353240Y28151460D01*
X52466927Y27876994D01*
X52676994Y27666927D01*
X52951460Y27553240D01*
X53248540Y27553240D01*
X53523006Y27666927D01*
X53733073Y27876994D01*
X53846760Y28151460D01*
X53846760Y28448540D01*
X53733073Y28723006D01*
X53523006Y28933073D01*
X53248540Y29046760D01*
X52951460Y29046760D01*
X52676994Y28933073D01*
X52466927Y28723006D01*
X52353240Y28448540D01*
X51184079Y28448540D01*
X51184079Y28500000D01*
X51158649Y28627846D01*
X51086230Y28736230D01*
X50977846Y28808649D01*
X50850000Y28834079D01*
X49150000Y28834079D01*
X49022154Y28808649D01*
X48913770Y28736230D01*
X48841351Y28627846D01*
X48815921Y28500000D01*
X48307616Y28500000D01*
X47919500Y28759331D01*
X47575986Y28827660D01*
X47344014Y28827660D01*
X47000500Y28759331D01*
X46610955Y28499045D01*
X46350669Y28109500D01*
X46259269Y27650000D01*
X46120731Y27650000D01*
X46029331Y28109500D01*
X45769045Y28499045D01*
X45379500Y28759331D01*
X45035986Y28827660D01*
X44804014Y28827660D01*
X44460500Y28759331D01*
X44070955Y28499045D01*
X43810669Y28109500D01*
X43719269Y27650000D01*
X43580731Y27650000D01*
X43489331Y28109500D01*
X43229045Y28499045D01*
X42839500Y28759331D01*
X42495986Y28827660D01*
X42264014Y28827660D01*
X41920500Y28759331D01*
X41530955Y28499045D01*
X41270669Y28109500D01*
X41179269Y27650000D01*
X41040731Y27650000D01*
X40949331Y28109500D01*
X40689045Y28499045D01*
X40299500Y28759331D01*
X39955986Y28827660D01*
X39724014Y28827660D01*
X39380500Y28759331D01*
X38990955Y28499045D01*
X38730669Y28109500D01*
X38639269Y27650000D01*
X38500731Y27650000D01*
X38409331Y28109500D01*
X38149045Y28499045D01*
X37759500Y28759331D01*
X37415986Y28827660D01*
X37184014Y28827660D01*
X36840500Y28759331D01*
X36450955Y28499045D01*
X36190669Y28109500D01*
X36099269Y27650000D01*
X35960731Y27650000D01*
X35869331Y28109500D01*
X35609045Y28499045D01*
X35219500Y28759331D01*
X34875986Y28827660D01*
X34644014Y28827660D01*
X34300500Y28759331D01*
X33910955Y28499045D01*
X33650669Y28109500D01*
X33559269Y27650000D01*
X33650669Y27190500D01*
X33910955Y26800955D01*
X34132341Y26653030D01*
X34132340Y22519986D01*
X33099886Y21487531D01*
X33047484Y21452517D01*
X33012470Y21400115D01*
X33012467Y21400112D01*
X32908758Y21244900D01*
X32860045Y21000000D01*
X32872341Y20938183D01*
X32872340Y15959985D01*
X25840015Y8927660D01*
X24720833Y8927660D01*
X24539768Y9002660D01*
X24260232Y9002660D01*
X24001975Y8895686D01*
X23804314Y8698025D01*
X23697340Y8439768D01*
X21866311Y8439768D01*
X21673006Y8633073D01*
X21398540Y8746760D01*
X21101460Y8746760D01*
X20826994Y8633073D01*
X20616927Y8423006D01*
X20503240Y8148540D01*
X19246760Y8148540D01*
X19133073Y8423006D01*
X18923006Y8633073D01*
X18648540Y8746760D01*
X18351460Y8746760D01*
X18076994Y8633073D01*
X17866927Y8423006D01*
X17753240Y8148540D01*
X14962708Y8148540D01*
X15046760Y8351460D01*
X15046760Y8648540D01*
X14933073Y8923006D01*
X14723006Y9133073D01*
X14448540Y9246760D01*
X14151460Y9246760D01*
X13876994Y9133073D01*
X13701567Y8957646D01*
X13633073Y9123006D01*
X13423006Y9333073D01*
X13148540Y9446760D01*
X12851460Y9446760D01*
X12576994Y9333073D01*
X12366927Y9123006D01*
X12253240Y8848540D01*
X10746760Y8848540D01*
X10746760Y8898540D01*
X10633073Y9173006D01*
X10423006Y9383073D01*
X10148540Y9496760D01*
X9851460Y9496760D01*
X9576994Y9383073D01*
X9366927Y9173006D01*
X9253240Y8898540D01*
X7954619Y8898540D01*
X8133073Y9076994D01*
X8246760Y9351460D01*
X8246760Y9648540D01*
X8133073Y9923006D01*
X7923006Y10133073D01*
X7648540Y10246760D01*
X7351460Y10246760D01*
X7076994Y10133073D01*
X6866927Y9923006D01*
X6753240Y9648540D01*
X5162708Y9648540D01*
X5246760Y9851460D01*
X5246760Y10148540D01*
X5133073Y10423006D01*
X4923006Y10633073D01*
X4885666Y10648540D01*
X20253240Y10648540D01*
X20253240Y10351460D01*
X20366927Y10076994D01*
X20576994Y9866927D01*
X20851460Y9753240D01*
X21148540Y9753240D01*
X21423006Y9866927D01*
X21633073Y10076994D01*
X21662708Y10148540D01*
X23503240Y10148540D01*
X23503240Y9851460D01*
X23616927Y9576994D01*
X23826994Y9366927D01*
X24101460Y9253240D01*
X24398540Y9253240D01*
X24673006Y9366927D01*
X24883073Y9576994D01*
X24996760Y9851460D01*
X24996760Y10148540D01*
X24883073Y10423006D01*
X24673006Y10633073D01*
X24398540Y10746760D01*
X24101460Y10746760D01*
X23826994Y10633073D01*
X23616927Y10423006D01*
X23503240Y10148540D01*
X21662708Y10148540D01*
X21746760Y10351460D01*
X21746760Y10648540D01*
X21633073Y10923006D01*
X21423006Y11133073D01*
X21148540Y11246760D01*
X20851460Y11246760D01*
X20576994Y11133073D01*
X20366927Y10923006D01*
X20253240Y10648540D01*
X4885666Y10648540D01*
X4648540Y10746760D01*
X4351460Y10746760D01*
X4076994Y10633073D01*
X3866927Y10423006D01*
X3753240Y10148540D01*
X517500Y10148540D01*
X517500Y12898540D01*
X5753240Y12898540D01*
X5753240Y12601460D01*
X5866927Y12326994D01*
X6076994Y12116927D01*
X6351460Y12003240D01*
X6648540Y12003240D01*
X6923006Y12116927D01*
X6954619Y12148540D01*
X9003240Y12148540D01*
X9003240Y11851460D01*
X9116927Y11576994D01*
X9326994Y11366927D01*
X9601460Y11253240D01*
X9898540Y11253240D01*
X10173006Y11366927D01*
X10383073Y11576994D01*
X10496760Y11851460D01*
X10496760Y12148540D01*
X10383073Y12423006D01*
X10357539Y12448540D01*
X14253240Y12448540D01*
X14253240Y12151460D01*
X14366927Y11876994D01*
X14576994Y11666927D01*
X14851460Y11553240D01*
X15148540Y11553240D01*
X15423006Y11666927D01*
X15633073Y11876994D01*
X15745550Y12148540D01*
X16253240Y12148540D01*
X16253240Y11851460D01*
X16366927Y11576994D01*
X16576994Y11366927D01*
X16851460Y11253240D01*
X17148540Y11253240D01*
X17423006Y11366927D01*
X17633073Y11576994D01*
X17746760Y11851460D01*
X17746760Y11898540D01*
X25253240Y11898540D01*
X25253240Y11601460D01*
X25366927Y11326994D01*
X25576994Y11116927D01*
X25851460Y11003240D01*
X26148540Y11003240D01*
X26423006Y11116927D01*
X26633073Y11326994D01*
X26746760Y11601460D01*
X26746760Y11898540D01*
X26633073Y12173006D01*
X26423006Y12383073D01*
X26148540Y12496760D01*
X25851460Y12496760D01*
X25576994Y12383073D01*
X25366927Y12173006D01*
X25253240Y11898540D01*
X17746760Y11898540D01*
X17746760Y12148540D01*
X17633073Y12423006D01*
X17423006Y12633073D01*
X17148540Y12746760D01*
X16851460Y12746760D01*
X16576994Y12633073D01*
X16366927Y12423006D01*
X16253240Y12148540D01*
X15745550Y12148540D01*
X15746760Y12151460D01*
X15746760Y12448540D01*
X15633073Y12723006D01*
X15423006Y12933073D01*
X15148540Y13046760D01*
X14851460Y13046760D01*
X14576994Y12933073D01*
X14366927Y12723006D01*
X14253240Y12448540D01*
X10357539Y12448540D01*
X10173006Y12633073D01*
X9898540Y12746760D01*
X9601460Y12746760D01*
X9326994Y12633073D01*
X9116927Y12423006D01*
X9003240Y12148540D01*
X6954619Y12148540D01*
X7133073Y12326994D01*
X7246760Y12601460D01*
X7246760Y12898540D01*
X7133073Y13173006D01*
X6923006Y13383073D01*
X6648540Y13496760D01*
X6351460Y13496760D01*
X6076994Y13383073D01*
X5866927Y13173006D01*
X5753240Y12898540D01*
X517500Y12898540D01*
X517500Y13720752D01*
X20492940Y13720752D01*
X20492940Y13479248D01*
X20585359Y13256128D01*
X20756128Y13085359D01*
X20979248Y12992940D01*
X21220752Y12992940D01*
X21293985Y13023274D01*
X21292940Y13020752D01*
X21292940Y12779248D01*
X21385359Y12556128D01*
X21556128Y12385359D01*
X21779248Y12292940D01*
X22020752Y12292940D01*
X22243872Y12385359D01*
X22414641Y12556128D01*
X22507060Y12779248D01*
X22507060Y13020752D01*
X22414641Y13243872D01*
X22243872Y13414641D01*
X22020752Y13507060D01*
X21779248Y13507060D01*
X21706015Y13476726D01*
X21707060Y13479248D01*
X21707060Y13720752D01*
X21614641Y13943872D01*
X21443872Y14114641D01*
X21220752Y14207060D01*
X20979248Y14207060D01*
X20756128Y14114641D01*
X20585359Y13943872D01*
X20492940Y13720752D01*
X517500Y13720752D01*
X517500Y14648540D01*
X17753240Y14648540D01*
X17753240Y14351460D01*
X17866927Y14076994D01*
X18076994Y13866927D01*
X18351460Y13753240D01*
X18648540Y13753240D01*
X18923006Y13866927D01*
X19133073Y14076994D01*
X19246760Y14351460D01*
X19246760Y14370752D01*
X23892940Y14370752D01*
X23892940Y14129248D01*
X23985359Y13906128D01*
X24156128Y13735359D01*
X24379248Y13642940D01*
X24620752Y13642940D01*
X24843872Y13735359D01*
X25014641Y13906128D01*
X25107060Y14129248D01*
X25107060Y14370752D01*
X25014641Y14593872D01*
X24843872Y14764641D01*
X24620752Y14857060D01*
X24379248Y14857060D01*
X24156128Y14764641D01*
X23985359Y14593872D01*
X23892940Y14370752D01*
X19246760Y14370752D01*
X19246760Y14648540D01*
X19133073Y14923006D01*
X18923006Y15133073D01*
X18648540Y15246760D01*
X18351460Y15246760D01*
X18076994Y15133073D01*
X17866927Y14923006D01*
X17753240Y14648540D01*
X517500Y14648540D01*
X517500Y15598540D01*
X7453240Y15598540D01*
X7453240Y15301460D01*
X7566927Y15026994D01*
X7776994Y14816927D01*
X8051460Y14703240D01*
X8348540Y14703240D01*
X8623006Y14816927D01*
X8833073Y15026994D01*
X8946760Y15301460D01*
X8946760Y15598540D01*
X8884629Y15748540D01*
X14153240Y15748540D01*
X14153240Y15451460D01*
X14266927Y15176994D01*
X14476994Y14966927D01*
X14751460Y14853240D01*
X15048540Y14853240D01*
X15323006Y14966927D01*
X15533073Y15176994D01*
X15646760Y15451460D01*
X15646760Y15748540D01*
X15533073Y16023006D01*
X15323006Y16233073D01*
X15048540Y16346760D01*
X14751460Y16346760D01*
X14476994Y16233073D01*
X14266927Y16023006D01*
X14153240Y15748540D01*
X8884629Y15748540D01*
X8833073Y15873006D01*
X8623006Y16083073D01*
X8348540Y16196760D01*
X8051460Y16196760D01*
X7776994Y16083073D01*
X7566927Y15873006D01*
X7453240Y15598540D01*
X517500Y15598540D01*
X517500Y16548540D01*
X19453240Y16548540D01*
X19453240Y16251460D01*
X19566927Y15976994D01*
X19776994Y15766927D01*
X20051460Y15653240D01*
X20348540Y15653240D01*
X20623006Y15766927D01*
X20833073Y15976994D01*
X20946760Y16251460D01*
X20946760Y16548540D01*
X20905339Y16648540D01*
X21703240Y16648540D01*
X21703240Y16351460D01*
X21816927Y16076994D01*
X22026994Y15866927D01*
X22301460Y15753240D01*
X22598540Y15753240D01*
X22761529Y15820752D01*
X25992940Y15820752D01*
X25992940Y15579248D01*
X26085359Y15356128D01*
X26256128Y15185359D01*
X26479248Y15092940D01*
X26720752Y15092940D01*
X26943872Y15185359D01*
X27114641Y15356128D01*
X27132208Y15398540D01*
X27753240Y15398540D01*
X27753240Y15101460D01*
X27866927Y14826994D01*
X28076994Y14616927D01*
X28351460Y14503240D01*
X28648540Y14503240D01*
X28923006Y14616927D01*
X29133073Y14826994D01*
X29246760Y15101460D01*
X29246760Y15398540D01*
X29133073Y15673006D01*
X28923006Y15883073D01*
X28648540Y15996760D01*
X28351460Y15996760D01*
X28076994Y15883073D01*
X27866927Y15673006D01*
X27753240Y15398540D01*
X27132208Y15398540D01*
X27207060Y15579248D01*
X27207060Y15820752D01*
X27114641Y16043872D01*
X27009973Y16148540D01*
X29253240Y16148540D01*
X29253240Y15851460D01*
X29366927Y15576994D01*
X29576994Y15366927D01*
X29851460Y15253240D01*
X30148540Y15253240D01*
X30423006Y15366927D01*
X30633073Y15576994D01*
X30746760Y15851460D01*
X30746760Y16148540D01*
X30753240Y16148540D01*
X30753240Y15851460D01*
X30866927Y15576994D01*
X31076994Y15366927D01*
X31351460Y15253240D01*
X31648540Y15253240D01*
X31923006Y15366927D01*
X32133073Y15576994D01*
X32246760Y15851460D01*
X32246760Y16148540D01*
X32133073Y16423006D01*
X31923006Y16633073D01*
X31648540Y16746760D01*
X31351460Y16746760D01*
X31076994Y16633073D01*
X30866927Y16423006D01*
X30753240Y16148540D01*
X30746760Y16148540D01*
X30633073Y16423006D01*
X30423006Y16633073D01*
X30148540Y16746760D01*
X29851460Y16746760D01*
X29576994Y16633073D01*
X29366927Y16423006D01*
X29253240Y16148540D01*
X27009973Y16148540D01*
X26943872Y16214641D01*
X26720752Y16307060D01*
X26479248Y16307060D01*
X26256128Y16214641D01*
X26085359Y16043872D01*
X25992940Y15820752D01*
X22761529Y15820752D01*
X22873006Y15866927D01*
X23083073Y16076994D01*
X23196760Y16351460D01*
X23196760Y16648540D01*
X23083073Y16923006D01*
X22873006Y17133073D01*
X22598540Y17246760D01*
X22301460Y17246760D01*
X22026994Y17133073D01*
X21816927Y16923006D01*
X21703240Y16648540D01*
X20905339Y16648540D01*
X20833073Y16823006D01*
X20623006Y17033073D01*
X20348540Y17146760D01*
X20051460Y17146760D01*
X19776994Y17033073D01*
X19566927Y16823006D01*
X19453240Y16548540D01*
X517500Y16548540D01*
X517500Y17370752D01*
X9517940Y17370752D01*
X9517940Y17129248D01*
X9610359Y16906128D01*
X9781128Y16735359D01*
X10004248Y16642940D01*
X10245752Y16642940D01*
X10468872Y16735359D01*
X10639641Y16906128D01*
X10732060Y17129248D01*
X10732060Y17370752D01*
X10639641Y17593872D01*
X10468872Y17764641D01*
X10245752Y17857060D01*
X10004248Y17857060D01*
X9781128Y17764641D01*
X9610359Y17593872D01*
X9517940Y17370752D01*
X517500Y17370752D01*
X517500Y18020752D01*
X12092940Y18020752D01*
X12092940Y17779248D01*
X12185359Y17556128D01*
X12356128Y17385359D01*
X12579248Y17292940D01*
X12820752Y17292940D01*
X13043872Y17385359D01*
X13214641Y17556128D01*
X13307060Y17779248D01*
X13307060Y18020752D01*
X13214641Y18243872D01*
X13209973Y18248540D01*
X14253240Y18248540D01*
X14253240Y17951460D01*
X14366927Y17676994D01*
X14576994Y17466927D01*
X14851460Y17353240D01*
X15148540Y17353240D01*
X15423006Y17466927D01*
X15604619Y17648540D01*
X17953240Y17648540D01*
X17953240Y17351460D01*
X18066927Y17076994D01*
X18276994Y16866927D01*
X18551460Y16753240D01*
X18848540Y16753240D01*
X19123006Y16866927D01*
X19333073Y17076994D01*
X19446760Y17351460D01*
X19446760Y17648540D01*
X19333073Y17923006D01*
X19123006Y18133073D01*
X18848540Y18246760D01*
X18551460Y18246760D01*
X18276994Y18133073D01*
X18066927Y17923006D01*
X17953240Y17648540D01*
X15604619Y17648540D01*
X15633073Y17676994D01*
X15746760Y17951460D01*
X15746760Y18248540D01*
X15633073Y18523006D01*
X15507539Y18648540D01*
X24753240Y18648540D01*
X24753240Y18351460D01*
X24866927Y18076994D01*
X25076994Y17866927D01*
X25351460Y17753240D01*
X25648540Y17753240D01*
X25923006Y17866927D01*
X26133073Y18076994D01*
X26246760Y18351460D01*
X26246760Y18648540D01*
X26133073Y18923006D01*
X25923006Y19133073D01*
X25885666Y19148540D01*
X28753240Y19148540D01*
X28753240Y18851460D01*
X28866927Y18576994D01*
X29076994Y18366927D01*
X29351460Y18253240D01*
X29648540Y18253240D01*
X29923006Y18366927D01*
X30133073Y18576994D01*
X30246760Y18851460D01*
X30246760Y19148540D01*
X31253240Y19148540D01*
X31253240Y18851460D01*
X31366927Y18576994D01*
X31576994Y18366927D01*
X31851460Y18253240D01*
X32148540Y18253240D01*
X32423006Y18366927D01*
X32633073Y18576994D01*
X32746760Y18851460D01*
X32746760Y19148540D01*
X32633073Y19423006D01*
X32423006Y19633073D01*
X32148540Y19746760D01*
X31851460Y19746760D01*
X31576994Y19633073D01*
X31366927Y19423006D01*
X31253240Y19148540D01*
X30246760Y19148540D01*
X30133073Y19423006D01*
X29923006Y19633073D01*
X29648540Y19746760D01*
X29351460Y19746760D01*
X29076994Y19633073D01*
X28866927Y19423006D01*
X28753240Y19148540D01*
X25885666Y19148540D01*
X25648540Y19246760D01*
X25351460Y19246760D01*
X25076994Y19133073D01*
X24866927Y18923006D01*
X24753240Y18648540D01*
X15507539Y18648540D01*
X15423006Y18733073D01*
X15148540Y18846760D01*
X14851460Y18846760D01*
X14576994Y18733073D01*
X14366927Y18523006D01*
X14253240Y18248540D01*
X13209973Y18248540D01*
X13043872Y18414641D01*
X12820752Y18507060D01*
X12579248Y18507060D01*
X12356128Y18414641D01*
X12185359Y18243872D01*
X12092940Y18020752D01*
X517500Y18020752D01*
X517500Y19120752D01*
X11492940Y19120752D01*
X11492940Y18879248D01*
X11585359Y18656128D01*
X11756128Y18485359D01*
X11979248Y18392940D01*
X12220752Y18392940D01*
X12443872Y18485359D01*
X12614641Y18656128D01*
X12707060Y18879248D01*
X12707060Y19120752D01*
X12614641Y19343872D01*
X12443872Y19514641D01*
X12362033Y19548540D01*
X12953240Y19548540D01*
X12953240Y19251460D01*
X13066927Y18976994D01*
X13276994Y18766927D01*
X13551460Y18653240D01*
X13848540Y18653240D01*
X14123006Y18766927D01*
X14333073Y18976994D01*
X14446760Y19251460D01*
X14446760Y19548540D01*
X14333073Y19823006D01*
X14123006Y20033073D01*
X13848540Y20146760D01*
X13551460Y20146760D01*
X13276994Y20033073D01*
X13066927Y19823006D01*
X12953240Y19548540D01*
X12362033Y19548540D01*
X12220752Y19607060D01*
X11979248Y19607060D01*
X11756128Y19514641D01*
X11585359Y19343872D01*
X11492940Y19120752D01*
X517500Y19120752D01*
X517500Y20148540D01*
X3753240Y20148540D01*
X3753240Y19851460D01*
X3866927Y19576994D01*
X4076994Y19366927D01*
X4351460Y19253240D01*
X4648540Y19253240D01*
X4923006Y19366927D01*
X5133073Y19576994D01*
X5246760Y19851460D01*
X5246760Y20148540D01*
X5133073Y20423006D01*
X4923006Y20633073D01*
X4648540Y20746760D01*
X4351460Y20746760D01*
X4076994Y20633073D01*
X3866927Y20423006D01*
X3753240Y20148540D01*
X517500Y20148540D01*
X517500Y21148540D01*
X11753240Y21148540D01*
X11753240Y20851460D01*
X11866927Y20576994D01*
X12076994Y20366927D01*
X12351460Y20253240D01*
X12648540Y20253240D01*
X12923006Y20366927D01*
X13133073Y20576994D01*
X13246760Y20851460D01*
X13246760Y21148540D01*
X13753240Y21148540D01*
X13753240Y20851460D01*
X13866927Y20576994D01*
X14076994Y20366927D01*
X14351460Y20253240D01*
X14648540Y20253240D01*
X14923006Y20366927D01*
X15133073Y20576994D01*
X15246760Y20851460D01*
X15246760Y21148540D01*
X19753240Y21148540D01*
X19753240Y20851460D01*
X19866927Y20576994D01*
X20076994Y20366927D01*
X20351460Y20253240D01*
X20648540Y20253240D01*
X20923006Y20366927D01*
X21133073Y20576994D01*
X21246760Y20851460D01*
X21246760Y21148540D01*
X22253240Y21148540D01*
X22253240Y20851460D01*
X22366927Y20576994D01*
X22576994Y20366927D01*
X22851460Y20253240D01*
X23148540Y20253240D01*
X23257904Y20298540D01*
X23653240Y20298540D01*
X23653240Y20001460D01*
X23766927Y19726994D01*
X23976994Y19516927D01*
X24251460Y19403240D01*
X24548540Y19403240D01*
X24823006Y19516927D01*
X25033073Y19726994D01*
X25146760Y20001460D01*
X25146760Y20298540D01*
X25033073Y20573006D01*
X24823006Y20783073D01*
X24548540Y20896760D01*
X24251460Y20896760D01*
X23976994Y20783073D01*
X23766927Y20573006D01*
X23653240Y20298540D01*
X23257904Y20298540D01*
X23423006Y20366927D01*
X23633073Y20576994D01*
X23746760Y20851460D01*
X23746760Y21148540D01*
X23633073Y21423006D01*
X23423006Y21633073D01*
X23148540Y21746760D01*
X22851460Y21746760D01*
X22576994Y21633073D01*
X22366927Y21423006D01*
X22253240Y21148540D01*
X21246760Y21148540D01*
X21133073Y21423006D01*
X20923006Y21633073D01*
X20648540Y21746760D01*
X20351460Y21746760D01*
X20076994Y21633073D01*
X19866927Y21423006D01*
X19753240Y21148540D01*
X15246760Y21148540D01*
X15133073Y21423006D01*
X14923006Y21633073D01*
X14648540Y21746760D01*
X14351460Y21746760D01*
X14076994Y21633073D01*
X13866927Y21423006D01*
X13753240Y21148540D01*
X13246760Y21148540D01*
X13133073Y21423006D01*
X12923006Y21633073D01*
X12648540Y21746760D01*
X12351460Y21746760D01*
X12076994Y21633073D01*
X11866927Y21423006D01*
X11753240Y21148540D01*
X517500Y21148540D01*
X517500Y22648540D01*
X1253240Y22648540D01*
X1253240Y22351460D01*
X1366927Y22076994D01*
X1576994Y21866927D01*
X1851460Y21753240D01*
X2148540Y21753240D01*
X2423006Y21866927D01*
X2633073Y22076994D01*
X2746760Y22351460D01*
X2746760Y22648540D01*
X6253240Y22648540D01*
X6253240Y22351460D01*
X6366927Y22076994D01*
X6576994Y21866927D01*
X6851460Y21753240D01*
X7148540Y21753240D01*
X7423006Y21866927D01*
X7633073Y22076994D01*
X7724839Y22298540D01*
X8353240Y22298540D01*
X8353240Y22001460D01*
X8466927Y21726994D01*
X8676994Y21516927D01*
X8951460Y21403240D01*
X9248540Y21403240D01*
X9523006Y21516927D01*
X9733073Y21726994D01*
X9846760Y22001460D01*
X9846760Y22298540D01*
X9805339Y22398540D01*
X16803240Y22398540D01*
X16803240Y22101460D01*
X16916927Y21826994D01*
X17126994Y21616927D01*
X17401460Y21503240D01*
X17698540Y21503240D01*
X17973006Y21616927D01*
X18183073Y21826994D01*
X18296760Y22101460D01*
X18296760Y22148540D01*
X25253240Y22148540D01*
X25253240Y21851460D01*
X25366927Y21576994D01*
X25576994Y21366927D01*
X25851460Y21253240D01*
X26148540Y21253240D01*
X26423006Y21366927D01*
X26633073Y21576994D01*
X26746760Y21851460D01*
X26746760Y22148540D01*
X26633073Y22423006D01*
X26423006Y22633073D01*
X26148540Y22746760D01*
X25851460Y22746760D01*
X25576994Y22633073D01*
X25366927Y22423006D01*
X25253240Y22148540D01*
X18296760Y22148540D01*
X18296760Y22398540D01*
X18183073Y22673006D01*
X17973006Y22883073D01*
X17698540Y22996760D01*
X17401460Y22996760D01*
X17126994Y22883073D01*
X16916927Y22673006D01*
X16803240Y22398540D01*
X9805339Y22398540D01*
X9733073Y22573006D01*
X9523006Y22783073D01*
X9248540Y22896760D01*
X8951460Y22896760D01*
X8676994Y22783073D01*
X8466927Y22573006D01*
X8353240Y22298540D01*
X7724839Y22298540D01*
X7746760Y22351460D01*
X7746760Y22648540D01*
X7633073Y22923006D01*
X7423006Y23133073D01*
X7148540Y23246760D01*
X6851460Y23246760D01*
X6576994Y23133073D01*
X6366927Y22923006D01*
X6253240Y22648540D01*
X2746760Y22648540D01*
X2633073Y22923006D01*
X2423006Y23133073D01*
X2148540Y23246760D01*
X1851460Y23246760D01*
X1576994Y23133073D01*
X1366927Y22923006D01*
X1253240Y22648540D01*
X517500Y22648540D01*
X517500Y23648540D01*
X18753240Y23648540D01*
X18753240Y23351460D01*
X18866927Y23076994D01*
X19076994Y22866927D01*
X19351460Y22753240D01*
X19648540Y22753240D01*
X19923006Y22866927D01*
X20133073Y23076994D01*
X20246760Y23351460D01*
X20246760Y23498540D01*
X22703240Y23498540D01*
X22703240Y23201460D01*
X22816927Y22926994D01*
X23026994Y22716927D01*
X23301460Y22603240D01*
X23598540Y22603240D01*
X23873006Y22716927D01*
X24083073Y22926994D01*
X24196760Y23201460D01*
X24196760Y23498540D01*
X24094362Y23745752D01*
X29117940Y23745752D01*
X29117940Y23504248D01*
X29210359Y23281128D01*
X29366487Y23125000D01*
X29210359Y22968872D01*
X29117940Y22745752D01*
X29117940Y22504248D01*
X29210359Y22281128D01*
X29381128Y22110359D01*
X29604248Y22017940D01*
X29845752Y22017940D01*
X30068872Y22110359D01*
X30239641Y22281128D01*
X30332060Y22504248D01*
X30332060Y22720752D01*
X32517940Y22720752D01*
X32517940Y22479248D01*
X32610359Y22256128D01*
X32781128Y22085359D01*
X33004248Y21992940D01*
X33245752Y21992940D01*
X33468872Y22085359D01*
X33639641Y22256128D01*
X33732060Y22479248D01*
X33732060Y22720752D01*
X33639641Y22943872D01*
X33493867Y23089646D01*
X33543872Y23110359D01*
X33714641Y23281128D01*
X33807060Y23504248D01*
X33807060Y23745752D01*
X33714641Y23968872D01*
X33543872Y24139641D01*
X33320752Y24232060D01*
X33079248Y24232060D01*
X32856128Y24139641D01*
X32685359Y23968872D01*
X32592940Y23745752D01*
X32592940Y23504248D01*
X32685359Y23281128D01*
X32831133Y23135354D01*
X32781128Y23114641D01*
X32610359Y22943872D01*
X32517940Y22720752D01*
X30332060Y22720752D01*
X30332060Y22745752D01*
X30239641Y22968872D01*
X30083513Y23125000D01*
X30239641Y23281128D01*
X30332060Y23504248D01*
X30332060Y23745752D01*
X30239641Y23968872D01*
X30068872Y24139641D01*
X29845752Y24232060D01*
X29604248Y24232060D01*
X29381128Y24139641D01*
X29210359Y23968872D01*
X29117940Y23745752D01*
X24094362Y23745752D01*
X24083073Y23773006D01*
X23873006Y23983073D01*
X23598540Y24096760D01*
X23301460Y24096760D01*
X23026994Y23983073D01*
X22816927Y23773006D01*
X22703240Y23498540D01*
X20246760Y23498540D01*
X20246760Y23648540D01*
X20133073Y23923006D01*
X19923006Y24133073D01*
X19648540Y24246760D01*
X19351460Y24246760D01*
X19076994Y24133073D01*
X18866927Y23923006D01*
X18753240Y23648540D01*
X517500Y23648540D01*
X517500Y26383435D01*
X2072340Y26383435D01*
X2072340Y25616565D01*
X2365809Y24908068D01*
X2908068Y24365809D01*
X3616565Y24072340D01*
X4383435Y24072340D01*
X5091932Y24365809D01*
X5374663Y24648540D01*
X9253240Y24648540D01*
X9253240Y24351460D01*
X9366927Y24076994D01*
X9576994Y23866927D01*
X9851460Y23753240D01*
X10148540Y23753240D01*
X10423006Y23866927D01*
X10633073Y24076994D01*
X10746760Y24351460D01*
X10746760Y24648540D01*
X11253240Y24648540D01*
X11253240Y24351460D01*
X11366927Y24076994D01*
X11576994Y23866927D01*
X11851460Y23753240D01*
X12148540Y23753240D01*
X12423006Y23866927D01*
X12633073Y24076994D01*
X12746760Y24351460D01*
X12746760Y24648540D01*
X14253240Y24648540D01*
X14253240Y24351460D01*
X14366927Y24076994D01*
X14576994Y23866927D01*
X14851460Y23753240D01*
X15148540Y23753240D01*
X15423006Y23866927D01*
X15633073Y24076994D01*
X15746760Y24351460D01*
X15746760Y24648540D01*
X15633073Y24923006D01*
X15423006Y25133073D01*
X15148540Y25246760D01*
X14851460Y25246760D01*
X14576994Y25133073D01*
X14366927Y24923006D01*
X14253240Y24648540D01*
X12746760Y24648540D01*
X12633073Y24923006D01*
X12423006Y25133073D01*
X12148540Y25246760D01*
X11851460Y25246760D01*
X11576994Y25133073D01*
X11366927Y24923006D01*
X11253240Y24648540D01*
X10746760Y24648540D01*
X10633073Y24923006D01*
X10423006Y25133073D01*
X10148540Y25246760D01*
X9851460Y25246760D01*
X9576994Y25133073D01*
X9366927Y24923006D01*
X9253240Y24648540D01*
X5374663Y24648540D01*
X5634191Y24908068D01*
X5927660Y25616565D01*
X5927660Y26383435D01*
X5634191Y27091932D01*
X5091932Y27634191D01*
X5057291Y27648540D01*
X11253240Y27648540D01*
X11253240Y27351460D01*
X11366927Y27076994D01*
X11576994Y26866927D01*
X11851460Y26753240D01*
X12148540Y26753240D01*
X12423006Y26866927D01*
X12633073Y27076994D01*
X12746760Y27351460D01*
X12746760Y27648540D01*
X16253240Y27648540D01*
X16253240Y27351460D01*
X16366927Y27076994D01*
X16576994Y26866927D01*
X16851460Y26753240D01*
X17148540Y26753240D01*
X17423006Y26866927D01*
X17633073Y27076994D01*
X17746760Y27351460D01*
X17746760Y27648540D01*
X17633073Y27923006D01*
X17423006Y28133073D01*
X17148540Y28246760D01*
X16851460Y28246760D01*
X16576994Y28133073D01*
X16366927Y27923006D01*
X16253240Y27648540D01*
X12746760Y27648540D01*
X12633073Y27923006D01*
X12423006Y28133073D01*
X12148540Y28246760D01*
X11851460Y28246760D01*
X11576994Y28133073D01*
X11366927Y27923006D01*
X11253240Y27648540D01*
X5057291Y27648540D01*
X4383435Y27927660D01*
X3616565Y27927660D01*
X2908068Y27634191D01*
X2365809Y27091932D01*
X2072340Y26383435D01*
X517500Y26383435D01*
X517500Y29482500D01*
X27317033Y29482500D01*
X27076994Y29383073D01*
X27076994Y29383073D01*
G37*
X27076994Y29383073D02*
X26866927Y29173006D01*
X26753240Y28898540D01*
X26753240Y28601460D01*
X26866927Y28326994D01*
X27076994Y28116927D01*
X27351460Y28003240D01*
X27648540Y28003240D01*
X27923006Y28116927D01*
X28133073Y28326994D01*
X28246760Y28601460D01*
X28246760Y28898540D01*
X28133073Y29173006D01*
X27923006Y29383073D01*
X27682967Y29482500D01*
X32317033Y29482500D01*
X32076994Y29383073D01*
X31866927Y29173006D01*
X31753240Y28898540D01*
X31753240Y28601460D01*
X31866927Y28326994D01*
X32076994Y28116927D01*
X32351460Y28003240D01*
X32648540Y28003240D01*
X32923006Y28116927D01*
X33133073Y28326994D01*
X33246760Y28601460D01*
X33246760Y28898540D01*
X33133073Y29173006D01*
X32923006Y29383073D01*
X32682967Y29482500D01*
X64482501Y29482500D01*
X64482500Y5748793D01*
X64420686Y5898025D01*
X64223025Y6095686D01*
X63964768Y6202660D01*
X63685232Y6202660D01*
X63426975Y6095686D01*
X63229314Y5898025D01*
X63122340Y5639768D01*
X63122340Y5360232D01*
X63229314Y5101975D01*
X63426975Y4904314D01*
X63685232Y4797340D01*
X63964768Y4797340D01*
X64223025Y4904314D01*
X64420686Y5101975D01*
X64482500Y5251207D01*
X64482500Y1682967D01*
X64383073Y1923006D01*
X64173006Y2133073D01*
X63898540Y2246760D01*
X63601460Y2246760D01*
X63326994Y2133073D01*
X63116927Y1923006D01*
X63003240Y1648540D01*
X63003240Y1351460D01*
X63116927Y1076994D01*
X63326994Y866927D01*
X63601460Y753240D01*
X63898540Y753240D01*
X64173006Y866927D01*
X64383073Y1076994D01*
X64482500Y1317033D01*
X64482500Y517500D01*
X517500Y517500D01*
X517500Y4383435D01*
X2072340Y4383435D01*
X2072340Y3616565D01*
X2365809Y2908068D01*
X2908068Y2365809D01*
X3616565Y2072340D01*
X4383435Y2072340D01*
X5091932Y2365809D01*
X5634191Y2908068D01*
X5927660Y3616565D01*
X5927660Y4383435D01*
X5891493Y4470752D01*
X8992940Y4470752D01*
X8992940Y4229248D01*
X9085359Y4006128D01*
X9256128Y3835359D01*
X9479248Y3742940D01*
X9720752Y3742940D01*
X9943872Y3835359D01*
X10114641Y4006128D01*
X10120698Y4020752D01*
X17142940Y4020752D01*
X17142940Y3779248D01*
X17235359Y3556128D01*
X17406128Y3385359D01*
X17629248Y3292940D01*
X17836861Y3292940D01*
X17666927Y3123006D01*
X17553240Y2848540D01*
X17553240Y2551460D01*
X17666927Y2276994D01*
X17876994Y2066927D01*
X18151460Y1953240D01*
X18448540Y1953240D01*
X18723006Y2066927D01*
X18933073Y2276994D01*
X19033616Y2519728D01*
X25948740Y2519728D01*
X25948740Y1980273D01*
X26017858Y1632794D01*
X26281150Y1238750D01*
X26675193Y975458D01*
X27140000Y883002D01*
X27604806Y975458D01*
X27998850Y1238750D01*
X28262142Y1632793D01*
X28331260Y1980272D01*
X28331260Y2519727D01*
X28331260Y2519728D01*
X28488740Y2519728D01*
X28488740Y1980273D01*
X28557858Y1632794D01*
X28821150Y1238750D01*
X29215193Y975458D01*
X29680000Y883002D01*
X30144806Y975458D01*
X30538850Y1238750D01*
X30802142Y1632793D01*
X30871260Y1980272D01*
X30871260Y2519727D01*
X30871260Y2519728D01*
X31028740Y2519728D01*
X31028740Y1980273D01*
X31097858Y1632794D01*
X31361150Y1238750D01*
X31755193Y975458D01*
X32220000Y883002D01*
X32684806Y975458D01*
X33078850Y1238750D01*
X33342142Y1632793D01*
X33411260Y1980272D01*
X33411260Y2519727D01*
X33411260Y2519728D01*
X33568740Y2519728D01*
X33568740Y1980273D01*
X33637858Y1632794D01*
X33901150Y1238750D01*
X34295193Y975458D01*
X34760000Y883002D01*
X35224806Y975458D01*
X35618850Y1238750D01*
X35882142Y1632793D01*
X35951260Y1980272D01*
X35951260Y2519727D01*
X35951260Y2519728D01*
X36108740Y2519728D01*
X36108740Y1980273D01*
X36177858Y1632794D01*
X36441150Y1238750D01*
X36835193Y975458D01*
X37300000Y883002D01*
X37764806Y975458D01*
X38158850Y1238750D01*
X38422142Y1632793D01*
X38491260Y1980272D01*
X38491260Y2519727D01*
X38491260Y2519728D01*
X38648740Y2519728D01*
X38648740Y1980273D01*
X38717858Y1632794D01*
X38981150Y1238750D01*
X39375193Y975458D01*
X39840000Y883002D01*
X40304806Y975458D01*
X40698850Y1238750D01*
X40962142Y1632793D01*
X41031260Y1980272D01*
X41031260Y2519727D01*
X41031260Y2519728D01*
X41188740Y2519728D01*
X41188740Y1980273D01*
X41257858Y1632794D01*
X41521150Y1238750D01*
X41915193Y975458D01*
X42380000Y883002D01*
X42844806Y975458D01*
X43238850Y1238750D01*
X43502142Y1632793D01*
X43571260Y1980272D01*
X43571260Y2519727D01*
X43571260Y2519728D01*
X43728740Y2519728D01*
X43728740Y1980273D01*
X43797858Y1632794D01*
X44061150Y1238750D01*
X44455193Y975458D01*
X44920000Y883002D01*
X45384806Y975458D01*
X45778850Y1238750D01*
X46042142Y1632793D01*
X46111260Y1980272D01*
X46111260Y2519727D01*
X46111260Y2519728D01*
X46268740Y2519728D01*
X46268740Y1980273D01*
X46337858Y1632794D01*
X46601150Y1238750D01*
X46995193Y975458D01*
X47460000Y883002D01*
X47924806Y975458D01*
X48318850Y1238750D01*
X48501400Y1511954D01*
X48501400Y1107691D01*
X48598073Y874302D01*
X48776701Y695673D01*
X49010090Y599000D01*
X49714250Y599000D01*
X49873000Y757750D01*
X49873000Y2123000D01*
X50127000Y2123000D01*
X50127000Y757750D01*
X50285750Y599000D01*
X50989910Y599000D01*
X51223299Y695673D01*
X51401927Y874302D01*
X51498600Y1107691D01*
X51498600Y1964250D01*
X51339850Y2123000D01*
X50127000Y2123000D01*
X49873000Y2123000D01*
X49853000Y2123000D01*
X49853000Y2377000D01*
X49873000Y2377000D01*
X49873000Y3742250D01*
X50127000Y3742250D01*
X50127000Y2377000D01*
X51339850Y2377000D01*
X51498600Y2535750D01*
X51498600Y2648540D01*
X53753240Y2648540D01*
X53753240Y2351460D01*
X53866927Y2076994D01*
X54076994Y1866927D01*
X54351460Y1753240D01*
X54648540Y1753240D01*
X54923006Y1866927D01*
X55133073Y2076994D01*
X55246760Y2351460D01*
X55246760Y2648540D01*
X55133073Y2923006D01*
X54923006Y3133073D01*
X54648540Y3246760D01*
X54351460Y3246760D01*
X54076994Y3133073D01*
X53866927Y2923006D01*
X53753240Y2648540D01*
X51498600Y2648540D01*
X51498600Y3392309D01*
X51401927Y3625698D01*
X51223299Y3804327D01*
X50989910Y3901000D01*
X50285750Y3901000D01*
X50127000Y3742250D01*
X49873000Y3742250D01*
X49714250Y3901000D01*
X49010090Y3901000D01*
X48776701Y3804327D01*
X48598073Y3625698D01*
X48501400Y3392309D01*
X48501400Y2988045D01*
X48318850Y3261250D01*
X47924807Y3524542D01*
X47460000Y3616998D01*
X46995194Y3524542D01*
X46601151Y3261250D01*
X46337858Y2867207D01*
X46268740Y2519728D01*
X46111260Y2519728D01*
X46042142Y2867206D01*
X45778850Y3261250D01*
X45384807Y3524542D01*
X44920000Y3616998D01*
X44455194Y3524542D01*
X44061151Y3261250D01*
X43797858Y2867207D01*
X43728740Y2519728D01*
X43571260Y2519728D01*
X43502142Y2867206D01*
X43238850Y3261250D01*
X42844807Y3524542D01*
X42380000Y3616998D01*
X41915194Y3524542D01*
X41521151Y3261250D01*
X41257858Y2867207D01*
X41188740Y2519728D01*
X41031260Y2519728D01*
X40962142Y2867206D01*
X40698850Y3261250D01*
X40304807Y3524542D01*
X39840000Y3616998D01*
X39375194Y3524542D01*
X38981151Y3261250D01*
X38717858Y2867207D01*
X38648740Y2519728D01*
X38491260Y2519728D01*
X38422142Y2867206D01*
X38158850Y3261250D01*
X37764807Y3524542D01*
X37300000Y3616998D01*
X36835194Y3524542D01*
X36441151Y3261250D01*
X36177858Y2867207D01*
X36108740Y2519728D01*
X35951260Y2519728D01*
X35882142Y2867206D01*
X35618850Y3261250D01*
X35224807Y3524542D01*
X34760000Y3616998D01*
X34295194Y3524542D01*
X33901151Y3261250D01*
X33637858Y2867207D01*
X33568740Y2519728D01*
X33411260Y2519728D01*
X33342142Y2867206D01*
X33078850Y3261250D01*
X32684807Y3524542D01*
X32220000Y3616998D01*
X31755194Y3524542D01*
X31361151Y3261250D01*
X31097858Y2867207D01*
X31028740Y2519728D01*
X30871260Y2519728D01*
X30802142Y2867206D01*
X30538850Y3261250D01*
X30144807Y3524542D01*
X29680000Y3616998D01*
X29215194Y3524542D01*
X28821151Y3261250D01*
X28557858Y2867207D01*
X28488740Y2519728D01*
X28331260Y2519728D01*
X28262142Y2867206D01*
X27998850Y3261250D01*
X27604807Y3524542D01*
X27140000Y3616998D01*
X26675194Y3524542D01*
X26281151Y3261250D01*
X26017858Y2867207D01*
X25948740Y2519728D01*
X19033616Y2519728D01*
X19046760Y2551460D01*
X19046760Y2848540D01*
X18933073Y3123006D01*
X18723006Y3333073D01*
X18448540Y3446760D01*
X18155273Y3446760D01*
X18264641Y3556128D01*
X18357060Y3779248D01*
X18357060Y4020752D01*
X18264641Y4243872D01*
X18093872Y4414641D01*
X17870752Y4507060D01*
X17629248Y4507060D01*
X17406128Y4414641D01*
X17235359Y4243872D01*
X17142940Y4020752D01*
X10120698Y4020752D01*
X10207060Y4229248D01*
X10207060Y4470752D01*
X10114641Y4693872D01*
X10083513Y4725000D01*
X10214641Y4856128D01*
X10307060Y5079248D01*
X10307060Y5220752D01*
X18017940Y5220752D01*
X18017940Y4979248D01*
X18110359Y4756128D01*
X18281128Y4585359D01*
X18504248Y4492940D01*
X18745752Y4492940D01*
X18968872Y4585359D01*
X19139641Y4756128D01*
X19232060Y4979248D01*
X19232060Y5220752D01*
X19139641Y5443872D01*
X18968872Y5614641D01*
X18745752Y5707060D01*
X18504248Y5707060D01*
X18281128Y5614641D01*
X18110359Y5443872D01*
X18017940Y5220752D01*
X10307060Y5220752D01*
X10307060Y5320752D01*
X10214641Y5543872D01*
X10043872Y5714641D01*
X9820752Y5807060D01*
X9579248Y5807060D01*
X9356128Y5714641D01*
X9185359Y5543872D01*
X9092940Y5320752D01*
X9092940Y5079248D01*
X9185359Y4856128D01*
X9216487Y4825000D01*
X9085359Y4693872D01*
X8992940Y4470752D01*
X5891493Y4470752D01*
X5634191Y5091932D01*
X5091932Y5634191D01*
X4383435Y5927660D01*
X3616565Y5927660D01*
X2908068Y5634191D01*
X2365809Y5091932D01*
X2072340Y4383435D01*
X517500Y4383435D01*
X517500Y6420752D01*
X11092940Y6420752D01*
X11092940Y6179248D01*
X11185359Y5956128D01*
X11356128Y5785359D01*
X11579248Y5692940D01*
X11820752Y5692940D01*
X12043872Y5785359D01*
X12214641Y5956128D01*
X12307060Y6179248D01*
X12307060Y6420752D01*
X12214641Y6643872D01*
X12043872Y6814641D01*
X11820752Y6907060D01*
X11579248Y6907060D01*
X11356128Y6814641D01*
X11185359Y6643872D01*
X11092940Y6420752D01*
X517500Y6420752D01*
X517500Y7648540D01*
X1253240Y7648540D01*
X1253240Y7351460D01*
X1366927Y7076994D01*
X1576994Y6866927D01*
X1851460Y6753240D01*
X2148540Y6753240D01*
X2423006Y6866927D01*
X2633073Y7076994D01*
X2746760Y7351460D01*
X2746760Y7648540D01*
X6253240Y7648540D01*
X6253240Y7351460D01*
X6366927Y7076994D01*
X6576994Y6866927D01*
X6851460Y6753240D01*
X7148540Y6753240D01*
X7423006Y6866927D01*
X7633073Y7076994D01*
X7692619Y7220752D01*
X12392940Y7220752D01*
X12392940Y6979248D01*
X12485359Y6756128D01*
X12656128Y6585359D01*
X12879248Y6492940D01*
X13120752Y6492940D01*
X13343872Y6585359D01*
X13514641Y6756128D01*
X13607060Y6979248D01*
X13607060Y7148540D01*
X16003240Y7148540D01*
X16003240Y6851460D01*
X16116927Y6576994D01*
X16326994Y6366927D01*
X16601460Y6253240D01*
X16898540Y6253240D01*
X17173006Y6366927D01*
X17326831Y6520752D01*
X19092940Y6520752D01*
X19092940Y6279248D01*
X19185359Y6056128D01*
X19356128Y5885359D01*
X19579248Y5792940D01*
X19820752Y5792940D01*
X20043872Y5885359D01*
X20214641Y6056128D01*
X20303540Y6270752D01*
X20992940Y6270752D01*
X20992940Y6029248D01*
X21085359Y5806128D01*
X21256128Y5635359D01*
X21479248Y5542940D01*
X21720752Y5542940D01*
X21943872Y5635359D01*
X22114641Y5806128D01*
X22207060Y6029248D01*
X22207060Y6270752D01*
X22174840Y6348540D01*
X22753240Y6348540D01*
X22753240Y6051460D01*
X22866927Y5776994D01*
X23076994Y5566927D01*
X23351460Y5453240D01*
X23648540Y5453240D01*
X23923006Y5566927D01*
X24133073Y5776994D01*
X24246760Y6051460D01*
X24246760Y6348540D01*
X24133073Y6623006D01*
X23923006Y6833073D01*
X23648540Y6946760D01*
X23351460Y6946760D01*
X23076994Y6833073D01*
X22866927Y6623006D01*
X22753240Y6348540D01*
X22174840Y6348540D01*
X22114641Y6493872D01*
X21943872Y6664641D01*
X21720752Y6757060D01*
X21479248Y6757060D01*
X21256128Y6664641D01*
X21085359Y6493872D01*
X20992940Y6270752D01*
X20303540Y6270752D01*
X20307060Y6279248D01*
X20307060Y6520752D01*
X20214641Y6743872D01*
X20043872Y6914641D01*
X19820752Y7007060D01*
X19579248Y7007060D01*
X19356128Y6914641D01*
X19185359Y6743872D01*
X19092940Y6520752D01*
X17326831Y6520752D01*
X17383073Y6576994D01*
X17496760Y6851460D01*
X17496760Y7148540D01*
X17383073Y7423006D01*
X17173006Y7633073D01*
X16898540Y7746760D01*
X16601460Y7746760D01*
X16326994Y7633073D01*
X16116927Y7423006D01*
X16003240Y7148540D01*
X13607060Y7148540D01*
X13607060Y7220752D01*
X13514641Y7443872D01*
X13343872Y7614641D01*
X13120752Y7707060D01*
X12879248Y7707060D01*
X12656128Y7614641D01*
X12485359Y7443872D01*
X12392940Y7220752D01*
X7692619Y7220752D01*
X7746760Y7351460D01*
X7746760Y7648540D01*
X7633073Y7923006D01*
X7423006Y8133073D01*
X7148540Y8246760D01*
X6851460Y8246760D01*
X6576994Y8133073D01*
X6366927Y7923006D01*
X6253240Y7648540D01*
X2746760Y7648540D01*
X2633073Y7923006D01*
X2423006Y8133073D01*
X2148540Y8246760D01*
X1851460Y8246760D01*
X1576994Y8133073D01*
X1366927Y7923006D01*
X1253240Y7648540D01*
X517500Y7648540D01*
X517500Y10148540D01*
X3753240Y10148540D01*
X3753240Y9851460D01*
X3866927Y9576994D01*
X4076994Y9366927D01*
X4351460Y9253240D01*
X4648540Y9253240D01*
X4923006Y9366927D01*
X5133073Y9576994D01*
X5162708Y9648540D01*
X6753240Y9648540D01*
X6753240Y9351460D01*
X6866927Y9076994D01*
X7076994Y8866927D01*
X7351460Y8753240D01*
X7648540Y8753240D01*
X7923006Y8866927D01*
X7954619Y8898540D01*
X9253240Y8898540D01*
X9253240Y8601460D01*
X9366927Y8326994D01*
X9576994Y8116927D01*
X9851460Y8003240D01*
X10148540Y8003240D01*
X10423006Y8116927D01*
X10633073Y8326994D01*
X10746760Y8601460D01*
X10746760Y8848540D01*
X12253240Y8848540D01*
X12253240Y8551460D01*
X12366927Y8276994D01*
X12576994Y8066927D01*
X12851460Y7953240D01*
X13148540Y7953240D01*
X13423006Y8066927D01*
X13598433Y8242354D01*
X13666927Y8076994D01*
X13876994Y7866927D01*
X14151460Y7753240D01*
X14448540Y7753240D01*
X14723006Y7866927D01*
X14933073Y8076994D01*
X14962708Y8148540D01*
X17753240Y8148540D01*
X17753240Y7851460D01*
X17866927Y7576994D01*
X18076994Y7366927D01*
X18351460Y7253240D01*
X18648540Y7253240D01*
X18923006Y7366927D01*
X19133073Y7576994D01*
X19246760Y7851460D01*
X19246760Y8148540D01*
X20503240Y8148540D01*
X20503240Y7851460D01*
X20616927Y7576994D01*
X20826994Y7366927D01*
X21101460Y7253240D01*
X21398540Y7253240D01*
X21673006Y7366927D01*
X21826831Y7520752D01*
X26492940Y7520752D01*
X26492940Y7279248D01*
X26585359Y7056128D01*
X26756128Y6885359D01*
X26979248Y6792940D01*
X27220752Y6792940D01*
X27443872Y6885359D01*
X27614641Y7056128D01*
X27652919Y7148540D01*
X33253240Y7148540D01*
X33253240Y6851460D01*
X33366927Y6576994D01*
X33576994Y6366927D01*
X33851460Y6253240D01*
X34148540Y6253240D01*
X34423006Y6366927D01*
X34633073Y6576994D01*
X34662708Y6648540D01*
X35753240Y6648540D01*
X35753240Y6351460D01*
X35866927Y6076994D01*
X36076994Y5866927D01*
X36351460Y5753240D01*
X36648540Y5753240D01*
X36923006Y5866927D01*
X37133073Y6076994D01*
X37162708Y6148540D01*
X43753240Y6148540D01*
X43753240Y5851460D01*
X43866927Y5576994D01*
X44076994Y5366927D01*
X44351460Y5253240D01*
X44648540Y5253240D01*
X44923006Y5366927D01*
X45133073Y5576994D01*
X45246760Y5851460D01*
X45246760Y6148540D01*
X45133073Y6423006D01*
X44923006Y6633073D01*
X44885666Y6648540D01*
X46753240Y6648540D01*
X46753240Y6351460D01*
X46866927Y6076994D01*
X47076994Y5866927D01*
X47351460Y5753240D01*
X47648540Y5753240D01*
X47923006Y5866927D01*
X48133073Y6076994D01*
X48162708Y6148540D01*
X53953240Y6148540D01*
X53953240Y5851460D01*
X54066927Y5576994D01*
X54276994Y5366927D01*
X54551460Y5253240D01*
X54848540Y5253240D01*
X55123006Y5366927D01*
X55333073Y5576994D01*
X55446760Y5851460D01*
X55446760Y6148540D01*
X55333073Y6423006D01*
X55123006Y6633073D01*
X54848540Y6746760D01*
X54551460Y6746760D01*
X54276994Y6633073D01*
X54066927Y6423006D01*
X53953240Y6148540D01*
X48162708Y6148540D01*
X48246760Y6351460D01*
X48246760Y6648540D01*
X48133073Y6923006D01*
X47923006Y7133073D01*
X47648540Y7246760D01*
X47351460Y7246760D01*
X47076994Y7133073D01*
X46866927Y6923006D01*
X46753240Y6648540D01*
X44885666Y6648540D01*
X44648540Y6746760D01*
X44351460Y6746760D01*
X44076994Y6633073D01*
X43866927Y6423006D01*
X43753240Y6148540D01*
X37162708Y6148540D01*
X37246760Y6351460D01*
X37246760Y6648540D01*
X37133073Y6923006D01*
X36923006Y7133073D01*
X36648540Y7246760D01*
X36351460Y7246760D01*
X36076994Y7133073D01*
X35866927Y6923006D01*
X35753240Y6648540D01*
X34662708Y6648540D01*
X34746760Y6851460D01*
X34746760Y7148540D01*
X34633073Y7423006D01*
X34423006Y7633073D01*
X34148540Y7746760D01*
X33851460Y7746760D01*
X33576994Y7633073D01*
X33366927Y7423006D01*
X33253240Y7148540D01*
X27652919Y7148540D01*
X27707060Y7279248D01*
X27707060Y7520752D01*
X27614641Y7743872D01*
X27459973Y7898540D01*
X48503240Y7898540D01*
X48503240Y7601460D01*
X48616927Y7326994D01*
X48826994Y7116927D01*
X49101460Y7003240D01*
X49398540Y7003240D01*
X49673006Y7116927D01*
X49883073Y7326994D01*
X49996760Y7601460D01*
X49996760Y7898540D01*
X49883073Y8173006D01*
X49673006Y8383073D01*
X49398540Y8496760D01*
X49101460Y8496760D01*
X48826994Y8383073D01*
X48616927Y8173006D01*
X48503240Y7898540D01*
X27459973Y7898540D01*
X27443872Y7914641D01*
X27220752Y8007060D01*
X26979248Y8007060D01*
X26756128Y7914641D01*
X26585359Y7743872D01*
X26492940Y7520752D01*
X21826831Y7520752D01*
X21883073Y7576994D01*
X21996760Y7851460D01*
X21996760Y8148540D01*
X21883073Y8423006D01*
X21866311Y8439768D01*
X23697340Y8439768D01*
X23697340Y8160232D01*
X23804314Y7901975D01*
X24001975Y7704314D01*
X24260232Y7597340D01*
X24539768Y7597340D01*
X24720833Y7672340D01*
X26038188Y7672340D01*
X26100000Y7660045D01*
X26161812Y7672340D01*
X26161816Y7672340D01*
X26344901Y7708758D01*
X26552517Y7847483D01*
X26587533Y7899888D01*
X27502413Y8814768D01*
X31147340Y8814768D01*
X31147340Y8535232D01*
X31254314Y8276975D01*
X31451975Y8079314D01*
X31710232Y7972340D01*
X31989768Y7972340D01*
X32248025Y8079314D01*
X32445686Y8276975D01*
X32552660Y8535232D01*
X32552660Y8798540D01*
X54303240Y8798540D01*
X54303240Y8501460D01*
X54416927Y8226994D01*
X54626994Y8016927D01*
X54901460Y7903240D01*
X55198540Y7903240D01*
X55473006Y8016927D01*
X55683073Y8226994D01*
X55732927Y8347354D01*
X55760359Y8281128D01*
X55931128Y8110359D01*
X56154248Y8017940D01*
X56395752Y8017940D01*
X56618872Y8110359D01*
X56789641Y8281128D01*
X56882060Y8504248D01*
X56882060Y8745752D01*
X56789641Y8968872D01*
X56618872Y9139641D01*
X56395752Y9232060D01*
X56154248Y9232060D01*
X55931128Y9139641D01*
X55760359Y8968872D01*
X55743283Y8927646D01*
X55683073Y9073006D01*
X55473006Y9283073D01*
X55198540Y9396760D01*
X54901460Y9396760D01*
X54626994Y9283073D01*
X54416927Y9073006D01*
X54303240Y8798540D01*
X32552660Y8798540D01*
X32552660Y8814768D01*
X32445686Y9073025D01*
X32248025Y9270686D01*
X31989768Y9377660D01*
X31710232Y9377660D01*
X31451975Y9270686D01*
X31254314Y9073025D01*
X31147340Y8814768D01*
X27502413Y8814768D01*
X29836185Y11148540D01*
X32253240Y11148540D01*
X32253240Y10851460D01*
X32366927Y10576994D01*
X32576994Y10366927D01*
X32851460Y10253240D01*
X33148540Y10253240D01*
X33423006Y10366927D01*
X33633073Y10576994D01*
X33746760Y10851460D01*
X33746760Y11110752D01*
X38312940Y11110752D01*
X38312940Y10869248D01*
X38405359Y10646128D01*
X38576128Y10475359D01*
X38799248Y10382940D01*
X39040752Y10382940D01*
X39263872Y10475359D01*
X39434641Y10646128D01*
X39527060Y10869248D01*
X39527060Y11110752D01*
X39502208Y11170752D01*
X39832940Y11170752D01*
X39832940Y10929248D01*
X39925359Y10706128D01*
X40096128Y10535359D01*
X40319248Y10442940D01*
X40560752Y10442940D01*
X40783872Y10535359D01*
X40954641Y10706128D01*
X40971053Y10745752D01*
X42942940Y10745752D01*
X42942940Y10504248D01*
X43035359Y10281128D01*
X43206128Y10110359D01*
X43429248Y10017940D01*
X43445159Y10017940D01*
X43256128Y9939641D01*
X43085359Y9768872D01*
X42992940Y9545752D01*
X42992940Y9304248D01*
X43085359Y9081128D01*
X43256128Y8910359D01*
X43479248Y8817940D01*
X43720752Y8817940D01*
X43943872Y8910359D01*
X44114641Y9081128D01*
X44207060Y9304248D01*
X44207060Y9545752D01*
X44114641Y9768872D01*
X43943872Y9939641D01*
X43720752Y10032060D01*
X43704841Y10032060D01*
X43893872Y10110359D01*
X44064641Y10281128D01*
X44157060Y10504248D01*
X44157060Y10648540D01*
X48753240Y10648540D01*
X48753240Y10351460D01*
X48866927Y10076994D01*
X49076994Y9866927D01*
X49351460Y9753240D01*
X49648540Y9753240D01*
X49923006Y9866927D01*
X50133073Y10076994D01*
X50246760Y10351460D01*
X50246760Y10648540D01*
X50133073Y10923006D01*
X49923006Y11133073D01*
X49648540Y11246760D01*
X49351460Y11246760D01*
X49076994Y11133073D01*
X48866927Y10923006D01*
X48753240Y10648540D01*
X44157060Y10648540D01*
X44157060Y10745752D01*
X44064641Y10968872D01*
X43893872Y11139641D01*
X43670752Y11232060D01*
X43429248Y11232060D01*
X43206128Y11139641D01*
X43035359Y10968872D01*
X42942940Y10745752D01*
X40971053Y10745752D01*
X41047060Y10929248D01*
X41047060Y11170752D01*
X40954641Y11393872D01*
X40783872Y11564641D01*
X40560752Y11657060D01*
X40319248Y11657060D01*
X40096128Y11564641D01*
X39925359Y11393872D01*
X39832940Y11170752D01*
X39502208Y11170752D01*
X39434641Y11333872D01*
X39263872Y11504641D01*
X39040752Y11597060D01*
X38799248Y11597060D01*
X38576128Y11504641D01*
X38405359Y11333872D01*
X38312940Y11110752D01*
X33746760Y11110752D01*
X33746760Y11148540D01*
X33633073Y11423006D01*
X33423006Y11633073D01*
X33148540Y11746760D01*
X32851460Y11746760D01*
X32576994Y11633073D01*
X32366927Y11423006D01*
X32253240Y11148540D01*
X29836185Y11148540D01*
X31248397Y12560752D01*
X38312940Y12560752D01*
X38312940Y12319248D01*
X38405359Y12096128D01*
X38576128Y11925359D01*
X38799248Y11832940D01*
X39040752Y11832940D01*
X39263872Y11925359D01*
X39434641Y12096128D01*
X39527060Y12319248D01*
X39527060Y12560752D01*
X39485639Y12660752D01*
X39822940Y12660752D01*
X39822940Y12419248D01*
X39915359Y12196128D01*
X40086128Y12025359D01*
X40309248Y11932940D01*
X40550752Y11932940D01*
X40773872Y12025359D01*
X40944641Y12196128D01*
X41037060Y12419248D01*
X41037060Y12660752D01*
X40944641Y12883872D01*
X40773872Y13054641D01*
X40550752Y13147060D01*
X40309248Y13147060D01*
X40086128Y13054641D01*
X39915359Y12883872D01*
X39822940Y12660752D01*
X39485639Y12660752D01*
X39434641Y12783872D01*
X39263872Y12954641D01*
X39040752Y13047060D01*
X38799248Y13047060D01*
X38576128Y12954641D01*
X38405359Y12783872D01*
X38312940Y12560752D01*
X31248397Y12560752D01*
X33900112Y15212467D01*
X33952517Y15247483D01*
X34091242Y15455099D01*
X34127660Y15638184D01*
X34127660Y15638187D01*
X34129719Y15648540D01*
X36753240Y15648540D01*
X36753240Y15351460D01*
X36866927Y15076994D01*
X37076994Y14866927D01*
X37351460Y14753240D01*
X37648540Y14753240D01*
X37690817Y14770752D01*
X41742940Y14770752D01*
X41742940Y14529248D01*
X41835359Y14306128D01*
X42006128Y14135359D01*
X42229248Y14042940D01*
X42470752Y14042940D01*
X42693872Y14135359D01*
X42864641Y14306128D01*
X42957060Y14529248D01*
X42957060Y14648540D01*
X46753240Y14648540D01*
X46753240Y14351460D01*
X46866927Y14076994D01*
X47076994Y13866927D01*
X47351460Y13753240D01*
X47648540Y13753240D01*
X47923006Y13866927D01*
X48133073Y14076994D01*
X48162708Y14148540D01*
X58753240Y14148540D01*
X58753240Y13851460D01*
X58866927Y13576994D01*
X59076994Y13366927D01*
X59351460Y13253240D01*
X59648540Y13253240D01*
X59923006Y13366927D01*
X60133073Y13576994D01*
X60246760Y13851460D01*
X60246760Y14148540D01*
X60133073Y14423006D01*
X59923006Y14633073D01*
X59648540Y14746760D01*
X59351460Y14746760D01*
X59076994Y14633073D01*
X58866927Y14423006D01*
X58753240Y14148540D01*
X48162708Y14148540D01*
X48246760Y14351460D01*
X48246760Y14648540D01*
X48133073Y14923006D01*
X47923006Y15133073D01*
X47648540Y15246760D01*
X47351460Y15246760D01*
X47076994Y15133073D01*
X46866927Y14923006D01*
X46753240Y14648540D01*
X42957060Y14648540D01*
X42957060Y14770752D01*
X42864641Y14993872D01*
X42693872Y15164641D01*
X42470752Y15257060D01*
X42229248Y15257060D01*
X42006128Y15164641D01*
X41835359Y14993872D01*
X41742940Y14770752D01*
X37690817Y14770752D01*
X37923006Y14866927D01*
X38133073Y15076994D01*
X38246760Y15351460D01*
X38246760Y15648540D01*
X38143208Y15898540D01*
X42503240Y15898540D01*
X42503240Y15601460D01*
X42616927Y15326994D01*
X42826994Y15116927D01*
X43101460Y15003240D01*
X43398540Y15003240D01*
X43673006Y15116927D01*
X43883073Y15326994D01*
X43996760Y15601460D01*
X43996760Y15898540D01*
X43883073Y16173006D01*
X43673006Y16383073D01*
X43398540Y16496760D01*
X43101460Y16496760D01*
X42826994Y16383073D01*
X42616927Y16173006D01*
X42503240Y15898540D01*
X38143208Y15898540D01*
X38133073Y15923006D01*
X37923006Y16133073D01*
X37648540Y16246760D01*
X37351460Y16246760D01*
X37076994Y16133073D01*
X36866927Y15923006D01*
X36753240Y15648540D01*
X34129719Y15648540D01*
X34139955Y15699999D01*
X34127660Y15761811D01*
X34127660Y17148540D01*
X34753240Y17148540D01*
X34753240Y16851460D01*
X34866927Y16576994D01*
X35076994Y16366927D01*
X35351460Y16253240D01*
X35648540Y16253240D01*
X35923006Y16366927D01*
X36090330Y16534251D01*
X58222340Y16534251D01*
X58222340Y16065749D01*
X58401628Y15632909D01*
X58732909Y15301628D01*
X59165749Y15122340D01*
X59634251Y15122340D01*
X60067091Y15301628D01*
X60398372Y15632909D01*
X60517600Y15920752D01*
X61942940Y15920752D01*
X61942940Y15679248D01*
X62035359Y15456128D01*
X62206128Y15285359D01*
X62429248Y15192940D01*
X62670752Y15192940D01*
X62893872Y15285359D01*
X63064641Y15456128D01*
X63157060Y15679248D01*
X63157060Y15920752D01*
X63064641Y16143872D01*
X62893872Y16314641D01*
X62670752Y16407060D01*
X62429248Y16407060D01*
X62206128Y16314641D01*
X62035359Y16143872D01*
X61942940Y15920752D01*
X60517600Y15920752D01*
X60577660Y16065749D01*
X60577660Y16534251D01*
X60398372Y16967091D01*
X60067091Y17298372D01*
X59634251Y17477660D01*
X59165749Y17477660D01*
X58732909Y17298372D01*
X58401628Y16967091D01*
X58222340Y16534251D01*
X36090330Y16534251D01*
X36133073Y16576994D01*
X36246760Y16851460D01*
X36246760Y17148540D01*
X36133073Y17423006D01*
X36007539Y17548540D01*
X51753240Y17548540D01*
X51753240Y17251460D01*
X51866927Y16976994D01*
X52076994Y16766927D01*
X52351460Y16653240D01*
X52648540Y16653240D01*
X52923006Y16766927D01*
X53133073Y16976994D01*
X53246760Y17251460D01*
X53246760Y17345752D01*
X56517940Y17345752D01*
X56517940Y17104248D01*
X56610359Y16881128D01*
X56781128Y16710359D01*
X57004248Y16617940D01*
X57245752Y16617940D01*
X57468872Y16710359D01*
X57639641Y16881128D01*
X57732060Y17104248D01*
X57732060Y17345752D01*
X57639641Y17568872D01*
X57468872Y17739641D01*
X57245752Y17832060D01*
X57004248Y17832060D01*
X56781128Y17739641D01*
X56610359Y17568872D01*
X56517940Y17345752D01*
X53246760Y17345752D01*
X53246760Y17548540D01*
X53133073Y17823006D01*
X52923006Y18033073D01*
X52648540Y18146760D01*
X52351460Y18146760D01*
X52076994Y18033073D01*
X51866927Y17823006D01*
X51753240Y17548540D01*
X36007539Y17548540D01*
X35923006Y17633073D01*
X35648540Y17746760D01*
X35351460Y17746760D01*
X35076994Y17633073D01*
X34866927Y17423006D01*
X34753240Y17148540D01*
X34127660Y17148540D01*
X34127660Y19148540D01*
X34253240Y19148540D01*
X34253240Y18851460D01*
X34366927Y18576994D01*
X34576994Y18366927D01*
X34851460Y18253240D01*
X35148540Y18253240D01*
X35423006Y18366927D01*
X35633073Y18576994D01*
X35662708Y18648540D01*
X36753240Y18648540D01*
X36753240Y18351460D01*
X36866927Y18076994D01*
X37076994Y17866927D01*
X37351460Y17753240D01*
X37648540Y17753240D01*
X37923006Y17866927D01*
X38133073Y18076994D01*
X38246760Y18351460D01*
X38246760Y18648540D01*
X38133073Y18923006D01*
X37923006Y19133073D01*
X37648540Y19246760D01*
X37351460Y19246760D01*
X37076994Y19133073D01*
X36866927Y18923006D01*
X36753240Y18648540D01*
X35662708Y18648540D01*
X35746760Y18851460D01*
X35746760Y19148540D01*
X35633073Y19423006D01*
X35423006Y19633073D01*
X35148540Y19746760D01*
X34851460Y19746760D01*
X34576994Y19633073D01*
X34366927Y19423006D01*
X34253240Y19148540D01*
X34127660Y19148540D01*
X34127660Y20148540D01*
X38753240Y20148540D01*
X38753240Y19851460D01*
X38866927Y19576994D01*
X39076994Y19366927D01*
X39351460Y19253240D01*
X39648540Y19253240D01*
X39923006Y19366927D01*
X40133073Y19576994D01*
X40162708Y19648540D01*
X47253240Y19648540D01*
X47253240Y19351460D01*
X47366927Y19076994D01*
X47576994Y18866927D01*
X47851460Y18753240D01*
X48148540Y18753240D01*
X48423006Y18866927D01*
X48520847Y18964768D01*
X50772340Y18964768D01*
X50772340Y18685232D01*
X50879314Y18426975D01*
X51076975Y18229314D01*
X51335232Y18122340D01*
X51614768Y18122340D01*
X51873025Y18229314D01*
X52070686Y18426975D01*
X52177660Y18685232D01*
X52177660Y18964768D01*
X52070686Y19223025D01*
X51873025Y19420686D01*
X51614768Y19527660D01*
X51335232Y19527660D01*
X51076975Y19420686D01*
X50879314Y19223025D01*
X50772340Y18964768D01*
X48520847Y18964768D01*
X48633073Y19076994D01*
X48746760Y19351460D01*
X48746760Y19648540D01*
X48737560Y19670752D01*
X52842940Y19670752D01*
X52842940Y19429248D01*
X52935359Y19206128D01*
X53106128Y19035359D01*
X53329248Y18942940D01*
X53570752Y18942940D01*
X53793872Y19035359D01*
X53964641Y19206128D01*
X54057060Y19429248D01*
X54057060Y19670752D01*
X53964641Y19893872D01*
X53793872Y20064641D01*
X53570752Y20157060D01*
X53329248Y20157060D01*
X53106128Y20064641D01*
X52935359Y19893872D01*
X52842940Y19670752D01*
X48737560Y19670752D01*
X48633073Y19923006D01*
X48423006Y20133073D01*
X48148540Y20246760D01*
X47851460Y20246760D01*
X47576994Y20133073D01*
X47366927Y19923006D01*
X47253240Y19648540D01*
X40162708Y19648540D01*
X40246760Y19851460D01*
X40246760Y20148540D01*
X40133073Y20423006D01*
X39923006Y20633073D01*
X39648540Y20746760D01*
X39351460Y20746760D01*
X39076994Y20633073D01*
X38866927Y20423006D01*
X38753240Y20148540D01*
X34127660Y20148540D01*
X34127660Y20740015D01*
X35133397Y21745752D01*
X37342940Y21745752D01*
X37342940Y21504248D01*
X37435359Y21281128D01*
X37606128Y21110359D01*
X37829248Y21017940D01*
X38070752Y21017940D01*
X38293872Y21110359D01*
X38464641Y21281128D01*
X38557060Y21504248D01*
X38557060Y21745752D01*
X38464641Y21968872D01*
X38293872Y22139641D01*
X38070752Y22232060D01*
X37829248Y22232060D01*
X37606128Y22139641D01*
X37435359Y21968872D01*
X37342940Y21745752D01*
X35133397Y21745752D01*
X35160115Y21772469D01*
X35212517Y21807483D01*
X35247531Y21859885D01*
X35247533Y21859887D01*
X35351242Y22015099D01*
X35363554Y22076994D01*
X35387660Y22198184D01*
X35387660Y22198187D01*
X35399955Y22259999D01*
X35387660Y22321811D01*
X35387660Y22648540D01*
X38753240Y22648540D01*
X38753240Y22351460D01*
X38866927Y22076994D01*
X39076994Y21866927D01*
X39351460Y21753240D01*
X39648540Y21753240D01*
X39923006Y21866927D01*
X40133073Y22076994D01*
X40246760Y22351460D01*
X40246760Y22648540D01*
X41253240Y22648540D01*
X41253240Y22351460D01*
X41366927Y22076994D01*
X41576994Y21866927D01*
X41851460Y21753240D01*
X42148540Y21753240D01*
X42311529Y21820752D01*
X49742940Y21820752D01*
X49742940Y21579248D01*
X49835359Y21356128D01*
X50006128Y21185359D01*
X50229248Y21092940D01*
X50470752Y21092940D01*
X50693872Y21185359D01*
X50864641Y21356128D01*
X50957060Y21579248D01*
X50957060Y21820752D01*
X50924840Y21898540D01*
X56253240Y21898540D01*
X56253240Y21601460D01*
X56366927Y21326994D01*
X56576994Y21116927D01*
X56851460Y21003240D01*
X57148540Y21003240D01*
X57423006Y21116927D01*
X57633073Y21326994D01*
X57746760Y21601460D01*
X57746760Y21898540D01*
X57633073Y22173006D01*
X57423006Y22383073D01*
X57148540Y22496760D01*
X56851460Y22496760D01*
X56576994Y22383073D01*
X56366927Y22173006D01*
X56253240Y21898540D01*
X50924840Y21898540D01*
X50864641Y22043872D01*
X50693872Y22214641D01*
X50470752Y22307060D01*
X50229248Y22307060D01*
X50006128Y22214641D01*
X49835359Y22043872D01*
X49742940Y21820752D01*
X42311529Y21820752D01*
X42423006Y21866927D01*
X42633073Y22076994D01*
X42746760Y22351460D01*
X42746760Y22648540D01*
X42633073Y22923006D01*
X42423006Y23133073D01*
X42148540Y23246760D01*
X41851460Y23246760D01*
X41576994Y23133073D01*
X41366927Y22923006D01*
X41253240Y22648540D01*
X40246760Y22648540D01*
X40133073Y22923006D01*
X39923006Y23133073D01*
X39648540Y23246760D01*
X39351460Y23246760D01*
X39076994Y23133073D01*
X38866927Y22923006D01*
X38753240Y22648540D01*
X35387660Y22648540D01*
X35387660Y23745752D01*
X36317940Y23745752D01*
X36317940Y23504248D01*
X36410359Y23281128D01*
X36581128Y23110359D01*
X36804248Y23017940D01*
X37045752Y23017940D01*
X37268872Y23110359D01*
X37439641Y23281128D01*
X37532060Y23504248D01*
X37532060Y23745752D01*
X37439641Y23968872D01*
X37268872Y24139641D01*
X37247388Y24148540D01*
X47753240Y24148540D01*
X47753240Y23851460D01*
X47866927Y23576994D01*
X48076994Y23366927D01*
X48351460Y23253240D01*
X48648540Y23253240D01*
X48923006Y23366927D01*
X49090330Y23534251D01*
X58222340Y23534251D01*
X58222340Y23065749D01*
X58401628Y22632909D01*
X58732909Y22301628D01*
X59165749Y22122340D01*
X59634251Y22122340D01*
X60067091Y22301628D01*
X60398372Y22632909D01*
X60577660Y23065749D01*
X60577660Y23534251D01*
X60398372Y23967091D01*
X60067091Y24298372D01*
X59634251Y24477660D01*
X59165749Y24477660D01*
X58732909Y24298372D01*
X58401628Y23967091D01*
X58222340Y23534251D01*
X49090330Y23534251D01*
X49133073Y23576994D01*
X49246760Y23851460D01*
X49246760Y24148540D01*
X49133073Y24423006D01*
X48923006Y24633073D01*
X48648540Y24746760D01*
X48351460Y24746760D01*
X48076994Y24633073D01*
X47866927Y24423006D01*
X47753240Y24148540D01*
X37247388Y24148540D01*
X37045752Y24232060D01*
X36804248Y24232060D01*
X36581128Y24139641D01*
X36410359Y23968872D01*
X36317940Y23745752D01*
X35387660Y23745752D01*
X35387660Y26653030D01*
X35609045Y26800955D01*
X35869331Y27190500D01*
X35960731Y27650000D01*
X36099269Y27650000D01*
X36190669Y27190500D01*
X36450955Y26800955D01*
X36840500Y26540669D01*
X37184014Y26472340D01*
X37415986Y26472340D01*
X37759500Y26540669D01*
X38149045Y26800955D01*
X38409331Y27190500D01*
X38500731Y27650000D01*
X38639269Y27650000D01*
X38730669Y27190500D01*
X38990955Y26800955D01*
X39380500Y26540669D01*
X39724014Y26472340D01*
X39955986Y26472340D01*
X40299500Y26540669D01*
X40689045Y26800955D01*
X40949331Y27190500D01*
X41040731Y27650000D01*
X41179269Y27650000D01*
X41270669Y27190500D01*
X41530955Y26800955D01*
X41920500Y26540669D01*
X42264014Y26472340D01*
X42495986Y26472340D01*
X42839500Y26540669D01*
X43229045Y26800955D01*
X43489331Y27190500D01*
X43580731Y27650000D01*
X43719269Y27650000D01*
X43810669Y27190500D01*
X44070955Y26800955D01*
X44460500Y26540669D01*
X44804014Y26472340D01*
X45035986Y26472340D01*
X45379500Y26540669D01*
X45769045Y26800955D01*
X46029331Y27190500D01*
X46120731Y27650000D01*
X46259269Y27650000D01*
X46350669Y27190500D01*
X46610955Y26800955D01*
X47000500Y26540669D01*
X47344014Y26472340D01*
X47575986Y26472340D01*
X47919500Y26540669D01*
X48309045Y26800955D01*
X48569331Y27190500D01*
X48660731Y27650000D01*
X48569331Y28109500D01*
X48309045Y28499045D01*
X48307616Y28500000D01*
X48815921Y28500000D01*
X48815921Y26800000D01*
X48841351Y26672154D01*
X48913770Y26563770D01*
X49022154Y26491351D01*
X49150000Y26465921D01*
X50850000Y26465921D01*
X50977846Y26491351D01*
X51086230Y26563770D01*
X51158649Y26672154D01*
X51184079Y26800000D01*
X51184079Y27320752D01*
X58667940Y27320752D01*
X58667940Y27079248D01*
X58760359Y26856128D01*
X58931128Y26685359D01*
X59154248Y26592940D01*
X59395752Y26592940D01*
X59618872Y26685359D01*
X59789641Y26856128D01*
X59882060Y27079248D01*
X59882060Y27320752D01*
X59789641Y27543872D01*
X59684973Y27648540D01*
X61253240Y27648540D01*
X61253240Y27351460D01*
X61366927Y27076994D01*
X61576994Y26866927D01*
X61851460Y26753240D01*
X62148540Y26753240D01*
X62423006Y26866927D01*
X62633073Y27076994D01*
X62746760Y27351460D01*
X62746760Y27648540D01*
X62633073Y27923006D01*
X62423006Y28133073D01*
X62148540Y28246760D01*
X61851460Y28246760D01*
X61576994Y28133073D01*
X61366927Y27923006D01*
X61253240Y27648540D01*
X59684973Y27648540D01*
X59618872Y27714641D01*
X59395752Y27807060D01*
X59154248Y27807060D01*
X58931128Y27714641D01*
X58760359Y27543872D01*
X58667940Y27320752D01*
X51184079Y27320752D01*
X51184079Y28448540D01*
X52353240Y28448540D01*
X52353240Y28151460D01*
X52466927Y27876994D01*
X52676994Y27666927D01*
X52951460Y27553240D01*
X53248540Y27553240D01*
X53523006Y27666927D01*
X53733073Y27876994D01*
X53846760Y28151460D01*
X53846760Y28448540D01*
X53733073Y28723006D01*
X53523006Y28933073D01*
X53248540Y29046760D01*
X52951460Y29046760D01*
X52676994Y28933073D01*
X52466927Y28723006D01*
X52353240Y28448540D01*
X51184079Y28448540D01*
X51184079Y28500000D01*
X51158649Y28627846D01*
X51086230Y28736230D01*
X50977846Y28808649D01*
X50850000Y28834079D01*
X49150000Y28834079D01*
X49022154Y28808649D01*
X48913770Y28736230D01*
X48841351Y28627846D01*
X48815921Y28500000D01*
X48307616Y28500000D01*
X47919500Y28759331D01*
X47575986Y28827660D01*
X47344014Y28827660D01*
X47000500Y28759331D01*
X46610955Y28499045D01*
X46350669Y28109500D01*
X46259269Y27650000D01*
X46120731Y27650000D01*
X46029331Y28109500D01*
X45769045Y28499045D01*
X45379500Y28759331D01*
X45035986Y28827660D01*
X44804014Y28827660D01*
X44460500Y28759331D01*
X44070955Y28499045D01*
X43810669Y28109500D01*
X43719269Y27650000D01*
X43580731Y27650000D01*
X43489331Y28109500D01*
X43229045Y28499045D01*
X42839500Y28759331D01*
X42495986Y28827660D01*
X42264014Y28827660D01*
X41920500Y28759331D01*
X41530955Y28499045D01*
X41270669Y28109500D01*
X41179269Y27650000D01*
X41040731Y27650000D01*
X40949331Y28109500D01*
X40689045Y28499045D01*
X40299500Y28759331D01*
X39955986Y28827660D01*
X39724014Y28827660D01*
X39380500Y28759331D01*
X38990955Y28499045D01*
X38730669Y28109500D01*
X38639269Y27650000D01*
X38500731Y27650000D01*
X38409331Y28109500D01*
X38149045Y28499045D01*
X37759500Y28759331D01*
X37415986Y28827660D01*
X37184014Y28827660D01*
X36840500Y28759331D01*
X36450955Y28499045D01*
X36190669Y28109500D01*
X36099269Y27650000D01*
X35960731Y27650000D01*
X35869331Y28109500D01*
X35609045Y28499045D01*
X35219500Y28759331D01*
X34875986Y28827660D01*
X34644014Y28827660D01*
X34300500Y28759331D01*
X33910955Y28499045D01*
X33650669Y28109500D01*
X33559269Y27650000D01*
X33650669Y27190500D01*
X33910955Y26800955D01*
X34132341Y26653030D01*
X34132340Y22519986D01*
X33099886Y21487531D01*
X33047484Y21452517D01*
X33012470Y21400115D01*
X33012467Y21400112D01*
X32908758Y21244900D01*
X32860045Y21000000D01*
X32872341Y20938183D01*
X32872340Y15959985D01*
X25840015Y8927660D01*
X24720833Y8927660D01*
X24539768Y9002660D01*
X24260232Y9002660D01*
X24001975Y8895686D01*
X23804314Y8698025D01*
X23697340Y8439768D01*
X21866311Y8439768D01*
X21673006Y8633073D01*
X21398540Y8746760D01*
X21101460Y8746760D01*
X20826994Y8633073D01*
X20616927Y8423006D01*
X20503240Y8148540D01*
X19246760Y8148540D01*
X19133073Y8423006D01*
X18923006Y8633073D01*
X18648540Y8746760D01*
X18351460Y8746760D01*
X18076994Y8633073D01*
X17866927Y8423006D01*
X17753240Y8148540D01*
X14962708Y8148540D01*
X15046760Y8351460D01*
X15046760Y8648540D01*
X14933073Y8923006D01*
X14723006Y9133073D01*
X14448540Y9246760D01*
X14151460Y9246760D01*
X13876994Y9133073D01*
X13701567Y8957646D01*
X13633073Y9123006D01*
X13423006Y9333073D01*
X13148540Y9446760D01*
X12851460Y9446760D01*
X12576994Y9333073D01*
X12366927Y9123006D01*
X12253240Y8848540D01*
X10746760Y8848540D01*
X10746760Y8898540D01*
X10633073Y9173006D01*
X10423006Y9383073D01*
X10148540Y9496760D01*
X9851460Y9496760D01*
X9576994Y9383073D01*
X9366927Y9173006D01*
X9253240Y8898540D01*
X7954619Y8898540D01*
X8133073Y9076994D01*
X8246760Y9351460D01*
X8246760Y9648540D01*
X8133073Y9923006D01*
X7923006Y10133073D01*
X7648540Y10246760D01*
X7351460Y10246760D01*
X7076994Y10133073D01*
X6866927Y9923006D01*
X6753240Y9648540D01*
X5162708Y9648540D01*
X5246760Y9851460D01*
X5246760Y10148540D01*
X5133073Y10423006D01*
X4923006Y10633073D01*
X4885666Y10648540D01*
X20253240Y10648540D01*
X20253240Y10351460D01*
X20366927Y10076994D01*
X20576994Y9866927D01*
X20851460Y9753240D01*
X21148540Y9753240D01*
X21423006Y9866927D01*
X21633073Y10076994D01*
X21662708Y10148540D01*
X23503240Y10148540D01*
X23503240Y9851460D01*
X23616927Y9576994D01*
X23826994Y9366927D01*
X24101460Y9253240D01*
X24398540Y9253240D01*
X24673006Y9366927D01*
X24883073Y9576994D01*
X24996760Y9851460D01*
X24996760Y10148540D01*
X24883073Y10423006D01*
X24673006Y10633073D01*
X24398540Y10746760D01*
X24101460Y10746760D01*
X23826994Y10633073D01*
X23616927Y10423006D01*
X23503240Y10148540D01*
X21662708Y10148540D01*
X21746760Y10351460D01*
X21746760Y10648540D01*
X21633073Y10923006D01*
X21423006Y11133073D01*
X21148540Y11246760D01*
X20851460Y11246760D01*
X20576994Y11133073D01*
X20366927Y10923006D01*
X20253240Y10648540D01*
X4885666Y10648540D01*
X4648540Y10746760D01*
X4351460Y10746760D01*
X4076994Y10633073D01*
X3866927Y10423006D01*
X3753240Y10148540D01*
X517500Y10148540D01*
X517500Y12898540D01*
X5753240Y12898540D01*
X5753240Y12601460D01*
X5866927Y12326994D01*
X6076994Y12116927D01*
X6351460Y12003240D01*
X6648540Y12003240D01*
X6923006Y12116927D01*
X6954619Y12148540D01*
X9003240Y12148540D01*
X9003240Y11851460D01*
X9116927Y11576994D01*
X9326994Y11366927D01*
X9601460Y11253240D01*
X9898540Y11253240D01*
X10173006Y11366927D01*
X10383073Y11576994D01*
X10496760Y11851460D01*
X10496760Y12148540D01*
X10383073Y12423006D01*
X10357539Y12448540D01*
X14253240Y12448540D01*
X14253240Y12151460D01*
X14366927Y11876994D01*
X14576994Y11666927D01*
X14851460Y11553240D01*
X15148540Y11553240D01*
X15423006Y11666927D01*
X15633073Y11876994D01*
X15745550Y12148540D01*
X16253240Y12148540D01*
X16253240Y11851460D01*
X16366927Y11576994D01*
X16576994Y11366927D01*
X16851460Y11253240D01*
X17148540Y11253240D01*
X17423006Y11366927D01*
X17633073Y11576994D01*
X17746760Y11851460D01*
X17746760Y11898540D01*
X25253240Y11898540D01*
X25253240Y11601460D01*
X25366927Y11326994D01*
X25576994Y11116927D01*
X25851460Y11003240D01*
X26148540Y11003240D01*
X26423006Y11116927D01*
X26633073Y11326994D01*
X26746760Y11601460D01*
X26746760Y11898540D01*
X26633073Y12173006D01*
X26423006Y12383073D01*
X26148540Y12496760D01*
X25851460Y12496760D01*
X25576994Y12383073D01*
X25366927Y12173006D01*
X25253240Y11898540D01*
X17746760Y11898540D01*
X17746760Y12148540D01*
X17633073Y12423006D01*
X17423006Y12633073D01*
X17148540Y12746760D01*
X16851460Y12746760D01*
X16576994Y12633073D01*
X16366927Y12423006D01*
X16253240Y12148540D01*
X15745550Y12148540D01*
X15746760Y12151460D01*
X15746760Y12448540D01*
X15633073Y12723006D01*
X15423006Y12933073D01*
X15148540Y13046760D01*
X14851460Y13046760D01*
X14576994Y12933073D01*
X14366927Y12723006D01*
X14253240Y12448540D01*
X10357539Y12448540D01*
X10173006Y12633073D01*
X9898540Y12746760D01*
X9601460Y12746760D01*
X9326994Y12633073D01*
X9116927Y12423006D01*
X9003240Y12148540D01*
X6954619Y12148540D01*
X7133073Y12326994D01*
X7246760Y12601460D01*
X7246760Y12898540D01*
X7133073Y13173006D01*
X6923006Y13383073D01*
X6648540Y13496760D01*
X6351460Y13496760D01*
X6076994Y13383073D01*
X5866927Y13173006D01*
X5753240Y12898540D01*
X517500Y12898540D01*
X517500Y13720752D01*
X20492940Y13720752D01*
X20492940Y13479248D01*
X20585359Y13256128D01*
X20756128Y13085359D01*
X20979248Y12992940D01*
X21220752Y12992940D01*
X21293985Y13023274D01*
X21292940Y13020752D01*
X21292940Y12779248D01*
X21385359Y12556128D01*
X21556128Y12385359D01*
X21779248Y12292940D01*
X22020752Y12292940D01*
X22243872Y12385359D01*
X22414641Y12556128D01*
X22507060Y12779248D01*
X22507060Y13020752D01*
X22414641Y13243872D01*
X22243872Y13414641D01*
X22020752Y13507060D01*
X21779248Y13507060D01*
X21706015Y13476726D01*
X21707060Y13479248D01*
X21707060Y13720752D01*
X21614641Y13943872D01*
X21443872Y14114641D01*
X21220752Y14207060D01*
X20979248Y14207060D01*
X20756128Y14114641D01*
X20585359Y13943872D01*
X20492940Y13720752D01*
X517500Y13720752D01*
X517500Y14648540D01*
X17753240Y14648540D01*
X17753240Y14351460D01*
X17866927Y14076994D01*
X18076994Y13866927D01*
X18351460Y13753240D01*
X18648540Y13753240D01*
X18923006Y13866927D01*
X19133073Y14076994D01*
X19246760Y14351460D01*
X19246760Y14370752D01*
X23892940Y14370752D01*
X23892940Y14129248D01*
X23985359Y13906128D01*
X24156128Y13735359D01*
X24379248Y13642940D01*
X24620752Y13642940D01*
X24843872Y13735359D01*
X25014641Y13906128D01*
X25107060Y14129248D01*
X25107060Y14370752D01*
X25014641Y14593872D01*
X24843872Y14764641D01*
X24620752Y14857060D01*
X24379248Y14857060D01*
X24156128Y14764641D01*
X23985359Y14593872D01*
X23892940Y14370752D01*
X19246760Y14370752D01*
X19246760Y14648540D01*
X19133073Y14923006D01*
X18923006Y15133073D01*
X18648540Y15246760D01*
X18351460Y15246760D01*
X18076994Y15133073D01*
X17866927Y14923006D01*
X17753240Y14648540D01*
X517500Y14648540D01*
X517500Y15598540D01*
X7453240Y15598540D01*
X7453240Y15301460D01*
X7566927Y15026994D01*
X7776994Y14816927D01*
X8051460Y14703240D01*
X8348540Y14703240D01*
X8623006Y14816927D01*
X8833073Y15026994D01*
X8946760Y15301460D01*
X8946760Y15598540D01*
X8884629Y15748540D01*
X14153240Y15748540D01*
X14153240Y15451460D01*
X14266927Y15176994D01*
X14476994Y14966927D01*
X14751460Y14853240D01*
X15048540Y14853240D01*
X15323006Y14966927D01*
X15533073Y15176994D01*
X15646760Y15451460D01*
X15646760Y15748540D01*
X15533073Y16023006D01*
X15323006Y16233073D01*
X15048540Y16346760D01*
X14751460Y16346760D01*
X14476994Y16233073D01*
X14266927Y16023006D01*
X14153240Y15748540D01*
X8884629Y15748540D01*
X8833073Y15873006D01*
X8623006Y16083073D01*
X8348540Y16196760D01*
X8051460Y16196760D01*
X7776994Y16083073D01*
X7566927Y15873006D01*
X7453240Y15598540D01*
X517500Y15598540D01*
X517500Y16548540D01*
X19453240Y16548540D01*
X19453240Y16251460D01*
X19566927Y15976994D01*
X19776994Y15766927D01*
X20051460Y15653240D01*
X20348540Y15653240D01*
X20623006Y15766927D01*
X20833073Y15976994D01*
X20946760Y16251460D01*
X20946760Y16548540D01*
X20905339Y16648540D01*
X21703240Y16648540D01*
X21703240Y16351460D01*
X21816927Y16076994D01*
X22026994Y15866927D01*
X22301460Y15753240D01*
X22598540Y15753240D01*
X22761529Y15820752D01*
X25992940Y15820752D01*
X25992940Y15579248D01*
X26085359Y15356128D01*
X26256128Y15185359D01*
X26479248Y15092940D01*
X26720752Y15092940D01*
X26943872Y15185359D01*
X27114641Y15356128D01*
X27132208Y15398540D01*
X27753240Y15398540D01*
X27753240Y15101460D01*
X27866927Y14826994D01*
X28076994Y14616927D01*
X28351460Y14503240D01*
X28648540Y14503240D01*
X28923006Y14616927D01*
X29133073Y14826994D01*
X29246760Y15101460D01*
X29246760Y15398540D01*
X29133073Y15673006D01*
X28923006Y15883073D01*
X28648540Y15996760D01*
X28351460Y15996760D01*
X28076994Y15883073D01*
X27866927Y15673006D01*
X27753240Y15398540D01*
X27132208Y15398540D01*
X27207060Y15579248D01*
X27207060Y15820752D01*
X27114641Y16043872D01*
X27009973Y16148540D01*
X29253240Y16148540D01*
X29253240Y15851460D01*
X29366927Y15576994D01*
X29576994Y15366927D01*
X29851460Y15253240D01*
X30148540Y15253240D01*
X30423006Y15366927D01*
X30633073Y15576994D01*
X30746760Y15851460D01*
X30746760Y16148540D01*
X30753240Y16148540D01*
X30753240Y15851460D01*
X30866927Y15576994D01*
X31076994Y15366927D01*
X31351460Y15253240D01*
X31648540Y15253240D01*
X31923006Y15366927D01*
X32133073Y15576994D01*
X32246760Y15851460D01*
X32246760Y16148540D01*
X32133073Y16423006D01*
X31923006Y16633073D01*
X31648540Y16746760D01*
X31351460Y16746760D01*
X31076994Y16633073D01*
X30866927Y16423006D01*
X30753240Y16148540D01*
X30746760Y16148540D01*
X30633073Y16423006D01*
X30423006Y16633073D01*
X30148540Y16746760D01*
X29851460Y16746760D01*
X29576994Y16633073D01*
X29366927Y16423006D01*
X29253240Y16148540D01*
X27009973Y16148540D01*
X26943872Y16214641D01*
X26720752Y16307060D01*
X26479248Y16307060D01*
X26256128Y16214641D01*
X26085359Y16043872D01*
X25992940Y15820752D01*
X22761529Y15820752D01*
X22873006Y15866927D01*
X23083073Y16076994D01*
X23196760Y16351460D01*
X23196760Y16648540D01*
X23083073Y16923006D01*
X22873006Y17133073D01*
X22598540Y17246760D01*
X22301460Y17246760D01*
X22026994Y17133073D01*
X21816927Y16923006D01*
X21703240Y16648540D01*
X20905339Y16648540D01*
X20833073Y16823006D01*
X20623006Y17033073D01*
X20348540Y17146760D01*
X20051460Y17146760D01*
X19776994Y17033073D01*
X19566927Y16823006D01*
X19453240Y16548540D01*
X517500Y16548540D01*
X517500Y17370752D01*
X9517940Y17370752D01*
X9517940Y17129248D01*
X9610359Y16906128D01*
X9781128Y16735359D01*
X10004248Y16642940D01*
X10245752Y16642940D01*
X10468872Y16735359D01*
X10639641Y16906128D01*
X10732060Y17129248D01*
X10732060Y17370752D01*
X10639641Y17593872D01*
X10468872Y17764641D01*
X10245752Y17857060D01*
X10004248Y17857060D01*
X9781128Y17764641D01*
X9610359Y17593872D01*
X9517940Y17370752D01*
X517500Y17370752D01*
X517500Y18020752D01*
X12092940Y18020752D01*
X12092940Y17779248D01*
X12185359Y17556128D01*
X12356128Y17385359D01*
X12579248Y17292940D01*
X12820752Y17292940D01*
X13043872Y17385359D01*
X13214641Y17556128D01*
X13307060Y17779248D01*
X13307060Y18020752D01*
X13214641Y18243872D01*
X13209973Y18248540D01*
X14253240Y18248540D01*
X14253240Y17951460D01*
X14366927Y17676994D01*
X14576994Y17466927D01*
X14851460Y17353240D01*
X15148540Y17353240D01*
X15423006Y17466927D01*
X15604619Y17648540D01*
X17953240Y17648540D01*
X17953240Y17351460D01*
X18066927Y17076994D01*
X18276994Y16866927D01*
X18551460Y16753240D01*
X18848540Y16753240D01*
X19123006Y16866927D01*
X19333073Y17076994D01*
X19446760Y17351460D01*
X19446760Y17648540D01*
X19333073Y17923006D01*
X19123006Y18133073D01*
X18848540Y18246760D01*
X18551460Y18246760D01*
X18276994Y18133073D01*
X18066927Y17923006D01*
X17953240Y17648540D01*
X15604619Y17648540D01*
X15633073Y17676994D01*
X15746760Y17951460D01*
X15746760Y18248540D01*
X15633073Y18523006D01*
X15507539Y18648540D01*
X24753240Y18648540D01*
X24753240Y18351460D01*
X24866927Y18076994D01*
X25076994Y17866927D01*
X25351460Y17753240D01*
X25648540Y17753240D01*
X25923006Y17866927D01*
X26133073Y18076994D01*
X26246760Y18351460D01*
X26246760Y18648540D01*
X26133073Y18923006D01*
X25923006Y19133073D01*
X25885666Y19148540D01*
X28753240Y19148540D01*
X28753240Y18851460D01*
X28866927Y18576994D01*
X29076994Y18366927D01*
X29351460Y18253240D01*
X29648540Y18253240D01*
X29923006Y18366927D01*
X30133073Y18576994D01*
X30246760Y18851460D01*
X30246760Y19148540D01*
X31253240Y19148540D01*
X31253240Y18851460D01*
X31366927Y18576994D01*
X31576994Y18366927D01*
X31851460Y18253240D01*
X32148540Y18253240D01*
X32423006Y18366927D01*
X32633073Y18576994D01*
X32746760Y18851460D01*
X32746760Y19148540D01*
X32633073Y19423006D01*
X32423006Y19633073D01*
X32148540Y19746760D01*
X31851460Y19746760D01*
X31576994Y19633073D01*
X31366927Y19423006D01*
X31253240Y19148540D01*
X30246760Y19148540D01*
X30133073Y19423006D01*
X29923006Y19633073D01*
X29648540Y19746760D01*
X29351460Y19746760D01*
X29076994Y19633073D01*
X28866927Y19423006D01*
X28753240Y19148540D01*
X25885666Y19148540D01*
X25648540Y19246760D01*
X25351460Y19246760D01*
X25076994Y19133073D01*
X24866927Y18923006D01*
X24753240Y18648540D01*
X15507539Y18648540D01*
X15423006Y18733073D01*
X15148540Y18846760D01*
X14851460Y18846760D01*
X14576994Y18733073D01*
X14366927Y18523006D01*
X14253240Y18248540D01*
X13209973Y18248540D01*
X13043872Y18414641D01*
X12820752Y18507060D01*
X12579248Y18507060D01*
X12356128Y18414641D01*
X12185359Y18243872D01*
X12092940Y18020752D01*
X517500Y18020752D01*
X517500Y19120752D01*
X11492940Y19120752D01*
X11492940Y18879248D01*
X11585359Y18656128D01*
X11756128Y18485359D01*
X11979248Y18392940D01*
X12220752Y18392940D01*
X12443872Y18485359D01*
X12614641Y18656128D01*
X12707060Y18879248D01*
X12707060Y19120752D01*
X12614641Y19343872D01*
X12443872Y19514641D01*
X12362033Y19548540D01*
X12953240Y19548540D01*
X12953240Y19251460D01*
X13066927Y18976994D01*
X13276994Y18766927D01*
X13551460Y18653240D01*
X13848540Y18653240D01*
X14123006Y18766927D01*
X14333073Y18976994D01*
X14446760Y19251460D01*
X14446760Y19548540D01*
X14333073Y19823006D01*
X14123006Y20033073D01*
X13848540Y20146760D01*
X13551460Y20146760D01*
X13276994Y20033073D01*
X13066927Y19823006D01*
X12953240Y19548540D01*
X12362033Y19548540D01*
X12220752Y19607060D01*
X11979248Y19607060D01*
X11756128Y19514641D01*
X11585359Y19343872D01*
X11492940Y19120752D01*
X517500Y19120752D01*
X517500Y20148540D01*
X3753240Y20148540D01*
X3753240Y19851460D01*
X3866927Y19576994D01*
X4076994Y19366927D01*
X4351460Y19253240D01*
X4648540Y19253240D01*
X4923006Y19366927D01*
X5133073Y19576994D01*
X5246760Y19851460D01*
X5246760Y20148540D01*
X5133073Y20423006D01*
X4923006Y20633073D01*
X4648540Y20746760D01*
X4351460Y20746760D01*
X4076994Y20633073D01*
X3866927Y20423006D01*
X3753240Y20148540D01*
X517500Y20148540D01*
X517500Y21148540D01*
X11753240Y21148540D01*
X11753240Y20851460D01*
X11866927Y20576994D01*
X12076994Y20366927D01*
X12351460Y20253240D01*
X12648540Y20253240D01*
X12923006Y20366927D01*
X13133073Y20576994D01*
X13246760Y20851460D01*
X13246760Y21148540D01*
X13753240Y21148540D01*
X13753240Y20851460D01*
X13866927Y20576994D01*
X14076994Y20366927D01*
X14351460Y20253240D01*
X14648540Y20253240D01*
X14923006Y20366927D01*
X15133073Y20576994D01*
X15246760Y20851460D01*
X15246760Y21148540D01*
X19753240Y21148540D01*
X19753240Y20851460D01*
X19866927Y20576994D01*
X20076994Y20366927D01*
X20351460Y20253240D01*
X20648540Y20253240D01*
X20923006Y20366927D01*
X21133073Y20576994D01*
X21246760Y20851460D01*
X21246760Y21148540D01*
X22253240Y21148540D01*
X22253240Y20851460D01*
X22366927Y20576994D01*
X22576994Y20366927D01*
X22851460Y20253240D01*
X23148540Y20253240D01*
X23257904Y20298540D01*
X23653240Y20298540D01*
X23653240Y20001460D01*
X23766927Y19726994D01*
X23976994Y19516927D01*
X24251460Y19403240D01*
X24548540Y19403240D01*
X24823006Y19516927D01*
X25033073Y19726994D01*
X25146760Y20001460D01*
X25146760Y20298540D01*
X25033073Y20573006D01*
X24823006Y20783073D01*
X24548540Y20896760D01*
X24251460Y20896760D01*
X23976994Y20783073D01*
X23766927Y20573006D01*
X23653240Y20298540D01*
X23257904Y20298540D01*
X23423006Y20366927D01*
X23633073Y20576994D01*
X23746760Y20851460D01*
X23746760Y21148540D01*
X23633073Y21423006D01*
X23423006Y21633073D01*
X23148540Y21746760D01*
X22851460Y21746760D01*
X22576994Y21633073D01*
X22366927Y21423006D01*
X22253240Y21148540D01*
X21246760Y21148540D01*
X21133073Y21423006D01*
X20923006Y21633073D01*
X20648540Y21746760D01*
X20351460Y21746760D01*
X20076994Y21633073D01*
X19866927Y21423006D01*
X19753240Y21148540D01*
X15246760Y21148540D01*
X15133073Y21423006D01*
X14923006Y21633073D01*
X14648540Y21746760D01*
X14351460Y21746760D01*
X14076994Y21633073D01*
X13866927Y21423006D01*
X13753240Y21148540D01*
X13246760Y21148540D01*
X13133073Y21423006D01*
X12923006Y21633073D01*
X12648540Y21746760D01*
X12351460Y21746760D01*
X12076994Y21633073D01*
X11866927Y21423006D01*
X11753240Y21148540D01*
X517500Y21148540D01*
X517500Y22648540D01*
X1253240Y22648540D01*
X1253240Y22351460D01*
X1366927Y22076994D01*
X1576994Y21866927D01*
X1851460Y21753240D01*
X2148540Y21753240D01*
X2423006Y21866927D01*
X2633073Y22076994D01*
X2746760Y22351460D01*
X2746760Y22648540D01*
X6253240Y22648540D01*
X6253240Y22351460D01*
X6366927Y22076994D01*
X6576994Y21866927D01*
X6851460Y21753240D01*
X7148540Y21753240D01*
X7423006Y21866927D01*
X7633073Y22076994D01*
X7724839Y22298540D01*
X8353240Y22298540D01*
X8353240Y22001460D01*
X8466927Y21726994D01*
X8676994Y21516927D01*
X8951460Y21403240D01*
X9248540Y21403240D01*
X9523006Y21516927D01*
X9733073Y21726994D01*
X9846760Y22001460D01*
X9846760Y22298540D01*
X9805339Y22398540D01*
X16803240Y22398540D01*
X16803240Y22101460D01*
X16916927Y21826994D01*
X17126994Y21616927D01*
X17401460Y21503240D01*
X17698540Y21503240D01*
X17973006Y21616927D01*
X18183073Y21826994D01*
X18296760Y22101460D01*
X18296760Y22148540D01*
X25253240Y22148540D01*
X25253240Y21851460D01*
X25366927Y21576994D01*
X25576994Y21366927D01*
X25851460Y21253240D01*
X26148540Y21253240D01*
X26423006Y21366927D01*
X26633073Y21576994D01*
X26746760Y21851460D01*
X26746760Y22148540D01*
X26633073Y22423006D01*
X26423006Y22633073D01*
X26148540Y22746760D01*
X25851460Y22746760D01*
X25576994Y22633073D01*
X25366927Y22423006D01*
X25253240Y22148540D01*
X18296760Y22148540D01*
X18296760Y22398540D01*
X18183073Y22673006D01*
X17973006Y22883073D01*
X17698540Y22996760D01*
X17401460Y22996760D01*
X17126994Y22883073D01*
X16916927Y22673006D01*
X16803240Y22398540D01*
X9805339Y22398540D01*
X9733073Y22573006D01*
X9523006Y22783073D01*
X9248540Y22896760D01*
X8951460Y22896760D01*
X8676994Y22783073D01*
X8466927Y22573006D01*
X8353240Y22298540D01*
X7724839Y22298540D01*
X7746760Y22351460D01*
X7746760Y22648540D01*
X7633073Y22923006D01*
X7423006Y23133073D01*
X7148540Y23246760D01*
X6851460Y23246760D01*
X6576994Y23133073D01*
X6366927Y22923006D01*
X6253240Y22648540D01*
X2746760Y22648540D01*
X2633073Y22923006D01*
X2423006Y23133073D01*
X2148540Y23246760D01*
X1851460Y23246760D01*
X1576994Y23133073D01*
X1366927Y22923006D01*
X1253240Y22648540D01*
X517500Y22648540D01*
X517500Y23648540D01*
X18753240Y23648540D01*
X18753240Y23351460D01*
X18866927Y23076994D01*
X19076994Y22866927D01*
X19351460Y22753240D01*
X19648540Y22753240D01*
X19923006Y22866927D01*
X20133073Y23076994D01*
X20246760Y23351460D01*
X20246760Y23498540D01*
X22703240Y23498540D01*
X22703240Y23201460D01*
X22816927Y22926994D01*
X23026994Y22716927D01*
X23301460Y22603240D01*
X23598540Y22603240D01*
X23873006Y22716927D01*
X24083073Y22926994D01*
X24196760Y23201460D01*
X24196760Y23498540D01*
X24094362Y23745752D01*
X29117940Y23745752D01*
X29117940Y23504248D01*
X29210359Y23281128D01*
X29366487Y23125000D01*
X29210359Y22968872D01*
X29117940Y22745752D01*
X29117940Y22504248D01*
X29210359Y22281128D01*
X29381128Y22110359D01*
X29604248Y22017940D01*
X29845752Y22017940D01*
X30068872Y22110359D01*
X30239641Y22281128D01*
X30332060Y22504248D01*
X30332060Y22720752D01*
X32517940Y22720752D01*
X32517940Y22479248D01*
X32610359Y22256128D01*
X32781128Y22085359D01*
X33004248Y21992940D01*
X33245752Y21992940D01*
X33468872Y22085359D01*
X33639641Y22256128D01*
X33732060Y22479248D01*
X33732060Y22720752D01*
X33639641Y22943872D01*
X33493867Y23089646D01*
X33543872Y23110359D01*
X33714641Y23281128D01*
X33807060Y23504248D01*
X33807060Y23745752D01*
X33714641Y23968872D01*
X33543872Y24139641D01*
X33320752Y24232060D01*
X33079248Y24232060D01*
X32856128Y24139641D01*
X32685359Y23968872D01*
X32592940Y23745752D01*
X32592940Y23504248D01*
X32685359Y23281128D01*
X32831133Y23135354D01*
X32781128Y23114641D01*
X32610359Y22943872D01*
X32517940Y22720752D01*
X30332060Y22720752D01*
X30332060Y22745752D01*
X30239641Y22968872D01*
X30083513Y23125000D01*
X30239641Y23281128D01*
X30332060Y23504248D01*
X30332060Y23745752D01*
X30239641Y23968872D01*
X30068872Y24139641D01*
X29845752Y24232060D01*
X29604248Y24232060D01*
X29381128Y24139641D01*
X29210359Y23968872D01*
X29117940Y23745752D01*
X24094362Y23745752D01*
X24083073Y23773006D01*
X23873006Y23983073D01*
X23598540Y24096760D01*
X23301460Y24096760D01*
X23026994Y23983073D01*
X22816927Y23773006D01*
X22703240Y23498540D01*
X20246760Y23498540D01*
X20246760Y23648540D01*
X20133073Y23923006D01*
X19923006Y24133073D01*
X19648540Y24246760D01*
X19351460Y24246760D01*
X19076994Y24133073D01*
X18866927Y23923006D01*
X18753240Y23648540D01*
X517500Y23648540D01*
X517500Y26383435D01*
X2072340Y26383435D01*
X2072340Y25616565D01*
X2365809Y24908068D01*
X2908068Y24365809D01*
X3616565Y24072340D01*
X4383435Y24072340D01*
X5091932Y24365809D01*
X5374663Y24648540D01*
X9253240Y24648540D01*
X9253240Y24351460D01*
X9366927Y24076994D01*
X9576994Y23866927D01*
X9851460Y23753240D01*
X10148540Y23753240D01*
X10423006Y23866927D01*
X10633073Y24076994D01*
X10746760Y24351460D01*
X10746760Y24648540D01*
X11253240Y24648540D01*
X11253240Y24351460D01*
X11366927Y24076994D01*
X11576994Y23866927D01*
X11851460Y23753240D01*
X12148540Y23753240D01*
X12423006Y23866927D01*
X12633073Y24076994D01*
X12746760Y24351460D01*
X12746760Y24648540D01*
X14253240Y24648540D01*
X14253240Y24351460D01*
X14366927Y24076994D01*
X14576994Y23866927D01*
X14851460Y23753240D01*
X15148540Y23753240D01*
X15423006Y23866927D01*
X15633073Y24076994D01*
X15746760Y24351460D01*
X15746760Y24648540D01*
X15633073Y24923006D01*
X15423006Y25133073D01*
X15148540Y25246760D01*
X14851460Y25246760D01*
X14576994Y25133073D01*
X14366927Y24923006D01*
X14253240Y24648540D01*
X12746760Y24648540D01*
X12633073Y24923006D01*
X12423006Y25133073D01*
X12148540Y25246760D01*
X11851460Y25246760D01*
X11576994Y25133073D01*
X11366927Y24923006D01*
X11253240Y24648540D01*
X10746760Y24648540D01*
X10633073Y24923006D01*
X10423006Y25133073D01*
X10148540Y25246760D01*
X9851460Y25246760D01*
X9576994Y25133073D01*
X9366927Y24923006D01*
X9253240Y24648540D01*
X5374663Y24648540D01*
X5634191Y24908068D01*
X5927660Y25616565D01*
X5927660Y26383435D01*
X5634191Y27091932D01*
X5091932Y27634191D01*
X5057291Y27648540D01*
X11253240Y27648540D01*
X11253240Y27351460D01*
X11366927Y27076994D01*
X11576994Y26866927D01*
X11851460Y26753240D01*
X12148540Y26753240D01*
X12423006Y26866927D01*
X12633073Y27076994D01*
X12746760Y27351460D01*
X12746760Y27648540D01*
X16253240Y27648540D01*
X16253240Y27351460D01*
X16366927Y27076994D01*
X16576994Y26866927D01*
X16851460Y26753240D01*
X17148540Y26753240D01*
X17423006Y26866927D01*
X17633073Y27076994D01*
X17746760Y27351460D01*
X17746760Y27648540D01*
X17633073Y27923006D01*
X17423006Y28133073D01*
X17148540Y28246760D01*
X16851460Y28246760D01*
X16576994Y28133073D01*
X16366927Y27923006D01*
X16253240Y27648540D01*
X12746760Y27648540D01*
X12633073Y27923006D01*
X12423006Y28133073D01*
X12148540Y28246760D01*
X11851460Y28246760D01*
X11576994Y28133073D01*
X11366927Y27923006D01*
X11253240Y27648540D01*
X5057291Y27648540D01*
X4383435Y27927660D01*
X3616565Y27927660D01*
X2908068Y27634191D01*
X2365809Y27091932D01*
X2072340Y26383435D01*
X517500Y26383435D01*
X517500Y29482500D01*
X27317033Y29482500D01*
X27076994Y29383073D01*
G04 #@! TD*
M02*
