G04 #@! TF.GenerationSoftware,KiCad,Pcbnew,(5.0.0)*
G04 #@! TF.CreationDate,2018-09-16T16:08:27-07:00*
G04 #@! TF.ProjectId,HamShieldMini1.2,48616D536869656C644D696E69312E32,rev?*
G04 #@! TF.SameCoordinates,PX459e440PY8f0d180*
G04 #@! TF.FileFunction,Other,Comment*
%FSLAX46Y46*%
G04 Gerber Fmt 4.6, Leading zero omitted, Abs format (unit mm)*
G04 Created by KiCad (PCBNEW (5.0.0)) date 09/16/18 16:08:27*
%MOMM*%
%LPD*%
G01*
G04 APERTURE LIST*
%ADD10C,0.381000*%
%ADD11C,0.304800*%
%ADD12C,0.150000*%
G04 APERTURE END LIST*
D10*
X33750000Y26100000D02*
X50700000Y26100000D01*
D11*
X71512838Y8613715D02*
X71512838Y9557143D01*
X72286933Y9049143D01*
X72286933Y9266858D01*
X72383695Y9412000D01*
X72480457Y9484572D01*
X72673980Y9557143D01*
X73157790Y9557143D01*
X73351314Y9484572D01*
X73448076Y9412000D01*
X73544838Y9266858D01*
X73544838Y8831429D01*
X73448076Y8686286D01*
X73351314Y8613715D01*
X71512838Y10500572D02*
X71512838Y10645715D01*
X71609600Y10790858D01*
X71706361Y10863429D01*
X71899885Y10936000D01*
X72286933Y11008572D01*
X72770742Y11008572D01*
X73157790Y10936000D01*
X73351314Y10863429D01*
X73448076Y10790858D01*
X73544838Y10645715D01*
X73544838Y10500572D01*
X73448076Y10355429D01*
X73351314Y10282858D01*
X73157790Y10210286D01*
X72770742Y10137715D01*
X72286933Y10137715D01*
X71899885Y10210286D01*
X71706361Y10282858D01*
X71609600Y10355429D01*
X71512838Y10500572D01*
X73351314Y11661715D02*
X73448076Y11734286D01*
X73544838Y11661715D01*
X73448076Y11589143D01*
X73351314Y11661715D01*
X73544838Y11661715D01*
X71512838Y12677715D02*
X71512838Y12822858D01*
X71609600Y12968000D01*
X71706361Y13040572D01*
X71899885Y13113143D01*
X72286933Y13185715D01*
X72770742Y13185715D01*
X73157790Y13113143D01*
X73351314Y13040572D01*
X73448076Y12968000D01*
X73544838Y12822858D01*
X73544838Y12677715D01*
X73448076Y12532572D01*
X73351314Y12460000D01*
X73157790Y12387429D01*
X72770742Y12314858D01*
X72286933Y12314858D01*
X71899885Y12387429D01*
X71706361Y12460000D01*
X71609600Y12532572D01*
X71512838Y12677715D01*
X71512838Y14129143D02*
X71512838Y14274286D01*
X71609600Y14419429D01*
X71706361Y14492000D01*
X71899885Y14564572D01*
X72286933Y14637143D01*
X72770742Y14637143D01*
X73157790Y14564572D01*
X73351314Y14492000D01*
X73448076Y14419429D01*
X73544838Y14274286D01*
X73544838Y14129143D01*
X73448076Y13984000D01*
X73351314Y13911429D01*
X73157790Y13838858D01*
X72770742Y13766286D01*
X72286933Y13766286D01*
X71899885Y13838858D01*
X71706361Y13911429D01*
X71609600Y13984000D01*
X71512838Y14129143D01*
X71512838Y15580572D02*
X71512838Y15725715D01*
X71609600Y15870858D01*
X71706361Y15943429D01*
X71899885Y16016000D01*
X72286933Y16088572D01*
X72770742Y16088572D01*
X73157790Y16016000D01*
X73351314Y15943429D01*
X73448076Y15870858D01*
X73544838Y15725715D01*
X73544838Y15580572D01*
X73448076Y15435429D01*
X73351314Y15362858D01*
X73157790Y15290286D01*
X72770742Y15217715D01*
X72286933Y15217715D01*
X71899885Y15290286D01*
X71706361Y15362858D01*
X71609600Y15435429D01*
X71512838Y15580572D01*
X73544838Y17902858D02*
X72190171Y17902858D01*
X72383695Y17902858D02*
X72286933Y17975429D01*
X72190171Y18120572D01*
X72190171Y18338286D01*
X72286933Y18483429D01*
X72480457Y18556000D01*
X73544838Y18556000D01*
X72480457Y18556000D02*
X72286933Y18628572D01*
X72190171Y18773715D01*
X72190171Y18991429D01*
X72286933Y19136572D01*
X72480457Y19209143D01*
X73544838Y19209143D01*
X73544838Y19934858D02*
X72190171Y19934858D01*
X72383695Y19934858D02*
X72286933Y20007429D01*
X72190171Y20152572D01*
X72190171Y20370286D01*
X72286933Y20515429D01*
X72480457Y20588000D01*
X73544838Y20588000D01*
X72480457Y20588000D02*
X72286933Y20660572D01*
X72190171Y20805715D01*
X72190171Y21023429D01*
X72286933Y21168572D01*
X72480457Y21241143D01*
X73544838Y21241143D01*
X71000000Y0D02*
X71000000Y30000000D01*
X65000000Y0D02*
X74251200Y0D01*
X65000000Y30000000D02*
X74251200Y30000000D01*
X71000000Y30000000D02*
X71586421Y28873496D01*
X71000000Y30000000D02*
X70413579Y28873496D01*
X71000000Y0D02*
X71586421Y1126504D01*
X71000000Y0D02*
X70413579Y1126504D01*
X26912000Y-5512838D02*
X26621714Y-5512838D01*
X26476571Y-5609600D01*
X26404000Y-5706361D01*
X26258857Y-5996647D01*
X26186285Y-6383695D01*
X26186285Y-7157790D01*
X26258857Y-7351314D01*
X26331428Y-7448076D01*
X26476571Y-7544838D01*
X26766857Y-7544838D01*
X26912000Y-7448076D01*
X26984571Y-7351314D01*
X27057142Y-7157790D01*
X27057142Y-6673980D01*
X26984571Y-6480457D01*
X26912000Y-6383695D01*
X26766857Y-6286933D01*
X26476571Y-6286933D01*
X26331428Y-6383695D01*
X26258857Y-6480457D01*
X26186285Y-6673980D01*
X28436000Y-5512838D02*
X27710285Y-5512838D01*
X27637714Y-6480457D01*
X27710285Y-6383695D01*
X27855428Y-6286933D01*
X28218285Y-6286933D01*
X28363428Y-6383695D01*
X28436000Y-6480457D01*
X28508571Y-6673980D01*
X28508571Y-7157790D01*
X28436000Y-7351314D01*
X28363428Y-7448076D01*
X28218285Y-7544838D01*
X27855428Y-7544838D01*
X27710285Y-7448076D01*
X27637714Y-7351314D01*
X29161714Y-7351314D02*
X29234285Y-7448076D01*
X29161714Y-7544838D01*
X29089142Y-7448076D01*
X29161714Y-7351314D01*
X29161714Y-7544838D01*
X30177714Y-5512838D02*
X30322857Y-5512838D01*
X30468000Y-5609600D01*
X30540571Y-5706361D01*
X30613142Y-5899885D01*
X30685714Y-6286933D01*
X30685714Y-6770742D01*
X30613142Y-7157790D01*
X30540571Y-7351314D01*
X30468000Y-7448076D01*
X30322857Y-7544838D01*
X30177714Y-7544838D01*
X30032571Y-7448076D01*
X29960000Y-7351314D01*
X29887428Y-7157790D01*
X29814857Y-6770742D01*
X29814857Y-6286933D01*
X29887428Y-5899885D01*
X29960000Y-5706361D01*
X30032571Y-5609600D01*
X30177714Y-5512838D01*
X31629142Y-5512838D02*
X31774285Y-5512838D01*
X31919428Y-5609600D01*
X31992000Y-5706361D01*
X32064571Y-5899885D01*
X32137142Y-6286933D01*
X32137142Y-6770742D01*
X32064571Y-7157790D01*
X31992000Y-7351314D01*
X31919428Y-7448076D01*
X31774285Y-7544838D01*
X31629142Y-7544838D01*
X31484000Y-7448076D01*
X31411428Y-7351314D01*
X31338857Y-7157790D01*
X31266285Y-6770742D01*
X31266285Y-6286933D01*
X31338857Y-5899885D01*
X31411428Y-5706361D01*
X31484000Y-5609600D01*
X31629142Y-5512838D01*
X33080571Y-5512838D02*
X33225714Y-5512838D01*
X33370857Y-5609600D01*
X33443428Y-5706361D01*
X33516000Y-5899885D01*
X33588571Y-6286933D01*
X33588571Y-6770742D01*
X33516000Y-7157790D01*
X33443428Y-7351314D01*
X33370857Y-7448076D01*
X33225714Y-7544838D01*
X33080571Y-7544838D01*
X32935428Y-7448076D01*
X32862857Y-7351314D01*
X32790285Y-7157790D01*
X32717714Y-6770742D01*
X32717714Y-6286933D01*
X32790285Y-5899885D01*
X32862857Y-5706361D01*
X32935428Y-5609600D01*
X33080571Y-5512838D01*
X35402857Y-7544838D02*
X35402857Y-6190171D01*
X35402857Y-6383695D02*
X35475428Y-6286933D01*
X35620571Y-6190171D01*
X35838285Y-6190171D01*
X35983428Y-6286933D01*
X36056000Y-6480457D01*
X36056000Y-7544838D01*
X36056000Y-6480457D02*
X36128571Y-6286933D01*
X36273714Y-6190171D01*
X36491428Y-6190171D01*
X36636571Y-6286933D01*
X36709142Y-6480457D01*
X36709142Y-7544838D01*
X37434857Y-7544838D02*
X37434857Y-6190171D01*
X37434857Y-6383695D02*
X37507428Y-6286933D01*
X37652571Y-6190171D01*
X37870285Y-6190171D01*
X38015428Y-6286933D01*
X38088000Y-6480457D01*
X38088000Y-7544838D01*
X38088000Y-6480457D02*
X38160571Y-6286933D01*
X38305714Y-6190171D01*
X38523428Y-6190171D01*
X38668571Y-6286933D01*
X38741142Y-6480457D01*
X38741142Y-7544838D01*
X0Y-5000000D02*
X65000000Y-5000000D01*
X0Y0D02*
X0Y-8251200D01*
X65000000Y0D02*
X65000000Y-8251200D01*
X65000000Y-5000000D02*
X63873496Y-5586421D01*
X65000000Y-5000000D02*
X63873496Y-4413579D01*
X0Y-5000000D02*
X1126504Y-5586421D01*
X0Y-5000000D02*
X1126504Y-4413579D01*
X109997262Y60211943D02*
X109489262Y60211943D01*
X109489262Y59147562D02*
X109489262Y61179562D01*
X110214977Y61179562D01*
X111013262Y59147562D02*
X110868120Y59244324D01*
X110795548Y59341086D01*
X110722977Y59534610D01*
X110722977Y60115181D01*
X110795548Y60308705D01*
X110868120Y60405467D01*
X111013262Y60502229D01*
X111230977Y60502229D01*
X111376120Y60405467D01*
X111448691Y60308705D01*
X111521262Y60115181D01*
X111521262Y59534610D01*
X111448691Y59341086D01*
X111376120Y59244324D01*
X111230977Y59147562D01*
X111013262Y59147562D01*
X112827548Y60502229D02*
X112827548Y59147562D01*
X112174405Y60502229D02*
X112174405Y59437848D01*
X112246977Y59244324D01*
X112392120Y59147562D01*
X112609834Y59147562D01*
X112754977Y59244324D01*
X112827548Y59341086D01*
X113553262Y59147562D02*
X113553262Y60502229D01*
X113553262Y60115181D02*
X113625834Y60308705D01*
X113698405Y60405467D01*
X113843548Y60502229D01*
X113988691Y60502229D01*
X116383548Y59147562D02*
X115657834Y59147562D01*
X115657834Y61179562D01*
X117544691Y59147562D02*
X117544691Y60211943D01*
X117472120Y60405467D01*
X117326977Y60502229D01*
X117036691Y60502229D01*
X116891548Y60405467D01*
X117544691Y59244324D02*
X117399548Y59147562D01*
X117036691Y59147562D01*
X116891548Y59244324D01*
X116818977Y59437848D01*
X116818977Y59631372D01*
X116891548Y59824896D01*
X117036691Y59921658D01*
X117399548Y59921658D01*
X117544691Y60018420D01*
X118125262Y60502229D02*
X118488120Y59147562D01*
X118850977Y60502229D02*
X118488120Y59147562D01*
X118342977Y58663753D01*
X118270405Y58566991D01*
X118125262Y58470229D01*
X120012120Y59244324D02*
X119866977Y59147562D01*
X119576691Y59147562D01*
X119431548Y59244324D01*
X119358977Y59437848D01*
X119358977Y60211943D01*
X119431548Y60405467D01*
X119576691Y60502229D01*
X119866977Y60502229D01*
X120012120Y60405467D01*
X120084691Y60211943D01*
X120084691Y60018420D01*
X119358977Y59824896D01*
X120737834Y59147562D02*
X120737834Y60502229D01*
X120737834Y60115181D02*
X120810405Y60308705D01*
X120882977Y60405467D01*
X121028120Y60502229D01*
X121173262Y60502229D01*
X122842405Y59147562D02*
X122842405Y61179562D01*
X123422977Y61179562D01*
X123568120Y61082800D01*
X123640691Y60986039D01*
X123713262Y60792515D01*
X123713262Y60502229D01*
X123640691Y60308705D01*
X123568120Y60211943D01*
X123422977Y60115181D01*
X122842405Y60115181D01*
X125237262Y59341086D02*
X125164691Y59244324D01*
X124946977Y59147562D01*
X124801834Y59147562D01*
X124584120Y59244324D01*
X124438977Y59437848D01*
X124366405Y59631372D01*
X124293834Y60018420D01*
X124293834Y60308705D01*
X124366405Y60695753D01*
X124438977Y60889277D01*
X124584120Y61082800D01*
X124801834Y61179562D01*
X124946977Y61179562D01*
X125164691Y61082800D01*
X125237262Y60986039D01*
X126398405Y60211943D02*
X126616120Y60115181D01*
X126688691Y60018420D01*
X126761262Y59824896D01*
X126761262Y59534610D01*
X126688691Y59341086D01*
X126616120Y59244324D01*
X126470977Y59147562D01*
X125890405Y59147562D01*
X125890405Y61179562D01*
X126398405Y61179562D01*
X126543548Y61082800D01*
X126616120Y60986039D01*
X126688691Y60792515D01*
X126688691Y60598991D01*
X126616120Y60405467D01*
X126543548Y60308705D01*
X126398405Y60211943D01*
X125890405Y60211943D01*
X92072120Y55794762D02*
X92072120Y57149429D01*
X92072120Y56955905D02*
X92144691Y57052667D01*
X92289834Y57149429D01*
X92507548Y57149429D01*
X92652691Y57052667D01*
X92725262Y56859143D01*
X92725262Y55794762D01*
X92725262Y56859143D02*
X92797834Y57052667D01*
X92942977Y57149429D01*
X93160691Y57149429D01*
X93305834Y57052667D01*
X93378405Y56859143D01*
X93378405Y55794762D01*
X94104120Y55794762D02*
X94104120Y57149429D01*
X94104120Y57826762D02*
X94031548Y57730000D01*
X94104120Y57633239D01*
X94176691Y57730000D01*
X94104120Y57826762D01*
X94104120Y57633239D01*
X95047548Y55794762D02*
X94902405Y55891524D01*
X94829834Y56085048D01*
X94829834Y57826762D01*
X108328120Y55891524D02*
X108473262Y55794762D01*
X108763548Y55794762D01*
X108908691Y55891524D01*
X108981262Y56085048D01*
X108981262Y56181810D01*
X108908691Y56375334D01*
X108763548Y56472096D01*
X108545834Y56472096D01*
X108400691Y56568858D01*
X108328120Y56762381D01*
X108328120Y56859143D01*
X108400691Y57052667D01*
X108545834Y57149429D01*
X108763548Y57149429D01*
X108908691Y57052667D01*
X109852120Y55794762D02*
X109706977Y55891524D01*
X109634405Y55988286D01*
X109561834Y56181810D01*
X109561834Y56762381D01*
X109634405Y56955905D01*
X109706977Y57052667D01*
X109852120Y57149429D01*
X110069834Y57149429D01*
X110214977Y57052667D01*
X110287548Y56955905D01*
X110360120Y56762381D01*
X110360120Y56181810D01*
X110287548Y55988286D01*
X110214977Y55891524D01*
X110069834Y55794762D01*
X109852120Y55794762D01*
X111230977Y55794762D02*
X111085834Y55891524D01*
X111013262Y56085048D01*
X111013262Y57826762D01*
X112464691Y55794762D02*
X112464691Y57826762D01*
X112464691Y55891524D02*
X112319548Y55794762D01*
X112029262Y55794762D01*
X111884120Y55891524D01*
X111811548Y55988286D01*
X111738977Y56181810D01*
X111738977Y56762381D01*
X111811548Y56955905D01*
X111884120Y57052667D01*
X112029262Y57149429D01*
X112319548Y57149429D01*
X112464691Y57052667D01*
X113770977Y55891524D02*
X113625834Y55794762D01*
X113335548Y55794762D01*
X113190405Y55891524D01*
X113117834Y56085048D01*
X113117834Y56859143D01*
X113190405Y57052667D01*
X113335548Y57149429D01*
X113625834Y57149429D01*
X113770977Y57052667D01*
X113843548Y56859143D01*
X113843548Y56665620D01*
X113117834Y56472096D01*
X114496691Y55794762D02*
X114496691Y57149429D01*
X114496691Y56762381D02*
X114569262Y56955905D01*
X114641834Y57052667D01*
X114786977Y57149429D01*
X114932120Y57149429D01*
X116601262Y55794762D02*
X116601262Y57149429D01*
X116601262Y56762381D02*
X116673834Y56955905D01*
X116746405Y57052667D01*
X116891548Y57149429D01*
X117036691Y57149429D01*
X118125262Y55891524D02*
X117980120Y55794762D01*
X117689834Y55794762D01*
X117544691Y55891524D01*
X117472120Y56085048D01*
X117472120Y56859143D01*
X117544691Y57052667D01*
X117689834Y57149429D01*
X117980120Y57149429D01*
X118125262Y57052667D01*
X118197834Y56859143D01*
X118197834Y56665620D01*
X117472120Y56472096D01*
X118778405Y55891524D02*
X118923548Y55794762D01*
X119213834Y55794762D01*
X119358977Y55891524D01*
X119431548Y56085048D01*
X119431548Y56181810D01*
X119358977Y56375334D01*
X119213834Y56472096D01*
X118996120Y56472096D01*
X118850977Y56568858D01*
X118778405Y56762381D01*
X118778405Y56859143D01*
X118850977Y57052667D01*
X118996120Y57149429D01*
X119213834Y57149429D01*
X119358977Y57052667D01*
X120084691Y55794762D02*
X120084691Y57149429D01*
X120084691Y57826762D02*
X120012120Y57730000D01*
X120084691Y57633239D01*
X120157262Y57730000D01*
X120084691Y57826762D01*
X120084691Y57633239D01*
X120737834Y55891524D02*
X120882977Y55794762D01*
X121173262Y55794762D01*
X121318405Y55891524D01*
X121390977Y56085048D01*
X121390977Y56181810D01*
X121318405Y56375334D01*
X121173262Y56472096D01*
X120955548Y56472096D01*
X120810405Y56568858D01*
X120737834Y56762381D01*
X120737834Y56859143D01*
X120810405Y57052667D01*
X120955548Y57149429D01*
X121173262Y57149429D01*
X121318405Y57052667D01*
X121826405Y57149429D02*
X122406977Y57149429D01*
X122044120Y57826762D02*
X122044120Y56085048D01*
X122116691Y55891524D01*
X122261834Y55794762D01*
X122406977Y55794762D01*
X134526405Y56568858D02*
X135687548Y56568858D01*
X135106977Y55794762D02*
X135106977Y57342953D01*
X137501834Y57923524D02*
X136195548Y55310953D01*
X138009834Y56568858D02*
X139170977Y56568858D01*
X140186977Y57826762D02*
X140332120Y57826762D01*
X140477262Y57730000D01*
X140549834Y57633239D01*
X140622405Y57439715D01*
X140694977Y57052667D01*
X140694977Y56568858D01*
X140622405Y56181810D01*
X140549834Y55988286D01*
X140477262Y55891524D01*
X140332120Y55794762D01*
X140186977Y55794762D01*
X140041834Y55891524D01*
X139969262Y55988286D01*
X139896691Y56181810D01*
X139824120Y56568858D01*
X139824120Y57052667D01*
X139896691Y57439715D01*
X139969262Y57633239D01*
X140041834Y57730000D01*
X140186977Y57826762D01*
X141348120Y55988286D02*
X141420691Y55891524D01*
X141348120Y55794762D01*
X141275548Y55891524D01*
X141348120Y55988286D01*
X141348120Y55794762D01*
X142001262Y57633239D02*
X142073834Y57730000D01*
X142218977Y57826762D01*
X142581834Y57826762D01*
X142726977Y57730000D01*
X142799548Y57633239D01*
X142872120Y57439715D01*
X142872120Y57246191D01*
X142799548Y56955905D01*
X141928691Y55794762D01*
X142872120Y55794762D01*
X143525262Y55794762D02*
X143525262Y57149429D01*
X143525262Y56955905D02*
X143597834Y57052667D01*
X143742977Y57149429D01*
X143960691Y57149429D01*
X144105834Y57052667D01*
X144178405Y56859143D01*
X144178405Y55794762D01*
X144178405Y56859143D02*
X144250977Y57052667D01*
X144396120Y57149429D01*
X144613834Y57149429D01*
X144758977Y57052667D01*
X144831548Y56859143D01*
X144831548Y55794762D01*
X145557262Y55794762D02*
X145557262Y57149429D01*
X145557262Y57826762D02*
X145484691Y57730000D01*
X145557262Y57633239D01*
X145629834Y57730000D01*
X145557262Y57826762D01*
X145557262Y57633239D01*
X146500691Y55794762D02*
X146355548Y55891524D01*
X146282977Y56085048D01*
X146282977Y57826762D01*
X91709262Y52441962D02*
X90838405Y52441962D01*
X91273834Y52441962D02*
X91273834Y54473962D01*
X91128691Y54183677D01*
X90983548Y53990153D01*
X90838405Y53893391D01*
X92362405Y52635486D02*
X92434977Y52538724D01*
X92362405Y52441962D01*
X92289834Y52538724D01*
X92362405Y52635486D01*
X92362405Y52441962D01*
X93741262Y53796629D02*
X93741262Y52441962D01*
X93378405Y54570724D02*
X93015548Y53119296D01*
X93958977Y53119296D01*
X95700691Y52441962D02*
X95700691Y53796629D01*
X95700691Y53603105D02*
X95773262Y53699867D01*
X95918405Y53796629D01*
X96136120Y53796629D01*
X96281262Y53699867D01*
X96353834Y53506343D01*
X96353834Y52441962D01*
X96353834Y53506343D02*
X96426405Y53699867D01*
X96571548Y53796629D01*
X96789262Y53796629D01*
X96934405Y53699867D01*
X97006977Y53506343D01*
X97006977Y52441962D01*
X97732691Y52441962D02*
X97732691Y53796629D01*
X97732691Y54473962D02*
X97660120Y54377200D01*
X97732691Y54280439D01*
X97805262Y54377200D01*
X97732691Y54473962D01*
X97732691Y54280439D01*
X98676120Y52441962D02*
X98530977Y52538724D01*
X98458405Y52732248D01*
X98458405Y54473962D01*
X105860691Y52441962D02*
X104989834Y52441962D01*
X105425262Y52441962D02*
X105425262Y54473962D01*
X105280120Y54183677D01*
X105134977Y53990153D01*
X104989834Y53893391D01*
X107892691Y52441962D02*
X107747548Y52538724D01*
X107674977Y52635486D01*
X107602405Y52829010D01*
X107602405Y53409581D01*
X107674977Y53603105D01*
X107747548Y53699867D01*
X107892691Y53796629D01*
X108110405Y53796629D01*
X108255548Y53699867D01*
X108328120Y53603105D01*
X108400691Y53409581D01*
X108400691Y52829010D01*
X108328120Y52635486D01*
X108255548Y52538724D01*
X108110405Y52441962D01*
X107892691Y52441962D01*
X108908691Y53796629D02*
X109706977Y53796629D01*
X108908691Y52441962D01*
X109706977Y52441962D01*
X112101834Y52538724D02*
X111956691Y52441962D01*
X111666405Y52441962D01*
X111521262Y52538724D01*
X111448691Y52635486D01*
X111376120Y52829010D01*
X111376120Y53409581D01*
X111448691Y53603105D01*
X111521262Y53699867D01*
X111666405Y53796629D01*
X111956691Y53796629D01*
X112101834Y53699867D01*
X112972691Y52441962D02*
X112827548Y52538724D01*
X112754977Y52635486D01*
X112682405Y52829010D01*
X112682405Y53409581D01*
X112754977Y53603105D01*
X112827548Y53699867D01*
X112972691Y53796629D01*
X113190405Y53796629D01*
X113335548Y53699867D01*
X113408120Y53603105D01*
X113480691Y53409581D01*
X113480691Y52829010D01*
X113408120Y52635486D01*
X113335548Y52538724D01*
X113190405Y52441962D01*
X112972691Y52441962D01*
X114133834Y53796629D02*
X114133834Y51764629D01*
X114133834Y53699867D02*
X114278977Y53796629D01*
X114569262Y53796629D01*
X114714405Y53699867D01*
X114786977Y53603105D01*
X114859548Y53409581D01*
X114859548Y52829010D01*
X114786977Y52635486D01*
X114714405Y52538724D01*
X114569262Y52441962D01*
X114278977Y52441962D01*
X114133834Y52538724D01*
X115512691Y53796629D02*
X115512691Y51764629D01*
X115512691Y53699867D02*
X115657834Y53796629D01*
X115948120Y53796629D01*
X116093262Y53699867D01*
X116165834Y53603105D01*
X116238405Y53409581D01*
X116238405Y52829010D01*
X116165834Y52635486D01*
X116093262Y52538724D01*
X115948120Y52441962D01*
X115657834Y52441962D01*
X115512691Y52538724D01*
X117472120Y52538724D02*
X117326977Y52441962D01*
X117036691Y52441962D01*
X116891548Y52538724D01*
X116818977Y52732248D01*
X116818977Y53506343D01*
X116891548Y53699867D01*
X117036691Y53796629D01*
X117326977Y53796629D01*
X117472120Y53699867D01*
X117544691Y53506343D01*
X117544691Y53312820D01*
X116818977Y53119296D01*
X118197834Y52441962D02*
X118197834Y53796629D01*
X118197834Y53409581D02*
X118270405Y53603105D01*
X118342977Y53699867D01*
X118488120Y53796629D01*
X118633262Y53796629D01*
X91564120Y51121162D02*
X91273834Y51121162D01*
X91128691Y51024400D01*
X91056120Y50927639D01*
X90910977Y50637353D01*
X90838405Y50250305D01*
X90838405Y49476210D01*
X90910977Y49282686D01*
X90983548Y49185924D01*
X91128691Y49089162D01*
X91418977Y49089162D01*
X91564120Y49185924D01*
X91636691Y49282686D01*
X91709262Y49476210D01*
X91709262Y49960020D01*
X91636691Y50153543D01*
X91564120Y50250305D01*
X91418977Y50347067D01*
X91128691Y50347067D01*
X90983548Y50250305D01*
X90910977Y50153543D01*
X90838405Y49960020D01*
X92362405Y49282686D02*
X92434977Y49185924D01*
X92362405Y49089162D01*
X92289834Y49185924D01*
X92362405Y49282686D01*
X92362405Y49089162D01*
X92942977Y51121162D02*
X93958977Y51121162D01*
X93305834Y49089162D01*
X95700691Y49089162D02*
X95700691Y50443829D01*
X95700691Y50250305D02*
X95773262Y50347067D01*
X95918405Y50443829D01*
X96136120Y50443829D01*
X96281262Y50347067D01*
X96353834Y50153543D01*
X96353834Y49089162D01*
X96353834Y50153543D02*
X96426405Y50347067D01*
X96571548Y50443829D01*
X96789262Y50443829D01*
X96934405Y50347067D01*
X97006977Y50153543D01*
X97006977Y49089162D01*
X97732691Y49089162D02*
X97732691Y50443829D01*
X97732691Y51121162D02*
X97660120Y51024400D01*
X97732691Y50927639D01*
X97805262Y51024400D01*
X97732691Y51121162D01*
X97732691Y50927639D01*
X98676120Y49089162D02*
X98530977Y49185924D01*
X98458405Y49379448D01*
X98458405Y51121162D01*
X105570405Y50153543D02*
X105062405Y50153543D01*
X105062405Y49089162D02*
X105062405Y51121162D01*
X105788120Y51121162D01*
X107239548Y49089162D02*
X106731548Y50056781D01*
X106368691Y49089162D02*
X106368691Y51121162D01*
X106949262Y51121162D01*
X107094405Y51024400D01*
X107166977Y50927639D01*
X107239548Y50734115D01*
X107239548Y50443829D01*
X107166977Y50250305D01*
X107094405Y50153543D01*
X106949262Y50056781D01*
X106368691Y50056781D01*
X108545834Y50443829D02*
X108545834Y49089162D01*
X108182977Y51217924D02*
X107820120Y49766496D01*
X108763548Y49766496D01*
X109634405Y51121162D02*
X109779548Y51121162D01*
X109924691Y51024400D01*
X109997262Y50927639D01*
X110069834Y50734115D01*
X110142405Y50347067D01*
X110142405Y49863258D01*
X110069834Y49476210D01*
X109997262Y49282686D01*
X109924691Y49185924D01*
X109779548Y49089162D01*
X109634405Y49089162D01*
X109489262Y49185924D01*
X109416691Y49282686D01*
X109344120Y49476210D01*
X109271548Y49863258D01*
X109271548Y50347067D01*
X109344120Y50734115D01*
X109416691Y50927639D01*
X109489262Y51024400D01*
X109634405Y51121162D01*
X111013262Y50250305D02*
X110868120Y50347067D01*
X110795548Y50443829D01*
X110722977Y50637353D01*
X110722977Y50734115D01*
X110795548Y50927639D01*
X110868120Y51024400D01*
X111013262Y51121162D01*
X111303548Y51121162D01*
X111448691Y51024400D01*
X111521262Y50927639D01*
X111593834Y50734115D01*
X111593834Y50637353D01*
X111521262Y50443829D01*
X111448691Y50347067D01*
X111303548Y50250305D01*
X111013262Y50250305D01*
X110868120Y50153543D01*
X110795548Y50056781D01*
X110722977Y49863258D01*
X110722977Y49476210D01*
X110795548Y49282686D01*
X110868120Y49185924D01*
X111013262Y49089162D01*
X111303548Y49089162D01*
X111448691Y49185924D01*
X111521262Y49282686D01*
X111593834Y49476210D01*
X111593834Y49863258D01*
X111521262Y50056781D01*
X111448691Y50153543D01*
X111303548Y50250305D01*
X113408120Y50443829D02*
X113408120Y48411829D01*
X113408120Y50347067D02*
X113553262Y50443829D01*
X113843548Y50443829D01*
X113988691Y50347067D01*
X114061262Y50250305D01*
X114133834Y50056781D01*
X114133834Y49476210D01*
X114061262Y49282686D01*
X113988691Y49185924D01*
X113843548Y49089162D01*
X113553262Y49089162D01*
X113408120Y49185924D01*
X114786977Y49089162D02*
X114786977Y50443829D01*
X114786977Y50056781D02*
X114859548Y50250305D01*
X114932120Y50347067D01*
X115077262Y50443829D01*
X115222405Y50443829D01*
X116310977Y49185924D02*
X116165834Y49089162D01*
X115875548Y49089162D01*
X115730405Y49185924D01*
X115657834Y49379448D01*
X115657834Y50153543D01*
X115730405Y50347067D01*
X115875548Y50443829D01*
X116165834Y50443829D01*
X116310977Y50347067D01*
X116383548Y50153543D01*
X116383548Y49960020D01*
X115657834Y49766496D01*
X117036691Y50443829D02*
X117036691Y48411829D01*
X117036691Y50347067D02*
X117181834Y50443829D01*
X117472120Y50443829D01*
X117617262Y50347067D01*
X117689834Y50250305D01*
X117762405Y50056781D01*
X117762405Y49476210D01*
X117689834Y49282686D01*
X117617262Y49185924D01*
X117472120Y49089162D01*
X117181834Y49089162D01*
X117036691Y49185924D01*
X118415548Y49089162D02*
X118415548Y50443829D01*
X118415548Y50056781D02*
X118488120Y50250305D01*
X118560691Y50347067D01*
X118705834Y50443829D01*
X118850977Y50443829D01*
X119939548Y49185924D02*
X119794405Y49089162D01*
X119504120Y49089162D01*
X119358977Y49185924D01*
X119286405Y49379448D01*
X119286405Y50153543D01*
X119358977Y50347067D01*
X119504120Y50443829D01*
X119794405Y50443829D01*
X119939548Y50347067D01*
X120012120Y50153543D01*
X120012120Y49960020D01*
X119286405Y49766496D01*
X121318405Y50443829D02*
X121318405Y48798877D01*
X121245834Y48605353D01*
X121173262Y48508591D01*
X121028120Y48411829D01*
X120810405Y48411829D01*
X120665262Y48508591D01*
X121318405Y49185924D02*
X121173262Y49089162D01*
X120882977Y49089162D01*
X120737834Y49185924D01*
X120665262Y49282686D01*
X120592691Y49476210D01*
X120592691Y50056781D01*
X120665262Y50250305D01*
X120737834Y50347067D01*
X120882977Y50443829D01*
X121173262Y50443829D01*
X121318405Y50347067D01*
X130172120Y49863258D02*
X131333262Y49863258D01*
X130752691Y49089162D02*
X130752691Y50637353D01*
X133147548Y51217924D02*
X131841262Y48605353D01*
X133655548Y49863258D02*
X134816691Y49863258D01*
X135542405Y49282686D02*
X135614977Y49185924D01*
X135542405Y49089162D01*
X135469834Y49185924D01*
X135542405Y49282686D01*
X135542405Y49089162D01*
X136921262Y51121162D02*
X136630977Y51121162D01*
X136485834Y51024400D01*
X136413262Y50927639D01*
X136268120Y50637353D01*
X136195548Y50250305D01*
X136195548Y49476210D01*
X136268120Y49282686D01*
X136340691Y49185924D01*
X136485834Y49089162D01*
X136776120Y49089162D01*
X136921262Y49185924D01*
X136993834Y49282686D01*
X137066405Y49476210D01*
X137066405Y49960020D01*
X136993834Y50153543D01*
X136921262Y50250305D01*
X136776120Y50347067D01*
X136485834Y50347067D01*
X136340691Y50250305D01*
X136268120Y50153543D01*
X136195548Y49960020D01*
X137574405Y51121162D02*
X138590405Y51121162D01*
X137937262Y49089162D01*
X139170977Y49089162D02*
X139170977Y50443829D01*
X139170977Y50250305D02*
X139243548Y50347067D01*
X139388691Y50443829D01*
X139606405Y50443829D01*
X139751548Y50347067D01*
X139824120Y50153543D01*
X139824120Y49089162D01*
X139824120Y50153543D02*
X139896691Y50347067D01*
X140041834Y50443829D01*
X140259548Y50443829D01*
X140404691Y50347067D01*
X140477262Y50153543D01*
X140477262Y49089162D01*
X141202977Y49089162D02*
X141202977Y50443829D01*
X141202977Y51121162D02*
X141130405Y51024400D01*
X141202977Y50927639D01*
X141275548Y51024400D01*
X141202977Y51121162D01*
X141202977Y50927639D01*
X142146405Y49089162D02*
X142001262Y49185924D01*
X141928691Y49379448D01*
X141928691Y51121162D01*
X91201262Y47768362D02*
X91346405Y47768362D01*
X91491548Y47671600D01*
X91564120Y47574839D01*
X91636691Y47381315D01*
X91709262Y46994267D01*
X91709262Y46510458D01*
X91636691Y46123410D01*
X91564120Y45929886D01*
X91491548Y45833124D01*
X91346405Y45736362D01*
X91201262Y45736362D01*
X91056120Y45833124D01*
X90983548Y45929886D01*
X90910977Y46123410D01*
X90838405Y46510458D01*
X90838405Y46994267D01*
X90910977Y47381315D01*
X90983548Y47574839D01*
X91056120Y47671600D01*
X91201262Y47768362D01*
X92362405Y45929886D02*
X92434977Y45833124D01*
X92362405Y45736362D01*
X92289834Y45833124D01*
X92362405Y45929886D01*
X92362405Y45736362D01*
X92942977Y47768362D02*
X93958977Y47768362D01*
X93305834Y45736362D01*
X95700691Y45736362D02*
X95700691Y47091029D01*
X95700691Y46897505D02*
X95773262Y46994267D01*
X95918405Y47091029D01*
X96136120Y47091029D01*
X96281262Y46994267D01*
X96353834Y46800743D01*
X96353834Y45736362D01*
X96353834Y46800743D02*
X96426405Y46994267D01*
X96571548Y47091029D01*
X96789262Y47091029D01*
X96934405Y46994267D01*
X97006977Y46800743D01*
X97006977Y45736362D01*
X97732691Y45736362D02*
X97732691Y47091029D01*
X97732691Y47768362D02*
X97660120Y47671600D01*
X97732691Y47574839D01*
X97805262Y47671600D01*
X97732691Y47768362D01*
X97732691Y47574839D01*
X98676120Y45736362D02*
X98530977Y45833124D01*
X98458405Y46026648D01*
X98458405Y47768362D01*
X105352691Y47768362D02*
X105497834Y47768362D01*
X105642977Y47671600D01*
X105715548Y47574839D01*
X105788120Y47381315D01*
X105860691Y46994267D01*
X105860691Y46510458D01*
X105788120Y46123410D01*
X105715548Y45929886D01*
X105642977Y45833124D01*
X105497834Y45736362D01*
X105352691Y45736362D01*
X105207548Y45833124D01*
X105134977Y45929886D01*
X105062405Y46123410D01*
X104989834Y46510458D01*
X104989834Y46994267D01*
X105062405Y47381315D01*
X105134977Y47574839D01*
X105207548Y47671600D01*
X105352691Y47768362D01*
X106513834Y45929886D02*
X106586405Y45833124D01*
X106513834Y45736362D01*
X106441262Y45833124D01*
X106513834Y45929886D01*
X106513834Y45736362D01*
X107965262Y47768362D02*
X107239548Y47768362D01*
X107166977Y46800743D01*
X107239548Y46897505D01*
X107384691Y46994267D01*
X107747548Y46994267D01*
X107892691Y46897505D01*
X107965262Y46800743D01*
X108037834Y46607220D01*
X108037834Y46123410D01*
X107965262Y45929886D01*
X107892691Y45833124D01*
X107747548Y45736362D01*
X107384691Y45736362D01*
X107239548Y45833124D01*
X107166977Y45929886D01*
X110069834Y45736362D02*
X109924691Y45833124D01*
X109852120Y45929886D01*
X109779548Y46123410D01*
X109779548Y46703981D01*
X109852120Y46897505D01*
X109924691Y46994267D01*
X110069834Y47091029D01*
X110287548Y47091029D01*
X110432691Y46994267D01*
X110505262Y46897505D01*
X110577834Y46703981D01*
X110577834Y46123410D01*
X110505262Y45929886D01*
X110432691Y45833124D01*
X110287548Y45736362D01*
X110069834Y45736362D01*
X111085834Y47091029D02*
X111884120Y47091029D01*
X111085834Y45736362D01*
X111884120Y45736362D01*
X114278977Y45833124D02*
X114133834Y45736362D01*
X113843548Y45736362D01*
X113698405Y45833124D01*
X113625834Y45929886D01*
X113553262Y46123410D01*
X113553262Y46703981D01*
X113625834Y46897505D01*
X113698405Y46994267D01*
X113843548Y47091029D01*
X114133834Y47091029D01*
X114278977Y46994267D01*
X115149834Y45736362D02*
X115004691Y45833124D01*
X114932120Y45929886D01*
X114859548Y46123410D01*
X114859548Y46703981D01*
X114932120Y46897505D01*
X115004691Y46994267D01*
X115149834Y47091029D01*
X115367548Y47091029D01*
X115512691Y46994267D01*
X115585262Y46897505D01*
X115657834Y46703981D01*
X115657834Y46123410D01*
X115585262Y45929886D01*
X115512691Y45833124D01*
X115367548Y45736362D01*
X115149834Y45736362D01*
X116310977Y47091029D02*
X116310977Y45059029D01*
X116310977Y46994267D02*
X116456120Y47091029D01*
X116746405Y47091029D01*
X116891548Y46994267D01*
X116964120Y46897505D01*
X117036691Y46703981D01*
X117036691Y46123410D01*
X116964120Y45929886D01*
X116891548Y45833124D01*
X116746405Y45736362D01*
X116456120Y45736362D01*
X116310977Y45833124D01*
X117689834Y47091029D02*
X117689834Y45059029D01*
X117689834Y46994267D02*
X117834977Y47091029D01*
X118125262Y47091029D01*
X118270405Y46994267D01*
X118342977Y46897505D01*
X118415548Y46703981D01*
X118415548Y46123410D01*
X118342977Y45929886D01*
X118270405Y45833124D01*
X118125262Y45736362D01*
X117834977Y45736362D01*
X117689834Y45833124D01*
X119649262Y45833124D02*
X119504120Y45736362D01*
X119213834Y45736362D01*
X119068691Y45833124D01*
X118996120Y46026648D01*
X118996120Y46800743D01*
X119068691Y46994267D01*
X119213834Y47091029D01*
X119504120Y47091029D01*
X119649262Y46994267D01*
X119721834Y46800743D01*
X119721834Y46607220D01*
X118996120Y46413696D01*
X120374977Y45736362D02*
X120374977Y47091029D01*
X120374977Y46703981D02*
X120447548Y46897505D01*
X120520120Y46994267D01*
X120665262Y47091029D01*
X120810405Y47091029D01*
X91564120Y43738229D02*
X91564120Y42383562D01*
X91201262Y44512324D02*
X90838405Y43060896D01*
X91781834Y43060896D01*
X92217262Y44415562D02*
X93233262Y44415562D01*
X92580120Y42383562D01*
X94974977Y42383562D02*
X94974977Y43738229D01*
X94974977Y43544705D02*
X95047548Y43641467D01*
X95192691Y43738229D01*
X95410405Y43738229D01*
X95555548Y43641467D01*
X95628120Y43447943D01*
X95628120Y42383562D01*
X95628120Y43447943D02*
X95700691Y43641467D01*
X95845834Y43738229D01*
X96063548Y43738229D01*
X96208691Y43641467D01*
X96281262Y43447943D01*
X96281262Y42383562D01*
X97006977Y42383562D02*
X97006977Y43738229D01*
X97006977Y44415562D02*
X96934405Y44318800D01*
X97006977Y44222039D01*
X97079548Y44318800D01*
X97006977Y44415562D01*
X97006977Y44222039D01*
X97950405Y42383562D02*
X97805262Y42480324D01*
X97732691Y42673848D01*
X97732691Y44415562D01*
X106005834Y43447943D02*
X105497834Y43447943D01*
X105497834Y42383562D02*
X105497834Y44415562D01*
X106223548Y44415562D01*
X107674977Y42383562D02*
X107166977Y43351181D01*
X106804120Y42383562D02*
X106804120Y44415562D01*
X107384691Y44415562D01*
X107529834Y44318800D01*
X107602405Y44222039D01*
X107674977Y44028515D01*
X107674977Y43738229D01*
X107602405Y43544705D01*
X107529834Y43447943D01*
X107384691Y43351181D01*
X106804120Y43351181D01*
X108981262Y43738229D02*
X108981262Y42383562D01*
X108618405Y44512324D02*
X108255548Y43060896D01*
X109198977Y43060896D01*
X110069834Y44415562D02*
X110214977Y44415562D01*
X110360120Y44318800D01*
X110432691Y44222039D01*
X110505262Y44028515D01*
X110577834Y43641467D01*
X110577834Y43157658D01*
X110505262Y42770610D01*
X110432691Y42577086D01*
X110360120Y42480324D01*
X110214977Y42383562D01*
X110069834Y42383562D01*
X109924691Y42480324D01*
X109852120Y42577086D01*
X109779548Y42770610D01*
X109706977Y43157658D01*
X109706977Y43641467D01*
X109779548Y44028515D01*
X109852120Y44222039D01*
X109924691Y44318800D01*
X110069834Y44415562D01*
X111448691Y43544705D02*
X111303548Y43641467D01*
X111230977Y43738229D01*
X111158405Y43931753D01*
X111158405Y44028515D01*
X111230977Y44222039D01*
X111303548Y44318800D01*
X111448691Y44415562D01*
X111738977Y44415562D01*
X111884120Y44318800D01*
X111956691Y44222039D01*
X112029262Y44028515D01*
X112029262Y43931753D01*
X111956691Y43738229D01*
X111884120Y43641467D01*
X111738977Y43544705D01*
X111448691Y43544705D01*
X111303548Y43447943D01*
X111230977Y43351181D01*
X111158405Y43157658D01*
X111158405Y42770610D01*
X111230977Y42577086D01*
X111303548Y42480324D01*
X111448691Y42383562D01*
X111738977Y42383562D01*
X111884120Y42480324D01*
X111956691Y42577086D01*
X112029262Y42770610D01*
X112029262Y43157658D01*
X111956691Y43351181D01*
X111884120Y43447943D01*
X111738977Y43544705D01*
X114496691Y42480324D02*
X114351548Y42383562D01*
X114061262Y42383562D01*
X113916120Y42480324D01*
X113843548Y42577086D01*
X113770977Y42770610D01*
X113770977Y43351181D01*
X113843548Y43544705D01*
X113916120Y43641467D01*
X114061262Y43738229D01*
X114351548Y43738229D01*
X114496691Y43641467D01*
X115367548Y42383562D02*
X115222405Y42480324D01*
X115149834Y42577086D01*
X115077262Y42770610D01*
X115077262Y43351181D01*
X115149834Y43544705D01*
X115222405Y43641467D01*
X115367548Y43738229D01*
X115585262Y43738229D01*
X115730405Y43641467D01*
X115802977Y43544705D01*
X115875548Y43351181D01*
X115875548Y42770610D01*
X115802977Y42577086D01*
X115730405Y42480324D01*
X115585262Y42383562D01*
X115367548Y42383562D01*
X116528691Y42383562D02*
X116528691Y43738229D01*
X116528691Y43351181D02*
X116601262Y43544705D01*
X116673834Y43641467D01*
X116818977Y43738229D01*
X116964120Y43738229D01*
X118052691Y42480324D02*
X117907548Y42383562D01*
X117617262Y42383562D01*
X117472120Y42480324D01*
X117399548Y42673848D01*
X117399548Y43447943D01*
X117472120Y43641467D01*
X117617262Y43738229D01*
X117907548Y43738229D01*
X118052691Y43641467D01*
X118125262Y43447943D01*
X118125262Y43254420D01*
X117399548Y43060896D01*
X132712120Y43157658D02*
X133873262Y43157658D01*
X133292691Y42383562D02*
X133292691Y43931753D01*
X135687548Y44512324D02*
X134381262Y41899753D01*
X136195548Y43157658D02*
X137356691Y43157658D01*
X138735548Y43738229D02*
X138735548Y42383562D01*
X138372691Y44512324D02*
X138009834Y43060896D01*
X138953262Y43060896D01*
X139533834Y42577086D02*
X139606405Y42480324D01*
X139533834Y42383562D01*
X139461262Y42480324D01*
X139533834Y42577086D01*
X139533834Y42383562D01*
X140114405Y44415562D02*
X141130405Y44415562D01*
X140477262Y42383562D01*
X141710977Y42383562D02*
X141710977Y43738229D01*
X141710977Y43544705D02*
X141783548Y43641467D01*
X141928691Y43738229D01*
X142146405Y43738229D01*
X142291548Y43641467D01*
X142364120Y43447943D01*
X142364120Y42383562D01*
X142364120Y43447943D02*
X142436691Y43641467D01*
X142581834Y43738229D01*
X142799548Y43738229D01*
X142944691Y43641467D01*
X143017262Y43447943D01*
X143017262Y42383562D01*
X143742977Y42383562D02*
X143742977Y43738229D01*
X143742977Y44415562D02*
X143670405Y44318800D01*
X143742977Y44222039D01*
X143815548Y44318800D01*
X143742977Y44415562D01*
X143742977Y44222039D01*
X144686405Y42383562D02*
X144541262Y42480324D01*
X144468691Y42673848D01*
X144468691Y44415562D01*
X91201262Y41062762D02*
X91346405Y41062762D01*
X91491548Y40966000D01*
X91564120Y40869239D01*
X91636691Y40675715D01*
X91709262Y40288667D01*
X91709262Y39804858D01*
X91636691Y39417810D01*
X91564120Y39224286D01*
X91491548Y39127524D01*
X91346405Y39030762D01*
X91201262Y39030762D01*
X91056120Y39127524D01*
X90983548Y39224286D01*
X90910977Y39417810D01*
X90838405Y39804858D01*
X90838405Y40288667D01*
X90910977Y40675715D01*
X90983548Y40869239D01*
X91056120Y40966000D01*
X91201262Y41062762D01*
X92362405Y39224286D02*
X92434977Y39127524D01*
X92362405Y39030762D01*
X92289834Y39127524D01*
X92362405Y39224286D01*
X92362405Y39030762D01*
X92942977Y41062762D02*
X93958977Y41062762D01*
X93305834Y39030762D01*
X95700691Y39030762D02*
X95700691Y40385429D01*
X95700691Y40191905D02*
X95773262Y40288667D01*
X95918405Y40385429D01*
X96136120Y40385429D01*
X96281262Y40288667D01*
X96353834Y40095143D01*
X96353834Y39030762D01*
X96353834Y40095143D02*
X96426405Y40288667D01*
X96571548Y40385429D01*
X96789262Y40385429D01*
X96934405Y40288667D01*
X97006977Y40095143D01*
X97006977Y39030762D01*
X97732691Y39030762D02*
X97732691Y40385429D01*
X97732691Y41062762D02*
X97660120Y40966000D01*
X97732691Y40869239D01*
X97805262Y40966000D01*
X97732691Y41062762D01*
X97732691Y40869239D01*
X98676120Y39030762D02*
X98530977Y39127524D01*
X98458405Y39321048D01*
X98458405Y41062762D01*
X105352691Y41062762D02*
X105497834Y41062762D01*
X105642977Y40966000D01*
X105715548Y40869239D01*
X105788120Y40675715D01*
X105860691Y40288667D01*
X105860691Y39804858D01*
X105788120Y39417810D01*
X105715548Y39224286D01*
X105642977Y39127524D01*
X105497834Y39030762D01*
X105352691Y39030762D01*
X105207548Y39127524D01*
X105134977Y39224286D01*
X105062405Y39417810D01*
X104989834Y39804858D01*
X104989834Y40288667D01*
X105062405Y40675715D01*
X105134977Y40869239D01*
X105207548Y40966000D01*
X105352691Y41062762D01*
X106513834Y39224286D02*
X106586405Y39127524D01*
X106513834Y39030762D01*
X106441262Y39127524D01*
X106513834Y39224286D01*
X106513834Y39030762D01*
X107965262Y41062762D02*
X107239548Y41062762D01*
X107166977Y40095143D01*
X107239548Y40191905D01*
X107384691Y40288667D01*
X107747548Y40288667D01*
X107892691Y40191905D01*
X107965262Y40095143D01*
X108037834Y39901620D01*
X108037834Y39417810D01*
X107965262Y39224286D01*
X107892691Y39127524D01*
X107747548Y39030762D01*
X107384691Y39030762D01*
X107239548Y39127524D01*
X107166977Y39224286D01*
X110069834Y39030762D02*
X109924691Y39127524D01*
X109852120Y39224286D01*
X109779548Y39417810D01*
X109779548Y39998381D01*
X109852120Y40191905D01*
X109924691Y40288667D01*
X110069834Y40385429D01*
X110287548Y40385429D01*
X110432691Y40288667D01*
X110505262Y40191905D01*
X110577834Y39998381D01*
X110577834Y39417810D01*
X110505262Y39224286D01*
X110432691Y39127524D01*
X110287548Y39030762D01*
X110069834Y39030762D01*
X111085834Y40385429D02*
X111884120Y40385429D01*
X111085834Y39030762D01*
X111884120Y39030762D01*
X114278977Y39127524D02*
X114133834Y39030762D01*
X113843548Y39030762D01*
X113698405Y39127524D01*
X113625834Y39224286D01*
X113553262Y39417810D01*
X113553262Y39998381D01*
X113625834Y40191905D01*
X113698405Y40288667D01*
X113843548Y40385429D01*
X114133834Y40385429D01*
X114278977Y40288667D01*
X115149834Y39030762D02*
X115004691Y39127524D01*
X114932120Y39224286D01*
X114859548Y39417810D01*
X114859548Y39998381D01*
X114932120Y40191905D01*
X115004691Y40288667D01*
X115149834Y40385429D01*
X115367548Y40385429D01*
X115512691Y40288667D01*
X115585262Y40191905D01*
X115657834Y39998381D01*
X115657834Y39417810D01*
X115585262Y39224286D01*
X115512691Y39127524D01*
X115367548Y39030762D01*
X115149834Y39030762D01*
X116310977Y40385429D02*
X116310977Y38353429D01*
X116310977Y40288667D02*
X116456120Y40385429D01*
X116746405Y40385429D01*
X116891548Y40288667D01*
X116964120Y40191905D01*
X117036691Y39998381D01*
X117036691Y39417810D01*
X116964120Y39224286D01*
X116891548Y39127524D01*
X116746405Y39030762D01*
X116456120Y39030762D01*
X116310977Y39127524D01*
X117689834Y40385429D02*
X117689834Y38353429D01*
X117689834Y40288667D02*
X117834977Y40385429D01*
X118125262Y40385429D01*
X118270405Y40288667D01*
X118342977Y40191905D01*
X118415548Y39998381D01*
X118415548Y39417810D01*
X118342977Y39224286D01*
X118270405Y39127524D01*
X118125262Y39030762D01*
X117834977Y39030762D01*
X117689834Y39127524D01*
X119649262Y39127524D02*
X119504120Y39030762D01*
X119213834Y39030762D01*
X119068691Y39127524D01*
X118996120Y39321048D01*
X118996120Y40095143D01*
X119068691Y40288667D01*
X119213834Y40385429D01*
X119504120Y40385429D01*
X119649262Y40288667D01*
X119721834Y40095143D01*
X119721834Y39901620D01*
X118996120Y39708096D01*
X120374977Y39030762D02*
X120374977Y40385429D01*
X120374977Y39998381D02*
X120447548Y40191905D01*
X120520120Y40288667D01*
X120665262Y40385429D01*
X120810405Y40385429D01*
X91564120Y37709962D02*
X91273834Y37709962D01*
X91128691Y37613200D01*
X91056120Y37516439D01*
X90910977Y37226153D01*
X90838405Y36839105D01*
X90838405Y36065010D01*
X90910977Y35871486D01*
X90983548Y35774724D01*
X91128691Y35677962D01*
X91418977Y35677962D01*
X91564120Y35774724D01*
X91636691Y35871486D01*
X91709262Y36065010D01*
X91709262Y36548820D01*
X91636691Y36742343D01*
X91564120Y36839105D01*
X91418977Y36935867D01*
X91128691Y36935867D01*
X90983548Y36839105D01*
X90910977Y36742343D01*
X90838405Y36548820D01*
X92362405Y35871486D02*
X92434977Y35774724D01*
X92362405Y35677962D01*
X92289834Y35774724D01*
X92362405Y35871486D01*
X92362405Y35677962D01*
X92942977Y37709962D02*
X93958977Y37709962D01*
X93305834Y35677962D01*
X95700691Y35677962D02*
X95700691Y37032629D01*
X95700691Y36839105D02*
X95773262Y36935867D01*
X95918405Y37032629D01*
X96136120Y37032629D01*
X96281262Y36935867D01*
X96353834Y36742343D01*
X96353834Y35677962D01*
X96353834Y36742343D02*
X96426405Y36935867D01*
X96571548Y37032629D01*
X96789262Y37032629D01*
X96934405Y36935867D01*
X97006977Y36742343D01*
X97006977Y35677962D01*
X97732691Y35677962D02*
X97732691Y37032629D01*
X97732691Y37709962D02*
X97660120Y37613200D01*
X97732691Y37516439D01*
X97805262Y37613200D01*
X97732691Y37709962D01*
X97732691Y37516439D01*
X98676120Y35677962D02*
X98530977Y35774724D01*
X98458405Y35968248D01*
X98458405Y37709962D01*
X105570405Y36742343D02*
X105062405Y36742343D01*
X105062405Y35677962D02*
X105062405Y37709962D01*
X105788120Y37709962D01*
X107239548Y35677962D02*
X106731548Y36645581D01*
X106368691Y35677962D02*
X106368691Y37709962D01*
X106949262Y37709962D01*
X107094405Y37613200D01*
X107166977Y37516439D01*
X107239548Y37322915D01*
X107239548Y37032629D01*
X107166977Y36839105D01*
X107094405Y36742343D01*
X106949262Y36645581D01*
X106368691Y36645581D01*
X108545834Y37032629D02*
X108545834Y35677962D01*
X108182977Y37806724D02*
X107820120Y36355296D01*
X108763548Y36355296D01*
X109634405Y37709962D02*
X109779548Y37709962D01*
X109924691Y37613200D01*
X109997262Y37516439D01*
X110069834Y37322915D01*
X110142405Y36935867D01*
X110142405Y36452058D01*
X110069834Y36065010D01*
X109997262Y35871486D01*
X109924691Y35774724D01*
X109779548Y35677962D01*
X109634405Y35677962D01*
X109489262Y35774724D01*
X109416691Y35871486D01*
X109344120Y36065010D01*
X109271548Y36452058D01*
X109271548Y36935867D01*
X109344120Y37322915D01*
X109416691Y37516439D01*
X109489262Y37613200D01*
X109634405Y37709962D01*
X111013262Y36839105D02*
X110868120Y36935867D01*
X110795548Y37032629D01*
X110722977Y37226153D01*
X110722977Y37322915D01*
X110795548Y37516439D01*
X110868120Y37613200D01*
X111013262Y37709962D01*
X111303548Y37709962D01*
X111448691Y37613200D01*
X111521262Y37516439D01*
X111593834Y37322915D01*
X111593834Y37226153D01*
X111521262Y37032629D01*
X111448691Y36935867D01*
X111303548Y36839105D01*
X111013262Y36839105D01*
X110868120Y36742343D01*
X110795548Y36645581D01*
X110722977Y36452058D01*
X110722977Y36065010D01*
X110795548Y35871486D01*
X110868120Y35774724D01*
X111013262Y35677962D01*
X111303548Y35677962D01*
X111448691Y35774724D01*
X111521262Y35871486D01*
X111593834Y36065010D01*
X111593834Y36452058D01*
X111521262Y36645581D01*
X111448691Y36742343D01*
X111303548Y36839105D01*
X113408120Y37032629D02*
X113408120Y35000629D01*
X113408120Y36935867D02*
X113553262Y37032629D01*
X113843548Y37032629D01*
X113988691Y36935867D01*
X114061262Y36839105D01*
X114133834Y36645581D01*
X114133834Y36065010D01*
X114061262Y35871486D01*
X113988691Y35774724D01*
X113843548Y35677962D01*
X113553262Y35677962D01*
X113408120Y35774724D01*
X114786977Y35677962D02*
X114786977Y37032629D01*
X114786977Y36645581D02*
X114859548Y36839105D01*
X114932120Y36935867D01*
X115077262Y37032629D01*
X115222405Y37032629D01*
X116310977Y35774724D02*
X116165834Y35677962D01*
X115875548Y35677962D01*
X115730405Y35774724D01*
X115657834Y35968248D01*
X115657834Y36742343D01*
X115730405Y36935867D01*
X115875548Y37032629D01*
X116165834Y37032629D01*
X116310977Y36935867D01*
X116383548Y36742343D01*
X116383548Y36548820D01*
X115657834Y36355296D01*
X117036691Y37032629D02*
X117036691Y35000629D01*
X117036691Y36935867D02*
X117181834Y37032629D01*
X117472120Y37032629D01*
X117617262Y36935867D01*
X117689834Y36839105D01*
X117762405Y36645581D01*
X117762405Y36065010D01*
X117689834Y35871486D01*
X117617262Y35774724D01*
X117472120Y35677962D01*
X117181834Y35677962D01*
X117036691Y35774724D01*
X118415548Y35677962D02*
X118415548Y37032629D01*
X118415548Y36645581D02*
X118488120Y36839105D01*
X118560691Y36935867D01*
X118705834Y37032629D01*
X118850977Y37032629D01*
X119939548Y35774724D02*
X119794405Y35677962D01*
X119504120Y35677962D01*
X119358977Y35774724D01*
X119286405Y35968248D01*
X119286405Y36742343D01*
X119358977Y36935867D01*
X119504120Y37032629D01*
X119794405Y37032629D01*
X119939548Y36935867D01*
X120012120Y36742343D01*
X120012120Y36548820D01*
X119286405Y36355296D01*
X121318405Y37032629D02*
X121318405Y35387677D01*
X121245834Y35194153D01*
X121173262Y35097391D01*
X121028120Y35000629D01*
X120810405Y35000629D01*
X120665262Y35097391D01*
X121318405Y35774724D02*
X121173262Y35677962D01*
X120882977Y35677962D01*
X120737834Y35774724D01*
X120665262Y35871486D01*
X120592691Y36065010D01*
X120592691Y36645581D01*
X120665262Y36839105D01*
X120737834Y36935867D01*
X120882977Y37032629D01*
X121173262Y37032629D01*
X121318405Y36935867D01*
X130172120Y36452058D02*
X131333262Y36452058D01*
X130752691Y35677962D02*
X130752691Y37226153D01*
X133147548Y37806724D02*
X131841262Y35194153D01*
X133655548Y36452058D02*
X134816691Y36452058D01*
X135542405Y35871486D02*
X135614977Y35774724D01*
X135542405Y35677962D01*
X135469834Y35774724D01*
X135542405Y35871486D01*
X135542405Y35677962D01*
X136921262Y37709962D02*
X136630977Y37709962D01*
X136485834Y37613200D01*
X136413262Y37516439D01*
X136268120Y37226153D01*
X136195548Y36839105D01*
X136195548Y36065010D01*
X136268120Y35871486D01*
X136340691Y35774724D01*
X136485834Y35677962D01*
X136776120Y35677962D01*
X136921262Y35774724D01*
X136993834Y35871486D01*
X137066405Y36065010D01*
X137066405Y36548820D01*
X136993834Y36742343D01*
X136921262Y36839105D01*
X136776120Y36935867D01*
X136485834Y36935867D01*
X136340691Y36839105D01*
X136268120Y36742343D01*
X136195548Y36548820D01*
X137574405Y37709962D02*
X138590405Y37709962D01*
X137937262Y35677962D01*
X139170977Y35677962D02*
X139170977Y37032629D01*
X139170977Y36839105D02*
X139243548Y36935867D01*
X139388691Y37032629D01*
X139606405Y37032629D01*
X139751548Y36935867D01*
X139824120Y36742343D01*
X139824120Y35677962D01*
X139824120Y36742343D02*
X139896691Y36935867D01*
X140041834Y37032629D01*
X140259548Y37032629D01*
X140404691Y36935867D01*
X140477262Y36742343D01*
X140477262Y35677962D01*
X141202977Y35677962D02*
X141202977Y37032629D01*
X141202977Y37709962D02*
X141130405Y37613200D01*
X141202977Y37516439D01*
X141275548Y37613200D01*
X141202977Y37709962D01*
X141202977Y37516439D01*
X142146405Y35677962D02*
X142001262Y35774724D01*
X141928691Y35968248D01*
X141928691Y37709962D01*
X91709262Y32325162D02*
X90838405Y32325162D01*
X91273834Y32325162D02*
X91273834Y34357162D01*
X91128691Y34066877D01*
X90983548Y33873353D01*
X90838405Y33776591D01*
X92362405Y32518686D02*
X92434977Y32421924D01*
X92362405Y32325162D01*
X92289834Y32421924D01*
X92362405Y32518686D01*
X92362405Y32325162D01*
X93741262Y33679829D02*
X93741262Y32325162D01*
X93378405Y34453924D02*
X93015548Y33002496D01*
X93958977Y33002496D01*
X95700691Y32325162D02*
X95700691Y33679829D01*
X95700691Y33486305D02*
X95773262Y33583067D01*
X95918405Y33679829D01*
X96136120Y33679829D01*
X96281262Y33583067D01*
X96353834Y33389543D01*
X96353834Y32325162D01*
X96353834Y33389543D02*
X96426405Y33583067D01*
X96571548Y33679829D01*
X96789262Y33679829D01*
X96934405Y33583067D01*
X97006977Y33389543D01*
X97006977Y32325162D01*
X97732691Y32325162D02*
X97732691Y33679829D01*
X97732691Y34357162D02*
X97660120Y34260400D01*
X97732691Y34163639D01*
X97805262Y34260400D01*
X97732691Y34357162D01*
X97732691Y34163639D01*
X98676120Y32325162D02*
X98530977Y32421924D01*
X98458405Y32615448D01*
X98458405Y34357162D01*
X105860691Y32325162D02*
X104989834Y32325162D01*
X105425262Y32325162D02*
X105425262Y34357162D01*
X105280120Y34066877D01*
X105134977Y33873353D01*
X104989834Y33776591D01*
X107892691Y32325162D02*
X107747548Y32421924D01*
X107674977Y32518686D01*
X107602405Y32712210D01*
X107602405Y33292781D01*
X107674977Y33486305D01*
X107747548Y33583067D01*
X107892691Y33679829D01*
X108110405Y33679829D01*
X108255548Y33583067D01*
X108328120Y33486305D01*
X108400691Y33292781D01*
X108400691Y32712210D01*
X108328120Y32518686D01*
X108255548Y32421924D01*
X108110405Y32325162D01*
X107892691Y32325162D01*
X108908691Y33679829D02*
X109706977Y33679829D01*
X108908691Y32325162D01*
X109706977Y32325162D01*
X112101834Y32421924D02*
X111956691Y32325162D01*
X111666405Y32325162D01*
X111521262Y32421924D01*
X111448691Y32518686D01*
X111376120Y32712210D01*
X111376120Y33292781D01*
X111448691Y33486305D01*
X111521262Y33583067D01*
X111666405Y33679829D01*
X111956691Y33679829D01*
X112101834Y33583067D01*
X112972691Y32325162D02*
X112827548Y32421924D01*
X112754977Y32518686D01*
X112682405Y32712210D01*
X112682405Y33292781D01*
X112754977Y33486305D01*
X112827548Y33583067D01*
X112972691Y33679829D01*
X113190405Y33679829D01*
X113335548Y33583067D01*
X113408120Y33486305D01*
X113480691Y33292781D01*
X113480691Y32712210D01*
X113408120Y32518686D01*
X113335548Y32421924D01*
X113190405Y32325162D01*
X112972691Y32325162D01*
X114133834Y33679829D02*
X114133834Y31647829D01*
X114133834Y33583067D02*
X114278977Y33679829D01*
X114569262Y33679829D01*
X114714405Y33583067D01*
X114786977Y33486305D01*
X114859548Y33292781D01*
X114859548Y32712210D01*
X114786977Y32518686D01*
X114714405Y32421924D01*
X114569262Y32325162D01*
X114278977Y32325162D01*
X114133834Y32421924D01*
X115512691Y33679829D02*
X115512691Y31647829D01*
X115512691Y33583067D02*
X115657834Y33679829D01*
X115948120Y33679829D01*
X116093262Y33583067D01*
X116165834Y33486305D01*
X116238405Y33292781D01*
X116238405Y32712210D01*
X116165834Y32518686D01*
X116093262Y32421924D01*
X115948120Y32325162D01*
X115657834Y32325162D01*
X115512691Y32421924D01*
X117472120Y32421924D02*
X117326977Y32325162D01*
X117036691Y32325162D01*
X116891548Y32421924D01*
X116818977Y32615448D01*
X116818977Y33389543D01*
X116891548Y33583067D01*
X117036691Y33679829D01*
X117326977Y33679829D01*
X117472120Y33583067D01*
X117544691Y33389543D01*
X117544691Y33196020D01*
X116818977Y33002496D01*
X118197834Y32325162D02*
X118197834Y33679829D01*
X118197834Y33292781D02*
X118270405Y33486305D01*
X118342977Y33583067D01*
X118488120Y33679829D01*
X118633262Y33679829D01*
X91709262Y28972362D02*
X90838405Y28972362D01*
X91273834Y28972362D02*
X91273834Y31004362D01*
X91128691Y30714077D01*
X90983548Y30520553D01*
X90838405Y30423791D01*
X93523548Y28972362D02*
X93523548Y30327029D01*
X93523548Y30133505D02*
X93596120Y30230267D01*
X93741262Y30327029D01*
X93958977Y30327029D01*
X94104120Y30230267D01*
X94176691Y30036743D01*
X94176691Y28972362D01*
X94176691Y30036743D02*
X94249262Y30230267D01*
X94394405Y30327029D01*
X94612120Y30327029D01*
X94757262Y30230267D01*
X94829834Y30036743D01*
X94829834Y28972362D01*
X95555548Y28972362D02*
X95555548Y30327029D01*
X95555548Y31004362D02*
X95482977Y30907600D01*
X95555548Y30810839D01*
X95628120Y30907600D01*
X95555548Y31004362D01*
X95555548Y30810839D01*
X96498977Y28972362D02*
X96353834Y29069124D01*
X96281262Y29262648D01*
X96281262Y31004362D01*
X106296120Y29069124D02*
X106441262Y28972362D01*
X106731548Y28972362D01*
X106876691Y29069124D01*
X106949262Y29262648D01*
X106949262Y29359410D01*
X106876691Y29552934D01*
X106731548Y29649696D01*
X106513834Y29649696D01*
X106368691Y29746458D01*
X106296120Y29939981D01*
X106296120Y30036743D01*
X106368691Y30230267D01*
X106513834Y30327029D01*
X106731548Y30327029D01*
X106876691Y30230267D01*
X107820120Y28972362D02*
X107674977Y29069124D01*
X107602405Y29165886D01*
X107529834Y29359410D01*
X107529834Y29939981D01*
X107602405Y30133505D01*
X107674977Y30230267D01*
X107820120Y30327029D01*
X108037834Y30327029D01*
X108182977Y30230267D01*
X108255548Y30133505D01*
X108328120Y29939981D01*
X108328120Y29359410D01*
X108255548Y29165886D01*
X108182977Y29069124D01*
X108037834Y28972362D01*
X107820120Y28972362D01*
X109198977Y28972362D02*
X109053834Y29069124D01*
X108981262Y29262648D01*
X108981262Y31004362D01*
X110432691Y28972362D02*
X110432691Y31004362D01*
X110432691Y29069124D02*
X110287548Y28972362D01*
X109997262Y28972362D01*
X109852120Y29069124D01*
X109779548Y29165886D01*
X109706977Y29359410D01*
X109706977Y29939981D01*
X109779548Y30133505D01*
X109852120Y30230267D01*
X109997262Y30327029D01*
X110287548Y30327029D01*
X110432691Y30230267D01*
X111738977Y29069124D02*
X111593834Y28972362D01*
X111303548Y28972362D01*
X111158405Y29069124D01*
X111085834Y29262648D01*
X111085834Y30036743D01*
X111158405Y30230267D01*
X111303548Y30327029D01*
X111593834Y30327029D01*
X111738977Y30230267D01*
X111811548Y30036743D01*
X111811548Y29843220D01*
X111085834Y29649696D01*
X112464691Y28972362D02*
X112464691Y30327029D01*
X112464691Y29939981D02*
X112537262Y30133505D01*
X112609834Y30230267D01*
X112754977Y30327029D01*
X112900120Y30327029D01*
X114569262Y28972362D02*
X114569262Y30327029D01*
X114569262Y29939981D02*
X114641834Y30133505D01*
X114714405Y30230267D01*
X114859548Y30327029D01*
X115004691Y30327029D01*
X116093262Y29069124D02*
X115948120Y28972362D01*
X115657834Y28972362D01*
X115512691Y29069124D01*
X115440120Y29262648D01*
X115440120Y30036743D01*
X115512691Y30230267D01*
X115657834Y30327029D01*
X115948120Y30327029D01*
X116093262Y30230267D01*
X116165834Y30036743D01*
X116165834Y29843220D01*
X115440120Y29649696D01*
X116746405Y29069124D02*
X116891548Y28972362D01*
X117181834Y28972362D01*
X117326977Y29069124D01*
X117399548Y29262648D01*
X117399548Y29359410D01*
X117326977Y29552934D01*
X117181834Y29649696D01*
X116964120Y29649696D01*
X116818977Y29746458D01*
X116746405Y29939981D01*
X116746405Y30036743D01*
X116818977Y30230267D01*
X116964120Y30327029D01*
X117181834Y30327029D01*
X117326977Y30230267D01*
X118052691Y28972362D02*
X118052691Y30327029D01*
X118052691Y31004362D02*
X117980120Y30907600D01*
X118052691Y30810839D01*
X118125262Y30907600D01*
X118052691Y31004362D01*
X118052691Y30810839D01*
X118705834Y29069124D02*
X118850977Y28972362D01*
X119141262Y28972362D01*
X119286405Y29069124D01*
X119358977Y29262648D01*
X119358977Y29359410D01*
X119286405Y29552934D01*
X119141262Y29649696D01*
X118923548Y29649696D01*
X118778405Y29746458D01*
X118705834Y29939981D01*
X118705834Y30036743D01*
X118778405Y30230267D01*
X118923548Y30327029D01*
X119141262Y30327029D01*
X119286405Y30230267D01*
X119794405Y30327029D02*
X120374977Y30327029D01*
X120012120Y31004362D02*
X120012120Y29262648D01*
X120084691Y29069124D01*
X120229834Y28972362D01*
X120374977Y28972362D01*
X133655548Y29746458D02*
X134816691Y29746458D01*
X134236120Y28972362D02*
X134236120Y30520553D01*
X136630977Y31101124D02*
X135324691Y28488553D01*
X137138977Y29746458D02*
X138300120Y29746458D01*
X139316120Y31004362D02*
X139461262Y31004362D01*
X139606405Y30907600D01*
X139678977Y30810839D01*
X139751548Y30617315D01*
X139824120Y30230267D01*
X139824120Y29746458D01*
X139751548Y29359410D01*
X139678977Y29165886D01*
X139606405Y29069124D01*
X139461262Y28972362D01*
X139316120Y28972362D01*
X139170977Y29069124D01*
X139098405Y29165886D01*
X139025834Y29359410D01*
X138953262Y29746458D01*
X138953262Y30230267D01*
X139025834Y30617315D01*
X139098405Y30810839D01*
X139170977Y30907600D01*
X139316120Y31004362D01*
X140477262Y29165886D02*
X140549834Y29069124D01*
X140477262Y28972362D01*
X140404691Y29069124D01*
X140477262Y29165886D01*
X140477262Y28972362D01*
X141130405Y30810839D02*
X141202977Y30907600D01*
X141348120Y31004362D01*
X141710977Y31004362D01*
X141856120Y30907600D01*
X141928691Y30810839D01*
X142001262Y30617315D01*
X142001262Y30423791D01*
X141928691Y30133505D01*
X141057834Y28972362D01*
X142001262Y28972362D01*
X142654405Y28972362D02*
X142654405Y30327029D01*
X142654405Y30133505D02*
X142726977Y30230267D01*
X142872120Y30327029D01*
X143089834Y30327029D01*
X143234977Y30230267D01*
X143307548Y30036743D01*
X143307548Y28972362D01*
X143307548Y30036743D02*
X143380120Y30230267D01*
X143525262Y30327029D01*
X143742977Y30327029D01*
X143888120Y30230267D01*
X143960691Y30036743D01*
X143960691Y28972362D01*
X144686405Y28972362D02*
X144686405Y30327029D01*
X144686405Y31004362D02*
X144613834Y30907600D01*
X144686405Y30810839D01*
X144758977Y30907600D01*
X144686405Y31004362D01*
X144686405Y30810839D01*
X145629834Y28972362D02*
X145484691Y29069124D01*
X145412120Y29262648D01*
X145412120Y31004362D01*
X90910977Y22266762D02*
X90910977Y24298762D01*
X91781834Y22266762D01*
X91781834Y24298762D01*
X92725262Y22266762D02*
X92580120Y22363524D01*
X92507548Y22460286D01*
X92434977Y22653810D01*
X92434977Y23234381D01*
X92507548Y23427905D01*
X92580120Y23524667D01*
X92725262Y23621429D01*
X92942977Y23621429D01*
X93088120Y23524667D01*
X93160691Y23427905D01*
X93233262Y23234381D01*
X93233262Y22653810D01*
X93160691Y22460286D01*
X93088120Y22363524D01*
X92942977Y22266762D01*
X92725262Y22266762D01*
X95700691Y22363524D02*
X95555548Y22266762D01*
X95265262Y22266762D01*
X95120120Y22363524D01*
X95047548Y22460286D01*
X94974977Y22653810D01*
X94974977Y23234381D01*
X95047548Y23427905D01*
X95120120Y23524667D01*
X95265262Y23621429D01*
X95555548Y23621429D01*
X95700691Y23524667D01*
X96571548Y22266762D02*
X96426405Y22363524D01*
X96353834Y22460286D01*
X96281262Y22653810D01*
X96281262Y23234381D01*
X96353834Y23427905D01*
X96426405Y23524667D01*
X96571548Y23621429D01*
X96789262Y23621429D01*
X96934405Y23524667D01*
X97006977Y23427905D01*
X97079548Y23234381D01*
X97079548Y22653810D01*
X97006977Y22460286D01*
X96934405Y22363524D01*
X96789262Y22266762D01*
X96571548Y22266762D01*
X97732691Y23621429D02*
X97732691Y21589429D01*
X97732691Y23524667D02*
X97877834Y23621429D01*
X98168120Y23621429D01*
X98313262Y23524667D01*
X98385834Y23427905D01*
X98458405Y23234381D01*
X98458405Y22653810D01*
X98385834Y22460286D01*
X98313262Y22363524D01*
X98168120Y22266762D01*
X97877834Y22266762D01*
X97732691Y22363524D01*
X99111548Y23621429D02*
X99111548Y21589429D01*
X99111548Y23524667D02*
X99256691Y23621429D01*
X99546977Y23621429D01*
X99692120Y23524667D01*
X99764691Y23427905D01*
X99837262Y23234381D01*
X99837262Y22653810D01*
X99764691Y22460286D01*
X99692120Y22363524D01*
X99546977Y22266762D01*
X99256691Y22266762D01*
X99111548Y22363524D01*
X101070977Y22363524D02*
X100925834Y22266762D01*
X100635548Y22266762D01*
X100490405Y22363524D01*
X100417834Y22557048D01*
X100417834Y23331143D01*
X100490405Y23524667D01*
X100635548Y23621429D01*
X100925834Y23621429D01*
X101070977Y23524667D01*
X101143548Y23331143D01*
X101143548Y23137620D01*
X100417834Y22944096D01*
X101796691Y22266762D02*
X101796691Y23621429D01*
X101796691Y23234381D02*
X101869262Y23427905D01*
X101941834Y23524667D01*
X102086977Y23621429D01*
X102232120Y23621429D01*
X103683548Y23621429D02*
X104264120Y23621429D01*
X103901262Y24298762D02*
X103901262Y22557048D01*
X103973834Y22363524D01*
X104118977Y22266762D01*
X104264120Y22266762D01*
X104772120Y22266762D02*
X104772120Y24298762D01*
X105425262Y22266762D02*
X105425262Y23331143D01*
X105352691Y23524667D01*
X105207548Y23621429D01*
X104989834Y23621429D01*
X104844691Y23524667D01*
X104772120Y23427905D01*
X106150977Y22266762D02*
X106150977Y23621429D01*
X106150977Y24298762D02*
X106078405Y24202000D01*
X106150977Y24105239D01*
X106223548Y24202000D01*
X106150977Y24298762D01*
X106150977Y24105239D01*
X107457262Y22363524D02*
X107312120Y22266762D01*
X107021834Y22266762D01*
X106876691Y22363524D01*
X106804120Y22557048D01*
X106804120Y23331143D01*
X106876691Y23524667D01*
X107021834Y23621429D01*
X107312120Y23621429D01*
X107457262Y23524667D01*
X107529834Y23331143D01*
X107529834Y23137620D01*
X106804120Y22944096D01*
X108037834Y23621429D02*
X108400691Y22266762D01*
X108763548Y23621429D01*
X109344120Y22266762D02*
X109344120Y23621429D01*
X109344120Y24298762D02*
X109271548Y24202000D01*
X109344120Y24105239D01*
X109416691Y24202000D01*
X109344120Y24298762D01*
X109344120Y24105239D01*
X110069834Y23621429D02*
X110069834Y22266762D01*
X110069834Y23427905D02*
X110142405Y23524667D01*
X110287548Y23621429D01*
X110505262Y23621429D01*
X110650405Y23524667D01*
X110722977Y23331143D01*
X110722977Y22266762D01*
X112101834Y23621429D02*
X112101834Y21976477D01*
X112029262Y21782953D01*
X111956691Y21686191D01*
X111811548Y21589429D01*
X111593834Y21589429D01*
X111448691Y21686191D01*
X112101834Y22363524D02*
X111956691Y22266762D01*
X111666405Y22266762D01*
X111521262Y22363524D01*
X111448691Y22460286D01*
X111376120Y22653810D01*
X111376120Y23234381D01*
X111448691Y23427905D01*
X111521262Y23524667D01*
X111666405Y23621429D01*
X111956691Y23621429D01*
X112101834Y23524667D01*
X114206405Y22266762D02*
X114061262Y22363524D01*
X113988691Y22460286D01*
X113916120Y22653810D01*
X113916120Y23234381D01*
X113988691Y23427905D01*
X114061262Y23524667D01*
X114206405Y23621429D01*
X114424120Y23621429D01*
X114569262Y23524667D01*
X114641834Y23427905D01*
X114714405Y23234381D01*
X114714405Y22653810D01*
X114641834Y22460286D01*
X114569262Y22363524D01*
X114424120Y22266762D01*
X114206405Y22266762D01*
X115367548Y23621429D02*
X115367548Y22266762D01*
X115367548Y23427905D02*
X115440120Y23524667D01*
X115585262Y23621429D01*
X115802977Y23621429D01*
X115948120Y23524667D01*
X116020691Y23331143D01*
X116020691Y22266762D01*
X118560691Y22266762D02*
X118560691Y23331143D01*
X118488120Y23524667D01*
X118342977Y23621429D01*
X118052691Y23621429D01*
X117907548Y23524667D01*
X118560691Y22363524D02*
X118415548Y22266762D01*
X118052691Y22266762D01*
X117907548Y22363524D01*
X117834977Y22557048D01*
X117834977Y22750572D01*
X117907548Y22944096D01*
X118052691Y23040858D01*
X118415548Y23040858D01*
X118560691Y23137620D01*
X119286405Y23621429D02*
X119286405Y22266762D01*
X119286405Y23427905D02*
X119358977Y23524667D01*
X119504120Y23621429D01*
X119721834Y23621429D01*
X119866977Y23524667D01*
X119939548Y23331143D01*
X119939548Y22266762D01*
X120520120Y23621429D02*
X120882977Y22266762D01*
X121245834Y23621429D02*
X120882977Y22266762D01*
X120737834Y21782953D01*
X120665262Y21686191D01*
X120520120Y21589429D01*
X123205262Y22266762D02*
X123060120Y22363524D01*
X122987548Y22557048D01*
X122987548Y24298762D01*
X124438977Y22266762D02*
X124438977Y23331143D01*
X124366405Y23524667D01*
X124221262Y23621429D01*
X123930977Y23621429D01*
X123785834Y23524667D01*
X124438977Y22363524D02*
X124293834Y22266762D01*
X123930977Y22266762D01*
X123785834Y22363524D01*
X123713262Y22557048D01*
X123713262Y22750572D01*
X123785834Y22944096D01*
X123930977Y23040858D01*
X124293834Y23040858D01*
X124438977Y23137620D01*
X125019548Y23621429D02*
X125382405Y22266762D01*
X125745262Y23621429D02*
X125382405Y22266762D01*
X125237262Y21782953D01*
X125164691Y21686191D01*
X125019548Y21589429D01*
X126906405Y22363524D02*
X126761262Y22266762D01*
X126470977Y22266762D01*
X126325834Y22363524D01*
X126253262Y22557048D01*
X126253262Y23331143D01*
X126325834Y23524667D01*
X126470977Y23621429D01*
X126761262Y23621429D01*
X126906405Y23524667D01*
X126978977Y23331143D01*
X126978977Y23137620D01*
X126253262Y22944096D01*
X127632120Y22266762D02*
X127632120Y23621429D01*
X127632120Y23234381D02*
X127704691Y23427905D01*
X127777262Y23524667D01*
X127922405Y23621429D01*
X128067548Y23621429D01*
X128575548Y22460286D02*
X128648120Y22363524D01*
X128575548Y22266762D01*
X128502977Y22363524D01*
X128575548Y22460286D01*
X128575548Y22266762D01*
X90910977Y18913962D02*
X90910977Y20945962D01*
X91781834Y18913962D01*
X91781834Y20945962D01*
X92725262Y18913962D02*
X92580120Y19010724D01*
X92507548Y19107486D01*
X92434977Y19301010D01*
X92434977Y19881581D01*
X92507548Y20075105D01*
X92580120Y20171867D01*
X92725262Y20268629D01*
X92942977Y20268629D01*
X93088120Y20171867D01*
X93160691Y20075105D01*
X93233262Y19881581D01*
X93233262Y19301010D01*
X93160691Y19107486D01*
X93088120Y19010724D01*
X92942977Y18913962D01*
X92725262Y18913962D01*
X93668691Y20268629D02*
X94249262Y20268629D01*
X93886405Y20945962D02*
X93886405Y19204248D01*
X93958977Y19010724D01*
X94104120Y18913962D01*
X94249262Y18913962D01*
X95337834Y19010724D02*
X95192691Y18913962D01*
X94902405Y18913962D01*
X94757262Y19010724D01*
X94684691Y19204248D01*
X94684691Y19978343D01*
X94757262Y20171867D01*
X94902405Y20268629D01*
X95192691Y20268629D01*
X95337834Y20171867D01*
X95410405Y19978343D01*
X95410405Y19784820D01*
X94684691Y19591296D01*
X97152120Y19010724D02*
X97297262Y18913962D01*
X97587548Y18913962D01*
X97732691Y19010724D01*
X97805262Y19204248D01*
X97805262Y19301010D01*
X97732691Y19494534D01*
X97587548Y19591296D01*
X97369834Y19591296D01*
X97224691Y19688058D01*
X97152120Y19881581D01*
X97152120Y19978343D01*
X97224691Y20171867D01*
X97369834Y20268629D01*
X97587548Y20268629D01*
X97732691Y20171867D01*
X98458405Y20268629D02*
X98458405Y18236629D01*
X98458405Y20171867D02*
X98603548Y20268629D01*
X98893834Y20268629D01*
X99038977Y20171867D01*
X99111548Y20075105D01*
X99184120Y19881581D01*
X99184120Y19301010D01*
X99111548Y19107486D01*
X99038977Y19010724D01*
X98893834Y18913962D01*
X98603548Y18913962D01*
X98458405Y19010724D01*
X100054977Y18913962D02*
X99909834Y19010724D01*
X99837262Y19204248D01*
X99837262Y20945962D01*
X100635548Y18913962D02*
X100635548Y20268629D01*
X100635548Y20945962D02*
X100562977Y20849200D01*
X100635548Y20752439D01*
X100708120Y20849200D01*
X100635548Y20945962D01*
X100635548Y20752439D01*
X101143548Y20268629D02*
X101724120Y20268629D01*
X101361262Y20945962D02*
X101361262Y19204248D01*
X101433834Y19010724D01*
X101578977Y18913962D01*
X101724120Y18913962D01*
X103393262Y20268629D02*
X103393262Y18236629D01*
X103393262Y20171867D02*
X103538405Y20268629D01*
X103828691Y20268629D01*
X103973834Y20171867D01*
X104046405Y20075105D01*
X104118977Y19881581D01*
X104118977Y19301010D01*
X104046405Y19107486D01*
X103973834Y19010724D01*
X103828691Y18913962D01*
X103538405Y18913962D01*
X103393262Y19010724D01*
X104989834Y18913962D02*
X104844691Y19010724D01*
X104772120Y19204248D01*
X104772120Y20945962D01*
X106223548Y18913962D02*
X106223548Y19978343D01*
X106150977Y20171867D01*
X106005834Y20268629D01*
X105715548Y20268629D01*
X105570405Y20171867D01*
X106223548Y19010724D02*
X106078405Y18913962D01*
X105715548Y18913962D01*
X105570405Y19010724D01*
X105497834Y19204248D01*
X105497834Y19397772D01*
X105570405Y19591296D01*
X105715548Y19688058D01*
X106078405Y19688058D01*
X106223548Y19784820D01*
X106949262Y20268629D02*
X106949262Y18913962D01*
X106949262Y20075105D02*
X107021834Y20171867D01*
X107166977Y20268629D01*
X107384691Y20268629D01*
X107529834Y20171867D01*
X107602405Y19978343D01*
X107602405Y18913962D01*
X108908691Y19010724D02*
X108763548Y18913962D01*
X108473262Y18913962D01*
X108328120Y19010724D01*
X108255548Y19204248D01*
X108255548Y19978343D01*
X108328120Y20171867D01*
X108473262Y20268629D01*
X108763548Y20268629D01*
X108908691Y20171867D01*
X108981262Y19978343D01*
X108981262Y19784820D01*
X108255548Y19591296D01*
X111013262Y18913962D02*
X110868120Y19010724D01*
X110795548Y19107486D01*
X110722977Y19301010D01*
X110722977Y19881581D01*
X110795548Y20075105D01*
X110868120Y20171867D01*
X111013262Y20268629D01*
X111230977Y20268629D01*
X111376120Y20171867D01*
X111448691Y20075105D01*
X111521262Y19881581D01*
X111521262Y19301010D01*
X111448691Y19107486D01*
X111376120Y19010724D01*
X111230977Y18913962D01*
X111013262Y18913962D01*
X112174405Y20268629D02*
X112174405Y18913962D01*
X112174405Y20075105D02*
X112246977Y20171867D01*
X112392120Y20268629D01*
X112609834Y20268629D01*
X112754977Y20171867D01*
X112827548Y19978343D01*
X112827548Y18913962D01*
X114932120Y18913962D02*
X114786977Y19010724D01*
X114714405Y19204248D01*
X114714405Y20945962D01*
X116165834Y18913962D02*
X116165834Y19978343D01*
X116093262Y20171867D01*
X115948120Y20268629D01*
X115657834Y20268629D01*
X115512691Y20171867D01*
X116165834Y19010724D02*
X116020691Y18913962D01*
X115657834Y18913962D01*
X115512691Y19010724D01*
X115440120Y19204248D01*
X115440120Y19397772D01*
X115512691Y19591296D01*
X115657834Y19688058D01*
X116020691Y19688058D01*
X116165834Y19784820D01*
X116746405Y20268629D02*
X117109262Y18913962D01*
X117472120Y20268629D02*
X117109262Y18913962D01*
X116964120Y18430153D01*
X116891548Y18333391D01*
X116746405Y18236629D01*
X118633262Y19010724D02*
X118488120Y18913962D01*
X118197834Y18913962D01*
X118052691Y19010724D01*
X117980120Y19204248D01*
X117980120Y19978343D01*
X118052691Y20171867D01*
X118197834Y20268629D01*
X118488120Y20268629D01*
X118633262Y20171867D01*
X118705834Y19978343D01*
X118705834Y19784820D01*
X117980120Y19591296D01*
X119358977Y18913962D02*
X119358977Y20268629D01*
X119358977Y19881581D02*
X119431548Y20075105D01*
X119504120Y20171867D01*
X119649262Y20268629D01*
X119794405Y20268629D01*
X121318405Y20945962D02*
X122261834Y20945962D01*
X121753834Y20171867D01*
X121971548Y20171867D01*
X122116691Y20075105D01*
X122189262Y19978343D01*
X122261834Y19784820D01*
X122261834Y19301010D01*
X122189262Y19107486D01*
X122116691Y19010724D01*
X121971548Y18913962D01*
X121536120Y18913962D01*
X121390977Y19010724D01*
X121318405Y19107486D01*
X122914977Y19107486D02*
X122987548Y19010724D01*
X122914977Y18913962D01*
X122842405Y19010724D01*
X122914977Y19107486D01*
X122914977Y18913962D01*
D12*
G04 #@! TO.C,MK1*
X7200000Y26000000D02*
G75*
G03X7200000Y26000000I-3200000J0D01*
G01*
G04 #@! TO.C,MK2*
X7200000Y4000000D02*
G75*
G03X7200000Y4000000I-3200000J0D01*
G01*
G04 #@! TD*
M02*
